<?xml version="1.0" encoding="utf-8" standalone="no"?>
<!DOCTYPE svg PUBLIC "-//W3C//DTD SVG 1.1//EN"
  "http://www.w3.org/Graphics/SVG/1.1/DTD/svg11.dtd">
<svg xmlns:xlink="http://www.w3.org/1999/xlink" width="460.8pt" height="321.36pt" viewBox="0 0 460.8 321.36" xmlns="http://www.w3.org/2000/svg" version="1.1">
 <metadata>
  <rdf:RDF xmlns:dc="http://purl.org/dc/elements/1.1/" xmlns:cc="http://creativecommons.org/ns#" xmlns:rdf="http://www.w3.org/1999/02/22-rdf-syntax-ns#">
   <cc:Work>
    <dc:type rdf:resource="http://purl.org/dc/dcmitype/StillImage"/>
    <dc:date>2023-10-13T12:24:41.856247</dc:date>
    <dc:format>image/svg+xml</dc:format>
    <dc:creator>
     <cc:Agent>
      <dc:title>Matplotlib v3.7.1, https://matplotlib.org/</dc:title>
     </cc:Agent>
    </dc:creator>
   </cc:Work>
  </rdf:RDF>
 </metadata>
 <defs>
  <style type="text/css">*{stroke-linejoin: round; stroke-linecap: butt}</style>
 </defs>
 <g id="figure_1">
  <g id="patch_1">
   <path d="M 0 321.36 
L 460.8 321.36 
L 460.8 0 
L 0 0 
z
" style="fill: #ffffff"/>
  </g>
  <g id="axes_1">
   <g id="patch_2">
    <path d="M 57.6 286.0104 
L 414.72 286.0104 
L 414.72 38.5632 
L 57.6 38.5632 
z
" style="fill: #ffffff"/>
   </g>
   <g id="matplotlib.axis_1">
    <g id="xtick_1">
     <g id="line2d_1">
      <defs>
       <path id="md8625a90b7" d="M 0 0 
L 0 3.5 
" style="stroke: #000000; stroke-width: 0.8"/>
      </defs>
      <g>
       <use xlink:href="#md8625a90b7" x="57.6" y="286.0104" style="stroke: #000000; stroke-width: 0.8"/>
      </g>
     </g>
     <g id="text_1">
      <!-- ${\Gamma}$ -->
      <g transform="translate(54.8 300.608837) scale(0.1 -0.1)">
       <defs>
        <path id="DejaVuSans-393" d="M 628 0 
L 628 4666 
L 3531 4666 
L 3531 4134 
L 1259 4134 
L 1259 0 
L 628 0 
z
" transform="scale(0.015625)"/>
       </defs>
       <use xlink:href="#DejaVuSans-393" transform="translate(0 0.09375)"/>
      </g>
     </g>
    </g>
    <g id="xtick_2">
     <g id="line2d_2">
      <g>
       <use xlink:href="#md8625a90b7" x="188.314991" y="286.0104" style="stroke: #000000; stroke-width: 0.8"/>
      </g>
     </g>
     <g id="text_2">
      <!-- M -->
      <g transform="translate(184.000929 300.608837) scale(0.1 -0.1)">
       <defs>
        <path id="DejaVuSans-4d" d="M 628 4666 
L 1569 4666 
L 2759 1491 
L 3956 4666 
L 4897 4666 
L 4897 0 
L 4281 0 
L 4281 4097 
L 3078 897 
L 2444 897 
L 1241 4097 
L 1241 0 
L 628 0 
L 628 4666 
z
" transform="scale(0.015625)"/>
       </defs>
       <use xlink:href="#DejaVuSans-4d"/>
      </g>
     </g>
    </g>
    <g id="xtick_3">
     <g id="line2d_3">
      <g>
       <use xlink:href="#md8625a90b7" x="263.775781" y="286.0104" style="stroke: #000000; stroke-width: 0.8"/>
      </g>
     </g>
     <g id="text_3">
      <!-- K -->
      <g transform="translate(260.496875 300.608837) scale(0.1 -0.1)">
       <defs>
        <path id="DejaVuSans-4b" d="M 628 4666 
L 1259 4666 
L 1259 2694 
L 3353 4666 
L 4166 4666 
L 1850 2491 
L 4331 0 
L 3500 0 
L 1259 2247 
L 1259 0 
L 628 0 
L 628 4666 
z
" transform="scale(0.015625)"/>
       </defs>
       <use xlink:href="#DejaVuSans-4b"/>
      </g>
     </g>
    </g>
    <g id="xtick_4">
     <g id="line2d_4">
      <g>
       <use xlink:href="#md8625a90b7" x="414.72" y="286.0104" style="stroke: #000000; stroke-width: 0.8"/>
      </g>
     </g>
     <g id="text_4">
      <!-- ${\Gamma}$ -->
      <g transform="translate(411.92 300.608837) scale(0.1 -0.1)">
       <use xlink:href="#DejaVuSans-393" transform="translate(0 0.09375)"/>
      </g>
     </g>
    </g>
   </g>
   <g id="matplotlib.axis_2">
    <g id="ytick_1">
     <g id="line2d_5">
      <defs>
       <path id="m4a9c42c441" d="M 0 0 
L -3.5 0 
" style="stroke: #000000; stroke-width: 0.8"/>
      </defs>
      <g>
       <use xlink:href="#m4a9c42c441" x="57.6" y="261.491896" style="stroke: #000000; stroke-width: 0.8"/>
      </g>
     </g>
     <g id="text_5">
      <!-- 0.0 -->
      <g transform="translate(34.696875 265.291115) scale(0.1 -0.1)">
       <defs>
        <path id="DejaVuSans-30" d="M 2034 4250 
Q 1547 4250 1301 3770 
Q 1056 3291 1056 2328 
Q 1056 1369 1301 889 
Q 1547 409 2034 409 
Q 2525 409 2770 889 
Q 3016 1369 3016 2328 
Q 3016 3291 2770 3770 
Q 2525 4250 2034 4250 
z
M 2034 4750 
Q 2819 4750 3233 4129 
Q 3647 3509 3647 2328 
Q 3647 1150 3233 529 
Q 2819 -91 2034 -91 
Q 1250 -91 836 529 
Q 422 1150 422 2328 
Q 422 3509 836 4129 
Q 1250 4750 2034 4750 
z
" transform="scale(0.015625)"/>
        <path id="DejaVuSans-2e" d="M 684 794 
L 1344 794 
L 1344 0 
L 684 0 
L 684 794 
z
" transform="scale(0.015625)"/>
       </defs>
       <use xlink:href="#DejaVuSans-30"/>
       <use xlink:href="#DejaVuSans-2e" x="63.623047"/>
       <use xlink:href="#DejaVuSans-30" x="95.410156"/>
      </g>
     </g>
    </g>
    <g id="ytick_2">
     <g id="line2d_6">
      <g>
       <use xlink:href="#m4a9c42c441" x="57.6" y="224.902659" style="stroke: #000000; stroke-width: 0.8"/>
      </g>
     </g>
     <g id="text_6">
      <!-- 0.5 -->
      <g transform="translate(34.696875 228.701878) scale(0.1 -0.1)">
       <defs>
        <path id="DejaVuSans-35" d="M 691 4666 
L 3169 4666 
L 3169 4134 
L 1269 4134 
L 1269 2991 
Q 1406 3038 1543 3061 
Q 1681 3084 1819 3084 
Q 2600 3084 3056 2656 
Q 3513 2228 3513 1497 
Q 3513 744 3044 326 
Q 2575 -91 1722 -91 
Q 1428 -91 1123 -41 
Q 819 9 494 109 
L 494 744 
Q 775 591 1075 516 
Q 1375 441 1709 441 
Q 2250 441 2565 725 
Q 2881 1009 2881 1497 
Q 2881 1984 2565 2268 
Q 2250 2553 1709 2553 
Q 1456 2553 1204 2497 
Q 953 2441 691 2322 
L 691 4666 
z
" transform="scale(0.015625)"/>
       </defs>
       <use xlink:href="#DejaVuSans-30"/>
       <use xlink:href="#DejaVuSans-2e" x="63.623047"/>
       <use xlink:href="#DejaVuSans-35" x="95.410156"/>
      </g>
     </g>
    </g>
    <g id="ytick_3">
     <g id="line2d_7">
      <g>
       <use xlink:href="#m4a9c42c441" x="57.6" y="188.313422" style="stroke: #000000; stroke-width: 0.8"/>
      </g>
     </g>
     <g id="text_7">
      <!-- 1.0 -->
      <g transform="translate(34.696875 192.11264) scale(0.1 -0.1)">
       <defs>
        <path id="DejaVuSans-31" d="M 794 531 
L 1825 531 
L 1825 4091 
L 703 3866 
L 703 4441 
L 1819 4666 
L 2450 4666 
L 2450 531 
L 3481 531 
L 3481 0 
L 794 0 
L 794 531 
z
" transform="scale(0.015625)"/>
       </defs>
       <use xlink:href="#DejaVuSans-31"/>
       <use xlink:href="#DejaVuSans-2e" x="63.623047"/>
       <use xlink:href="#DejaVuSans-30" x="95.410156"/>
      </g>
     </g>
    </g>
    <g id="ytick_4">
     <g id="line2d_8">
      <g>
       <use xlink:href="#m4a9c42c441" x="57.6" y="151.724184" style="stroke: #000000; stroke-width: 0.8"/>
      </g>
     </g>
     <g id="text_8">
      <!-- 1.5 -->
      <g transform="translate(34.696875 155.523403) scale(0.1 -0.1)">
       <use xlink:href="#DejaVuSans-31"/>
       <use xlink:href="#DejaVuSans-2e" x="63.623047"/>
       <use xlink:href="#DejaVuSans-35" x="95.410156"/>
      </g>
     </g>
    </g>
    <g id="ytick_5">
     <g id="line2d_9">
      <g>
       <use xlink:href="#m4a9c42c441" x="57.6" y="115.134947" style="stroke: #000000; stroke-width: 0.8"/>
      </g>
     </g>
     <g id="text_9">
      <!-- 2.0 -->
      <g transform="translate(34.696875 118.934166) scale(0.1 -0.1)">
       <defs>
        <path id="DejaVuSans-32" d="M 1228 531 
L 3431 531 
L 3431 0 
L 469 0 
L 469 531 
Q 828 903 1448 1529 
Q 2069 2156 2228 2338 
Q 2531 2678 2651 2914 
Q 2772 3150 2772 3378 
Q 2772 3750 2511 3984 
Q 2250 4219 1831 4219 
Q 1534 4219 1204 4116 
Q 875 4013 500 3803 
L 500 4441 
Q 881 4594 1212 4672 
Q 1544 4750 1819 4750 
Q 2544 4750 2975 4387 
Q 3406 4025 3406 3419 
Q 3406 3131 3298 2873 
Q 3191 2616 2906 2266 
Q 2828 2175 2409 1742 
Q 1991 1309 1228 531 
z
" transform="scale(0.015625)"/>
       </defs>
       <use xlink:href="#DejaVuSans-32"/>
       <use xlink:href="#DejaVuSans-2e" x="63.623047"/>
       <use xlink:href="#DejaVuSans-30" x="95.410156"/>
      </g>
     </g>
    </g>
    <g id="ytick_6">
     <g id="line2d_10">
      <g>
       <use xlink:href="#m4a9c42c441" x="57.6" y="78.54571" style="stroke: #000000; stroke-width: 0.8"/>
      </g>
     </g>
     <g id="text_10">
      <!-- 2.5 -->
      <g transform="translate(34.696875 82.344929) scale(0.1 -0.1)">
       <use xlink:href="#DejaVuSans-32"/>
       <use xlink:href="#DejaVuSans-2e" x="63.623047"/>
       <use xlink:href="#DejaVuSans-35" x="95.410156"/>
      </g>
     </g>
    </g>
    <g id="ytick_7">
     <g id="line2d_11">
      <g>
       <use xlink:href="#m4a9c42c441" x="57.6" y="41.956473" style="stroke: #000000; stroke-width: 0.8"/>
      </g>
     </g>
     <g id="text_11">
      <!-- 3.0 -->
      <g transform="translate(34.696875 45.755691) scale(0.1 -0.1)">
       <defs>
        <path id="DejaVuSans-33" d="M 2597 2516 
Q 3050 2419 3304 2112 
Q 3559 1806 3559 1356 
Q 3559 666 3084 287 
Q 2609 -91 1734 -91 
Q 1441 -91 1130 -33 
Q 819 25 488 141 
L 488 750 
Q 750 597 1062 519 
Q 1375 441 1716 441 
Q 2309 441 2620 675 
Q 2931 909 2931 1356 
Q 2931 1769 2642 2001 
Q 2353 2234 1838 2234 
L 1294 2234 
L 1294 2753 
L 1863 2753 
Q 2328 2753 2575 2939 
Q 2822 3125 2822 3475 
Q 2822 3834 2567 4026 
Q 2313 4219 1838 4219 
Q 1578 4219 1281 4162 
Q 984 4106 628 3988 
L 628 4550 
Q 988 4650 1302 4700 
Q 1616 4750 1894 4750 
Q 2613 4750 3031 4423 
Q 3450 4097 3450 3541 
Q 3450 3153 3228 2886 
Q 3006 2619 2597 2516 
z
" transform="scale(0.015625)"/>
       </defs>
       <use xlink:href="#DejaVuSans-33"/>
       <use xlink:href="#DejaVuSans-2e" x="63.623047"/>
       <use xlink:href="#DejaVuSans-30" x="95.410156"/>
      </g>
     </g>
    </g>
    <g id="text_12">
     <!-- Berry Curvature -->
     <g transform="translate(28.617187 202.253206) rotate(-90) scale(0.1 -0.1)">
      <defs>
       <path id="DejaVuSans-42" d="M 1259 2228 
L 1259 519 
L 2272 519 
Q 2781 519 3026 730 
Q 3272 941 3272 1375 
Q 3272 1813 3026 2020 
Q 2781 2228 2272 2228 
L 1259 2228 
z
M 1259 4147 
L 1259 2741 
L 2194 2741 
Q 2656 2741 2882 2914 
Q 3109 3088 3109 3444 
Q 3109 3797 2882 3972 
Q 2656 4147 2194 4147 
L 1259 4147 
z
M 628 4666 
L 2241 4666 
Q 2963 4666 3353 4366 
Q 3744 4066 3744 3513 
Q 3744 3084 3544 2831 
Q 3344 2578 2956 2516 
Q 3422 2416 3680 2098 
Q 3938 1781 3938 1306 
Q 3938 681 3513 340 
Q 3088 0 2303 0 
L 628 0 
L 628 4666 
z
" transform="scale(0.015625)"/>
       <path id="DejaVuSans-65" d="M 3597 1894 
L 3597 1613 
L 953 1613 
Q 991 1019 1311 708 
Q 1631 397 2203 397 
Q 2534 397 2845 478 
Q 3156 559 3463 722 
L 3463 178 
Q 3153 47 2828 -22 
Q 2503 -91 2169 -91 
Q 1331 -91 842 396 
Q 353 884 353 1716 
Q 353 2575 817 3079 
Q 1281 3584 2069 3584 
Q 2775 3584 3186 3129 
Q 3597 2675 3597 1894 
z
M 3022 2063 
Q 3016 2534 2758 2815 
Q 2500 3097 2075 3097 
Q 1594 3097 1305 2825 
Q 1016 2553 972 2059 
L 3022 2063 
z
" transform="scale(0.015625)"/>
       <path id="DejaVuSans-72" d="M 2631 2963 
Q 2534 3019 2420 3045 
Q 2306 3072 2169 3072 
Q 1681 3072 1420 2755 
Q 1159 2438 1159 1844 
L 1159 0 
L 581 0 
L 581 3500 
L 1159 3500 
L 1159 2956 
Q 1341 3275 1631 3429 
Q 1922 3584 2338 3584 
Q 2397 3584 2469 3576 
Q 2541 3569 2628 3553 
L 2631 2963 
z
" transform="scale(0.015625)"/>
       <path id="DejaVuSans-79" d="M 2059 -325 
Q 1816 -950 1584 -1140 
Q 1353 -1331 966 -1331 
L 506 -1331 
L 506 -850 
L 844 -850 
Q 1081 -850 1212 -737 
Q 1344 -625 1503 -206 
L 1606 56 
L 191 3500 
L 800 3500 
L 1894 763 
L 2988 3500 
L 3597 3500 
L 2059 -325 
z
" transform="scale(0.015625)"/>
       <path id="DejaVuSans-20" transform="scale(0.015625)"/>
       <path id="DejaVuSans-43" d="M 4122 4306 
L 4122 3641 
Q 3803 3938 3442 4084 
Q 3081 4231 2675 4231 
Q 1875 4231 1450 3742 
Q 1025 3253 1025 2328 
Q 1025 1406 1450 917 
Q 1875 428 2675 428 
Q 3081 428 3442 575 
Q 3803 722 4122 1019 
L 4122 359 
Q 3791 134 3420 21 
Q 3050 -91 2638 -91 
Q 1578 -91 968 557 
Q 359 1206 359 2328 
Q 359 3453 968 4101 
Q 1578 4750 2638 4750 
Q 3056 4750 3426 4639 
Q 3797 4528 4122 4306 
z
" transform="scale(0.015625)"/>
       <path id="DejaVuSans-75" d="M 544 1381 
L 544 3500 
L 1119 3500 
L 1119 1403 
Q 1119 906 1312 657 
Q 1506 409 1894 409 
Q 2359 409 2629 706 
Q 2900 1003 2900 1516 
L 2900 3500 
L 3475 3500 
L 3475 0 
L 2900 0 
L 2900 538 
Q 2691 219 2414 64 
Q 2138 -91 1772 -91 
Q 1169 -91 856 284 
Q 544 659 544 1381 
z
M 1991 3584 
L 1991 3584 
z
" transform="scale(0.015625)"/>
       <path id="DejaVuSans-76" d="M 191 3500 
L 800 3500 
L 1894 563 
L 2988 3500 
L 3597 3500 
L 2284 0 
L 1503 0 
L 191 3500 
z
" transform="scale(0.015625)"/>
       <path id="DejaVuSans-61" d="M 2194 1759 
Q 1497 1759 1228 1600 
Q 959 1441 959 1056 
Q 959 750 1161 570 
Q 1363 391 1709 391 
Q 2188 391 2477 730 
Q 2766 1069 2766 1631 
L 2766 1759 
L 2194 1759 
z
M 3341 1997 
L 3341 0 
L 2766 0 
L 2766 531 
Q 2569 213 2275 61 
Q 1981 -91 1556 -91 
Q 1019 -91 701 211 
Q 384 513 384 1019 
Q 384 1609 779 1909 
Q 1175 2209 1959 2209 
L 2766 2209 
L 2766 2266 
Q 2766 2663 2505 2880 
Q 2244 3097 1772 3097 
Q 1472 3097 1187 3025 
Q 903 2953 641 2809 
L 641 3341 
Q 956 3463 1253 3523 
Q 1550 3584 1831 3584 
Q 2591 3584 2966 3190 
Q 3341 2797 3341 1997 
z
" transform="scale(0.015625)"/>
       <path id="DejaVuSans-74" d="M 1172 4494 
L 1172 3500 
L 2356 3500 
L 2356 3053 
L 1172 3053 
L 1172 1153 
Q 1172 725 1289 603 
Q 1406 481 1766 481 
L 2356 481 
L 2356 0 
L 1766 0 
Q 1100 0 847 248 
Q 594 497 594 1153 
L 594 3053 
L 172 3053 
L 172 3500 
L 594 3500 
L 594 4494 
L 1172 4494 
z
" transform="scale(0.015625)"/>
      </defs>
      <use xlink:href="#DejaVuSans-42"/>
      <use xlink:href="#DejaVuSans-65" x="68.603516"/>
      <use xlink:href="#DejaVuSans-72" x="130.126953"/>
      <use xlink:href="#DejaVuSans-72" x="169.490234"/>
      <use xlink:href="#DejaVuSans-79" x="210.603516"/>
      <use xlink:href="#DejaVuSans-20" x="269.783203"/>
      <use xlink:href="#DejaVuSans-43" x="301.570312"/>
      <use xlink:href="#DejaVuSans-75" x="371.394531"/>
      <use xlink:href="#DejaVuSans-72" x="434.773438"/>
      <use xlink:href="#DejaVuSans-76" x="475.886719"/>
      <use xlink:href="#DejaVuSans-61" x="535.066406"/>
      <use xlink:href="#DejaVuSans-74" x="596.345703"/>
      <use xlink:href="#DejaVuSans-75" x="635.554688"/>
      <use xlink:href="#DejaVuSans-72" x="698.933594"/>
      <use xlink:href="#DejaVuSans-65" x="737.796875"/>
     </g>
    </g>
   </g>
   <g id="line2d_12">
    <path d="M 57.6 286.0104 
L 57.6 38.5632 
" clip-path="url(#p1b88750052)" style="fill: none; stroke-dasharray: 5.55,2.4; stroke-dashoffset: 0; stroke: #808080; stroke-width: 1.5"/>
   </g>
   <g id="line2d_13">
    <path d="M 188.314991 286.0104 
L 188.314991 38.5632 
" clip-path="url(#p1b88750052)" style="fill: none; stroke-dasharray: 5.55,2.4; stroke-dashoffset: 0; stroke: #808080; stroke-width: 1.5"/>
   </g>
   <g id="line2d_14">
    <path d="M 263.775781 286.0104 
L 263.775781 38.5632 
" clip-path="url(#p1b88750052)" style="fill: none; stroke-dasharray: 5.55,2.4; stroke-dashoffset: 0; stroke: #808080; stroke-width: 1.5"/>
   </g>
   <g id="line2d_15">
    <path d="M 414.72 286.0104 
L 414.72 38.5632 
" clip-path="url(#p1b88750052)" style="fill: none; stroke-dasharray: 5.55,2.4; stroke-dashoffset: 0; stroke: #808080; stroke-width: 1.5"/>
   </g>
   <g id="line2d_16">
    <path d="M 57.6 261.491896 
L 61.132838 261.491896 
L 64.665675 261.491896 
L 68.198513 261.491896 
L 71.73135 261.491896 
L 75.264188 261.491896 
L 78.797026 261.491896 
L 82.329863 261.491896 
L 85.862701 261.491896 
L 89.395538 261.491896 
L 92.928376 261.491896 
L 96.461214 261.491896 
L 99.994051 261.491896 
L 103.526889 261.491896 
L 107.059726 261.491896 
L 110.592564 261.491896 
L 114.125402 261.491896 
L 117.658239 261.491896 
L 121.191077 261.491896 
L 124.723915 261.491896 
L 128.256752 261.491896 
L 131.78959 261.491896 
L 135.322427 261.491896 
L 138.855265 261.491896 
L 142.388103 261.491896 
L 145.92094 261.491896 
L 149.453778 261.491896 
L 152.986615 261.491896 
L 156.519453 261.491896 
L 160.052291 261.491896 
L 163.585128 261.491896 
L 167.117966 261.491896 
L 170.650803 261.491896 
L 174.183641 261.491896 
L 177.716479 261.491896 
L 181.249316 261.491896 
L 184.782154 261.491896 
L 188.314991 261.491896 
L 191.908362 261.491896 
L 195.501733 261.491896 
L 199.095104 261.491896 
L 202.688475 261.491896 
L 206.281846 261.491896 
L 209.875217 261.491896 
L 213.468588 261.491896 
L 217.061959 261.491896 
L 220.65533 261.491896 
L 224.248701 261.491896 
L 227.842072 261.491896 
L 231.435443 261.491896 
L 235.028814 261.491896 
L 238.622185 261.491896 
L 242.215556 261.491896 
L 245.808927 261.491896 
L 249.402298 261.491896 
L 252.995668 261.491896 
L 256.589039 261.491896 
L 260.18241 261.491896 
L 263.775781 261.491896 
L 267.369691 261.491896 
L 270.963601 261.491896 
L 274.557511 261.491896 
L 278.151421 261.491896 
L 281.745331 261.491896 
L 285.339241 261.491896 
L 288.933151 261.491896 
L 292.527061 261.491896 
L 296.120971 261.491896 
L 299.714881 261.491896 
L 303.308791 261.491896 
L 306.902701 261.491896 
L 310.496611 261.491896 
L 314.090521 261.491896 
L 317.684431 261.491896 
L 321.278341 261.491896 
L 324.872251 261.491896 
L 328.466161 261.491896 
L 332.060071 261.491896 
L 335.653981 261.491896 
L 339.247891 261.491896 
L 342.841801 261.491896 
L 346.435711 261.491896 
L 350.029621 261.491896 
L 353.623531 261.491896 
L 357.217441 261.491896 
L 360.81135 261.491896 
L 364.40526 261.491896 
L 367.99917 261.491896 
L 371.59308 261.491896 
L 375.18699 261.491896 
L 378.7809 261.491896 
L 382.37481 261.491896 
L 385.96872 261.491896 
L 389.56263 261.491896 
L 393.15654 261.491896 
L 396.75045 261.491896 
L 400.34436 261.491896 
L 403.93827 261.491896 
L 407.53218 261.491896 
L 411.12609 261.491896 
L 414.72 261.491896 
" clip-path="url(#p1b88750052)" style="fill: none; stroke: #1f77b4; stroke-width: 1.5; stroke-linecap: square"/>
   </g>
   <g id="line2d_17">
    <path d="M 57.6 261.491896 
L 61.132838 261.491896 
L 64.665675 261.491896 
L 68.198513 261.491896 
L 71.73135 261.491896 
L 75.264188 261.491896 
L 78.797026 261.491896 
L 82.329863 261.491896 
L 85.862701 261.491896 
L 89.395538 261.491896 
L 92.928376 261.491896 
L 96.461214 261.491896 
L 99.994051 261.491896 
L 103.526889 261.491896 
L 107.059726 261.491896 
L 110.592564 261.491896 
L 114.125402 261.491896 
L 117.658239 261.491896 
L 121.191077 261.491896 
L 124.723915 261.491896 
L 128.256752 261.491896 
L 131.78959 261.491896 
L 135.322427 261.491896 
L 138.855265 261.491896 
L 142.388103 261.491896 
L 145.92094 261.491896 
L 149.453778 261.491896 
L 152.986615 261.491896 
L 156.519453 261.491896 
L 160.052291 261.491896 
L 163.585128 261.491896 
L 167.117966 261.491896 
L 170.650803 261.491896 
L 174.183641 261.491896 
L 177.716479 261.491896 
L 181.249316 261.491896 
L 184.782154 261.491896 
L 188.314991 261.491896 
L 191.908362 261.108562 
L 195.501733 260.731874 
L 199.095104 260.368147 
L 202.688475 260.023061 
L 206.281846 259.701416 
L 209.875217 259.406956 
L 213.468588 259.14227 
L 217.061959 258.908789 
L 220.65533 258.706834 
L 224.248701 258.53574 
L 227.842072 258.394007 
L 231.435443 258.279476 
L 235.028814 258.189511 
L 238.622185 258.12117 
L 242.215556 258.071352 
L 245.808927 258.036926 
L 249.402298 258.014826 
L 252.995668 258.002124 
L 256.589039 257.996075 
L 260.18241 257.994135 
L 263.775781 257.993974 
L 267.369691 257.993458 
L 270.963601 257.990636 
L 274.557511 257.983707 
L 278.151421 257.970991 
L 281.745331 257.950887 
L 285.339241 257.921836 
L 288.933151 257.882276 
L 292.527061 257.830597 
L 296.120971 257.765099 
L 299.714881 257.683934 
L 303.308791 257.58506 
L 306.902701 257.466179 
L 310.496611 257.324679 
L 314.090521 257.157569 
L 317.684431 256.961404 
L 321.278341 256.732216 
L 324.872251 256.465438 
L 328.466161 256.155835 
L 332.060071 255.797433 
L 335.653981 255.383473 
L 339.247891 254.90637 
L 342.841801 254.357692 
L 346.435711 253.728144 
L 350.029621 253.00751 
L 353.623531 252.184514 
L 357.217441 251.246469 
L 360.81135 250.178565 
L 364.40526 248.962606 
L 367.99917 247.574897 
L 371.59308 261.491896 
L 375.18699 261.491896 
L 378.7809 261.491896 
L 382.37481 261.491896 
L 385.96872 261.491896 
L 389.56263 261.491896 
L 393.15654 261.491896 
L 396.75045 261.491896 
L 400.34436 261.491896 
L 403.93827 261.491896 
L 407.53218 261.491896 
L 411.12609 261.491896 
L 414.72 261.491896 
" clip-path="url(#p1b88750052)" style="fill: none; stroke: #ff7f0e; stroke-width: 1.5; stroke-linecap: square"/>
   </g>
   <g id="line2d_18">
    <path d="M 57.6 261.491896 
L 61.132838 261.491896 
L 64.665675 261.491896 
L 68.198513 261.491896 
L 71.73135 261.491896 
L 75.264188 261.491896 
L 78.797026 261.491896 
L 82.329863 261.491896 
L 85.862701 261.491896 
L 89.395538 261.491896 
L 92.928376 261.491896 
L 96.461214 261.491896 
L 99.994051 261.491896 
L 103.526889 274.193166 
L 107.059726 274.604644 
L 110.592564 274.7628 
L 114.125402 274.671001 
L 117.658239 274.35153 
L 121.191077 273.840605 
L 124.723915 273.181898 
L 128.256752 272.4203 
L 131.78959 271.597117 
L 135.322427 270.747151 
L 138.855265 269.897532 
L 142.388103 269.067837 
L 145.92094 268.270978 
L 149.453778 267.514426 
L 152.986615 266.801466 
L 156.519453 266.132335 
L 160.052291 265.505152 
L 163.585128 264.916634 
L 167.117966 264.36263 
L 170.650803 263.838488 
L 174.183641 263.3393 
L 177.716479 262.860059 
L 181.249316 262.395741 
L 184.782154 261.941343 
L 188.314991 261.491896 
L 191.908362 261.360774 
L 195.501733 261.233703 
L 199.095104 261.114528 
L 202.688475 261.006695 
L 206.281846 260.913101 
L 209.875217 260.835983 
L 213.468588 260.776859 
L 217.061959 260.736527 
L 220.65533 260.715105 
L 224.248701 260.71211 
L 227.842072 260.726569 
L 231.435443 260.757134 
L 235.028814 260.802211 
L 238.622185 260.860075 
L 242.215556 260.928977 
L 245.808927 261.007228 
L 249.402298 261.093271 
L 252.995668 261.185724 
L 256.589039 261.283418 
L 260.18241 261.385412 
L 263.775781 261.490995 
L 267.369691 261.599749 
L 270.963601 261.711345 
L 274.557511 261.825731 
L 278.151421 261.943045 
L 281.745331 262.063602 
L 285.339241 262.187879 
L 288.933151 262.316496 
L 292.527061 262.450202 
L 296.120971 262.589855 
L 299.714881 262.736397 
L 303.308791 262.890827 
L 306.902701 263.054156 
L 310.496611 263.22735 
L 314.090521 263.41124 
L 317.684431 263.606409 
L 321.278341 263.813029 
L 324.872251 264.030645 
L 328.466161 264.257907 
L 332.060071 264.492243 
L 335.653981 264.7295 
L 339.247891 264.963602 
L 342.841801 265.186302 
L 346.435711 265.387175 
L 350.029621 265.553978 
L 353.623531 265.67354 
L 357.217441 265.733217 
L 360.81135 265.722783 
L 364.40526 265.636396 
L 367.99917 265.474098 
L 371.59308 261.491896 
L 375.18699 261.491896 
L 378.7809 261.491896 
L 382.37481 261.491896 
L 385.96872 261.491896 
L 389.56263 261.491896 
L 393.15654 261.491896 
L 396.75045 261.491896 
L 400.34436 261.491896 
L 403.93827 261.491896 
L 407.53218 261.491896 
L 411.12609 261.491896 
L 414.72 261.491896 
" clip-path="url(#p1b88750052)" style="fill: none; stroke: #2ca02c; stroke-width: 1.5; stroke-linecap: square"/>
   </g>
   <g id="line2d_19">
    <path d="M 57.6 261.491896 
L 61.132838 261.491896 
L 64.665675 261.491896 
L 68.198513 261.491896 
L 71.73135 261.491896 
L 75.264188 261.491896 
L 78.797026 261.491896 
L 82.329863 261.491896 
L 85.862701 261.491896 
L 89.395538 261.491896 
L 92.928376 261.491896 
L 96.461214 261.491896 
L 99.994051 261.491896 
L 103.526889 261.491896 
L 107.059726 261.491896 
L 110.592564 261.491896 
L 114.125402 261.491896 
L 117.658239 261.491896 
L 121.191077 261.491896 
L 124.723915 261.491896 
L 128.256752 261.491896 
L 131.78959 261.491896 
L 135.322427 261.491896 
L 138.855265 261.491896 
L 142.388103 261.491896 
L 145.92094 261.491896 
L 149.453778 261.491896 
L 152.986615 261.491896 
L 156.519453 261.491896 
L 160.052291 261.491896 
L 163.585128 261.491896 
L 167.117966 261.491896 
L 170.650803 261.491896 
L 174.183641 261.491896 
L 177.716479 261.491896 
L 181.249316 261.491896 
L 184.782154 261.491896 
L 188.314991 261.491896 
L 191.908362 261.491896 
L 195.501733 261.491896 
L 199.095104 261.491896 
L 202.688475 261.491896 
L 206.281846 261.491896 
L 209.875217 261.491896 
L 213.468588 261.491896 
L 217.061959 261.491896 
L 220.65533 261.491896 
L 224.248701 261.491896 
L 227.842072 261.491896 
L 231.435443 261.491896 
L 235.028814 261.491896 
L 238.622185 261.491896 
L 242.215556 261.491896 
L 245.808927 261.491896 
L 249.402298 261.491896 
L 252.995668 261.491896 
L 256.589039 261.491896 
L 260.18241 261.491896 
L 263.775781 261.491896 
L 267.369691 261.491896 
L 270.963601 261.491896 
L 274.557511 261.491896 
L 278.151421 261.491896 
L 281.745331 261.491896 
L 285.339241 261.491896 
L 288.933151 261.491896 
L 292.527061 261.491896 
L 296.120971 261.491896 
L 299.714881 261.491896 
L 303.308791 261.491896 
L 306.902701 261.491896 
L 310.496611 261.491896 
L 314.090521 261.491896 
L 317.684431 261.491896 
L 321.278341 261.491896 
L 324.872251 261.491896 
L 328.466161 261.491896 
L 332.060071 261.491896 
L 335.653981 261.491896 
L 339.247891 261.491896 
L 342.841801 261.491896 
L 346.435711 261.491896 
L 350.029621 261.491896 
L 353.623531 261.491896 
L 357.217441 261.491896 
L 360.81135 261.491896 
L 364.40526 261.491896 
L 367.99917 261.491896 
L 371.59308 245.982972 
L 375.18699 244.140576 
L 378.7809 241.979965 
L 382.37481 239.399573 
L 385.96872 236.243038 
L 389.56263 232.260816 
L 393.15654 227.033788 
L 396.75045 219.805329 
L 400.34436 209.061296 
L 403.93827 191.26956 
L 407.53218 155.837313 
L 411.12609 49.8108 
L 414.72 261.491896 
" clip-path="url(#p1b88750052)" style="fill: none; stroke: #d62728; stroke-width: 1.5; stroke-linecap: square"/>
   </g>
   <g id="line2d_20">
    <path d="M 57.6 261.491896 
L 61.132838 262.355781 
L 64.665675 263.236957 
L 68.198513 264.151324 
L 71.73135 265.11183 
L 75.264188 266.126623 
L 78.797026 267.1969 
L 82.329863 268.314626 
L 85.862701 269.46055 
L 89.395538 270.603174 
L 92.928376 271.699512 
L 96.461214 272.698293 
L 99.994051 273.545744 
L 103.526889 261.491896 
L 107.059726 261.491896 
L 110.592564 261.491896 
L 114.125402 261.491896 
L 117.658239 261.491896 
L 121.191077 261.491896 
L 124.723915 261.491896 
L 128.256752 261.491896 
L 131.78959 261.491896 
L 135.322427 261.491896 
L 138.855265 261.491896 
L 142.388103 261.491896 
L 145.92094 261.491896 
L 149.453778 261.491896 
L 152.986615 261.491896 
L 156.519453 261.491896 
L 160.052291 261.491896 
L 163.585128 261.491896 
L 167.117966 261.491896 
L 170.650803 261.491896 
L 174.183641 261.491896 
L 177.716479 261.491896 
L 181.249316 261.491896 
L 184.782154 261.491896 
L 188.314991 261.491896 
L 191.908362 261.491896 
L 195.501733 261.491896 
L 199.095104 261.491896 
L 202.688475 261.491896 
L 206.281846 261.491896 
L 209.875217 261.491896 
L 213.468588 261.491896 
L 217.061959 261.491896 
L 220.65533 261.491896 
L 224.248701 261.491896 
L 227.842072 261.491896 
L 231.435443 261.491896 
L 235.028814 261.491896 
L 238.622185 261.491896 
L 242.215556 261.491896 
L 245.808927 261.491896 
L 249.402298 261.491896 
L 252.995668 261.491896 
L 256.589039 261.491896 
L 260.18241 261.491896 
L 263.775781 261.491896 
L 267.369691 261.491896 
L 270.963601 261.491896 
L 274.557511 261.491896 
L 278.151421 261.491896 
L 281.745331 261.491896 
L 285.339241 261.491896 
L 288.933151 261.491896 
L 292.527061 261.491896 
L 296.120971 261.491896 
L 299.714881 261.491896 
L 303.308791 261.491896 
L 306.902701 261.491896 
L 310.496611 261.491896 
L 314.090521 261.491896 
L 317.684431 261.491896 
L 321.278341 261.491896 
L 324.872251 261.491896 
L 328.466161 261.491896 
L 332.060071 261.491896 
L 335.653981 261.491896 
L 339.247891 261.491896 
L 342.841801 261.491896 
L 346.435711 261.491896 
L 350.029621 261.491896 
L 353.623531 261.491896 
L 357.217441 261.491896 
L 360.81135 261.491896 
L 364.40526 261.491896 
L 367.99917 261.491896 
L 371.59308 265.24232 
L 375.18699 264.953126 
L 378.7809 264.622327 
L 382.37481 264.266995 
L 385.96872 263.90307 
L 389.56263 263.543573 
L 393.15654 263.197687 
L 396.75045 262.870623 
L 400.34436 262.56405 
L 403.93827 262.276795 
L 407.53218 262.005599 
L 411.12609 261.745801 
L 414.72 261.491896 
" clip-path="url(#p1b88750052)" style="fill: none; stroke: #9467bd; stroke-width: 1.5; stroke-linecap: square"/>
   </g>
   <g id="line2d_21">
    <path d="M 57.6 261.491896 
L 61.132838 261.491896 
L 64.665675 261.491896 
L 68.198513 261.491896 
L 71.73135 261.491896 
L 75.264188 261.491896 
L 78.797026 261.491896 
L 82.329863 261.491896 
L 85.862701 261.491896 
L 89.395538 261.491896 
L 92.928376 261.491896 
L 96.461214 261.491896 
L 99.994051 261.491896 
L 103.526889 261.491896 
L 107.059726 261.491896 
L 110.592564 261.491896 
L 114.125402 261.491896 
L 117.658239 261.491896 
L 121.191077 261.491896 
L 124.723915 261.491896 
L 128.256752 261.491896 
L 131.78959 261.491896 
L 135.322427 261.491896 
L 138.855265 261.491896 
L 142.388103 261.491896 
L 145.92094 261.491896 
L 149.453778 261.491896 
L 152.986615 261.491896 
L 156.519453 261.491896 
L 160.052291 261.491896 
L 163.585128 261.491896 
L 167.117966 261.491896 
L 170.650803 261.491896 
L 174.183641 261.491896 
L 177.716479 261.491896 
L 181.249316 261.491896 
L 184.782154 261.491896 
L 188.314991 261.491896 
L 191.908362 262.290847 
L 195.501733 263.080406 
L 199.095104 263.8515 
L 202.688475 264.595669 
L 206.281846 265.305334 
L 209.875217 265.973994 
L 213.468588 266.596381 
L 217.061959 267.168536 
L 220.65533 267.687821 
L 224.248701 268.152882 
L 227.842072 268.56355 
L 231.435443 268.920714 
L 235.028814 269.226166 
L 238.622185 269.48243 
L 242.215556 269.692588 
L 245.808927 269.860124 
L 249.402298 269.98876 
L 252.995668 270.082331 
L 256.589039 270.144668 
L 260.18241 270.1795 
L 263.775781 270.190386 
L 267.369691 270.180651 
L 270.963601 270.153355 
L 274.557511 270.111263 
L 278.151421 270.056833 
L 281.745331 269.992201 
L 285.339241 269.919184 
L 288.933151 269.839277 
L 292.527061 269.753661 
L 296.120971 269.663202 
L 299.714881 269.56845 
L 303.308791 269.469644 
L 306.902701 269.366705 
L 310.496611 269.25923 
L 314.090521 269.146485 
L 317.684431 269.027395 
L 321.278341 268.900543 
L 324.872251 268.76417 
L 328.466161 268.616196 
L 332.060071 268.45426 
L 335.653981 268.2758 
L 339.247891 268.078177 
L 342.841801 267.858868 
L 346.435711 267.615706 
L 350.029621 267.347195 
L 353.623531 267.052833 
L 357.217441 266.733427 
L 360.81135 266.391292 
L 364.40526 266.030288 
L 367.99917 265.65562 
L 371.59308 265.273408 
L 375.18699 264.89009 
L 378.7809 264.511772 
L 382.37481 264.143648 
L 385.96872 263.789603 
L 389.56263 263.452029 
L 393.15654 263.13184 
L 396.75045 262.828638 
L 400.34436 262.540951 
L 403.93827 262.266485 
L 407.53218 262.002365 
L 411.12609 261.745333 
L 414.72 261.491896 
" clip-path="url(#p1b88750052)" style="fill: none; stroke: #8c564b; stroke-width: 1.5; stroke-linecap: square"/>
   </g>
   <g id="patch_3">
    <path d="M 57.6 286.0104 
L 57.6 38.5632 
" style="fill: none; stroke: #000000; stroke-width: 0.8; stroke-linejoin: miter; stroke-linecap: square"/>
   </g>
   <g id="patch_4">
    <path d="M 414.72 286.0104 
L 414.72 38.5632 
" style="fill: none; stroke: #000000; stroke-width: 0.8; stroke-linejoin: miter; stroke-linecap: square"/>
   </g>
   <g id="patch_5">
    <path d="M 57.6 286.0104 
L 414.72 286.0104 
" style="fill: none; stroke: #000000; stroke-width: 0.8; stroke-linejoin: miter; stroke-linecap: square"/>
   </g>
   <g id="patch_6">
    <path d="M 57.6 38.5632 
L 414.72 38.5632 
" style="fill: none; stroke: #000000; stroke-width: 0.8; stroke-linejoin: miter; stroke-linecap: square"/>
   </g>
   <g id="legend_1">
    <g id="patch_7">
     <path d="M 64.6 136.3007 
L 114.325 136.3007 
Q 116.325 136.3007 116.325 134.3007 
L 116.325 45.5632 
Q 116.325 43.5632 114.325 43.5632 
L 64.6 43.5632 
Q 62.6 43.5632 62.6 45.5632 
L 62.6 134.3007 
Q 62.6 136.3007 64.6 136.3007 
z
" style="fill: #ffffff; opacity: 0.8; stroke: #cccccc; stroke-linejoin: miter"/>
    </g>
    <g id="line2d_22">
     <path d="M 66.6 51.661637 
L 76.6 51.661637 
L 86.6 51.661637 
" style="fill: none; stroke: #1f77b4; stroke-width: 1.5; stroke-linecap: square"/>
    </g>
    <g id="text_13">
     <!-- 1_2 -->
     <g transform="translate(94.6 55.161637) scale(0.1 -0.1)">
      <defs>
       <path id="DejaVuSans-5f" d="M 3263 -1063 
L 3263 -1509 
L -63 -1509 
L -63 -1063 
L 3263 -1063 
z
" transform="scale(0.015625)"/>
      </defs>
      <use xlink:href="#DejaVuSans-31"/>
      <use xlink:href="#DejaVuSans-5f" x="63.623047"/>
      <use xlink:href="#DejaVuSans-32" x="113.623047"/>
     </g>
    </g>
    <g id="line2d_23">
     <path d="M 66.6 66.617887 
L 76.6 66.617887 
L 86.6 66.617887 
" style="fill: none; stroke: #ff7f0e; stroke-width: 1.5; stroke-linecap: square"/>
    </g>
    <g id="text_14">
     <!-- 1_3 -->
     <g transform="translate(94.6 70.117887) scale(0.1 -0.1)">
      <use xlink:href="#DejaVuSans-31"/>
      <use xlink:href="#DejaVuSans-5f" x="63.623047"/>
      <use xlink:href="#DejaVuSans-33" x="113.623047"/>
     </g>
    </g>
    <g id="line2d_24">
     <path d="M 66.6 81.574137 
L 76.6 81.574137 
L 86.6 81.574137 
" style="fill: none; stroke: #2ca02c; stroke-width: 1.5; stroke-linecap: square"/>
    </g>
    <g id="text_15">
     <!-- 1_4 -->
     <g transform="translate(94.6 85.074137) scale(0.1 -0.1)">
      <defs>
       <path id="DejaVuSans-34" d="M 2419 4116 
L 825 1625 
L 2419 1625 
L 2419 4116 
z
M 2253 4666 
L 3047 4666 
L 3047 1625 
L 3713 1625 
L 3713 1100 
L 3047 1100 
L 3047 0 
L 2419 0 
L 2419 1100 
L 313 1100 
L 313 1709 
L 2253 4666 
z
" transform="scale(0.015625)"/>
      </defs>
      <use xlink:href="#DejaVuSans-31"/>
      <use xlink:href="#DejaVuSans-5f" x="63.623047"/>
      <use xlink:href="#DejaVuSans-34" x="113.623047"/>
     </g>
    </g>
    <g id="line2d_25">
     <path d="M 66.6 96.530387 
L 76.6 96.530387 
L 86.6 96.530387 
" style="fill: none; stroke: #d62728; stroke-width: 1.5; stroke-linecap: square"/>
    </g>
    <g id="text_16">
     <!-- 2_3 -->
     <g transform="translate(94.6 100.030387) scale(0.1 -0.1)">
      <use xlink:href="#DejaVuSans-32"/>
      <use xlink:href="#DejaVuSans-5f" x="63.623047"/>
      <use xlink:href="#DejaVuSans-33" x="113.623047"/>
     </g>
    </g>
    <g id="line2d_26">
     <path d="M 66.6 111.486637 
L 76.6 111.486637 
L 86.6 111.486637 
" style="fill: none; stroke: #9467bd; stroke-width: 1.5; stroke-linecap: square"/>
    </g>
    <g id="text_17">
     <!-- 2_4 -->
     <g transform="translate(94.6 114.986637) scale(0.1 -0.1)">
      <use xlink:href="#DejaVuSans-32"/>
      <use xlink:href="#DejaVuSans-5f" x="63.623047"/>
      <use xlink:href="#DejaVuSans-34" x="113.623047"/>
     </g>
    </g>
    <g id="line2d_27">
     <path d="M 66.6 126.442887 
L 76.6 126.442887 
L 86.6 126.442887 
" style="fill: none; stroke: #8c564b; stroke-width: 1.5; stroke-linecap: square"/>
    </g>
    <g id="text_18">
     <!-- 3_4 -->
     <g transform="translate(94.6 129.942887) scale(0.1 -0.1)">
      <use xlink:href="#DejaVuSans-33"/>
      <use xlink:href="#DejaVuSans-5f" x="63.623047"/>
      <use xlink:href="#DejaVuSans-34" x="113.623047"/>
     </g>
    </g>
   </g>
  </g>
 </g>
 <defs>
  <clipPath id="p1b88750052">
   <rect x="57.6" y="38.5632" width="357.12" height="247.4472"/>
  </clipPath>
 </defs>
</svg>
