<?xml version="1.0" encoding="utf-8" standalone="no"?>
<!DOCTYPE svg PUBLIC "-//W3C//DTD SVG 1.1//EN"
  "http://www.w3.org/Graphics/SVG/1.1/DTD/svg11.dtd">
<svg xmlns:xlink="http://www.w3.org/1999/xlink" width="460.8pt" height="321.36pt" viewBox="0 0 460.8 321.36" xmlns="http://www.w3.org/2000/svg" version="1.1">
 <metadata>
  <rdf:RDF xmlns:dc="http://purl.org/dc/elements/1.1/" xmlns:cc="http://creativecommons.org/ns#" xmlns:rdf="http://www.w3.org/1999/02/22-rdf-syntax-ns#">
   <cc:Work>
    <dc:type rdf:resource="http://purl.org/dc/dcmitype/StillImage"/>
    <dc:date>2023-10-30T16:02:15.662790</dc:date>
    <dc:format>image/svg+xml</dc:format>
    <dc:creator>
     <cc:Agent>
      <dc:title>Matplotlib v3.7.1, https://matplotlib.org/</dc:title>
     </cc:Agent>
    </dc:creator>
   </cc:Work>
  </rdf:RDF>
 </metadata>
 <defs>
  <style type="text/css">*{stroke-linejoin: round; stroke-linecap: butt}</style>
 </defs>
 <g id="figure_1">
  <g id="patch_1">
   <path d="M 0 321.36 
L 460.8 321.36 
L 460.8 0 
L 0 0 
z
" style="fill: #ffffff"/>
  </g>
  <g id="axes_1">
   <g id="patch_2">
    <path d="M 57.6 286.0104 
L 414.72 286.0104 
L 414.72 38.5632 
L 57.6 38.5632 
z
" style="fill: #ffffff"/>
   </g>
   <g id="matplotlib.axis_1">
    <g id="xtick_1">
     <g id="line2d_1">
      <defs>
       <path id="mef1fc59254" d="M 0 0 
L 0 3.5 
" style="stroke: #000000; stroke-width: 0.8"/>
      </defs>
      <g>
       <use xlink:href="#mef1fc59254" x="73.832727" y="286.0104" style="stroke: #000000; stroke-width: 0.8"/>
      </g>
     </g>
     <g id="text_1">
      <!-- −10.0 -->
      <g transform="translate(58.510071 300.608837) scale(0.1 -0.1)">
       <defs>
        <path id="DejaVuSans-2212" d="M 678 2272 
L 4684 2272 
L 4684 1741 
L 678 1741 
L 678 2272 
z
" transform="scale(0.015625)"/>
        <path id="DejaVuSans-31" d="M 794 531 
L 1825 531 
L 1825 4091 
L 703 3866 
L 703 4441 
L 1819 4666 
L 2450 4666 
L 2450 531 
L 3481 531 
L 3481 0 
L 794 0 
L 794 531 
z
" transform="scale(0.015625)"/>
        <path id="DejaVuSans-30" d="M 2034 4250 
Q 1547 4250 1301 3770 
Q 1056 3291 1056 2328 
Q 1056 1369 1301 889 
Q 1547 409 2034 409 
Q 2525 409 2770 889 
Q 3016 1369 3016 2328 
Q 3016 3291 2770 3770 
Q 2525 4250 2034 4250 
z
M 2034 4750 
Q 2819 4750 3233 4129 
Q 3647 3509 3647 2328 
Q 3647 1150 3233 529 
Q 2819 -91 2034 -91 
Q 1250 -91 836 529 
Q 422 1150 422 2328 
Q 422 3509 836 4129 
Q 1250 4750 2034 4750 
z
" transform="scale(0.015625)"/>
        <path id="DejaVuSans-2e" d="M 684 794 
L 1344 794 
L 1344 0 
L 684 0 
L 684 794 
z
" transform="scale(0.015625)"/>
       </defs>
       <use xlink:href="#DejaVuSans-2212"/>
       <use xlink:href="#DejaVuSans-31" x="83.789062"/>
       <use xlink:href="#DejaVuSans-30" x="147.412109"/>
       <use xlink:href="#DejaVuSans-2e" x="211.035156"/>
       <use xlink:href="#DejaVuSans-30" x="242.822266"/>
      </g>
     </g>
    </g>
    <g id="xtick_2">
     <g id="line2d_2">
      <g>
       <use xlink:href="#mef1fc59254" x="114.414545" y="286.0104" style="stroke: #000000; stroke-width: 0.8"/>
      </g>
     </g>
     <g id="text_2">
      <!-- −7.5 -->
      <g transform="translate(102.273139 300.608837) scale(0.1 -0.1)">
       <defs>
        <path id="DejaVuSans-37" d="M 525 4666 
L 3525 4666 
L 3525 4397 
L 1831 0 
L 1172 0 
L 2766 4134 
L 525 4134 
L 525 4666 
z
" transform="scale(0.015625)"/>
        <path id="DejaVuSans-35" d="M 691 4666 
L 3169 4666 
L 3169 4134 
L 1269 4134 
L 1269 2991 
Q 1406 3038 1543 3061 
Q 1681 3084 1819 3084 
Q 2600 3084 3056 2656 
Q 3513 2228 3513 1497 
Q 3513 744 3044 326 
Q 2575 -91 1722 -91 
Q 1428 -91 1123 -41 
Q 819 9 494 109 
L 494 744 
Q 775 591 1075 516 
Q 1375 441 1709 441 
Q 2250 441 2565 725 
Q 2881 1009 2881 1497 
Q 2881 1984 2565 2268 
Q 2250 2553 1709 2553 
Q 1456 2553 1204 2497 
Q 953 2441 691 2322 
L 691 4666 
z
" transform="scale(0.015625)"/>
       </defs>
       <use xlink:href="#DejaVuSans-2212"/>
       <use xlink:href="#DejaVuSans-37" x="83.789062"/>
       <use xlink:href="#DejaVuSans-2e" x="147.412109"/>
       <use xlink:href="#DejaVuSans-35" x="179.199219"/>
      </g>
     </g>
    </g>
    <g id="xtick_3">
     <g id="line2d_3">
      <g>
       <use xlink:href="#mef1fc59254" x="154.996364" y="286.0104" style="stroke: #000000; stroke-width: 0.8"/>
      </g>
     </g>
     <g id="text_3">
      <!-- −5.0 -->
      <g transform="translate(142.854957 300.608837) scale(0.1 -0.1)">
       <use xlink:href="#DejaVuSans-2212"/>
       <use xlink:href="#DejaVuSans-35" x="83.789062"/>
       <use xlink:href="#DejaVuSans-2e" x="147.412109"/>
       <use xlink:href="#DejaVuSans-30" x="179.199219"/>
      </g>
     </g>
    </g>
    <g id="xtick_4">
     <g id="line2d_4">
      <g>
       <use xlink:href="#mef1fc59254" x="195.578182" y="286.0104" style="stroke: #000000; stroke-width: 0.8"/>
      </g>
     </g>
     <g id="text_4">
      <!-- −2.5 -->
      <g transform="translate(183.436776 300.608837) scale(0.1 -0.1)">
       <defs>
        <path id="DejaVuSans-32" d="M 1228 531 
L 3431 531 
L 3431 0 
L 469 0 
L 469 531 
Q 828 903 1448 1529 
Q 2069 2156 2228 2338 
Q 2531 2678 2651 2914 
Q 2772 3150 2772 3378 
Q 2772 3750 2511 3984 
Q 2250 4219 1831 4219 
Q 1534 4219 1204 4116 
Q 875 4013 500 3803 
L 500 4441 
Q 881 4594 1212 4672 
Q 1544 4750 1819 4750 
Q 2544 4750 2975 4387 
Q 3406 4025 3406 3419 
Q 3406 3131 3298 2873 
Q 3191 2616 2906 2266 
Q 2828 2175 2409 1742 
Q 1991 1309 1228 531 
z
" transform="scale(0.015625)"/>
       </defs>
       <use xlink:href="#DejaVuSans-2212"/>
       <use xlink:href="#DejaVuSans-32" x="83.789062"/>
       <use xlink:href="#DejaVuSans-2e" x="147.412109"/>
       <use xlink:href="#DejaVuSans-35" x="179.199219"/>
      </g>
     </g>
    </g>
    <g id="xtick_5">
     <g id="line2d_5">
      <g>
       <use xlink:href="#mef1fc59254" x="236.16" y="286.0104" style="stroke: #000000; stroke-width: 0.8"/>
      </g>
     </g>
     <g id="text_5">
      <!-- 0.0 -->
      <g transform="translate(228.208438 300.608837) scale(0.1 -0.1)">
       <use xlink:href="#DejaVuSans-30"/>
       <use xlink:href="#DejaVuSans-2e" x="63.623047"/>
       <use xlink:href="#DejaVuSans-30" x="95.410156"/>
      </g>
     </g>
    </g>
    <g id="xtick_6">
     <g id="line2d_6">
      <g>
       <use xlink:href="#mef1fc59254" x="276.741818" y="286.0104" style="stroke: #000000; stroke-width: 0.8"/>
      </g>
     </g>
     <g id="text_6">
      <!-- 2.5 -->
      <g transform="translate(268.790256 300.608837) scale(0.1 -0.1)">
       <use xlink:href="#DejaVuSans-32"/>
       <use xlink:href="#DejaVuSans-2e" x="63.623047"/>
       <use xlink:href="#DejaVuSans-35" x="95.410156"/>
      </g>
     </g>
    </g>
    <g id="xtick_7">
     <g id="line2d_7">
      <g>
       <use xlink:href="#mef1fc59254" x="317.323636" y="286.0104" style="stroke: #000000; stroke-width: 0.8"/>
      </g>
     </g>
     <g id="text_7">
      <!-- 5.0 -->
      <g transform="translate(309.372074 300.608837) scale(0.1 -0.1)">
       <use xlink:href="#DejaVuSans-35"/>
       <use xlink:href="#DejaVuSans-2e" x="63.623047"/>
       <use xlink:href="#DejaVuSans-30" x="95.410156"/>
      </g>
     </g>
    </g>
    <g id="xtick_8">
     <g id="line2d_8">
      <g>
       <use xlink:href="#mef1fc59254" x="357.905455" y="286.0104" style="stroke: #000000; stroke-width: 0.8"/>
      </g>
     </g>
     <g id="text_8">
      <!-- 7.5 -->
      <g transform="translate(349.953892 300.608837) scale(0.1 -0.1)">
       <use xlink:href="#DejaVuSans-37"/>
       <use xlink:href="#DejaVuSans-2e" x="63.623047"/>
       <use xlink:href="#DejaVuSans-35" x="95.410156"/>
      </g>
     </g>
    </g>
    <g id="xtick_9">
     <g id="line2d_9">
      <g>
       <use xlink:href="#mef1fc59254" x="398.487273" y="286.0104" style="stroke: #000000; stroke-width: 0.8"/>
      </g>
     </g>
     <g id="text_9">
      <!-- 10.0 -->
      <g transform="translate(387.35446 300.608837) scale(0.1 -0.1)">
       <use xlink:href="#DejaVuSans-31"/>
       <use xlink:href="#DejaVuSans-30" x="63.623047"/>
       <use xlink:href="#DejaVuSans-2e" x="127.246094"/>
       <use xlink:href="#DejaVuSans-30" x="159.033203"/>
      </g>
     </g>
    </g>
    <g id="text_10">
     <!-- E -->
     <g transform="translate(233.000625 314.286962) scale(0.1 -0.1)">
      <defs>
       <path id="DejaVuSans-45" d="M 628 4666 
L 3578 4666 
L 3578 4134 
L 1259 4134 
L 1259 2753 
L 3481 2753 
L 3481 2222 
L 1259 2222 
L 1259 531 
L 3634 531 
L 3634 0 
L 628 0 
L 628 4666 
z
" transform="scale(0.015625)"/>
      </defs>
      <use xlink:href="#DejaVuSans-45"/>
     </g>
    </g>
   </g>
   <g id="matplotlib.axis_2">
    <g id="ytick_1">
     <g id="line2d_10">
      <defs>
       <path id="m055b62b4d4" d="M 0 0 
L -3.5 0 
" style="stroke: #000000; stroke-width: 0.8"/>
      </defs>
      <g>
       <use xlink:href="#m055b62b4d4" x="57.6" y="274.763912" style="stroke: #000000; stroke-width: 0.8"/>
      </g>
     </g>
     <g id="text_11">
      <!-- 0 -->
      <g transform="translate(44.2375 278.56313) scale(0.1 -0.1)">
       <use xlink:href="#DejaVuSans-30"/>
      </g>
     </g>
    </g>
    <g id="ytick_2">
     <g id="line2d_11">
      <g>
       <use xlink:href="#m055b62b4d4" x="57.6" y="244.23697" style="stroke: #000000; stroke-width: 0.8"/>
      </g>
     </g>
     <g id="text_12">
      <!-- 5 -->
      <g transform="translate(44.2375 248.036189) scale(0.1 -0.1)">
       <use xlink:href="#DejaVuSans-35"/>
      </g>
     </g>
    </g>
    <g id="ytick_3">
     <g id="line2d_12">
      <g>
       <use xlink:href="#m055b62b4d4" x="57.6" y="213.710029" style="stroke: #000000; stroke-width: 0.8"/>
      </g>
     </g>
     <g id="text_13">
      <!-- 10 -->
      <g transform="translate(37.875 217.509248) scale(0.1 -0.1)">
       <use xlink:href="#DejaVuSans-31"/>
       <use xlink:href="#DejaVuSans-30" x="63.623047"/>
      </g>
     </g>
    </g>
    <g id="ytick_4">
     <g id="line2d_13">
      <g>
       <use xlink:href="#m055b62b4d4" x="57.6" y="183.183088" style="stroke: #000000; stroke-width: 0.8"/>
      </g>
     </g>
     <g id="text_14">
      <!-- 15 -->
      <g transform="translate(37.875 186.982306) scale(0.1 -0.1)">
       <use xlink:href="#DejaVuSans-31"/>
       <use xlink:href="#DejaVuSans-35" x="63.623047"/>
      </g>
     </g>
    </g>
    <g id="ytick_5">
     <g id="line2d_14">
      <g>
       <use xlink:href="#m055b62b4d4" x="57.6" y="152.656146" style="stroke: #000000; stroke-width: 0.8"/>
      </g>
     </g>
     <g id="text_15">
      <!-- 20 -->
      <g transform="translate(37.875 156.455365) scale(0.1 -0.1)">
       <use xlink:href="#DejaVuSans-32"/>
       <use xlink:href="#DejaVuSans-30" x="63.623047"/>
      </g>
     </g>
    </g>
    <g id="ytick_6">
     <g id="line2d_15">
      <g>
       <use xlink:href="#m055b62b4d4" x="57.6" y="122.129205" style="stroke: #000000; stroke-width: 0.8"/>
      </g>
     </g>
     <g id="text_16">
      <!-- 25 -->
      <g transform="translate(37.875 125.928424) scale(0.1 -0.1)">
       <use xlink:href="#DejaVuSans-32"/>
       <use xlink:href="#DejaVuSans-35" x="63.623047"/>
      </g>
     </g>
    </g>
    <g id="ytick_7">
     <g id="line2d_16">
      <g>
       <use xlink:href="#m055b62b4d4" x="57.6" y="91.602264" style="stroke: #000000; stroke-width: 0.8"/>
      </g>
     </g>
     <g id="text_17">
      <!-- 30 -->
      <g transform="translate(37.875 95.401483) scale(0.1 -0.1)">
       <defs>
        <path id="DejaVuSans-33" d="M 2597 2516 
Q 3050 2419 3304 2112 
Q 3559 1806 3559 1356 
Q 3559 666 3084 287 
Q 2609 -91 1734 -91 
Q 1441 -91 1130 -33 
Q 819 25 488 141 
L 488 750 
Q 750 597 1062 519 
Q 1375 441 1716 441 
Q 2309 441 2620 675 
Q 2931 909 2931 1356 
Q 2931 1769 2642 2001 
Q 2353 2234 1838 2234 
L 1294 2234 
L 1294 2753 
L 1863 2753 
Q 2328 2753 2575 2939 
Q 2822 3125 2822 3475 
Q 2822 3834 2567 4026 
Q 2313 4219 1838 4219 
Q 1578 4219 1281 4162 
Q 984 4106 628 3988 
L 628 4550 
Q 988 4650 1302 4700 
Q 1616 4750 1894 4750 
Q 2613 4750 3031 4423 
Q 3450 4097 3450 3541 
Q 3450 3153 3228 2886 
Q 3006 2619 2597 2516 
z
" transform="scale(0.015625)"/>
       </defs>
       <use xlink:href="#DejaVuSans-33"/>
       <use xlink:href="#DejaVuSans-30" x="63.623047"/>
      </g>
     </g>
    </g>
    <g id="ytick_8">
     <g id="line2d_17">
      <g>
       <use xlink:href="#m055b62b4d4" x="57.6" y="61.075322" style="stroke: #000000; stroke-width: 0.8"/>
      </g>
     </g>
     <g id="text_18">
      <!-- 35 -->
      <g transform="translate(37.875 64.874541) scale(0.1 -0.1)">
       <use xlink:href="#DejaVuSans-33"/>
       <use xlink:href="#DejaVuSans-35" x="63.623047"/>
      </g>
     </g>
    </g>
    <g id="text_19">
     <!-- DOS -->
     <g transform="translate(31.795313 173.246956) rotate(-90) scale(0.1 -0.1)">
      <defs>
       <path id="DejaVuSans-44" d="M 1259 4147 
L 1259 519 
L 2022 519 
Q 2988 519 3436 956 
Q 3884 1394 3884 2338 
Q 3884 3275 3436 3711 
Q 2988 4147 2022 4147 
L 1259 4147 
z
M 628 4666 
L 1925 4666 
Q 3281 4666 3915 4102 
Q 4550 3538 4550 2338 
Q 4550 1131 3912 565 
Q 3275 0 1925 0 
L 628 0 
L 628 4666 
z
" transform="scale(0.015625)"/>
       <path id="DejaVuSans-4f" d="M 2522 4238 
Q 1834 4238 1429 3725 
Q 1025 3213 1025 2328 
Q 1025 1447 1429 934 
Q 1834 422 2522 422 
Q 3209 422 3611 934 
Q 4013 1447 4013 2328 
Q 4013 3213 3611 3725 
Q 3209 4238 2522 4238 
z
M 2522 4750 
Q 3503 4750 4090 4092 
Q 4678 3434 4678 2328 
Q 4678 1225 4090 567 
Q 3503 -91 2522 -91 
Q 1538 -91 948 565 
Q 359 1222 359 2328 
Q 359 3434 948 4092 
Q 1538 4750 2522 4750 
z
" transform="scale(0.015625)"/>
       <path id="DejaVuSans-53" d="M 3425 4513 
L 3425 3897 
Q 3066 4069 2747 4153 
Q 2428 4238 2131 4238 
Q 1616 4238 1336 4038 
Q 1056 3838 1056 3469 
Q 1056 3159 1242 3001 
Q 1428 2844 1947 2747 
L 2328 2669 
Q 3034 2534 3370 2195 
Q 3706 1856 3706 1288 
Q 3706 609 3251 259 
Q 2797 -91 1919 -91 
Q 1588 -91 1214 -16 
Q 841 59 441 206 
L 441 856 
Q 825 641 1194 531 
Q 1563 422 1919 422 
Q 2459 422 2753 634 
Q 3047 847 3047 1241 
Q 3047 1584 2836 1778 
Q 2625 1972 2144 2069 
L 1759 2144 
Q 1053 2284 737 2584 
Q 422 2884 422 3419 
Q 422 4038 858 4394 
Q 1294 4750 2059 4750 
Q 2388 4750 2728 4690 
Q 3069 4631 3425 4513 
z
" transform="scale(0.015625)"/>
      </defs>
      <use xlink:href="#DejaVuSans-44"/>
      <use xlink:href="#DejaVuSans-4f" x="77.001953"/>
      <use xlink:href="#DejaVuSans-53" x="155.712891"/>
     </g>
    </g>
   </g>
   <g id="line2d_18">
    <path d="M 73.832727 274.7628 
L 142.984145 274.669396 
L 143.3088 274.611946 
L 143.633455 274.396165 
L 143.958109 273.690923 
L 144.282764 273.477979 
L 145.256727 273.362174 
L 148.503273 273.18833 
L 148.827927 273.250346 
L 149.152582 272.968145 
L 149.477236 273.192172 
L 150.4512 273.040532 
L 151.100509 273.126322 
L 151.749818 272.93639 
L 152.723782 273.00286 
L 153.048436 272.658107 
L 153.373091 272.86232 
L 153.697745 272.817939 
L 154.0224 272.928151 
L 154.347055 272.647572 
L 154.671709 272.519366 
L 154.996364 272.798498 
L 155.321018 272.595368 
L 155.645673 272.769628 
L 155.970327 272.357873 
L 156.294982 272.174436 
L 156.619636 272.490985 
L 156.944291 272.174868 
L 157.268945 272.408246 
L 157.5936 272.199944 
L 157.918255 271.00926 
L 158.242909 271.69426 
L 158.567564 271.290521 
L 158.892218 271.617056 
L 159.216873 271.650451 
L 159.541527 270.991513 
L 159.866182 272.354945 
L 160.190836 272.503606 
L 160.515491 272.257742 
L 160.840145 272.626872 
L 161.1648 272.495765 
L 161.489455 272.126963 
L 161.814109 272.820722 
L 162.138764 272.943825 
L 162.463418 272.703854 
L 162.788073 272.97239 
L 163.112727 272.9142 
L 163.437382 272.658679 
L 163.762036 272.843421 
L 164.086691 273.214534 
L 164.736 273.035054 
L 165.060655 273.188504 
L 165.385309 273.089669 
L 165.709964 272.826589 
L 166.034618 273.279532 
L 167.008582 273.217861 
L 167.333236 273.357909 
L 167.657891 273.26813 
L 167.982545 273.031364 
L 168.631855 273.556292 
L 168.956509 273.379699 
L 169.281164 273.341577 
L 169.605818 273.505087 
L 169.930473 273.482125 
L 170.255127 273.187832 
L 170.904436 273.656282 
L 171.553745 273.485221 
L 172.203055 273.618552 
L 172.852364 273.310311 
L 173.177018 273.634035 
L 173.501673 273.692748 
L 173.826327 273.572342 
L 174.800291 273.653129 
L 175.124945 273.405187 
L 175.4496 273.525061 
L 175.774255 273.781357 
L 176.748218 273.664592 
L 177.397527 273.713887 
L 177.722182 273.49792 
L 178.046836 273.57847 
L 178.371491 273.804149 
L 179.345455 273.747465 
L 179.670109 273.707297 
L 179.994764 273.882666 
L 180.644073 273.499073 
L 180.968727 273.877382 
L 181.293382 273.937722 
L 181.618036 273.756489 
L 181.942691 273.766224 
L 182.267345 273.904538 
L 182.592 273.791621 
L 182.916655 273.848313 
L 183.241309 273.594709 
L 183.890618 273.919763 
L 184.215273 273.944167 
L 184.539927 273.762582 
L 185.189236 273.974503 
L 185.513891 273.806806 
L 185.838545 273.854636 
L 186.1632 273.592697 
L 186.487855 273.926248 
L 187.137164 273.969149 
L 187.461818 273.75018 
L 188.111127 274.015394 
L 188.435782 273.778698 
L 188.760436 273.876911 
L 189.085091 273.705755 
L 189.7344 274.112495 
L 190.383709 273.865338 
L 191.357673 273.933564 
L 191.682327 273.805371 
L 192.980945 273.977536 
L 193.954909 273.958761 
L 194.279564 273.987317 
L 194.604218 273.724101 
L 194.928873 274.025049 
L 195.253527 274.077505 
L 195.578182 273.98093 
L 195.902836 274.106495 
L 196.227491 273.887402 
L 196.552145 274.092052 
L 196.8768 273.932044 
L 197.201455 274.007801 
L 197.526109 273.825624 
L 197.850764 273.916908 
L 198.175418 274.142576 
L 198.824727 273.940732 
L 199.149382 274.086276 
L 200.448 273.914667 
L 200.772655 274.093097 
L 201.097309 274.037563 
L 201.421964 274.158801 
L 201.746618 273.972982 
L 202.071273 273.97307 
L 202.395927 274.190603 
L 203.369891 273.788246 
L 203.694545 274.131232 
L 204.0192 274.187591 
L 204.993164 273.999866 
L 205.642473 274.089106 
L 205.967127 274.041045 
L 206.291782 273.822131 
L 206.616436 274.128333 
L 206.941091 274.168953 
L 207.5904 274.050467 
L 207.915055 274.124273 
L 208.889018 273.951048 
L 209.862982 274.123104 
L 210.187636 274.137771 
L 210.512291 274.007972 
L 210.836945 274.194856 
L 211.810909 273.951951 
L 212.135564 274.145481 
L 212.784873 274.103675 
L 213.109527 274.042327 
L 213.758836 274.143254 
L 214.7328 273.918926 
L 215.057455 274.274258 
L 216.031418 274.060232 
L 216.356073 274.164125 
L 217.654691 273.999425 
L 217.979345 274.272658 
L 218.628655 273.990138 
L 218.953309 274.172534 
L 219.927273 273.911215 
L 220.251927 274.238497 
L 220.576582 274.035279 
L 220.901236 274.20922 
L 221.225891 274.073168 
L 221.8752 274.117783 
L 222.524509 273.978811 
L 222.849164 274.161087 
L 223.173818 274.139623 
L 223.498473 273.942715 
L 223.823127 274.167202 
L 224.472436 274.092398 
L 224.797091 273.844303 
L 225.121745 274.110536 
L 225.4464 274.186441 
L 225.771055 274.132766 
L 226.095709 273.922953 
L 226.420364 274.170119 
L 227.069673 273.93487 
L 227.394327 273.957969 
L 227.718982 274.117243 
L 228.043636 274.126851 
L 228.692945 273.968846 
L 229.0176 274.061961 
L 229.342255 273.863812 
L 229.991564 274.033522 
L 230.640873 273.958975 
L 230.965527 273.97649 
L 231.614836 273.700583 
L 231.939491 273.832102 
L 232.264145 273.797944 
L 232.5888 273.578882 
L 232.913455 273.641417 
L 233.238109 273.43749 
L 233.562764 273.065758 
L 233.887418 272.987125 
L 234.212073 272.612384 
L 234.536727 271.896273 
L 234.861382 270.626173 
L 235.186036 268.112351 
L 235.510691 260.776583 
L 235.835345 229.228768 
L 236.16 49.8108 
L 236.484655 229.189741 
L 236.809309 260.935533 
L 237.133964 267.961735 
L 237.458618 270.504121 
L 237.783273 271.919838 
L 238.107927 272.575105 
L 238.757236 273.220381 
L 239.081891 273.219422 
L 239.406545 273.555833 
L 240.380509 273.745623 
L 240.705164 273.592514 
L 241.029818 273.922002 
L 241.354473 273.823055 
L 242.653091 273.962307 
L 243.3024 273.857809 
L 245.574982 273.921058 
L 245.899636 273.759726 
L 246.224291 273.909548 
L 246.8736 273.74452 
L 247.522909 273.767069 
L 247.847564 273.644641 
L 248.172218 273.70535 
L 249.146182 273.425256 
L 250.120145 272.804905 
L 250.4448 272.452046 
L 250.769455 271.752983 
L 251.094109 270.523884 
L 251.418764 267.932776 
L 251.743418 260.815078 
L 252.068073 229.177776 
L 252.392727 49.933579 
L 252.717382 229.742266 
L 253.042036 261.479556 
L 253.366691 268.635841 
L 253.691345 271.259445 
L 254.016 272.496853 
L 254.340655 273.175813 
L 254.989964 273.856545 
L 255.639273 274.174188 
L 256.937891 274.453134 
L 259.210473 274.616951 
L 264.7296 274.710531 
L 284.533527 274.730034 
L 292.649891 274.59638 
L 294.273164 274.370052 
L 294.922473 274.079337 
L 295.247127 273.757853 
L 295.571782 273.038291 
L 295.896436 270.425655 
L 296.221091 261.211461 
L 297.195055 251.459382 
L 297.519709 251.507416 
L 297.844364 257.27442 
L 298.493673 262.863578 
L 299.142982 265.636968 
L 299.792291 267.384371 
L 300.4416 268.474952 
L 301.090909 269.458738 
L 302.064873 270.452719 
L 302.389527 270.55155 
L 302.714182 270.908796 
L 303.688145 271.456 
L 304.662109 271.875008 
L 304.986764 271.885632 
L 305.311418 272.151126 
L 305.636073 272.134133 
L 305.960727 272.384866 
L 307.259345 272.543966 
L 307.584 272.827209 
L 308.233309 272.726604 
L 308.557964 273.018205 
L 309.207273 272.918722 
L 309.531927 273.127851 
L 309.856582 273.144683 
L 310.181236 273.043577 
L 310.505891 273.258399 
L 310.830545 273.309052 
L 311.1552 273.133991 
L 311.479855 273.431185 
L 311.804509 273.312136 
L 312.453818 273.440157 
L 313.103127 273.474864 
L 313.427782 273.392999 
L 313.752436 273.588558 
L 314.077091 273.616234 
L 314.401745 273.495127 
L 314.7264 273.650794 
L 315.051055 273.636962 
L 315.375709 273.735477 
L 315.700364 273.516187 
L 316.025018 273.797242 
L 316.349673 273.718612 
L 316.674327 273.786416 
L 316.998982 273.636759 
L 317.323636 273.877433 
L 318.2976 273.795217 
L 318.946909 273.886365 
L 319.271564 273.752751 
L 319.596218 273.933522 
L 320.570182 273.836446 
L 320.894836 274.031431 
L 321.219491 273.94547 
L 321.544145 273.991167 
L 321.8688 273.884755 
L 322.193455 274.014305 
L 323.167418 273.945658 
L 323.816727 274.070796 
L 324.141382 273.993881 
L 325.115345 274.124009 
L 325.44 273.980359 
L 325.764655 274.148364 
L 326.413964 274.092554 
L 327.387927 274.100627 
L 328.037236 274.138561 
L 329.335855 274.180735 
L 330.309818 274.146438 
L 330.959127 274.196909 
L 333.231709 274.289405 
L 333.881018 274.676165 
L 335.179636 274.740206 
L 348.815127 274.758976 
L 398.487273 274.762595 
L 398.487273 274.762595 
" clip-path="url(#p6139d0464f)" style="fill: none; stroke: #1f77b4; stroke-width: 1.5; stroke-linecap: square"/>
   </g>
   <g id="patch_3">
    <path d="M 57.6 286.0104 
L 57.6 38.5632 
" style="fill: none; stroke: #000000; stroke-width: 0.8; stroke-linejoin: miter; stroke-linecap: square"/>
   </g>
   <g id="patch_4">
    <path d="M 414.72 286.0104 
L 414.72 38.5632 
" style="fill: none; stroke: #000000; stroke-width: 0.8; stroke-linejoin: miter; stroke-linecap: square"/>
   </g>
   <g id="patch_5">
    <path d="M 57.6 286.0104 
L 414.72 286.0104 
" style="fill: none; stroke: #000000; stroke-width: 0.8; stroke-linejoin: miter; stroke-linecap: square"/>
   </g>
   <g id="patch_6">
    <path d="M 57.6 38.5632 
L 414.72 38.5632 
" style="fill: none; stroke: #000000; stroke-width: 0.8; stroke-linejoin: miter; stroke-linecap: square"/>
   </g>
  </g>
 </g>
 <defs>
  <clipPath id="p6139d0464f">
   <rect x="57.6" y="38.5632" width="357.12" height="247.4472"/>
  </clipPath>
 </defs>
</svg>
