<?xml version="1.0" encoding="utf-8" standalone="no"?>
<!DOCTYPE svg PUBLIC "-//W3C//DTD SVG 1.1//EN"
  "http://www.w3.org/Graphics/SVG/1.1/DTD/svg11.dtd">
<svg xmlns:xlink="http://www.w3.org/1999/xlink" width="460.8pt" height="321.36pt" viewBox="0 0 460.8 321.36" xmlns="http://www.w3.org/2000/svg" version="1.1">
 <metadata>
  <rdf:RDF xmlns:dc="http://purl.org/dc/elements/1.1/" xmlns:cc="http://creativecommons.org/ns#" xmlns:rdf="http://www.w3.org/1999/02/22-rdf-syntax-ns#">
   <cc:Work>
    <dc:type rdf:resource="http://purl.org/dc/dcmitype/StillImage"/>
    <dc:date>2023-09-26T15:26:29.968535</dc:date>
    <dc:format>image/svg+xml</dc:format>
    <dc:creator>
     <cc:Agent>
      <dc:title>Matplotlib v3.7.1, https://matplotlib.org/</dc:title>
     </cc:Agent>
    </dc:creator>
   </cc:Work>
  </rdf:RDF>
 </metadata>
 <defs>
  <style type="text/css">*{stroke-linejoin: round; stroke-linecap: butt}</style>
 </defs>
 <g id="figure_1">
  <g id="patch_1">
   <path d="M 0 321.36 
L 460.8 321.36 
L 460.8 0 
L 0 0 
z
" style="fill: #ffffff"/>
  </g>
  <g id="axes_1">
   <g id="patch_2">
    <path d="M 57.6 286.0104 
L 414.72 286.0104 
L 414.72 38.5632 
L 57.6 38.5632 
z
" style="fill: #ffffff"/>
   </g>
   <g id="matplotlib.axis_1">
    <g id="xtick_1">
     <g id="line2d_1">
      <defs>
       <path id="ma57564aebe" d="M 0 0 
L 0 3.5 
" style="stroke: #000000; stroke-width: 0.8"/>
      </defs>
      <g>
       <use xlink:href="#ma57564aebe" x="57.6" y="286.0104" style="stroke: #000000; stroke-width: 0.8"/>
      </g>
     </g>
     <g id="text_1">
      <!-- ${\Gamma}$ -->
      <g transform="translate(54.8 300.608837) scale(0.1 -0.1)">
       <defs>
        <path id="DejaVuSans-393" d="M 628 0 
L 628 4666 
L 3531 4666 
L 3531 4134 
L 1259 4134 
L 1259 0 
L 628 0 
z
" transform="scale(0.015625)"/>
       </defs>
       <use xlink:href="#DejaVuSans-393" transform="translate(0 0.09375)"/>
      </g>
     </g>
    </g>
    <g id="xtick_2">
     <g id="line2d_2">
      <g>
       <use xlink:href="#ma57564aebe" x="188.314991" y="286.0104" style="stroke: #000000; stroke-width: 0.8"/>
      </g>
     </g>
     <g id="text_2">
      <!-- M -->
      <g transform="translate(184.000929 300.608837) scale(0.1 -0.1)">
       <defs>
        <path id="DejaVuSans-4d" d="M 628 4666 
L 1569 4666 
L 2759 1491 
L 3956 4666 
L 4897 4666 
L 4897 0 
L 4281 0 
L 4281 4097 
L 3078 897 
L 2444 897 
L 1241 4097 
L 1241 0 
L 628 0 
L 628 4666 
z
" transform="scale(0.015625)"/>
       </defs>
       <use xlink:href="#DejaVuSans-4d"/>
      </g>
     </g>
    </g>
    <g id="xtick_3">
     <g id="line2d_3">
      <g>
       <use xlink:href="#ma57564aebe" x="263.775781" y="286.0104" style="stroke: #000000; stroke-width: 0.8"/>
      </g>
     </g>
     <g id="text_3">
      <!-- K -->
      <g transform="translate(260.496875 300.608837) scale(0.1 -0.1)">
       <defs>
        <path id="DejaVuSans-4b" d="M 628 4666 
L 1259 4666 
L 1259 2694 
L 3353 4666 
L 4166 4666 
L 1850 2491 
L 4331 0 
L 3500 0 
L 1259 2247 
L 1259 0 
L 628 0 
L 628 4666 
z
" transform="scale(0.015625)"/>
       </defs>
       <use xlink:href="#DejaVuSans-4b"/>
      </g>
     </g>
    </g>
    <g id="xtick_4">
     <g id="line2d_4">
      <g>
       <use xlink:href="#ma57564aebe" x="414.72" y="286.0104" style="stroke: #000000; stroke-width: 0.8"/>
      </g>
     </g>
     <g id="text_4">
      <!-- ${\Gamma}$ -->
      <g transform="translate(411.92 300.608837) scale(0.1 -0.1)">
       <use xlink:href="#DejaVuSans-393" transform="translate(0 0.09375)"/>
      </g>
     </g>
    </g>
   </g>
   <g id="matplotlib.axis_2">
    <g id="ytick_1">
     <g id="line2d_5">
      <defs>
       <path id="ma65f070954" d="M 0 0 
L -3.5 0 
" style="stroke: #000000; stroke-width: 0.8"/>
      </defs>
      <g>
       <use xlink:href="#ma65f070954" x="57.6" y="249.768136" style="stroke: #000000; stroke-width: 0.8"/>
      </g>
     </g>
     <g id="text_5">
      <!-- −2 -->
      <g transform="translate(35.857813 253.567355) scale(0.1 -0.1)">
       <defs>
        <path id="DejaVuSans-2212" d="M 678 2272 
L 4684 2272 
L 4684 1741 
L 678 1741 
L 678 2272 
z
" transform="scale(0.015625)"/>
        <path id="DejaVuSans-32" d="M 1228 531 
L 3431 531 
L 3431 0 
L 469 0 
L 469 531 
Q 828 903 1448 1529 
Q 2069 2156 2228 2338 
Q 2531 2678 2651 2914 
Q 2772 3150 2772 3378 
Q 2772 3750 2511 3984 
Q 2250 4219 1831 4219 
Q 1534 4219 1204 4116 
Q 875 4013 500 3803 
L 500 4441 
Q 881 4594 1212 4672 
Q 1544 4750 1819 4750 
Q 2544 4750 2975 4387 
Q 3406 4025 3406 3419 
Q 3406 3131 3298 2873 
Q 3191 2616 2906 2266 
Q 2828 2175 2409 1742 
Q 1991 1309 1228 531 
z
" transform="scale(0.015625)"/>
       </defs>
       <use xlink:href="#DejaVuSans-2212"/>
       <use xlink:href="#DejaVuSans-32" x="83.789062"/>
      </g>
     </g>
    </g>
    <g id="ytick_2">
     <g id="line2d_6">
      <g>
       <use xlink:href="#ma65f070954" x="57.6" y="199.778802" style="stroke: #000000; stroke-width: 0.8"/>
      </g>
     </g>
     <g id="text_6">
      <!-- 0 -->
      <g transform="translate(44.2375 203.578021) scale(0.1 -0.1)">
       <defs>
        <path id="DejaVuSans-30" d="M 2034 4250 
Q 1547 4250 1301 3770 
Q 1056 3291 1056 2328 
Q 1056 1369 1301 889 
Q 1547 409 2034 409 
Q 2525 409 2770 889 
Q 3016 1369 3016 2328 
Q 3016 3291 2770 3770 
Q 2525 4250 2034 4250 
z
M 2034 4750 
Q 2819 4750 3233 4129 
Q 3647 3509 3647 2328 
Q 3647 1150 3233 529 
Q 2819 -91 2034 -91 
Q 1250 -91 836 529 
Q 422 1150 422 2328 
Q 422 3509 836 4129 
Q 1250 4750 2034 4750 
z
" transform="scale(0.015625)"/>
       </defs>
       <use xlink:href="#DejaVuSans-30"/>
      </g>
     </g>
    </g>
    <g id="ytick_3">
     <g id="line2d_7">
      <g>
       <use xlink:href="#ma65f070954" x="57.6" y="149.789468" style="stroke: #000000; stroke-width: 0.8"/>
      </g>
     </g>
     <g id="text_7">
      <!-- 2 -->
      <g transform="translate(44.2375 153.588687) scale(0.1 -0.1)">
       <use xlink:href="#DejaVuSans-32"/>
      </g>
     </g>
    </g>
    <g id="ytick_4">
     <g id="line2d_8">
      <g>
       <use xlink:href="#ma65f070954" x="57.6" y="99.800134" style="stroke: #000000; stroke-width: 0.8"/>
      </g>
     </g>
     <g id="text_8">
      <!-- 4 -->
      <g transform="translate(44.2375 103.599353) scale(0.1 -0.1)">
       <defs>
        <path id="DejaVuSans-34" d="M 2419 4116 
L 825 1625 
L 2419 1625 
L 2419 4116 
z
M 2253 4666 
L 3047 4666 
L 3047 1625 
L 3713 1625 
L 3713 1100 
L 3047 1100 
L 3047 0 
L 2419 0 
L 2419 1100 
L 313 1100 
L 313 1709 
L 2253 4666 
z
" transform="scale(0.015625)"/>
       </defs>
       <use xlink:href="#DejaVuSans-34"/>
      </g>
     </g>
    </g>
    <g id="ytick_5">
     <g id="line2d_9">
      <g>
       <use xlink:href="#ma65f070954" x="57.6" y="49.8108" style="stroke: #000000; stroke-width: 0.8"/>
      </g>
     </g>
     <g id="text_9">
      <!-- 6 -->
      <g transform="translate(44.2375 53.610019) scale(0.1 -0.1)">
       <defs>
        <path id="DejaVuSans-36" d="M 2113 2584 
Q 1688 2584 1439 2293 
Q 1191 2003 1191 1497 
Q 1191 994 1439 701 
Q 1688 409 2113 409 
Q 2538 409 2786 701 
Q 3034 994 3034 1497 
Q 3034 2003 2786 2293 
Q 2538 2584 2113 2584 
z
M 3366 4563 
L 3366 3988 
Q 3128 4100 2886 4159 
Q 2644 4219 2406 4219 
Q 1781 4219 1451 3797 
Q 1122 3375 1075 2522 
Q 1259 2794 1537 2939 
Q 1816 3084 2150 3084 
Q 2853 3084 3261 2657 
Q 3669 2231 3669 1497 
Q 3669 778 3244 343 
Q 2819 -91 2113 -91 
Q 1303 -91 875 529 
Q 447 1150 447 2328 
Q 447 3434 972 4092 
Q 1497 4750 2381 4750 
Q 2619 4750 2861 4703 
Q 3103 4656 3366 4563 
z
" transform="scale(0.015625)"/>
       </defs>
       <use xlink:href="#DejaVuSans-36"/>
      </g>
     </g>
    </g>
    <g id="text_10">
     <!-- Energy -->
     <g transform="translate(29.778125 179.79305) rotate(-90) scale(0.1 -0.1)">
      <defs>
       <path id="DejaVuSans-45" d="M 628 4666 
L 3578 4666 
L 3578 4134 
L 1259 4134 
L 1259 2753 
L 3481 2753 
L 3481 2222 
L 1259 2222 
L 1259 531 
L 3634 531 
L 3634 0 
L 628 0 
L 628 4666 
z
" transform="scale(0.015625)"/>
       <path id="DejaVuSans-6e" d="M 3513 2113 
L 3513 0 
L 2938 0 
L 2938 2094 
Q 2938 2591 2744 2837 
Q 2550 3084 2163 3084 
Q 1697 3084 1428 2787 
Q 1159 2491 1159 1978 
L 1159 0 
L 581 0 
L 581 3500 
L 1159 3500 
L 1159 2956 
Q 1366 3272 1645 3428 
Q 1925 3584 2291 3584 
Q 2894 3584 3203 3211 
Q 3513 2838 3513 2113 
z
" transform="scale(0.015625)"/>
       <path id="DejaVuSans-65" d="M 3597 1894 
L 3597 1613 
L 953 1613 
Q 991 1019 1311 708 
Q 1631 397 2203 397 
Q 2534 397 2845 478 
Q 3156 559 3463 722 
L 3463 178 
Q 3153 47 2828 -22 
Q 2503 -91 2169 -91 
Q 1331 -91 842 396 
Q 353 884 353 1716 
Q 353 2575 817 3079 
Q 1281 3584 2069 3584 
Q 2775 3584 3186 3129 
Q 3597 2675 3597 1894 
z
M 3022 2063 
Q 3016 2534 2758 2815 
Q 2500 3097 2075 3097 
Q 1594 3097 1305 2825 
Q 1016 2553 972 2059 
L 3022 2063 
z
" transform="scale(0.015625)"/>
       <path id="DejaVuSans-72" d="M 2631 2963 
Q 2534 3019 2420 3045 
Q 2306 3072 2169 3072 
Q 1681 3072 1420 2755 
Q 1159 2438 1159 1844 
L 1159 0 
L 581 0 
L 581 3500 
L 1159 3500 
L 1159 2956 
Q 1341 3275 1631 3429 
Q 1922 3584 2338 3584 
Q 2397 3584 2469 3576 
Q 2541 3569 2628 3553 
L 2631 2963 
z
" transform="scale(0.015625)"/>
       <path id="DejaVuSans-67" d="M 2906 1791 
Q 2906 2416 2648 2759 
Q 2391 3103 1925 3103 
Q 1463 3103 1205 2759 
Q 947 2416 947 1791 
Q 947 1169 1205 825 
Q 1463 481 1925 481 
Q 2391 481 2648 825 
Q 2906 1169 2906 1791 
z
M 3481 434 
Q 3481 -459 3084 -895 
Q 2688 -1331 1869 -1331 
Q 1566 -1331 1297 -1286 
Q 1028 -1241 775 -1147 
L 775 -588 
Q 1028 -725 1275 -790 
Q 1522 -856 1778 -856 
Q 2344 -856 2625 -561 
Q 2906 -266 2906 331 
L 2906 616 
Q 2728 306 2450 153 
Q 2172 0 1784 0 
Q 1141 0 747 490 
Q 353 981 353 1791 
Q 353 2603 747 3093 
Q 1141 3584 1784 3584 
Q 2172 3584 2450 3431 
Q 2728 3278 2906 2969 
L 2906 3500 
L 3481 3500 
L 3481 434 
z
" transform="scale(0.015625)"/>
       <path id="DejaVuSans-79" d="M 2059 -325 
Q 1816 -950 1584 -1140 
Q 1353 -1331 966 -1331 
L 506 -1331 
L 506 -850 
L 844 -850 
Q 1081 -850 1212 -737 
Q 1344 -625 1503 -206 
L 1606 56 
L 191 3500 
L 800 3500 
L 1894 763 
L 2988 3500 
L 3597 3500 
L 2059 -325 
z
" transform="scale(0.015625)"/>
      </defs>
      <use xlink:href="#DejaVuSans-45"/>
      <use xlink:href="#DejaVuSans-6e" x="63.183594"/>
      <use xlink:href="#DejaVuSans-65" x="126.5625"/>
      <use xlink:href="#DejaVuSans-72" x="188.085938"/>
      <use xlink:href="#DejaVuSans-67" x="227.449219"/>
      <use xlink:href="#DejaVuSans-79" x="290.925781"/>
     </g>
    </g>
   </g>
   <g id="line2d_10">
    <path d="M 57.6 286.0104 
L 57.6 38.5632 
" clip-path="url(#p54c855c003)" style="fill: none; stroke-dasharray: 5.55,2.4; stroke-dashoffset: 0; stroke: #808080; stroke-width: 1.5"/>
   </g>
   <g id="line2d_11">
    <path d="M 188.314991 286.0104 
L 188.314991 38.5632 
" clip-path="url(#p54c855c003)" style="fill: none; stroke-dasharray: 5.55,2.4; stroke-dashoffset: 0; stroke: #808080; stroke-width: 1.5"/>
   </g>
   <g id="line2d_12">
    <path d="M 263.775781 286.0104 
L 263.775781 38.5632 
" clip-path="url(#p54c855c003)" style="fill: none; stroke-dasharray: 5.55,2.4; stroke-dashoffset: 0; stroke: #808080; stroke-width: 1.5"/>
   </g>
   <g id="line2d_13">
    <path d="M 414.72 286.0104 
L 414.72 38.5632 
" clip-path="url(#p54c855c003)" style="fill: none; stroke-dasharray: 5.55,2.4; stroke-dashoffset: 0; stroke: #808080; stroke-width: 1.5"/>
   </g>
   <g id="line2d_14">
    <path d="M 57.6 174.784135 
L 61.132838 174.784135 
L 64.665675 174.784135 
L 68.198513 174.784135 
L 71.73135 174.784135 
L 75.264188 174.784135 
L 78.797026 174.784135 
L 82.329863 174.784135 
L 85.862701 174.784135 
L 89.395538 174.784135 
L 92.928376 174.784135 
L 96.461214 174.784135 
L 99.994051 174.784135 
L 103.526889 174.784135 
L 107.059726 174.784135 
L 110.592564 174.784135 
L 114.125402 174.784135 
L 117.658239 174.784135 
L 121.191077 174.784135 
L 124.723915 174.784135 
L 128.256752 174.784135 
L 131.78959 174.784135 
L 135.322427 179.065499 
L 138.855265 187.067162 
L 142.388103 194.800239 
L 145.92094 202.209012 
L 149.453778 209.240101 
L 152.986615 215.842847 
L 156.519453 221.969677 
L 160.052291 227.576447 
L 163.585128 232.622759 
L 167.117966 237.072256 
L 170.650803 240.892879 
L 174.183641 244.057099 
L 177.716479 246.542119 
L 181.249316 248.330034 
L 184.782154 249.407962 
L 188.314991 249.768136 
L 191.908362 249.892238 
L 195.501733 250.262386 
L 199.095104 250.872125 
L 202.688475 251.71078 
L 206.281846 252.76357 
L 209.875217 254.011769 
L 213.468588 255.432917 
L 217.061959 257.001066 
L 220.65533 258.687068 
L 224.248701 260.458894 
L 227.842072 262.281999 
L 231.435443 264.1197 
L 235.028814 265.933587 
L 238.622185 267.68396 
L 242.215556 269.330272 
L 245.808927 270.831592 
L 249.402298 272.147073 
L 252.995668 273.23642 
L 256.589039 274.060362 
L 260.18241 274.581108 
L 263.775781 274.7628 
L 267.369691 274.571887 
L 270.963601 273.977583 
L 274.557511 272.952321 
L 278.151421 271.472054 
L 281.745331 269.516582 
L 285.339241 267.069836 
L 288.933151 264.120131 
L 292.527061 260.660366 
L 296.120971 256.688188 
L 299.714881 252.206109 
L 303.308791 247.221568 
L 306.902701 241.746953 
L 310.496611 235.799569 
L 314.090521 229.401558 
L 317.684431 222.579771 
L 321.278341 215.365595 
L 324.872251 207.794725 
L 328.466161 199.906907 
L 332.060071 191.745625 
L 335.653981 183.357759 
L 339.247891 174.793203 
L 342.841801 174.784135 
L 346.435711 174.784135 
L 350.029621 174.784135 
L 353.623531 174.784135 
L 357.217441 174.784135 
L 360.81135 174.784135 
L 364.40526 174.784135 
L 367.99917 174.784135 
L 371.59308 174.784135 
L 375.18699 174.784135 
L 378.7809 174.784135 
L 382.37481 174.784135 
L 385.96872 174.784135 
L 389.56263 174.784135 
L 393.15654 174.784135 
L 396.75045 174.784135 
L 400.34436 174.784135 
L 403.93827 174.784135 
L 407.53218 174.784135 
L 411.12609 174.784135 
L 414.72 174.784135 
" clip-path="url(#p54c855c003)" style="fill: none; stroke: #000000; stroke-width: 1.5; stroke-linecap: square"/>
   </g>
   <g id="line2d_15">
    <path d="M 57.6 174.784135 
L 61.132838 174.784135 
L 64.665675 174.784135 
L 68.198513 174.784135 
L 71.73135 174.784135 
L 75.264188 174.784135 
L 78.797026 174.784135 
L 82.329863 174.784135 
L 85.862701 174.784135 
L 89.395538 174.784135 
L 92.928376 174.784135 
L 96.461214 174.784135 
L 99.994051 174.784135 
L 103.526889 174.784135 
L 107.059726 174.784135 
L 110.592564 174.784135 
L 114.125402 174.784135 
L 117.658239 174.784135 
L 121.191077 174.784135 
L 124.723915 174.784135 
L 128.256752 174.784135 
L 131.78959 174.784135 
L 135.322427 179.065499 
L 138.855265 187.067162 
L 142.388103 194.800239 
L 145.92094 202.209012 
L 149.453778 209.240101 
L 152.986615 215.842847 
L 156.519453 221.969677 
L 160.052291 227.576447 
L 163.585128 232.622759 
L 167.117966 237.072256 
L 170.650803 240.892879 
L 174.183641 244.057099 
L 177.716479 246.542119 
L 181.249316 248.330034 
L 184.782154 249.407962 
L 188.314991 249.768136 
L 191.908362 249.892238 
L 195.501733 250.262386 
L 199.095104 250.872125 
L 202.688475 251.71078 
L 206.281846 252.76357 
L 209.875217 254.011769 
L 213.468588 255.432917 
L 217.061959 257.001066 
L 220.65533 258.687068 
L 224.248701 260.458894 
L 227.842072 262.281999 
L 231.435443 264.1197 
L 235.028814 265.933587 
L 238.622185 267.68396 
L 242.215556 269.330272 
L 245.808927 270.831592 
L 249.402298 272.147073 
L 252.995668 273.23642 
L 256.589039 274.060362 
L 260.18241 274.581108 
L 263.775781 274.7628 
L 267.369691 274.571887 
L 270.963601 273.977583 
L 274.557511 272.952321 
L 278.151421 271.472054 
L 281.745331 269.516582 
L 285.339241 267.069836 
L 288.933151 264.120131 
L 292.527061 260.660366 
L 296.120971 256.688188 
L 299.714881 252.206109 
L 303.308791 247.221568 
L 306.902701 241.746953 
L 310.496611 235.799569 
L 314.090521 229.401558 
L 317.684431 222.579771 
L 321.278341 215.365595 
L 324.872251 207.794725 
L 328.466161 199.906907 
L 332.060071 191.745625 
L 335.653981 183.357759 
L 339.247891 174.793203 
L 342.841801 174.784135 
L 346.435711 174.784135 
L 350.029621 174.784135 
L 353.623531 174.784135 
L 357.217441 174.784135 
L 360.81135 174.784135 
L 364.40526 174.784135 
L 367.99917 174.784135 
L 371.59308 174.784135 
L 375.18699 174.784135 
L 378.7809 174.784135 
L 382.37481 174.784135 
L 385.96872 174.784135 
L 389.56263 174.784135 
L 393.15654 174.784135 
L 396.75045 174.784135 
L 400.34436 174.784135 
L 403.93827 174.784135 
L 407.53218 174.784135 
L 411.12609 174.784135 
L 414.72 174.784135 
" clip-path="url(#p54c855c003)" style="fill: none; stroke: #000000; stroke-width: 1.5; stroke-linecap: square"/>
   </g>
   <g id="line2d_16">
    <path d="M 57.6 49.8108 
L 61.132838 50.170974 
L 64.665675 51.248902 
L 68.198513 53.036817 
L 71.73135 55.521837 
L 75.264188 58.686057 
L 78.797026 62.50668 
L 82.329863 66.956177 
L 85.862701 72.00249 
L 89.395538 77.609259 
L 92.928376 83.736089 
L 96.461214 90.338835 
L 99.994051 97.369924 
L 103.526889 104.778697 
L 107.059726 112.511774 
L 110.592564 120.513437 
L 114.125402 128.726035 
L 117.658239 137.090396 
L 121.191077 145.546253 
L 124.723915 154.032683 
L 128.256752 162.488541 
L 131.78959 170.852901 
L 135.322427 174.784135 
L 138.855265 174.784135 
L 142.388103 174.784135 
L 145.92094 174.784135 
L 149.453778 174.784135 
L 152.986615 174.784135 
L 156.519453 174.784135 
L 160.052291 174.784135 
L 163.585128 174.784135 
L 167.117966 174.784135 
L 170.650803 174.784135 
L 174.183641 174.784135 
L 177.716479 174.784135 
L 181.249316 174.784135 
L 184.782154 174.784135 
L 188.314991 174.784135 
L 191.908362 174.784135 
L 195.501733 174.784135 
L 199.095104 174.784135 
L 202.688475 174.784135 
L 206.281846 174.784135 
L 209.875217 174.784135 
L 213.468588 174.784135 
L 217.061959 174.784135 
L 220.65533 174.784135 
L 224.248701 174.784135 
L 227.842072 174.784135 
L 231.435443 174.784135 
L 235.028814 174.784135 
L 238.622185 174.784135 
L 242.215556 174.784135 
L 245.808927 174.784135 
L 249.402298 174.784135 
L 252.995668 174.784135 
L 256.589039 174.784135 
L 260.18241 174.784135 
L 263.775781 174.784135 
L 267.369691 174.784135 
L 270.963601 174.784135 
L 274.557511 174.784135 
L 278.151421 174.784135 
L 281.745331 174.784135 
L 285.339241 174.784135 
L 288.933151 174.784135 
L 292.527061 174.784135 
L 296.120971 174.784135 
L 299.714881 174.784135 
L 303.308791 174.784135 
L 306.902701 174.784135 
L 310.496611 174.784135 
L 314.090521 174.784135 
L 317.684431 174.784135 
L 321.278341 174.784135 
L 324.872251 174.784135 
L 328.466161 174.784135 
L 332.060071 174.784135 
L 335.653981 174.784135 
L 339.247891 174.784135 
L 342.841801 166.104451 
L 346.435711 157.346159 
L 350.029621 148.574679 
L 353.623531 139.847575 
L 357.217441 131.223127 
L 360.81135 122.759817 
L 364.40526 114.515823 
L 367.99917 106.548498 
L 371.59308 98.913866 
L 375.18699 91.66612 
L 378.7809 84.857139 
L 382.37481 78.536022 
L 385.96872 72.748647 
L 389.56263 67.537253 
L 393.15654 62.940063 
L 396.75045 58.990938 
L 400.34436 55.719065 
L 403.93827 53.148697 
L 407.53218 51.298929 
L 411.12609 50.183527 
L 414.72 49.8108 
" clip-path="url(#p54c855c003)" style="fill: none; stroke: #000000; stroke-width: 1.5; stroke-linecap: square"/>
   </g>
   <g id="line2d_17">
    <path d="M 57.6 49.8108 
L 61.132838 50.170974 
L 64.665675 51.248902 
L 68.198513 53.036817 
L 71.73135 55.521837 
L 75.264188 58.686057 
L 78.797026 62.50668 
L 82.329863 66.956177 
L 85.862701 72.00249 
L 89.395538 77.609259 
L 92.928376 83.736089 
L 96.461214 90.338835 
L 99.994051 97.369924 
L 103.526889 104.778697 
L 107.059726 112.511774 
L 110.592564 120.513437 
L 114.125402 128.726035 
L 117.658239 137.090396 
L 121.191077 145.546253 
L 124.723915 154.032683 
L 128.256752 162.488541 
L 131.78959 170.852901 
L 135.322427 174.784135 
L 138.855265 174.784135 
L 142.388103 174.784135 
L 145.92094 174.784135 
L 149.453778 174.784135 
L 152.986615 174.784135 
L 156.519453 174.784135 
L 160.052291 174.784135 
L 163.585128 174.784135 
L 167.117966 174.784135 
L 170.650803 174.784135 
L 174.183641 174.784135 
L 177.716479 174.784135 
L 181.249316 174.784135 
L 184.782154 174.784135 
L 188.314991 174.784135 
L 191.908362 174.784135 
L 195.501733 174.784135 
L 199.095104 174.784135 
L 202.688475 174.784135 
L 206.281846 174.784135 
L 209.875217 174.784135 
L 213.468588 174.784135 
L 217.061959 174.784135 
L 220.65533 174.784135 
L 224.248701 174.784135 
L 227.842072 174.784135 
L 231.435443 174.784135 
L 235.028814 174.784135 
L 238.622185 174.784135 
L 242.215556 174.784135 
L 245.808927 174.784135 
L 249.402298 174.784135 
L 252.995668 174.784135 
L 256.589039 174.784135 
L 260.18241 174.784135 
L 263.775781 174.784135 
L 267.369691 174.784135 
L 270.963601 174.784135 
L 274.557511 174.784135 
L 278.151421 174.784135 
L 281.745331 174.784135 
L 285.339241 174.784135 
L 288.933151 174.784135 
L 292.527061 174.784135 
L 296.120971 174.784135 
L 299.714881 174.784135 
L 303.308791 174.784135 
L 306.902701 174.784135 
L 310.496611 174.784135 
L 314.090521 174.784135 
L 317.684431 174.784135 
L 321.278341 174.784135 
L 324.872251 174.784135 
L 328.466161 174.784135 
L 332.060071 174.784135 
L 335.653981 174.784135 
L 339.247891 174.784135 
L 342.841801 166.104451 
L 346.435711 157.346159 
L 350.029621 148.574679 
L 353.623531 139.847575 
L 357.217441 131.223127 
L 360.81135 122.759817 
L 364.40526 114.515823 
L 367.99917 106.548498 
L 371.59308 98.913866 
L 375.18699 91.66612 
L 378.7809 84.857139 
L 382.37481 78.536022 
L 385.96872 72.748647 
L 389.56263 67.537253 
L 393.15654 62.940063 
L 396.75045 58.990938 
L 400.34436 55.719065 
L 403.93827 53.148697 
L 407.53218 51.298929 
L 411.12609 50.183527 
L 414.72 49.8108 
" clip-path="url(#p54c855c003)" style="fill: none; stroke: #000000; stroke-width: 1.5; stroke-linecap: square"/>
   </g>
   <g id="patch_3">
    <path d="M 57.6 286.0104 
L 57.6 38.5632 
" style="fill: none; stroke: #000000; stroke-width: 0.8; stroke-linejoin: miter; stroke-linecap: square"/>
   </g>
   <g id="patch_4">
    <path d="M 414.72 286.0104 
L 414.72 38.5632 
" style="fill: none; stroke: #000000; stroke-width: 0.8; stroke-linejoin: miter; stroke-linecap: square"/>
   </g>
   <g id="patch_5">
    <path d="M 57.6 286.0104 
L 414.72 286.0104 
" style="fill: none; stroke: #000000; stroke-width: 0.8; stroke-linejoin: miter; stroke-linecap: square"/>
   </g>
   <g id="patch_6">
    <path d="M 57.6 38.5632 
L 414.72 38.5632 
" style="fill: none; stroke: #000000; stroke-width: 0.8; stroke-linejoin: miter; stroke-linecap: square"/>
   </g>
  </g>
 </g>
 <defs>
  <clipPath id="p54c855c003">
   <rect x="57.6" y="38.5632" width="357.12" height="247.4472"/>
  </clipPath>
 </defs>
</svg>
