<?xml version="1.0" encoding="utf-8" standalone="no"?>
<!DOCTYPE svg PUBLIC "-//W3C//DTD SVG 1.1//EN"
  "http://www.w3.org/Graphics/SVG/1.1/DTD/svg11.dtd">
<svg xmlns:xlink="http://www.w3.org/1999/xlink" width="460.8pt" height="321.36pt" viewBox="0 0 460.8 321.36" xmlns="http://www.w3.org/2000/svg" version="1.1">
 <metadata>
  <rdf:RDF xmlns:dc="http://purl.org/dc/elements/1.1/" xmlns:cc="http://creativecommons.org/ns#" xmlns:rdf="http://www.w3.org/1999/02/22-rdf-syntax-ns#">
   <cc:Work>
    <dc:type rdf:resource="http://purl.org/dc/dcmitype/StillImage"/>
    <dc:date>2023-10-30T16:02:15.449719</dc:date>
    <dc:format>image/svg+xml</dc:format>
    <dc:creator>
     <cc:Agent>
      <dc:title>Matplotlib v3.7.1, https://matplotlib.org/</dc:title>
     </cc:Agent>
    </dc:creator>
   </cc:Work>
  </rdf:RDF>
 </metadata>
 <defs>
  <style type="text/css">*{stroke-linejoin: round; stroke-linecap: butt}</style>
 </defs>
 <g id="figure_1">
  <g id="patch_1">
   <path d="M 0 321.36 
L 460.8 321.36 
L 460.8 0 
L 0 0 
z
" style="fill: #ffffff"/>
  </g>
  <g id="axes_1">
   <g id="patch_2">
    <path d="M 57.6 286.0104 
L 414.72 286.0104 
L 414.72 38.5632 
L 57.6 38.5632 
z
" style="fill: #ffffff"/>
   </g>
   <g id="matplotlib.axis_1">
    <g id="xtick_1">
     <g id="line2d_1">
      <defs>
       <path id="m26258dd26d" d="M 0 0 
L 0 3.5 
" style="stroke: #000000; stroke-width: 0.8"/>
      </defs>
      <g>
       <use xlink:href="#m26258dd26d" x="57.6" y="286.0104" style="stroke: #000000; stroke-width: 0.8"/>
      </g>
     </g>
     <g id="text_1">
      <!-- ${\Gamma}$ -->
      <g transform="translate(54.8 300.608837) scale(0.1 -0.1)">
       <defs>
        <path id="DejaVuSans-393" d="M 628 0 
L 628 4666 
L 3531 4666 
L 3531 4134 
L 1259 4134 
L 1259 0 
L 628 0 
z
" transform="scale(0.015625)"/>
       </defs>
       <use xlink:href="#DejaVuSans-393" transform="translate(0 0.09375)"/>
      </g>
     </g>
    </g>
    <g id="xtick_2">
     <g id="line2d_2">
      <g>
       <use xlink:href="#m26258dd26d" x="188.314991" y="286.0104" style="stroke: #000000; stroke-width: 0.8"/>
      </g>
     </g>
     <g id="text_2">
      <!-- M -->
      <g transform="translate(184.000929 300.608837) scale(0.1 -0.1)">
       <defs>
        <path id="DejaVuSans-4d" d="M 628 4666 
L 1569 4666 
L 2759 1491 
L 3956 4666 
L 4897 4666 
L 4897 0 
L 4281 0 
L 4281 4097 
L 3078 897 
L 2444 897 
L 1241 4097 
L 1241 0 
L 628 0 
L 628 4666 
z
" transform="scale(0.015625)"/>
       </defs>
       <use xlink:href="#DejaVuSans-4d"/>
      </g>
     </g>
    </g>
    <g id="xtick_3">
     <g id="line2d_3">
      <g>
       <use xlink:href="#m26258dd26d" x="263.775781" y="286.0104" style="stroke: #000000; stroke-width: 0.8"/>
      </g>
     </g>
     <g id="text_3">
      <!-- K -->
      <g transform="translate(260.496875 300.608837) scale(0.1 -0.1)">
       <defs>
        <path id="DejaVuSans-4b" d="M 628 4666 
L 1259 4666 
L 1259 2694 
L 3353 4666 
L 4166 4666 
L 1850 2491 
L 4331 0 
L 3500 0 
L 1259 2247 
L 1259 0 
L 628 0 
L 628 4666 
z
" transform="scale(0.015625)"/>
       </defs>
       <use xlink:href="#DejaVuSans-4b"/>
      </g>
     </g>
    </g>
    <g id="xtick_4">
     <g id="line2d_4">
      <g>
       <use xlink:href="#m26258dd26d" x="414.72" y="286.0104" style="stroke: #000000; stroke-width: 0.8"/>
      </g>
     </g>
     <g id="text_4">
      <!-- ${\Gamma}$ -->
      <g transform="translate(411.92 300.608837) scale(0.1 -0.1)">
       <use xlink:href="#DejaVuSans-393" transform="translate(0 0.09375)"/>
      </g>
     </g>
    </g>
   </g>
   <g id="matplotlib.axis_2">
    <g id="ytick_1">
     <g id="line2d_5">
      <defs>
       <path id="m51040e26af" d="M 0 0 
L -3.5 0 
" style="stroke: #000000; stroke-width: 0.8"/>
      </defs>
      <g>
       <use xlink:href="#m51040e26af" x="57.6" y="280.719951" style="stroke: #000000; stroke-width: 0.8"/>
      </g>
     </g>
     <g id="text_5">
      <!-- −6 -->
      <g transform="translate(35.857813 284.51917) scale(0.1 -0.1)">
       <defs>
        <path id="DejaVuSans-2212" d="M 678 2272 
L 4684 2272 
L 4684 1741 
L 678 1741 
L 678 2272 
z
" transform="scale(0.015625)"/>
        <path id="DejaVuSans-36" d="M 2113 2584 
Q 1688 2584 1439 2293 
Q 1191 2003 1191 1497 
Q 1191 994 1439 701 
Q 1688 409 2113 409 
Q 2538 409 2786 701 
Q 3034 994 3034 1497 
Q 3034 2003 2786 2293 
Q 2538 2584 2113 2584 
z
M 3366 4563 
L 3366 3988 
Q 3128 4100 2886 4159 
Q 2644 4219 2406 4219 
Q 1781 4219 1451 3797 
Q 1122 3375 1075 2522 
Q 1259 2794 1537 2939 
Q 1816 3084 2150 3084 
Q 2853 3084 3261 2657 
Q 3669 2231 3669 1497 
Q 3669 778 3244 343 
Q 2819 -91 2113 -91 
Q 1303 -91 875 529 
Q 447 1150 447 2328 
Q 447 3434 972 4092 
Q 1497 4750 2381 4750 
Q 2619 4750 2861 4703 
Q 3103 4656 3366 4563 
z
" transform="scale(0.015625)"/>
       </defs>
       <use xlink:href="#DejaVuSans-2212"/>
       <use xlink:href="#DejaVuSans-36" x="83.789062"/>
      </g>
     </g>
    </g>
    <g id="ytick_2">
     <g id="line2d_6">
      <g>
       <use xlink:href="#m51040e26af" x="57.6" y="242.235093" style="stroke: #000000; stroke-width: 0.8"/>
      </g>
     </g>
     <g id="text_6">
      <!-- −4 -->
      <g transform="translate(35.857813 246.034311) scale(0.1 -0.1)">
       <defs>
        <path id="DejaVuSans-34" d="M 2419 4116 
L 825 1625 
L 2419 1625 
L 2419 4116 
z
M 2253 4666 
L 3047 4666 
L 3047 1625 
L 3713 1625 
L 3713 1100 
L 3047 1100 
L 3047 0 
L 2419 0 
L 2419 1100 
L 313 1100 
L 313 1709 
L 2253 4666 
z
" transform="scale(0.015625)"/>
       </defs>
       <use xlink:href="#DejaVuSans-2212"/>
       <use xlink:href="#DejaVuSans-34" x="83.789062"/>
      </g>
     </g>
    </g>
    <g id="ytick_3">
     <g id="line2d_7">
      <g>
       <use xlink:href="#m51040e26af" x="57.6" y="203.750234" style="stroke: #000000; stroke-width: 0.8"/>
      </g>
     </g>
     <g id="text_7">
      <!-- −2 -->
      <g transform="translate(35.857813 207.549453) scale(0.1 -0.1)">
       <defs>
        <path id="DejaVuSans-32" d="M 1228 531 
L 3431 531 
L 3431 0 
L 469 0 
L 469 531 
Q 828 903 1448 1529 
Q 2069 2156 2228 2338 
Q 2531 2678 2651 2914 
Q 2772 3150 2772 3378 
Q 2772 3750 2511 3984 
Q 2250 4219 1831 4219 
Q 1534 4219 1204 4116 
Q 875 4013 500 3803 
L 500 4441 
Q 881 4594 1212 4672 
Q 1544 4750 1819 4750 
Q 2544 4750 2975 4387 
Q 3406 4025 3406 3419 
Q 3406 3131 3298 2873 
Q 3191 2616 2906 2266 
Q 2828 2175 2409 1742 
Q 1991 1309 1228 531 
z
" transform="scale(0.015625)"/>
       </defs>
       <use xlink:href="#DejaVuSans-2212"/>
       <use xlink:href="#DejaVuSans-32" x="83.789062"/>
      </g>
     </g>
    </g>
    <g id="ytick_4">
     <g id="line2d_8">
      <g>
       <use xlink:href="#m51040e26af" x="57.6" y="165.265376" style="stroke: #000000; stroke-width: 0.8"/>
      </g>
     </g>
     <g id="text_8">
      <!-- 0 -->
      <g transform="translate(44.2375 169.064594) scale(0.1 -0.1)">
       <defs>
        <path id="DejaVuSans-30" d="M 2034 4250 
Q 1547 4250 1301 3770 
Q 1056 3291 1056 2328 
Q 1056 1369 1301 889 
Q 1547 409 2034 409 
Q 2525 409 2770 889 
Q 3016 1369 3016 2328 
Q 3016 3291 2770 3770 
Q 2525 4250 2034 4250 
z
M 2034 4750 
Q 2819 4750 3233 4129 
Q 3647 3509 3647 2328 
Q 3647 1150 3233 529 
Q 2819 -91 2034 -91 
Q 1250 -91 836 529 
Q 422 1150 422 2328 
Q 422 3509 836 4129 
Q 1250 4750 2034 4750 
z
" transform="scale(0.015625)"/>
       </defs>
       <use xlink:href="#DejaVuSans-30"/>
      </g>
     </g>
    </g>
    <g id="ytick_5">
     <g id="line2d_9">
      <g>
       <use xlink:href="#m51040e26af" x="57.6" y="126.780517" style="stroke: #000000; stroke-width: 0.8"/>
      </g>
     </g>
     <g id="text_9">
      <!-- 2 -->
      <g transform="translate(44.2375 130.579736) scale(0.1 -0.1)">
       <use xlink:href="#DejaVuSans-32"/>
      </g>
     </g>
    </g>
    <g id="ytick_6">
     <g id="line2d_10">
      <g>
       <use xlink:href="#m51040e26af" x="57.6" y="88.295659" style="stroke: #000000; stroke-width: 0.8"/>
      </g>
     </g>
     <g id="text_10">
      <!-- 4 -->
      <g transform="translate(44.2375 92.094877) scale(0.1 -0.1)">
       <use xlink:href="#DejaVuSans-34"/>
      </g>
     </g>
    </g>
    <g id="ytick_7">
     <g id="line2d_11">
      <g>
       <use xlink:href="#m51040e26af" x="57.6" y="49.8108" style="stroke: #000000; stroke-width: 0.8"/>
      </g>
     </g>
     <g id="text_11">
      <!-- 6 -->
      <g transform="translate(44.2375 53.610019) scale(0.1 -0.1)">
       <use xlink:href="#DejaVuSans-36"/>
      </g>
     </g>
    </g>
    <g id="text_12">
     <!-- Energy -->
     <g transform="translate(29.778125 179.79305) rotate(-90) scale(0.1 -0.1)">
      <defs>
       <path id="DejaVuSans-45" d="M 628 4666 
L 3578 4666 
L 3578 4134 
L 1259 4134 
L 1259 2753 
L 3481 2753 
L 3481 2222 
L 1259 2222 
L 1259 531 
L 3634 531 
L 3634 0 
L 628 0 
L 628 4666 
z
" transform="scale(0.015625)"/>
       <path id="DejaVuSans-6e" d="M 3513 2113 
L 3513 0 
L 2938 0 
L 2938 2094 
Q 2938 2591 2744 2837 
Q 2550 3084 2163 3084 
Q 1697 3084 1428 2787 
Q 1159 2491 1159 1978 
L 1159 0 
L 581 0 
L 581 3500 
L 1159 3500 
L 1159 2956 
Q 1366 3272 1645 3428 
Q 1925 3584 2291 3584 
Q 2894 3584 3203 3211 
Q 3513 2838 3513 2113 
z
" transform="scale(0.015625)"/>
       <path id="DejaVuSans-65" d="M 3597 1894 
L 3597 1613 
L 953 1613 
Q 991 1019 1311 708 
Q 1631 397 2203 397 
Q 2534 397 2845 478 
Q 3156 559 3463 722 
L 3463 178 
Q 3153 47 2828 -22 
Q 2503 -91 2169 -91 
Q 1331 -91 842 396 
Q 353 884 353 1716 
Q 353 2575 817 3079 
Q 1281 3584 2069 3584 
Q 2775 3584 3186 3129 
Q 3597 2675 3597 1894 
z
M 3022 2063 
Q 3016 2534 2758 2815 
Q 2500 3097 2075 3097 
Q 1594 3097 1305 2825 
Q 1016 2553 972 2059 
L 3022 2063 
z
" transform="scale(0.015625)"/>
       <path id="DejaVuSans-72" d="M 2631 2963 
Q 2534 3019 2420 3045 
Q 2306 3072 2169 3072 
Q 1681 3072 1420 2755 
Q 1159 2438 1159 1844 
L 1159 0 
L 581 0 
L 581 3500 
L 1159 3500 
L 1159 2956 
Q 1341 3275 1631 3429 
Q 1922 3584 2338 3584 
Q 2397 3584 2469 3576 
Q 2541 3569 2628 3553 
L 2631 2963 
z
" transform="scale(0.015625)"/>
       <path id="DejaVuSans-67" d="M 2906 1791 
Q 2906 2416 2648 2759 
Q 2391 3103 1925 3103 
Q 1463 3103 1205 2759 
Q 947 2416 947 1791 
Q 947 1169 1205 825 
Q 1463 481 1925 481 
Q 2391 481 2648 825 
Q 2906 1169 2906 1791 
z
M 3481 434 
Q 3481 -459 3084 -895 
Q 2688 -1331 1869 -1331 
Q 1566 -1331 1297 -1286 
Q 1028 -1241 775 -1147 
L 775 -588 
Q 1028 -725 1275 -790 
Q 1522 -856 1778 -856 
Q 2344 -856 2625 -561 
Q 2906 -266 2906 331 
L 2906 616 
Q 2728 306 2450 153 
Q 2172 0 1784 0 
Q 1141 0 747 490 
Q 353 981 353 1791 
Q 353 2603 747 3093 
Q 1141 3584 1784 3584 
Q 2172 3584 2450 3431 
Q 2728 3278 2906 2969 
L 2906 3500 
L 3481 3500 
L 3481 434 
z
" transform="scale(0.015625)"/>
       <path id="DejaVuSans-79" d="M 2059 -325 
Q 1816 -950 1584 -1140 
Q 1353 -1331 966 -1331 
L 506 -1331 
L 506 -850 
L 844 -850 
Q 1081 -850 1212 -737 
Q 1344 -625 1503 -206 
L 1606 56 
L 191 3500 
L 800 3500 
L 1894 763 
L 2988 3500 
L 3597 3500 
L 2059 -325 
z
" transform="scale(0.015625)"/>
      </defs>
      <use xlink:href="#DejaVuSans-45"/>
      <use xlink:href="#DejaVuSans-6e" x="63.183594"/>
      <use xlink:href="#DejaVuSans-65" x="126.5625"/>
      <use xlink:href="#DejaVuSans-72" x="188.085938"/>
      <use xlink:href="#DejaVuSans-67" x="227.449219"/>
      <use xlink:href="#DejaVuSans-79" x="290.925781"/>
     </g>
    </g>
   </g>
   <g id="line2d_12">
    <path d="M 57.6 286.0104 
L 57.6 38.5632 
" clip-path="url(#p2b37ec5c3d)" style="fill: none; stroke-dasharray: 5.55,2.4; stroke-dashoffset: 0; stroke: #808080; stroke-width: 1.5"/>
   </g>
   <g id="line2d_13">
    <path d="M 188.314991 286.0104 
L 188.314991 38.5632 
" clip-path="url(#p2b37ec5c3d)" style="fill: none; stroke-dasharray: 5.55,2.4; stroke-dashoffset: 0; stroke: #808080; stroke-width: 1.5"/>
   </g>
   <g id="line2d_14">
    <path d="M 263.775781 286.0104 
L 263.775781 38.5632 
" clip-path="url(#p2b37ec5c3d)" style="fill: none; stroke-dasharray: 5.55,2.4; stroke-dashoffset: 0; stroke: #808080; stroke-width: 1.5"/>
   </g>
   <g id="line2d_15">
    <path d="M 414.72 286.0104 
L 414.72 38.5632 
" clip-path="url(#p2b37ec5c3d)" style="fill: none; stroke-dasharray: 5.55,2.4; stroke-dashoffset: 0; stroke: #808080; stroke-width: 1.5"/>
   </g>
   <g id="line2d_16">
    <path d="M 57.6 165.265376 
L 61.132838 165.265376 
L 64.665675 165.265376 
L 68.198513 165.265376 
L 71.73135 165.265376 
L 75.264188 165.265376 
L 78.797026 165.265376 
L 82.329863 165.265376 
L 85.862701 165.265376 
L 89.395538 165.265376 
L 92.928376 165.265376 
L 96.461214 165.265376 
L 99.994051 165.265376 
L 103.526889 167.601402 
L 107.059726 171.370677 
L 110.592564 175.44342 
L 114.125402 179.795471 
L 117.658239 184.394901 
L 121.191077 189.202901 
L 124.723915 194.175019 
L 128.256752 199.262559 
L 131.78959 204.414007 
L 135.322427 209.576352 
L 138.855265 214.696257 
L 142.388103 219.721039 
L 145.92094 224.599469 
L 149.453778 229.282424 
L 152.986615 233.723392 
L 156.519453 237.878889 
L 160.052291 241.708784 
L 163.585128 245.176563 
L 167.117966 248.249556 
L 170.650803 250.899108 
L 174.183641 253.100732 
L 177.716479 254.834233 
L 181.249316 256.083804 
L 184.782154 256.838098 
L 188.314991 257.09029 
L 191.908362 257.177203 
L 195.501733 257.436485 
L 199.095104 257.863773 
L 202.688475 258.451833 
L 206.281846 259.19062 
L 209.875217 260.067355 
L 213.468588 261.06664 
L 217.061959 262.17059 
L 220.65533 263.359002 
L 224.248701 264.60955 
L 227.842072 265.898008 
L 231.435443 267.19851 
L 235.028814 268.483829 
L 238.622185 269.725681 
L 242.215556 270.895057 
L 245.808927 271.96257 
L 249.402298 272.898808 
L 252.995668 273.67471 
L 256.589039 274.261931 
L 260.18241 274.633224 
L 263.775781 274.7628 
L 267.369691 274.626649 
L 270.963601 274.202921 
L 274.557511 273.472303 
L 278.151421 272.418291 
L 281.745331 271.027474 
L 285.339241 269.289801 
L 288.933151 267.198814 
L 292.527061 264.75185 
L 296.120971 261.950219 
L 299.714881 258.799344 
L 303.308791 255.308866 
L 306.902701 251.49272 
L 310.496611 247.369166 
L 314.090521 242.96078 
L 317.684431 238.294409 
L 321.278341 233.401059 
L 324.872251 228.315738 
L 328.466161 223.077208 
L 332.060071 217.727661 
L 335.653981 212.312261 
L 339.247891 206.87855 
L 342.841801 201.475679 
L 346.435711 196.153432 
L 350.029621 190.961038 
L 353.623531 185.945788 
L 357.217441 181.151508 
L 360.81135 176.616998 
L 364.40526 172.374608 
L 367.99917 168.449124 
L 371.59308 165.265376 
L 375.18699 165.265376 
L 378.7809 165.265376 
L 382.37481 165.265376 
L 385.96872 165.265376 
L 389.56263 165.265376 
L 393.15654 165.265376 
L 396.75045 165.265376 
L 400.34436 165.265376 
L 403.93827 165.265376 
L 407.53218 165.265376 
L 411.12609 165.265376 
L 414.72 165.265376 
" clip-path="url(#p2b37ec5c3d)" style="fill: none; stroke: #000000; stroke-width: 1.5; stroke-linecap: square"/>
   </g>
   <g id="line2d_17">
    <path d="M 57.6 146.022946 
L 61.132838 146.134052 
L 64.665675 146.468867 
L 68.198513 147.031845 
L 71.73135 147.83027 
L 75.264188 148.874023 
L 78.797026 150.175196 
L 82.329863 151.747531 
L 85.862701 153.605618 
L 89.395538 155.763843 
L 92.928376 158.235088 
L 96.461214 161.029234 
L 99.994051 164.151588 
L 103.526889 165.265376 
L 107.059726 165.265376 
L 110.592564 165.265376 
L 114.125402 165.265376 
L 117.658239 165.265376 
L 121.191077 165.265376 
L 124.723915 165.265376 
L 128.256752 165.265376 
L 131.78959 165.265376 
L 135.322427 165.265376 
L 138.855265 165.265376 
L 142.388103 165.265376 
L 145.92094 165.265376 
L 149.453778 165.265376 
L 152.986615 165.265376 
L 156.519453 165.265376 
L 160.052291 165.265376 
L 163.585128 165.265376 
L 167.117966 165.265376 
L 170.650803 165.265376 
L 174.183641 165.265376 
L 177.716479 165.265376 
L 181.249316 165.265376 
L 184.782154 165.265376 
L 188.314991 165.265376 
L 191.908362 165.265376 
L 195.501733 165.265376 
L 199.095104 165.265376 
L 202.688475 165.265376 
L 206.281846 165.265376 
L 209.875217 165.265376 
L 213.468588 165.265376 
L 217.061959 165.265376 
L 220.65533 165.265376 
L 224.248701 165.265376 
L 227.842072 165.265376 
L 231.435443 165.265376 
L 235.028814 165.265376 
L 238.622185 165.265376 
L 242.215556 165.265376 
L 245.808927 165.265376 
L 249.402298 165.265376 
L 252.995668 165.265376 
L 256.589039 165.265376 
L 260.18241 165.265376 
L 263.775781 165.265376 
L 267.369691 165.265376 
L 270.963601 165.265376 
L 274.557511 165.265376 
L 278.151421 165.265376 
L 281.745331 165.265376 
L 285.339241 165.265376 
L 288.933151 165.265376 
L 292.527061 165.265376 
L 296.120971 165.265376 
L 299.714881 165.265376 
L 303.308791 165.265376 
L 306.902701 165.265376 
L 310.496611 165.265376 
L 314.090521 165.265376 
L 317.684431 165.265376 
L 321.278341 165.265376 
L 324.872251 165.265376 
L 328.466161 165.265376 
L 332.060071 165.265376 
L 335.653981 165.265376 
L 339.247891 165.265376 
L 342.841801 165.265376 
L 346.435711 165.265376 
L 350.029621 165.265376 
L 353.623531 165.265376 
L 357.217441 165.265376 
L 360.81135 165.265376 
L 364.40526 165.265376 
L 367.99917 165.265376 
L 371.59308 164.857157 
L 375.18699 161.607142 
L 378.7809 158.699961 
L 382.37481 156.130097 
L 385.96872 153.887137 
L 389.56263 151.957423 
L 393.15654 150.325637 
L 396.75045 148.976206 
L 400.34436 147.894438 
L 403.93827 147.067391 
L 407.53218 146.484489 
L 411.12609 146.137931 
L 414.72 146.022946 
" clip-path="url(#p2b37ec5c3d)" style="fill: none; stroke: #000000; stroke-width: 1.5; stroke-linecap: square"/>
   </g>
   <g id="line2d_18">
    <path d="M 57.6 146.022946 
L 61.132838 146.022946 
L 64.665675 146.022946 
L 68.198513 146.022946 
L 71.73135 146.022946 
L 75.264188 146.022946 
L 78.797026 146.022946 
L 82.329863 146.022946 
L 85.862701 146.022946 
L 89.395538 146.022946 
L 92.928376 146.022946 
L 96.461214 146.022946 
L 99.994051 146.022946 
L 103.526889 146.022946 
L 107.059726 146.022946 
L 110.592564 146.022946 
L 114.125402 146.022946 
L 117.658239 146.022946 
L 121.191077 146.022946 
L 124.723915 146.022946 
L 128.256752 146.022946 
L 131.78959 146.022946 
L 135.322427 146.022946 
L 138.855265 146.022946 
L 142.388103 146.022946 
L 145.92094 146.022946 
L 149.453778 146.022946 
L 152.986615 146.022946 
L 156.519453 146.022946 
L 160.052291 146.022946 
L 163.585128 146.022946 
L 167.117966 146.022946 
L 170.650803 146.022946 
L 174.183641 146.022946 
L 177.716479 146.022946 
L 181.249316 146.022946 
L 184.782154 146.022946 
L 188.314991 146.022946 
L 191.908362 146.022946 
L 195.501733 146.022946 
L 199.095104 146.022946 
L 202.688475 146.022946 
L 206.281846 146.022946 
L 209.875217 146.022946 
L 213.468588 146.022946 
L 217.061959 146.022946 
L 220.65533 146.022946 
L 224.248701 146.022946 
L 227.842072 146.022946 
L 231.435443 146.022946 
L 235.028814 146.022946 
L 238.622185 146.022946 
L 242.215556 146.022946 
L 245.808927 146.022946 
L 249.402298 146.022946 
L 252.995668 146.022946 
L 256.589039 146.022946 
L 260.18241 146.022946 
L 263.775781 146.022946 
L 267.369691 146.022946 
L 270.963601 146.022946 
L 274.557511 146.022946 
L 278.151421 146.022946 
L 281.745331 146.022946 
L 285.339241 146.022946 
L 288.933151 146.022946 
L 292.527061 146.022946 
L 296.120971 146.022946 
L 299.714881 146.022946 
L 303.308791 146.022946 
L 306.902701 146.022946 
L 310.496611 146.022946 
L 314.090521 146.022946 
L 317.684431 146.022946 
L 321.278341 146.022946 
L 324.872251 146.022946 
L 328.466161 146.022946 
L 332.060071 146.022946 
L 335.653981 146.022946 
L 339.247891 146.022946 
L 342.841801 146.022946 
L 346.435711 146.022946 
L 350.029621 146.022946 
L 353.623531 146.022946 
L 357.217441 146.022946 
L 360.81135 146.022946 
L 364.40526 146.022946 
L 367.99917 146.022946 
L 371.59308 146.022946 
L 375.18699 146.022946 
L 378.7809 146.022946 
L 382.37481 146.022946 
L 385.96872 146.022946 
L 389.56263 146.022946 
L 393.15654 146.022946 
L 396.75045 146.022946 
L 400.34436 146.022946 
L 403.93827 146.022946 
L 407.53218 146.022946 
L 411.12609 146.022946 
L 414.72 146.022946 
" clip-path="url(#p2b37ec5c3d)" style="fill: none; stroke: #000000; stroke-width: 1.5; stroke-linecap: square"/>
   </g>
   <g id="line2d_19">
    <path d="M 57.6 49.8108 
L 61.132838 49.976979 
L 64.665675 50.472019 
L 68.198513 51.285488 
L 71.73135 52.400183 
L 75.264188 53.792441 
L 78.797026 55.432618 
L 82.329863 57.285779 
L 85.862701 59.312654 
L 89.395538 61.470864 
L 92.928376 63.716429 
L 96.461214 66.005482 
L 99.994051 68.296092 
L 103.526889 70.550006 
L 107.059726 72.734129 
L 110.592564 74.821558 
L 114.125402 76.792069 
L 117.658239 78.632037 
L 121.191077 80.333875 
L 124.723915 81.895132 
L 128.256752 83.31743 
L 131.78959 84.60538 
L 135.322427 85.765597 
L 138.855265 86.805864 
L 142.388103 87.734479 
L 145.92094 88.559777 
L 149.453778 89.289787 
L 152.986615 89.932018 
L 156.519453 90.49333 
L 160.052291 90.979872 
L 163.585128 91.397053 
L 167.117966 91.749556 
L 170.650803 92.041355 
L 174.183641 92.275742 
L 177.716479 92.455361 
L 181.249316 92.582238 
L 184.782154 92.657798 
L 188.314991 92.68289 
L 191.908362 92.691519 
L 195.501733 92.717199 
L 199.095104 92.759326 
L 202.688475 92.816914 
L 206.281846 92.888629 
L 209.875217 92.972834 
L 213.468588 93.067636 
L 217.061959 93.170944 
L 220.65533 93.280519 
L 224.248701 93.394033 
L 227.842072 93.509112 
L 231.435443 93.623385 
L 235.028814 93.734508 
L 238.622185 93.8402 
L 242.215556 93.938256 
L 245.808927 94.026552 
L 249.402298 94.103051 
L 252.995668 94.165796 
L 256.589039 94.212895 
L 260.18241 94.242505 
L 263.775781 94.252807 
L 267.369691 94.241982 
L 270.963601 94.208178 
L 274.557511 94.149486 
L 278.151421 94.063898 
L 281.745331 93.949272 
L 285.339241 93.80329 
L 288.933151 93.623413 
L 292.527061 93.406837 
L 296.120971 93.150442 
L 299.714881 92.850738 
L 303.308791 92.50381 
L 306.902701 92.105261 
L 310.496611 91.650154 
L 314.090521 91.132958 
L 317.684431 90.547499 
L 321.278341 89.886932 
L 324.872251 89.143734 
L 328.466161 88.309736 
L 332.060071 87.376227 
L 335.653981 86.334134 
L 339.247891 85.174323 
L 342.841801 83.888059 
L 346.435711 82.467636 
L 350.029621 80.907206 
L 353.623531 79.203796 
L 357.217441 77.358446 
L 360.81135 75.37738 
L 364.40526 73.273038 
L 367.99917 71.064786 
L 371.59308 68.779144 
L 375.18699 66.449399 
L 378.7809 64.114608 
L 382.37481 61.81809 
L 385.96872 59.605572 
L 389.56263 57.523235 
L 393.15654 55.615822 
L 396.75045 53.924974 
L 400.34436 52.487854 
L 403.93827 51.336073 
L 407.53218 50.49491 
L 411.12609 49.982763 
L 414.72 49.8108 
" clip-path="url(#p2b37ec5c3d)" style="fill: none; stroke: #000000; stroke-width: 1.5; stroke-linecap: square"/>
   </g>
   <g id="patch_3">
    <path d="M 57.6 286.0104 
L 57.6 38.5632 
" style="fill: none; stroke: #000000; stroke-width: 0.8; stroke-linejoin: miter; stroke-linecap: square"/>
   </g>
   <g id="patch_4">
    <path d="M 414.72 286.0104 
L 414.72 38.5632 
" style="fill: none; stroke: #000000; stroke-width: 0.8; stroke-linejoin: miter; stroke-linecap: square"/>
   </g>
   <g id="patch_5">
    <path d="M 57.6 286.0104 
L 414.72 286.0104 
" style="fill: none; stroke: #000000; stroke-width: 0.8; stroke-linejoin: miter; stroke-linecap: square"/>
   </g>
   <g id="patch_6">
    <path d="M 57.6 38.5632 
L 414.72 38.5632 
" style="fill: none; stroke: #000000; stroke-width: 0.8; stroke-linejoin: miter; stroke-linecap: square"/>
   </g>
  </g>
 </g>
 <defs>
  <clipPath id="p2b37ec5c3d">
   <rect x="57.6" y="38.5632" width="357.12" height="247.4472"/>
  </clipPath>
 </defs>
</svg>
