<?xml version="1.0" encoding="utf-8" standalone="no"?>
<!DOCTYPE svg PUBLIC "-//W3C//DTD SVG 1.1//EN"
  "http://www.w3.org/Graphics/SVG/1.1/DTD/svg11.dtd">
<svg xmlns:xlink="http://www.w3.org/1999/xlink" width="460.8pt" height="321.36pt" viewBox="0 0 460.8 321.36" xmlns="http://www.w3.org/2000/svg" version="1.1">
 <metadata>
  <rdf:RDF xmlns:dc="http://purl.org/dc/elements/1.1/" xmlns:cc="http://creativecommons.org/ns#" xmlns:rdf="http://www.w3.org/1999/02/22-rdf-syntax-ns#">
   <cc:Work>
    <dc:type rdf:resource="http://purl.org/dc/dcmitype/StillImage"/>
    <dc:date>2023-07-11T16:17:02.185106</dc:date>
    <dc:format>image/svg+xml</dc:format>
    <dc:creator>
     <cc:Agent>
      <dc:title>Matplotlib v3.7.1, https://matplotlib.org/</dc:title>
     </cc:Agent>
    </dc:creator>
   </cc:Work>
  </rdf:RDF>
 </metadata>
 <defs>
  <style type="text/css">*{stroke-linejoin: round; stroke-linecap: butt}</style>
 </defs>
 <g id="figure_1">
  <g id="patch_1">
   <path d="M 0 321.36 
L 460.8 321.36 
L 460.8 0 
L 0 0 
z
" style="fill: #ffffff"/>
  </g>
  <g id="axes_1">
   <g id="patch_2">
    <path d="M 57.6 286.0104 
L 414.72 286.0104 
L 414.72 38.5632 
L 57.6 38.5632 
z
" style="fill: #ffffff"/>
   </g>
   <g id="matplotlib.axis_1">
    <g id="xtick_1">
     <g id="line2d_1">
      <defs>
       <path id="m98b7a8df9f" d="M 0 0 
L 0 3.5 
" style="stroke: #000000; stroke-width: 0.8"/>
      </defs>
      <g>
       <use xlink:href="#m98b7a8df9f" x="57.6" y="286.0104" style="stroke: #000000; stroke-width: 0.8"/>
      </g>
     </g>
     <g id="text_1">
      <!-- L -->
      <g transform="translate(54.814062 300.608837) scale(0.1 -0.1)">
       <defs>
        <path id="DejaVuSans-4c" d="M 628 4666 
L 1259 4666 
L 1259 531 
L 3531 531 
L 3531 0 
L 628 0 
L 628 4666 
z
" transform="scale(0.015625)"/>
       </defs>
       <use xlink:href="#DejaVuSans-4c"/>
      </g>
     </g>
    </g>
    <g id="xtick_2">
     <g id="line2d_2">
      <g>
       <use xlink:href="#m98b7a8df9f" x="151.884287" y="286.0104" style="stroke: #000000; stroke-width: 0.8"/>
      </g>
     </g>
     <g id="text_2">
      <!-- ${\Gamma}$ -->
      <g transform="translate(149.084287 300.608837) scale(0.1 -0.1)">
       <defs>
        <path id="DejaVuSans-393" d="M 628 0 
L 628 4666 
L 3531 4666 
L 3531 4134 
L 1259 4134 
L 1259 0 
L 628 0 
z
" transform="scale(0.015625)"/>
       </defs>
       <use xlink:href="#DejaVuSans-393" transform="translate(0 0.09375)"/>
      </g>
     </g>
    </g>
    <g id="xtick_3">
     <g id="line2d_3">
      <g>
       <use xlink:href="#m98b7a8df9f" x="260.754404" y="286.0104" style="stroke: #000000; stroke-width: 0.8"/>
      </g>
     </g>
     <g id="text_3">
      <!-- X -->
      <g transform="translate(257.329404 300.608837) scale(0.1 -0.1)">
       <defs>
        <path id="DejaVuSans-58" d="M 403 4666 
L 1081 4666 
L 2241 2931 
L 3406 4666 
L 4084 4666 
L 2584 2425 
L 4184 0 
L 3506 0 
L 2194 1984 
L 872 0 
L 191 0 
L 1856 2491 
L 403 4666 
z
" transform="scale(0.015625)"/>
       </defs>
       <use xlink:href="#DejaVuSans-58"/>
      </g>
     </g>
    </g>
    <g id="xtick_4">
     <g id="line2d_4">
      <g>
       <use xlink:href="#m98b7a8df9f" x="299.245803" y="286.0104" style="stroke: #000000; stroke-width: 0.8"/>
      </g>
     </g>
     <g id="text_4">
      <!-- U|K -->
      <g transform="translate(290.623147 300.652587) scale(0.1 -0.1)">
       <defs>
        <path id="DejaVuSans-55" d="M 556 4666 
L 1191 4666 
L 1191 1831 
Q 1191 1081 1462 751 
Q 1734 422 2344 422 
Q 2950 422 3222 751 
Q 3494 1081 3494 1831 
L 3494 4666 
L 4128 4666 
L 4128 1753 
Q 4128 841 3676 375 
Q 3225 -91 2344 -91 
Q 1459 -91 1007 375 
Q 556 841 556 1753 
L 556 4666 
z
" transform="scale(0.015625)"/>
        <path id="DejaVuSans-7c" d="M 1344 4891 
L 1344 -1509 
L 813 -1509 
L 813 4891 
L 1344 4891 
z
" transform="scale(0.015625)"/>
        <path id="DejaVuSans-4b" d="M 628 4666 
L 1259 4666 
L 1259 2694 
L 3353 4666 
L 4166 4666 
L 1850 2491 
L 4331 0 
L 3500 0 
L 1259 2247 
L 1259 0 
L 628 0 
L 628 4666 
z
" transform="scale(0.015625)"/>
       </defs>
       <use xlink:href="#DejaVuSans-55"/>
       <use xlink:href="#DejaVuSans-7c" x="73.193359"/>
       <use xlink:href="#DejaVuSans-4b" x="106.884766"/>
      </g>
     </g>
    </g>
    <g id="xtick_5">
     <g id="line2d_5">
      <g>
       <use xlink:href="#m98b7a8df9f" x="414.72" y="286.0104" style="stroke: #000000; stroke-width: 0.8"/>
      </g>
     </g>
     <g id="text_5">
      <!-- ${\Gamma}$ -->
      <g transform="translate(411.92 300.608837) scale(0.1 -0.1)">
       <use xlink:href="#DejaVuSans-393" transform="translate(0 0.09375)"/>
      </g>
     </g>
    </g>
   </g>
   <g id="matplotlib.axis_2">
    <g id="ytick_1">
     <g id="line2d_6">
      <defs>
       <path id="m99efcde51d" d="M 0 0 
L -3.5 0 
" style="stroke: #000000; stroke-width: 0.8"/>
      </defs>
      <g>
       <use xlink:href="#m99efcde51d" x="57.6" y="253.67355" style="stroke: #000000; stroke-width: 0.8"/>
      </g>
     </g>
     <g id="text_6">
      <!-- −30 -->
      <g transform="translate(29.495313 257.472769) scale(0.1 -0.1)">
       <defs>
        <path id="DejaVuSans-2212" d="M 678 2272 
L 4684 2272 
L 4684 1741 
L 678 1741 
L 678 2272 
z
" transform="scale(0.015625)"/>
        <path id="DejaVuSans-33" d="M 2597 2516 
Q 3050 2419 3304 2112 
Q 3559 1806 3559 1356 
Q 3559 666 3084 287 
Q 2609 -91 1734 -91 
Q 1441 -91 1130 -33 
Q 819 25 488 141 
L 488 750 
Q 750 597 1062 519 
Q 1375 441 1716 441 
Q 2309 441 2620 675 
Q 2931 909 2931 1356 
Q 2931 1769 2642 2001 
Q 2353 2234 1838 2234 
L 1294 2234 
L 1294 2753 
L 1863 2753 
Q 2328 2753 2575 2939 
Q 2822 3125 2822 3475 
Q 2822 3834 2567 4026 
Q 2313 4219 1838 4219 
Q 1578 4219 1281 4162 
Q 984 4106 628 3988 
L 628 4550 
Q 988 4650 1302 4700 
Q 1616 4750 1894 4750 
Q 2613 4750 3031 4423 
Q 3450 4097 3450 3541 
Q 3450 3153 3228 2886 
Q 3006 2619 2597 2516 
z
" transform="scale(0.015625)"/>
        <path id="DejaVuSans-30" d="M 2034 4250 
Q 1547 4250 1301 3770 
Q 1056 3291 1056 2328 
Q 1056 1369 1301 889 
Q 1547 409 2034 409 
Q 2525 409 2770 889 
Q 3016 1369 3016 2328 
Q 3016 3291 2770 3770 
Q 2525 4250 2034 4250 
z
M 2034 4750 
Q 2819 4750 3233 4129 
Q 3647 3509 3647 2328 
Q 3647 1150 3233 529 
Q 2819 -91 2034 -91 
Q 1250 -91 836 529 
Q 422 1150 422 2328 
Q 422 3509 836 4129 
Q 1250 4750 2034 4750 
z
" transform="scale(0.015625)"/>
       </defs>
       <use xlink:href="#DejaVuSans-2212"/>
       <use xlink:href="#DejaVuSans-33" x="83.789062"/>
       <use xlink:href="#DejaVuSans-30" x="147.412109"/>
      </g>
     </g>
    </g>
    <g id="ytick_2">
     <g id="line2d_7">
      <g>
       <use xlink:href="#m99efcde51d" x="57.6" y="218.5248" style="stroke: #000000; stroke-width: 0.8"/>
      </g>
     </g>
     <g id="text_7">
      <!-- −20 -->
      <g transform="translate(29.495313 222.324019) scale(0.1 -0.1)">
       <defs>
        <path id="DejaVuSans-32" d="M 1228 531 
L 3431 531 
L 3431 0 
L 469 0 
L 469 531 
Q 828 903 1448 1529 
Q 2069 2156 2228 2338 
Q 2531 2678 2651 2914 
Q 2772 3150 2772 3378 
Q 2772 3750 2511 3984 
Q 2250 4219 1831 4219 
Q 1534 4219 1204 4116 
Q 875 4013 500 3803 
L 500 4441 
Q 881 4594 1212 4672 
Q 1544 4750 1819 4750 
Q 2544 4750 2975 4387 
Q 3406 4025 3406 3419 
Q 3406 3131 3298 2873 
Q 3191 2616 2906 2266 
Q 2828 2175 2409 1742 
Q 1991 1309 1228 531 
z
" transform="scale(0.015625)"/>
       </defs>
       <use xlink:href="#DejaVuSans-2212"/>
       <use xlink:href="#DejaVuSans-32" x="83.789062"/>
       <use xlink:href="#DejaVuSans-30" x="147.412109"/>
      </g>
     </g>
    </g>
    <g id="ytick_3">
     <g id="line2d_8">
      <g>
       <use xlink:href="#m99efcde51d" x="57.6" y="183.37605" style="stroke: #000000; stroke-width: 0.8"/>
      </g>
     </g>
     <g id="text_8">
      <!-- −10 -->
      <g transform="translate(29.495313 187.175269) scale(0.1 -0.1)">
       <defs>
        <path id="DejaVuSans-31" d="M 794 531 
L 1825 531 
L 1825 4091 
L 703 3866 
L 703 4441 
L 1819 4666 
L 2450 4666 
L 2450 531 
L 3481 531 
L 3481 0 
L 794 0 
L 794 531 
z
" transform="scale(0.015625)"/>
       </defs>
       <use xlink:href="#DejaVuSans-2212"/>
       <use xlink:href="#DejaVuSans-31" x="83.789062"/>
       <use xlink:href="#DejaVuSans-30" x="147.412109"/>
      </g>
     </g>
    </g>
    <g id="ytick_4">
     <g id="line2d_9">
      <g>
       <use xlink:href="#m99efcde51d" x="57.6" y="148.2273" style="stroke: #000000; stroke-width: 0.8"/>
      </g>
     </g>
     <g id="text_9">
      <!-- 0 -->
      <g transform="translate(44.2375 152.026519) scale(0.1 -0.1)">
       <use xlink:href="#DejaVuSans-30"/>
      </g>
     </g>
    </g>
    <g id="ytick_5">
     <g id="line2d_10">
      <g>
       <use xlink:href="#m99efcde51d" x="57.6" y="113.07855" style="stroke: #000000; stroke-width: 0.8"/>
      </g>
     </g>
     <g id="text_10">
      <!-- 10 -->
      <g transform="translate(37.875 116.877769) scale(0.1 -0.1)">
       <use xlink:href="#DejaVuSans-31"/>
       <use xlink:href="#DejaVuSans-30" x="63.623047"/>
      </g>
     </g>
    </g>
    <g id="ytick_6">
     <g id="line2d_11">
      <g>
       <use xlink:href="#m99efcde51d" x="57.6" y="77.9298" style="stroke: #000000; stroke-width: 0.8"/>
      </g>
     </g>
     <g id="text_11">
      <!-- 20 -->
      <g transform="translate(37.875 81.729019) scale(0.1 -0.1)">
       <use xlink:href="#DejaVuSans-32"/>
       <use xlink:href="#DejaVuSans-30" x="63.623047"/>
      </g>
     </g>
    </g>
    <g id="ytick_7">
     <g id="line2d_12">
      <g>
       <use xlink:href="#m99efcde51d" x="57.6" y="42.78105" style="stroke: #000000; stroke-width: 0.8"/>
      </g>
     </g>
     <g id="text_12">
      <!-- 30 -->
      <g transform="translate(37.875 46.580269) scale(0.1 -0.1)">
       <use xlink:href="#DejaVuSans-33"/>
       <use xlink:href="#DejaVuSans-30" x="63.623047"/>
      </g>
     </g>
    </g>
    <g id="text_13">
     <!-- Energy -->
     <g transform="translate(23.415625 179.79305) rotate(-90) scale(0.1 -0.1)">
      <defs>
       <path id="DejaVuSans-45" d="M 628 4666 
L 3578 4666 
L 3578 4134 
L 1259 4134 
L 1259 2753 
L 3481 2753 
L 3481 2222 
L 1259 2222 
L 1259 531 
L 3634 531 
L 3634 0 
L 628 0 
L 628 4666 
z
" transform="scale(0.015625)"/>
       <path id="DejaVuSans-6e" d="M 3513 2113 
L 3513 0 
L 2938 0 
L 2938 2094 
Q 2938 2591 2744 2837 
Q 2550 3084 2163 3084 
Q 1697 3084 1428 2787 
Q 1159 2491 1159 1978 
L 1159 0 
L 581 0 
L 581 3500 
L 1159 3500 
L 1159 2956 
Q 1366 3272 1645 3428 
Q 1925 3584 2291 3584 
Q 2894 3584 3203 3211 
Q 3513 2838 3513 2113 
z
" transform="scale(0.015625)"/>
       <path id="DejaVuSans-65" d="M 3597 1894 
L 3597 1613 
L 953 1613 
Q 991 1019 1311 708 
Q 1631 397 2203 397 
Q 2534 397 2845 478 
Q 3156 559 3463 722 
L 3463 178 
Q 3153 47 2828 -22 
Q 2503 -91 2169 -91 
Q 1331 -91 842 396 
Q 353 884 353 1716 
Q 353 2575 817 3079 
Q 1281 3584 2069 3584 
Q 2775 3584 3186 3129 
Q 3597 2675 3597 1894 
z
M 3022 2063 
Q 3016 2534 2758 2815 
Q 2500 3097 2075 3097 
Q 1594 3097 1305 2825 
Q 1016 2553 972 2059 
L 3022 2063 
z
" transform="scale(0.015625)"/>
       <path id="DejaVuSans-72" d="M 2631 2963 
Q 2534 3019 2420 3045 
Q 2306 3072 2169 3072 
Q 1681 3072 1420 2755 
Q 1159 2438 1159 1844 
L 1159 0 
L 581 0 
L 581 3500 
L 1159 3500 
L 1159 2956 
Q 1341 3275 1631 3429 
Q 1922 3584 2338 3584 
Q 2397 3584 2469 3576 
Q 2541 3569 2628 3553 
L 2631 2963 
z
" transform="scale(0.015625)"/>
       <path id="DejaVuSans-67" d="M 2906 1791 
Q 2906 2416 2648 2759 
Q 2391 3103 1925 3103 
Q 1463 3103 1205 2759 
Q 947 2416 947 1791 
Q 947 1169 1205 825 
Q 1463 481 1925 481 
Q 2391 481 2648 825 
Q 2906 1169 2906 1791 
z
M 3481 434 
Q 3481 -459 3084 -895 
Q 2688 -1331 1869 -1331 
Q 1566 -1331 1297 -1286 
Q 1028 -1241 775 -1147 
L 775 -588 
Q 1028 -725 1275 -790 
Q 1522 -856 1778 -856 
Q 2344 -856 2625 -561 
Q 2906 -266 2906 331 
L 2906 616 
Q 2728 306 2450 153 
Q 2172 0 1784 0 
Q 1141 0 747 490 
Q 353 981 353 1791 
Q 353 2603 747 3093 
Q 1141 3584 1784 3584 
Q 2172 3584 2450 3431 
Q 2728 3278 2906 2969 
L 2906 3500 
L 3481 3500 
L 3481 434 
z
" transform="scale(0.015625)"/>
       <path id="DejaVuSans-79" d="M 2059 -325 
Q 1816 -950 1584 -1140 
Q 1353 -1331 966 -1331 
L 506 -1331 
L 506 -850 
L 844 -850 
Q 1081 -850 1212 -737 
Q 1344 -625 1503 -206 
L 1606 56 
L 191 3500 
L 800 3500 
L 1894 763 
L 2988 3500 
L 3597 3500 
L 2059 -325 
z
" transform="scale(0.015625)"/>
      </defs>
      <use xlink:href="#DejaVuSans-45"/>
      <use xlink:href="#DejaVuSans-6e" x="63.183594"/>
      <use xlink:href="#DejaVuSans-65" x="126.5625"/>
      <use xlink:href="#DejaVuSans-72" x="188.085938"/>
      <use xlink:href="#DejaVuSans-67" x="227.449219"/>
      <use xlink:href="#DejaVuSans-79" x="290.925781"/>
     </g>
    </g>
   </g>
   <g id="line2d_13">
    <path d="M 57.6 286.0104 
L 57.6 38.5632 
" clip-path="url(#pf5310d472f)" style="fill: none; stroke-dasharray: 5.55,2.4; stroke-dashoffset: 0; stroke: #808080; stroke-width: 1.5"/>
   </g>
   <g id="line2d_14">
    <path d="M 151.884287 286.0104 
L 151.884287 38.5632 
" clip-path="url(#pf5310d472f)" style="fill: none; stroke-dasharray: 5.55,2.4; stroke-dashoffset: 0; stroke: #808080; stroke-width: 1.5"/>
   </g>
   <g id="line2d_15">
    <path d="M 260.754404 286.0104 
L 260.754404 38.5632 
" clip-path="url(#pf5310d472f)" style="fill: none; stroke-dasharray: 5.55,2.4; stroke-dashoffset: 0; stroke: #808080; stroke-width: 1.5"/>
   </g>
   <g id="line2d_16">
    <path d="M 299.245803 286.0104 
L 299.245803 38.5632 
" clip-path="url(#pf5310d472f)" style="fill: none; stroke-dasharray: 5.55,2.4; stroke-dashoffset: 0; stroke: #808080; stroke-width: 1.5"/>
   </g>
   <g id="line2d_17">
    <path d="M 414.72 286.0104 
L 414.72 38.5632 
" clip-path="url(#pf5310d472f)" style="fill: none; stroke-dasharray: 5.55,2.4; stroke-dashoffset: 0; stroke: #808080; stroke-width: 1.5"/>
   </g>
   <g id="line2d_18">
    <path d="M 57.6 244.075559 
L 61.226319 244.327528 
L 64.852637 245.054184 
L 68.478956 246.180301 
L 72.105275 247.611421 
L 75.731594 249.256491 
L 79.357912 251.038817 
L 82.984231 252.898044 
L 86.61055 254.78803 
L 90.236869 256.67371 
L 93.863187 258.528269 
L 97.489506 260.330933 
L 101.115825 262.065358 
L 104.742144 263.718485 
L 108.368462 265.279729 
L 111.994781 266.740403 
L 115.6211 268.093314 
L 119.247418 269.332459 
L 122.873737 270.452816 
L 126.500056 271.450179 
L 130.126375 272.321042 
L 133.752693 273.062508 
L 137.379012 273.672221 
L 141.005331 274.148313 
L 144.63165 274.489368 
L 148.257968 274.694393 
L 151.884287 274.7628 
L 155.513291 274.694285 
L 159.142295 274.488858 
L 162.771299 274.146869 
L 166.400303 273.668901 
L 170.029307 273.055776 
L 173.65831 272.308551 
L 177.287314 271.428525 
L 180.916318 270.417239 
L 184.545322 269.276482 
L 188.174326 268.008291 
L 191.80333 266.614956 
L 195.432334 265.099025 
L 199.061338 263.463306 
L 202.690342 261.710869 
L 206.319346 259.845052 
L 209.948349 257.869461 
L 213.577353 255.787972 
L 217.206357 253.604737 
L 220.835361 251.324178 
L 224.464365 248.950991 
L 228.093369 246.490149 
L 231.722373 243.946893 
L 235.351377 241.326736 
L 238.980381 238.635459 
L 242.609385 235.879105 
L 246.238388 233.063977 
L 249.867392 230.196633 
L 253.496396 227.283878 
L 257.1254 224.332757 
L 260.754404 221.35055 
L 264.253622 221.393898 
L 267.75284 221.525136 
L 271.252058 221.747768 
L 274.751276 222.067387 
L 278.250494 222.491273 
L 281.749713 223.02782 
L 285.248931 223.685773 
L 288.748149 224.473328 
L 292.247367 225.397168 
L 295.746585 226.461554 
L 299.245803 227.667615 
L 302.854372 229.05717 
L 306.46294 230.588179 
L 310.071509 232.250306 
L 313.680078 234.030154 
L 317.288646 235.912062 
L 320.897215 237.878918 
L 324.505784 239.912894 
L 328.114352 241.99605 
L 331.722921 244.110794 
L 335.33149 246.2402 
L 338.940058 248.368225 
L 342.548627 250.479834 
L 346.157196 252.561062 
L 349.765764 254.599034 
L 353.374333 256.581957 
L 356.982902 258.499085 
L 360.59147 260.340684 
L 364.200039 262.097981 
L 367.808607 263.763107 
L 371.417176 265.329049 
L 375.025745 266.789589 
L 378.634313 268.13925 
L 382.242882 269.373243 
L 385.851451 270.487417 
L 389.460019 271.478204 
L 393.068588 272.342577 
L 396.677157 273.078006 
L 400.285725 273.68242 
L 403.894294 274.154171 
L 407.502863 274.49201 
L 411.111431 274.69506 
L 414.72 274.7628 
" clip-path="url(#pf5310d472f)" style="fill: none; stroke: #000000; stroke-width: 1.5; stroke-linecap: square"/>
   </g>
   <g id="line2d_19">
    <path d="M 57.6 211.49505 
L 61.226319 211.188872 
L 64.852637 210.29984 
L 68.478956 208.903932 
L 72.105275 207.096867 
L 75.731594 204.971473 
L 79.357912 202.606747 
L 82.984231 200.065901 
L 86.61055 197.398514 
L 90.236869 194.643719 
L 93.863187 191.833096 
L 97.489506 188.992979 
L 101.115825 186.146195 
L 104.742144 183.313399 
L 108.368462 180.514129 
L 111.994781 177.76772 
L 115.6211 175.094147 
L 119.247418 172.514895 
L 122.873737 170.053864 
L 126.500056 167.738341 
L 130.126375 165.599943 
L 133.752693 163.675324 
L 137.379012 162.006246 
L 141.005331 160.638344 
L 144.63165 159.617866 
L 148.257968 158.986044 
L 151.884287 158.771925 
L 155.513291 158.899902 
L 159.142295 159.277911 
L 162.771299 159.889198 
L 166.400303 160.708826 
L 170.029307 161.707037 
L 173.65831 162.852381 
L 177.287314 164.114071 
L 180.916318 165.463432 
L 184.545322 166.874591 
L 188.174326 168.324645 
L 191.80333 169.793529 
L 195.432334 171.741149 
L 199.061338 173.847131 
L 202.690342 176.077134 
L 206.319346 178.422502 
L 209.948349 180.874397 
L 213.577353 183.423848 
L 217.206357 186.061798 
L 220.835361 188.779145 
L 224.464365 191.566773 
L 228.093369 194.415591 
L 231.722373 197.316555 
L 235.351377 200.260697 
L 238.980381 203.239148 
L 242.609385 206.243153 
L 246.238388 209.264097 
L 249.867392 212.293514 
L 253.496396 215.323108 
L 257.1254 218.344761 
L 260.754404 221.35055 
L 264.253622 221.307289 
L 267.75284 221.177337 
L 271.252058 220.960202 
L 274.751276 220.655094 
L 278.250494 220.260961 
L 281.749713 219.776548 
L 285.248931 219.200459 
L 288.748149 218.531237 
L 292.247367 217.767438 
L 295.746585 216.907722 
L 299.245803 215.950929 
L 302.854372 214.861623 
L 306.46294 213.667542 
L 310.071509 212.368571 
L 313.680078 210.965146 
L 317.288646 209.458322 
L 320.897215 207.849835 
L 324.505784 206.142146 
L 328.114352 204.338487 
L 331.722921 202.442888 
L 335.33149 200.460213 
L 338.940058 198.396173 
L 342.548627 196.257354 
L 346.157196 194.051232 
L 349.765764 191.786206 
L 353.374333 189.471626 
L 356.982902 187.117841 
L 360.59147 184.736267 
L 364.200039 182.339482 
L 367.808607 179.941355 
L 371.417176 177.557221 
L 375.025745 175.204121 
L 378.634313 172.901095 
L 382.242882 170.669553 
L 385.851451 168.533694 
L 389.460019 166.520936 
L 393.068588 164.662248 
L 396.677157 162.992192 
L 400.285725 161.548371 
L 403.894294 160.369897 
L 407.502863 159.494533 
L 411.111431 158.954539 
L 414.72 158.771925 
" clip-path="url(#pf5310d472f)" style="fill: none; stroke: #000000; stroke-width: 1.5; stroke-linecap: square"/>
   </g>
   <g id="line2d_20">
    <path d="M 57.6 172.831425 
L 61.226319 172.790397 
L 64.852637 172.667626 
L 68.478956 172.464049 
L 72.105275 172.181239 
L 75.731594 171.82141 
L 79.357912 171.387439 
L 82.984231 170.882884 
L 86.61055 170.312014 
L 90.236869 169.679843 
L 93.863187 168.992174 
L 97.489506 168.255643 
L 101.115825 167.477782 
L 104.742144 166.667077 
L 108.368462 165.833034 
L 111.994781 164.986241 
L 115.6211 164.138419 
L 119.247418 163.302439 
L 122.873737 162.492297 
L 126.500056 161.723 
L 130.126375 161.010341 
L 133.752693 160.37051 
L 137.379012 159.819526 
L 141.005331 159.372467 
L 144.63165 159.042551 
L 148.257968 158.840154 
L 151.884287 158.771925 
L 155.513291 158.899902 
L 159.142295 159.277911 
L 162.771299 159.889198 
L 166.400303 160.708826 
L 170.029307 161.707037 
L 173.65831 162.852381 
L 177.287314 164.114071 
L 180.916318 165.463432 
L 184.545322 166.874591 
L 188.174326 168.324645 
L 191.80333 169.793529 
L 195.432334 171.26374 
L 199.061338 172.720014 
L 202.690342 174.149012 
L 206.319346 175.539037 
L 209.948349 176.8798 
L 213.577353 178.162216 
L 217.206357 179.378243 
L 220.835361 180.520758 
L 224.464365 181.58345 
L 228.093369 182.560736 
L 231.722373 183.447704 
L 235.351377 184.240055 
L 238.980381 184.934069 
L 242.609385 185.526571 
L 246.238388 186.014908 
L 249.867392 186.39693 
L 253.496396 186.670981 
L 257.1254 186.83588 
L 260.754404 186.890925 
L 264.253622 186.926565 
L 267.75284 187.031127 
L 271.252058 187.197652 
L 274.751276 187.414911 
L 278.250494 187.667976 
L 281.749713 187.939012 
L 285.248931 188.208294 
L 288.748149 188.455383 
L 292.247367 188.660367 
L 295.746585 188.805042 
L 299.245803 188.873874 
L 302.854372 188.852516 
L 306.46294 188.728078 
L 310.071509 188.494999 
L 313.680078 188.151131 
L 317.288646 187.697092 
L 320.897215 187.135572 
L 324.505784 186.470696 
L 328.114352 185.707513 
L 331.722921 184.851603 
L 335.33149 183.908824 
L 338.940058 182.885152 
L 342.548627 181.78662 
L 346.157196 180.619311 
L 349.765764 179.389406 
L 353.374333 178.103273 
L 356.982902 176.767584 
L 360.59147 175.389472 
L 364.200039 173.976717 
L 367.808607 172.537968 
L 371.417176 171.08301 
L 375.025745 169.623076 
L 378.634313 168.171203 
L 382.242882 166.742635 
L 385.851451 165.355241 
L 389.460019 164.029893 
L 393.068588 162.790722 
L 396.677157 161.665056 
L 400.285725 160.682825 
L 403.894294 159.875146 
L 407.502863 159.271906 
L 411.111431 158.898444 
L 414.72 158.771925 
" clip-path="url(#pf5310d472f)" style="fill: none; stroke: #000000; stroke-width: 1.5; stroke-linecap: square"/>
   </g>
   <g id="line2d_21">
    <path d="M 57.6 172.831425 
L 61.226319 172.790397 
L 64.852637 172.667626 
L 68.478956 172.464049 
L 72.105275 172.181239 
L 75.731594 171.82141 
L 79.357912 171.387439 
L 82.984231 170.882884 
L 86.61055 170.312014 
L 90.236869 169.679843 
L 93.863187 168.992174 
L 97.489506 168.255643 
L 101.115825 167.477782 
L 104.742144 166.667077 
L 108.368462 165.833034 
L 111.994781 164.986241 
L 115.6211 164.138419 
L 119.247418 163.302439 
L 122.873737 162.492297 
L 126.500056 161.723 
L 130.126375 161.010341 
L 133.752693 160.37051 
L 137.379012 159.819526 
L 141.005331 159.372467 
L 144.63165 159.042551 
L 148.257968 158.840154 
L 151.884287 158.771925 
L 155.513291 158.867315 
L 159.142295 159.153006 
L 162.771299 159.62757 
L 166.400303 160.288652 
L 170.029307 161.133005 
L 173.65831 162.156541 
L 177.287314 163.354383 
L 180.916318 164.720938 
L 184.545322 166.249958 
L 188.174326 167.934623 
L 191.80333 169.767606 
L 195.432334 171.26374 
L 199.061338 172.720014 
L 202.690342 174.149012 
L 206.319346 175.539037 
L 209.948349 176.8798 
L 213.577353 178.162216 
L 217.206357 179.378243 
L 220.835361 180.520758 
L 224.464365 181.58345 
L 228.093369 182.560736 
L 231.722373 183.447704 
L 235.351377 184.240055 
L 238.980381 184.934069 
L 242.609385 185.526571 
L 246.238388 186.014908 
L 249.867392 186.39693 
L 253.496396 186.670981 
L 257.1254 186.83588 
L 260.754404 186.890925 
L 264.253622 186.855103 
L 267.75284 186.74782 
L 271.252058 186.569621 
L 274.751276 186.321416 
L 278.250494 186.00447 
L 281.749713 185.620396 
L 285.248931 185.171153 
L 288.748149 184.659029 
L 292.247367 184.086635 
L 295.746585 183.456886 
L 299.245803 182.772993 
L 302.854372 182.014709 
L 306.46294 181.206659 
L 310.071509 180.353224 
L 313.680078 179.459027 
L 317.288646 178.528915 
L 320.897215 177.567928 
L 324.505784 176.581273 
L 328.114352 175.574297 
L 331.722921 174.552458 
L 335.33149 173.521292 
L 338.940058 172.486388 
L 342.548627 171.453353 
L 346.157196 170.427786 
L 349.765764 169.415245 
L 353.374333 168.421217 
L 356.982902 167.451087 
L 360.59147 166.510115 
L 364.200039 165.603397 
L 367.808607 164.73585 
L 371.417176 163.912173 
L 375.025745 163.13683 
L 378.634313 162.414023 
L 382.242882 161.747668 
L 385.851451 161.141378 
L 389.460019 160.598437 
L 393.068588 160.121788 
L 396.677157 159.714013 
L 400.285725 159.377322 
L 403.894294 159.113541 
L 407.502863 158.924098 
L 411.111431 158.81002 
L 414.72 158.771925 
" clip-path="url(#pf5310d472f)" style="fill: none; stroke: #000000; stroke-width: 1.5; stroke-linecap: square"/>
   </g>
   <g id="line2d_22">
    <path d="M 57.6 102.533925 
L 61.226319 102.574953 
L 64.852637 102.697724 
L 68.478956 102.901301 
L 72.105275 103.184111 
L 75.731594 103.54394 
L 79.357912 103.977911 
L 82.984231 104.482466 
L 86.61055 105.053336 
L 90.236869 105.685507 
L 93.863187 106.373176 
L 97.489506 107.109707 
L 101.115825 107.887568 
L 104.742144 108.698273 
L 108.368462 109.532316 
L 111.994781 110.379109 
L 115.6211 111.226931 
L 119.247418 112.062911 
L 122.873737 112.873053 
L 126.500056 113.64235 
L 130.126375 114.355009 
L 133.752693 114.99484 
L 137.379012 115.545824 
L 141.005331 115.992883 
L 144.63165 116.322799 
L 148.257968 116.525196 
L 151.884287 116.593425 
L 155.513291 116.536697 
L 159.142295 116.366741 
L 162.771299 116.084234 
L 166.400303 115.690304 
L 170.029307 115.186521 
L 173.65831 114.574888 
L 177.287314 113.857831 
L 180.916318 113.038186 
L 184.545322 112.119184 
L 188.174326 111.104431 
L 191.80333 109.997897 
L 195.432334 108.803884 
L 199.061338 107.527013 
L 202.690342 106.172196 
L 206.319346 104.744614 
L 209.948349 103.249686 
L 213.577353 101.693048 
L 217.206357 100.080522 
L 220.835361 98.418089 
L 224.464365 96.711859 
L 228.093369 94.968042 
L 231.722373 93.192922 
L 235.351377 91.392821 
L 238.980381 90.431281 
L 242.609385 89.838779 
L 246.238388 89.350442 
L 249.867392 88.96842 
L 253.496396 88.694369 
L 257.1254 88.52947 
L 260.754404 88.474425 
L 264.253622 88.510247 
L 267.75284 88.61753 
L 271.252058 88.795729 
L 274.751276 89.043934 
L 278.250494 89.36088 
L 281.749713 89.744954 
L 285.248931 90.194197 
L 288.748149 90.706321 
L 292.247367 91.278715 
L 295.746585 91.908464 
L 299.245803 92.592357 
L 302.854372 93.350641 
L 306.46294 94.158691 
L 310.071509 95.012126 
L 313.680078 95.906323 
L 317.288646 96.836435 
L 320.897215 97.797422 
L 324.505784 98.784077 
L 328.114352 99.791053 
L 331.722921 100.812892 
L 335.33149 101.844058 
L 338.940058 102.878962 
L 342.548627 103.911997 
L 346.157196 104.937564 
L 349.765764 105.950105 
L 353.374333 106.944133 
L 356.982902 107.914263 
L 360.59147 108.855235 
L 364.200039 109.761953 
L 367.808607 110.6295 
L 371.417176 111.453177 
L 375.025745 112.22852 
L 378.634313 112.951327 
L 382.242882 113.617682 
L 385.851451 114.223972 
L 389.460019 114.766913 
L 393.068588 115.243562 
L 396.677157 115.651337 
L 400.285725 115.988028 
L 403.894294 116.251809 
L 407.502863 116.441252 
L 411.111431 116.55533 
L 414.72 116.593425 
" clip-path="url(#pf5310d472f)" style="fill: none; stroke: #000000; stroke-width: 1.5; stroke-linecap: square"/>
   </g>
   <g id="line2d_23">
    <path d="M 57.6 102.533925 
L 61.226319 102.574953 
L 64.852637 102.697724 
L 68.478956 102.901301 
L 72.105275 103.184111 
L 75.731594 103.54394 
L 79.357912 103.977911 
L 82.984231 104.482466 
L 86.61055 105.053336 
L 90.236869 105.685507 
L 93.863187 106.373176 
L 97.489506 107.109707 
L 101.115825 107.887568 
L 104.742144 108.698273 
L 108.368462 109.532316 
L 111.994781 110.379109 
L 115.6211 111.226931 
L 119.247418 112.062911 
L 122.873737 112.873053 
L 126.500056 113.64235 
L 130.126375 114.355009 
L 133.752693 114.99484 
L 137.379012 115.545824 
L 141.005331 115.992883 
L 144.63165 116.322799 
L 148.257968 116.525196 
L 151.884287 116.593425 
L 155.513291 116.465448 
L 159.142295 116.087439 
L 162.771299 115.476152 
L 166.400303 114.656524 
L 170.029307 113.658313 
L 173.65831 112.512969 
L 177.287314 111.251279 
L 180.916318 109.901918 
L 184.545322 108.490759 
L 188.174326 107.040705 
L 191.80333 105.571821 
L 195.432334 104.10161 
L 199.061338 102.645336 
L 202.690342 101.216338 
L 206.319346 99.826313 
L 209.948349 98.48555 
L 213.577353 97.203134 
L 217.206357 95.987107 
L 220.835361 94.844592 
L 224.464365 93.7819 
L 228.093369 92.804614 
L 231.722373 91.917646 
L 235.351377 91.125295 
L 238.980381 90.431281 
L 242.609385 89.838779 
L 246.238388 89.350442 
L 249.867392 88.96842 
L 253.496396 88.694369 
L 257.1254 88.52947 
L 260.754404 88.474425 
L 264.253622 88.438786 
L 267.75284 88.334265 
L 271.252058 88.168163 
L 274.751276 87.952997 
L 278.250494 87.706827 
L 281.749713 87.453252 
L 285.248931 87.220445 
L 288.748149 87.038528 
L 292.247367 86.935211 
L 295.746585 86.931018 
L 299.245803 87.03645 
L 302.854372 87.260956 
L 306.46294 87.596849 
L 310.071509 88.034507 
L 313.680078 88.563756 
L 317.288646 89.175346 
L 320.897215 89.861459 
L 324.505784 90.615695 
L 328.114352 91.432867 
L 331.722921 92.308744 
L 335.33149 93.239809 
L 338.940058 94.223049 
L 342.548627 95.255778 
L 346.157196 96.33547 
L 349.765764 97.459613 
L 353.374333 98.625557 
L 356.982902 99.830351 
L 360.59147 101.070561 
L 364.200039 102.342062 
L 367.808607 103.639782 
L 371.417176 104.957403 
L 375.025745 106.286998 
L 378.634313 107.618591 
L 382.242882 108.93966 
L 385.851451 110.234577 
L 389.460019 111.48404 
L 393.068588 112.664613 
L 396.677157 113.748553 
L 400.285725 114.704248 
L 403.894294 115.497641 
L 407.502863 116.095004 
L 411.111431 116.467007 
L 414.72 116.593425 
" clip-path="url(#pf5310d472f)" style="fill: none; stroke: #000000; stroke-width: 1.5; stroke-linecap: square"/>
   </g>
   <g id="line2d_24">
    <path d="M 57.6 73.468291 
L 61.226319 74.367759 
L 64.852637 75.984472 
L 68.478956 77.767699 
L 72.105275 79.629435 
L 75.731594 81.544769 
L 79.357912 83.501939 
L 82.984231 85.493077 
L 86.61055 87.511678 
L 90.236869 89.551678 
L 93.863187 91.60704 
L 97.489506 93.671475 
L 101.115825 95.73822 
L 104.742144 97.799788 
L 108.368462 99.847662 
L 111.994781 101.871916 
L 115.6211 103.860719 
L 119.247418 105.799728 
L 122.873737 107.671326 
L 126.500056 109.453767 
L 130.126375 111.12029 
L 133.752693 112.638448 
L 137.379012 113.97005 
L 141.005331 115.0724 
L 144.63165 115.901545 
L 148.257968 116.417904 
L 151.884287 116.593425 
L 155.513291 116.465448 
L 159.142295 116.087439 
L 162.771299 115.476152 
L 166.400303 114.656524 
L 170.029307 113.658313 
L 173.65831 112.512969 
L 177.287314 111.251279 
L 180.916318 109.901918 
L 184.545322 108.490759 
L 188.174326 107.040705 
L 191.80333 105.571821 
L 195.432334 104.10161 
L 199.061338 102.645336 
L 202.690342 101.216338 
L 206.319346 99.826313 
L 209.948349 98.48555 
L 213.577353 97.203134 
L 217.206357 95.987107 
L 220.835361 94.844592 
L 224.464365 93.7819 
L 228.093369 92.804614 
L 231.722373 91.917646 
L 235.351377 91.125295 
L 238.980381 89.574075 
L 242.609385 87.743001 
L 246.238388 85.905871 
L 249.867392 84.068879 
L 253.496396 82.238114 
L 257.1254 80.419531 
L 260.754404 78.618925 
L 264.253622 78.620537 
L 267.75284 78.626125 
L 271.252058 78.637914 
L 274.751276 78.659496 
L 278.250494 78.695675 
L 281.749713 78.752258 
L 285.248931 78.83582 
L 288.748149 78.953455 
L 292.247367 79.112518 
L 295.746585 79.320391 
L 299.245803 79.584258 
L 302.854372 79.922201 
L 306.46294 80.333741 
L 310.071509 80.824923 
L 313.680078 81.400884 
L 317.288646 82.065767 
L 320.897215 82.822654 
L 324.505784 83.673527 
L 328.114352 84.619249 
L 331.722921 85.659554 
L 335.33149 86.793051 
L 338.940058 88.017232 
L 342.548627 89.328483 
L 346.157196 90.722089 
L 349.765764 92.192239 
L 353.374333 93.732015 
L 356.982902 95.333367 
L 360.59147 96.987068 
L 364.200039 98.68264 
L 367.808607 100.408244 
L 371.417176 102.150534 
L 375.025745 103.89445 
L 378.634313 105.622977 
L 382.242882 107.316848 
L 385.851451 108.954223 
L 389.460019 110.510401 
L 393.068588 111.957661 
L 396.677157 113.265391 
L 400.285725 114.400761 
L 403.894294 115.330197 
L 407.502863 116.021844 
L 411.111431 116.448933 
L 414.72 116.593425 
" clip-path="url(#pf5310d472f)" style="fill: none; stroke: #000000; stroke-width: 1.5; stroke-linecap: square"/>
   </g>
   <g id="line2d_25">
    <path d="M 57.6 70.90005 
L 61.226319 70.054791 
L 64.852637 68.600454 
L 68.478956 67.087017 
L 72.105275 65.601227 
L 75.731594 64.166217 
L 79.357912 62.791447 
L 82.984231 61.481928 
L 86.61055 60.240729 
L 90.236869 59.069843 
L 93.863187 57.970545 
L 97.489506 56.943563 
L 101.115825 55.989176 
L 104.742144 55.107278 
L 108.368462 54.29743 
L 111.994781 53.558912 
L 115.6211 52.890769 
L 119.247418 52.291868 
L 122.873737 51.760944 
L 126.500056 51.296663 
L 130.126375 50.897675 
L 133.752693 50.562669 
L 137.379012 50.290432 
L 141.005331 50.079894 
L 144.63165 49.930171 
L 148.257968 49.840609 
L 151.884287 49.8108 
L 155.513291 49.840653 
L 159.142295 49.930346 
L 162.771299 50.080278 
L 166.400303 50.291093 
L 170.029307 50.563648 
L 173.65831 50.89897 
L 177.287314 51.298211 
L 180.916318 51.762587 
L 184.545322 52.293326 
L 188.174326 52.891605 
L 191.80333 53.558492 
L 195.432334 54.294893 
L 199.061338 55.1015 
L 202.690342 55.97875 
L 206.319346 56.926782 
L 209.948349 57.945407 
L 213.577353 59.034082 
L 217.206357 60.191893 
L 220.835361 61.417539 
L 224.464365 62.709327 
L 228.093369 64.065168 
L 231.722373 65.48258 
L 235.351377 66.958696 
L 238.980381 68.490269 
L 242.609385 70.073691 
L 246.238388 71.705004 
L 249.867392 73.379923 
L 253.496396 75.093851 
L 257.1254 76.841901 
L 260.754404 78.618925 
L 264.253622 78.617226 
L 267.75284 78.610312 
L 271.252058 78.592601 
L 274.751276 78.554414 
L 278.250494 78.481588 
L 281.749713 78.35541 
L 285.248931 78.153508 
L 288.748149 77.852369 
L 292.247367 77.431597 
L 295.746585 76.878573 
L 299.245803 76.191173 
L 302.854372 75.349834 
L 306.46294 74.389911 
L 310.071509 73.330994 
L 313.680078 72.193228 
L 317.288646 70.995709 
L 320.897215 69.755862 
L 324.505784 68.489342 
L 328.114352 67.210134 
L 331.722921 65.930716 
L 335.33149 64.662204 
L 338.940058 63.414468 
L 342.548627 62.196232 
L 346.157196 61.015136 
L 349.765764 59.877801 
L 353.374333 58.789873 
L 356.982902 57.756073 
L 360.59147 56.780248 
L 364.200039 55.86542 
L 367.808607 55.013845 
L 371.417176 54.227082 
L 375.025745 53.506067 
L 378.634313 52.851184 
L 382.242882 52.26236 
L 385.851451 51.739149 
L 389.460019 51.280826 
L 393.068588 50.88648 
L 396.677157 50.555103 
L 400.285725 50.285675 
L 403.894294 50.077247 
L 407.502863 49.929003 
L 411.111431 49.840317 
L 414.72 49.8108 
" clip-path="url(#pf5310d472f)" style="fill: none; stroke: #000000; stroke-width: 1.5; stroke-linecap: square"/>
   </g>
   <g id="patch_3">
    <path d="M 57.6 286.0104 
L 57.6 38.5632 
" style="fill: none; stroke: #000000; stroke-width: 0.8; stroke-linejoin: miter; stroke-linecap: square"/>
   </g>
   <g id="patch_4">
    <path d="M 414.72 286.0104 
L 414.72 38.5632 
" style="fill: none; stroke: #000000; stroke-width: 0.8; stroke-linejoin: miter; stroke-linecap: square"/>
   </g>
   <g id="patch_5">
    <path d="M 57.6 286.0104 
L 414.72 286.0104 
" style="fill: none; stroke: #000000; stroke-width: 0.8; stroke-linejoin: miter; stroke-linecap: square"/>
   </g>
   <g id="patch_6">
    <path d="M 57.6 38.5632 
L 414.72 38.5632 
" style="fill: none; stroke: #000000; stroke-width: 0.8; stroke-linejoin: miter; stroke-linecap: square"/>
   </g>
  </g>
 </g>
 <defs>
  <clipPath id="pf5310d472f">
   <rect x="57.6" y="38.5632" width="357.12" height="247.4472"/>
  </clipPath>
 </defs>
</svg>
