<?xml version="1.0" encoding="utf-8" standalone="no"?>
<!DOCTYPE svg PUBLIC "-//W3C//DTD SVG 1.1//EN"
  "http://www.w3.org/Graphics/SVG/1.1/DTD/svg11.dtd">
<svg xmlns:xlink="http://www.w3.org/1999/xlink" width="460.8pt" height="321.36pt" viewBox="0 0 460.8 321.36" xmlns="http://www.w3.org/2000/svg" version="1.1">
 <metadata>
  <rdf:RDF xmlns:dc="http://purl.org/dc/elements/1.1/" xmlns:cc="http://creativecommons.org/ns#" xmlns:rdf="http://www.w3.org/1999/02/22-rdf-syntax-ns#">
   <cc:Work>
    <dc:type rdf:resource="http://purl.org/dc/dcmitype/StillImage"/>
    <dc:date>2023-10-13T12:25:14.178394</dc:date>
    <dc:format>image/svg+xml</dc:format>
    <dc:creator>
     <cc:Agent>
      <dc:title>Matplotlib v3.7.1, https://matplotlib.org/</dc:title>
     </cc:Agent>
    </dc:creator>
   </cc:Work>
  </rdf:RDF>
 </metadata>
 <defs>
  <style type="text/css">*{stroke-linejoin: round; stroke-linecap: butt}</style>
 </defs>
 <g id="figure_1">
  <g id="patch_1">
   <path d="M 0 321.36 
L 460.8 321.36 
L 460.8 0 
L 0 0 
z
" style="fill: #ffffff"/>
  </g>
  <g id="axes_1">
   <g id="patch_2">
    <path d="M 57.6 286.0104 
L 414.72 286.0104 
L 414.72 38.5632 
L 57.6 38.5632 
z
" style="fill: #ffffff"/>
   </g>
   <g id="matplotlib.axis_1">
    <g id="xtick_1">
     <g id="line2d_1">
      <defs>
       <path id="mb11b85f738" d="M 0 0 
L 0 3.5 
" style="stroke: #000000; stroke-width: 0.8"/>
      </defs>
      <g>
       <use xlink:href="#mb11b85f738" x="57.6" y="286.0104" style="stroke: #000000; stroke-width: 0.8"/>
      </g>
     </g>
     <g id="text_1">
      <!-- W -->
      <g transform="translate(52.65625 300.608837) scale(0.1 -0.1)">
       <defs>
        <path id="DejaVuSans-57" d="M 213 4666 
L 850 4666 
L 1831 722 
L 2809 4666 
L 3519 4666 
L 4500 722 
L 5478 4666 
L 6119 4666 
L 4947 0 
L 4153 0 
L 3169 4050 
L 2175 0 
L 1381 0 
L 213 4666 
z
" transform="scale(0.015625)"/>
       </defs>
       <use xlink:href="#DejaVuSans-57"/>
      </g>
     </g>
    </g>
    <g id="xtick_2">
     <g id="line2d_2">
      <g>
       <use xlink:href="#mb11b85f738" x="113.87424" y="286.0104" style="stroke: #000000; stroke-width: 0.8"/>
      </g>
     </g>
     <g id="text_2">
      <!-- L -->
      <g transform="translate(111.088303 300.608837) scale(0.1 -0.1)">
       <defs>
        <path id="DejaVuSans-4c" d="M 628 4666 
L 1259 4666 
L 1259 531 
L 3531 531 
L 3531 0 
L 628 0 
L 628 4666 
z
" transform="scale(0.015625)"/>
       </defs>
       <use xlink:href="#DejaVuSans-4c"/>
      </g>
     </g>
    </g>
    <g id="xtick_3">
     <g id="line2d_3">
      <g>
       <use xlink:href="#mb11b85f738" x="182.795828" y="286.0104" style="stroke: #000000; stroke-width: 0.8"/>
      </g>
     </g>
     <g id="text_3">
      <!-- ${\Gamma}$ -->
      <g transform="translate(179.995828 300.608837) scale(0.1 -0.1)">
       <defs>
        <path id="DejaVuSans-393" d="M 628 0 
L 628 4666 
L 3531 4666 
L 3531 4134 
L 1259 4134 
L 1259 0 
L 628 0 
z
" transform="scale(0.015625)"/>
       </defs>
       <use xlink:href="#DejaVuSans-393" transform="translate(0 0.09375)"/>
      </g>
     </g>
    </g>
    <g id="xtick_4">
     <g id="line2d_4">
      <g>
       <use xlink:href="#mb11b85f738" x="262.379622" y="286.0104" style="stroke: #000000; stroke-width: 0.8"/>
      </g>
     </g>
     <g id="text_4">
      <!-- X -->
      <g transform="translate(258.954622 300.608837) scale(0.1 -0.1)">
       <defs>
        <path id="DejaVuSans-58" d="M 403 4666 
L 1081 4666 
L 2241 2931 
L 3406 4666 
L 4084 4666 
L 2584 2425 
L 4184 0 
L 3506 0 
L 2194 1984 
L 872 0 
L 191 0 
L 1856 2491 
L 403 4666 
z
" transform="scale(0.015625)"/>
       </defs>
       <use xlink:href="#DejaVuSans-58"/>
      </g>
     </g>
    </g>
    <g id="xtick_5">
     <g id="line2d_5">
      <g>
       <use xlink:href="#mb11b85f738" x="302.171519" y="286.0104" style="stroke: #000000; stroke-width: 0.8"/>
      </g>
     </g>
     <g id="text_5">
      <!-- W -->
      <g transform="translate(297.227769 300.608837) scale(0.1 -0.1)">
       <use xlink:href="#DejaVuSans-57"/>
      </g>
     </g>
    </g>
    <g id="xtick_6">
     <g id="line2d_6">
      <g>
       <use xlink:href="#mb11b85f738" x="330.308639" y="286.0104" style="stroke: #000000; stroke-width: 0.8"/>
      </g>
     </g>
     <g id="text_6">
      <!-- K -->
      <g transform="translate(327.029733 300.608837) scale(0.1 -0.1)">
       <defs>
        <path id="DejaVuSans-4b" d="M 628 4666 
L 1259 4666 
L 1259 2694 
L 3353 4666 
L 4166 4666 
L 1850 2491 
L 4331 0 
L 3500 0 
L 1259 2247 
L 1259 0 
L 628 0 
L 628 4666 
z
" transform="scale(0.015625)"/>
       </defs>
       <use xlink:href="#DejaVuSans-4b"/>
      </g>
     </g>
    </g>
    <g id="xtick_7">
     <g id="line2d_7">
      <g>
       <use xlink:href="#mb11b85f738" x="414.72" y="286.0104" style="stroke: #000000; stroke-width: 0.8"/>
      </g>
     </g>
     <g id="text_7">
      <!-- ${\Gamma}$ -->
      <g transform="translate(411.92 300.608837) scale(0.1 -0.1)">
       <use xlink:href="#DejaVuSans-393" transform="translate(0 0.09375)"/>
      </g>
     </g>
    </g>
   </g>
   <g id="matplotlib.axis_2">
    <g id="ytick_1">
     <g id="line2d_8">
      <defs>
       <path id="m06946b35bf" d="M 0 0 
L -3.5 0 
" style="stroke: #000000; stroke-width: 0.8"/>
      </defs>
      <g>
       <use xlink:href="#m06946b35bf" x="57.6" y="257.785885" style="stroke: #000000; stroke-width: 0.8"/>
      </g>
     </g>
     <g id="text_8">
      <!-- −2 -->
      <g transform="translate(35.857813 261.585104) scale(0.1 -0.1)">
       <defs>
        <path id="DejaVuSans-2212" d="M 678 2272 
L 4684 2272 
L 4684 1741 
L 678 1741 
L 678 2272 
z
" transform="scale(0.015625)"/>
        <path id="DejaVuSans-32" d="M 1228 531 
L 3431 531 
L 3431 0 
L 469 0 
L 469 531 
Q 828 903 1448 1529 
Q 2069 2156 2228 2338 
Q 2531 2678 2651 2914 
Q 2772 3150 2772 3378 
Q 2772 3750 2511 3984 
Q 2250 4219 1831 4219 
Q 1534 4219 1204 4116 
Q 875 4013 500 3803 
L 500 4441 
Q 881 4594 1212 4672 
Q 1544 4750 1819 4750 
Q 2544 4750 2975 4387 
Q 3406 4025 3406 3419 
Q 3406 3131 3298 2873 
Q 3191 2616 2906 2266 
Q 2828 2175 2409 1742 
Q 1991 1309 1228 531 
z
" transform="scale(0.015625)"/>
       </defs>
       <use xlink:href="#DejaVuSans-2212"/>
       <use xlink:href="#DejaVuSans-32" x="83.789062"/>
      </g>
     </g>
    </g>
    <g id="ytick_2">
     <g id="line2d_9">
      <g>
       <use xlink:href="#m06946b35bf" x="57.6" y="203.408489" style="stroke: #000000; stroke-width: 0.8"/>
      </g>
     </g>
     <g id="text_9">
      <!-- 0 -->
      <g transform="translate(44.2375 207.207708) scale(0.1 -0.1)">
       <defs>
        <path id="DejaVuSans-30" d="M 2034 4250 
Q 1547 4250 1301 3770 
Q 1056 3291 1056 2328 
Q 1056 1369 1301 889 
Q 1547 409 2034 409 
Q 2525 409 2770 889 
Q 3016 1369 3016 2328 
Q 3016 3291 2770 3770 
Q 2525 4250 2034 4250 
z
M 2034 4750 
Q 2819 4750 3233 4129 
Q 3647 3509 3647 2328 
Q 3647 1150 3233 529 
Q 2819 -91 2034 -91 
Q 1250 -91 836 529 
Q 422 1150 422 2328 
Q 422 3509 836 4129 
Q 1250 4750 2034 4750 
z
" transform="scale(0.015625)"/>
       </defs>
       <use xlink:href="#DejaVuSans-30"/>
      </g>
     </g>
    </g>
    <g id="ytick_3">
     <g id="line2d_10">
      <g>
       <use xlink:href="#m06946b35bf" x="57.6" y="149.031093" style="stroke: #000000; stroke-width: 0.8"/>
      </g>
     </g>
     <g id="text_10">
      <!-- 2 -->
      <g transform="translate(44.2375 152.830312) scale(0.1 -0.1)">
       <use xlink:href="#DejaVuSans-32"/>
      </g>
     </g>
    </g>
    <g id="ytick_4">
     <g id="line2d_11">
      <g>
       <use xlink:href="#m06946b35bf" x="57.6" y="94.653698" style="stroke: #000000; stroke-width: 0.8"/>
      </g>
     </g>
     <g id="text_11">
      <!-- 4 -->
      <g transform="translate(44.2375 98.452917) scale(0.1 -0.1)">
       <defs>
        <path id="DejaVuSans-34" d="M 2419 4116 
L 825 1625 
L 2419 1625 
L 2419 4116 
z
M 2253 4666 
L 3047 4666 
L 3047 1625 
L 3713 1625 
L 3713 1100 
L 3047 1100 
L 3047 0 
L 2419 0 
L 2419 1100 
L 313 1100 
L 313 1709 
L 2253 4666 
z
" transform="scale(0.015625)"/>
       </defs>
       <use xlink:href="#DejaVuSans-34"/>
      </g>
     </g>
    </g>
    <g id="ytick_5">
     <g id="line2d_12">
      <g>
       <use xlink:href="#m06946b35bf" x="57.6" y="40.276302" style="stroke: #000000; stroke-width: 0.8"/>
      </g>
     </g>
     <g id="text_12">
      <!-- 6 -->
      <g transform="translate(44.2375 44.075521) scale(0.1 -0.1)">
       <defs>
        <path id="DejaVuSans-36" d="M 2113 2584 
Q 1688 2584 1439 2293 
Q 1191 2003 1191 1497 
Q 1191 994 1439 701 
Q 1688 409 2113 409 
Q 2538 409 2786 701 
Q 3034 994 3034 1497 
Q 3034 2003 2786 2293 
Q 2538 2584 2113 2584 
z
M 3366 4563 
L 3366 3988 
Q 3128 4100 2886 4159 
Q 2644 4219 2406 4219 
Q 1781 4219 1451 3797 
Q 1122 3375 1075 2522 
Q 1259 2794 1537 2939 
Q 1816 3084 2150 3084 
Q 2853 3084 3261 2657 
Q 3669 2231 3669 1497 
Q 3669 778 3244 343 
Q 2819 -91 2113 -91 
Q 1303 -91 875 529 
Q 447 1150 447 2328 
Q 447 3434 972 4092 
Q 1497 4750 2381 4750 
Q 2619 4750 2861 4703 
Q 3103 4656 3366 4563 
z
" transform="scale(0.015625)"/>
       </defs>
       <use xlink:href="#DejaVuSans-36"/>
      </g>
     </g>
    </g>
    <g id="text_13">
     <!-- Berry Curvature -->
     <g transform="translate(29.778125 202.253206) rotate(-90) scale(0.1 -0.1)">
      <defs>
       <path id="DejaVuSans-42" d="M 1259 2228 
L 1259 519 
L 2272 519 
Q 2781 519 3026 730 
Q 3272 941 3272 1375 
Q 3272 1813 3026 2020 
Q 2781 2228 2272 2228 
L 1259 2228 
z
M 1259 4147 
L 1259 2741 
L 2194 2741 
Q 2656 2741 2882 2914 
Q 3109 3088 3109 3444 
Q 3109 3797 2882 3972 
Q 2656 4147 2194 4147 
L 1259 4147 
z
M 628 4666 
L 2241 4666 
Q 2963 4666 3353 4366 
Q 3744 4066 3744 3513 
Q 3744 3084 3544 2831 
Q 3344 2578 2956 2516 
Q 3422 2416 3680 2098 
Q 3938 1781 3938 1306 
Q 3938 681 3513 340 
Q 3088 0 2303 0 
L 628 0 
L 628 4666 
z
" transform="scale(0.015625)"/>
       <path id="DejaVuSans-65" d="M 3597 1894 
L 3597 1613 
L 953 1613 
Q 991 1019 1311 708 
Q 1631 397 2203 397 
Q 2534 397 2845 478 
Q 3156 559 3463 722 
L 3463 178 
Q 3153 47 2828 -22 
Q 2503 -91 2169 -91 
Q 1331 -91 842 396 
Q 353 884 353 1716 
Q 353 2575 817 3079 
Q 1281 3584 2069 3584 
Q 2775 3584 3186 3129 
Q 3597 2675 3597 1894 
z
M 3022 2063 
Q 3016 2534 2758 2815 
Q 2500 3097 2075 3097 
Q 1594 3097 1305 2825 
Q 1016 2553 972 2059 
L 3022 2063 
z
" transform="scale(0.015625)"/>
       <path id="DejaVuSans-72" d="M 2631 2963 
Q 2534 3019 2420 3045 
Q 2306 3072 2169 3072 
Q 1681 3072 1420 2755 
Q 1159 2438 1159 1844 
L 1159 0 
L 581 0 
L 581 3500 
L 1159 3500 
L 1159 2956 
Q 1341 3275 1631 3429 
Q 1922 3584 2338 3584 
Q 2397 3584 2469 3576 
Q 2541 3569 2628 3553 
L 2631 2963 
z
" transform="scale(0.015625)"/>
       <path id="DejaVuSans-79" d="M 2059 -325 
Q 1816 -950 1584 -1140 
Q 1353 -1331 966 -1331 
L 506 -1331 
L 506 -850 
L 844 -850 
Q 1081 -850 1212 -737 
Q 1344 -625 1503 -206 
L 1606 56 
L 191 3500 
L 800 3500 
L 1894 763 
L 2988 3500 
L 3597 3500 
L 2059 -325 
z
" transform="scale(0.015625)"/>
       <path id="DejaVuSans-20" transform="scale(0.015625)"/>
       <path id="DejaVuSans-43" d="M 4122 4306 
L 4122 3641 
Q 3803 3938 3442 4084 
Q 3081 4231 2675 4231 
Q 1875 4231 1450 3742 
Q 1025 3253 1025 2328 
Q 1025 1406 1450 917 
Q 1875 428 2675 428 
Q 3081 428 3442 575 
Q 3803 722 4122 1019 
L 4122 359 
Q 3791 134 3420 21 
Q 3050 -91 2638 -91 
Q 1578 -91 968 557 
Q 359 1206 359 2328 
Q 359 3453 968 4101 
Q 1578 4750 2638 4750 
Q 3056 4750 3426 4639 
Q 3797 4528 4122 4306 
z
" transform="scale(0.015625)"/>
       <path id="DejaVuSans-75" d="M 544 1381 
L 544 3500 
L 1119 3500 
L 1119 1403 
Q 1119 906 1312 657 
Q 1506 409 1894 409 
Q 2359 409 2629 706 
Q 2900 1003 2900 1516 
L 2900 3500 
L 3475 3500 
L 3475 0 
L 2900 0 
L 2900 538 
Q 2691 219 2414 64 
Q 2138 -91 1772 -91 
Q 1169 -91 856 284 
Q 544 659 544 1381 
z
M 1991 3584 
L 1991 3584 
z
" transform="scale(0.015625)"/>
       <path id="DejaVuSans-76" d="M 191 3500 
L 800 3500 
L 1894 563 
L 2988 3500 
L 3597 3500 
L 2284 0 
L 1503 0 
L 191 3500 
z
" transform="scale(0.015625)"/>
       <path id="DejaVuSans-61" d="M 2194 1759 
Q 1497 1759 1228 1600 
Q 959 1441 959 1056 
Q 959 750 1161 570 
Q 1363 391 1709 391 
Q 2188 391 2477 730 
Q 2766 1069 2766 1631 
L 2766 1759 
L 2194 1759 
z
M 3341 1997 
L 3341 0 
L 2766 0 
L 2766 531 
Q 2569 213 2275 61 
Q 1981 -91 1556 -91 
Q 1019 -91 701 211 
Q 384 513 384 1019 
Q 384 1609 779 1909 
Q 1175 2209 1959 2209 
L 2766 2209 
L 2766 2266 
Q 2766 2663 2505 2880 
Q 2244 3097 1772 3097 
Q 1472 3097 1187 3025 
Q 903 2953 641 2809 
L 641 3341 
Q 956 3463 1253 3523 
Q 1550 3584 1831 3584 
Q 2591 3584 2966 3190 
Q 3341 2797 3341 1997 
z
" transform="scale(0.015625)"/>
       <path id="DejaVuSans-74" d="M 1172 4494 
L 1172 3500 
L 2356 3500 
L 2356 3053 
L 1172 3053 
L 1172 1153 
Q 1172 725 1289 603 
Q 1406 481 1766 481 
L 2356 481 
L 2356 0 
L 1766 0 
Q 1100 0 847 248 
Q 594 497 594 1153 
L 594 3053 
L 172 3053 
L 172 3500 
L 594 3500 
L 594 4494 
L 1172 4494 
z
" transform="scale(0.015625)"/>
      </defs>
      <use xlink:href="#DejaVuSans-42"/>
      <use xlink:href="#DejaVuSans-65" x="68.603516"/>
      <use xlink:href="#DejaVuSans-72" x="130.126953"/>
      <use xlink:href="#DejaVuSans-72" x="169.490234"/>
      <use xlink:href="#DejaVuSans-79" x="210.603516"/>
      <use xlink:href="#DejaVuSans-20" x="269.783203"/>
      <use xlink:href="#DejaVuSans-43" x="301.570312"/>
      <use xlink:href="#DejaVuSans-75" x="371.394531"/>
      <use xlink:href="#DejaVuSans-72" x="434.773438"/>
      <use xlink:href="#DejaVuSans-76" x="475.886719"/>
      <use xlink:href="#DejaVuSans-61" x="535.066406"/>
      <use xlink:href="#DejaVuSans-74" x="596.345703"/>
      <use xlink:href="#DejaVuSans-75" x="635.554688"/>
      <use xlink:href="#DejaVuSans-72" x="698.933594"/>
      <use xlink:href="#DejaVuSans-65" x="737.796875"/>
     </g>
    </g>
    <g id="text_14">
     <!-- 1e28 -->
     <g transform="translate(57.6 35.5632) scale(0.1 -0.1)">
      <defs>
       <path id="DejaVuSans-31" d="M 794 531 
L 1825 531 
L 1825 4091 
L 703 3866 
L 703 4441 
L 1819 4666 
L 2450 4666 
L 2450 531 
L 3481 531 
L 3481 0 
L 794 0 
L 794 531 
z
" transform="scale(0.015625)"/>
       <path id="DejaVuSans-38" d="M 2034 2216 
Q 1584 2216 1326 1975 
Q 1069 1734 1069 1313 
Q 1069 891 1326 650 
Q 1584 409 2034 409 
Q 2484 409 2743 651 
Q 3003 894 3003 1313 
Q 3003 1734 2745 1975 
Q 2488 2216 2034 2216 
z
M 1403 2484 
Q 997 2584 770 2862 
Q 544 3141 544 3541 
Q 544 4100 942 4425 
Q 1341 4750 2034 4750 
Q 2731 4750 3128 4425 
Q 3525 4100 3525 3541 
Q 3525 3141 3298 2862 
Q 3072 2584 2669 2484 
Q 3125 2378 3379 2068 
Q 3634 1759 3634 1313 
Q 3634 634 3220 271 
Q 2806 -91 2034 -91 
Q 1263 -91 848 271 
Q 434 634 434 1313 
Q 434 1759 690 2068 
Q 947 2378 1403 2484 
z
M 1172 3481 
Q 1172 3119 1398 2916 
Q 1625 2713 2034 2713 
Q 2441 2713 2670 2916 
Q 2900 3119 2900 3481 
Q 2900 3844 2670 4047 
Q 2441 4250 2034 4250 
Q 1625 4250 1398 4047 
Q 1172 3844 1172 3481 
z
" transform="scale(0.015625)"/>
      </defs>
      <use xlink:href="#DejaVuSans-31"/>
      <use xlink:href="#DejaVuSans-65" x="63.623047"/>
      <use xlink:href="#DejaVuSans-32" x="125.146484"/>
      <use xlink:href="#DejaVuSans-38" x="188.769531"/>
     </g>
    </g>
   </g>
   <g id="line2d_13">
    <path d="M 57.6 286.0104 
L 57.6 38.5632 
" clip-path="url(#pe0e779b8a4)" style="fill: none; stroke-dasharray: 5.55,2.4; stroke-dashoffset: 0; stroke: #808080; stroke-width: 1.5"/>
   </g>
   <g id="line2d_14">
    <path d="M 113.87424 286.0104 
L 113.87424 38.5632 
" clip-path="url(#pe0e779b8a4)" style="fill: none; stroke-dasharray: 5.55,2.4; stroke-dashoffset: 0; stroke: #808080; stroke-width: 1.5"/>
   </g>
   <g id="line2d_15">
    <path d="M 182.795828 286.0104 
L 182.795828 38.5632 
" clip-path="url(#pe0e779b8a4)" style="fill: none; stroke-dasharray: 5.55,2.4; stroke-dashoffset: 0; stroke: #808080; stroke-width: 1.5"/>
   </g>
   <g id="line2d_16">
    <path d="M 262.379622 286.0104 
L 262.379622 38.5632 
" clip-path="url(#pe0e779b8a4)" style="fill: none; stroke-dasharray: 5.55,2.4; stroke-dashoffset: 0; stroke: #808080; stroke-width: 1.5"/>
   </g>
   <g id="line2d_17">
    <path d="M 302.171519 286.0104 
L 302.171519 38.5632 
" clip-path="url(#pe0e779b8a4)" style="fill: none; stroke-dasharray: 5.55,2.4; stroke-dashoffset: 0; stroke: #808080; stroke-width: 1.5"/>
   </g>
   <g id="line2d_18">
    <path d="M 330.308639 286.0104 
L 330.308639 38.5632 
" clip-path="url(#pe0e779b8a4)" style="fill: none; stroke-dasharray: 5.55,2.4; stroke-dashoffset: 0; stroke: #808080; stroke-width: 1.5"/>
   </g>
   <g id="line2d_19">
    <path d="M 414.72 286.0104 
L 414.72 38.5632 
" clip-path="url(#pe0e779b8a4)" style="fill: none; stroke-dasharray: 5.55,2.4; stroke-dashoffset: 0; stroke: #808080; stroke-width: 1.5"/>
   </g>
   <g id="line2d_20">
    <path d="M 57.6 203.408489 
L 61.11714 203.408489 
L 64.63428 203.408489 
L 68.15142 203.408489 
L 71.66856 203.408489 
L 75.1857 203.408489 
L 78.70284 203.408489 
L 82.21998 203.408489 
L 85.73712 203.408489 
L 89.25426 203.408489 
L 92.7714 203.408489 
L 96.28854 203.408489 
L 99.80568 203.408489 
L 103.32282 203.408489 
L 106.83996 203.408489 
L 110.3571 203.408489 
L 113.87424 203.408489 
L 117.501692 203.408489 
L 121.129144 203.408489 
L 124.756596 203.408489 
L 128.384048 203.408489 
L 132.0115 203.408489 
L 135.638952 203.408489 
L 139.266404 203.408489 
L 142.893856 203.408489 
L 146.521308 203.408489 
L 150.14876 203.408489 
L 153.776212 203.408489 
L 157.403664 203.408489 
L 161.031116 203.408489 
L 164.658568 203.408489 
L 168.28602 203.408489 
L 171.913472 203.408489 
L 175.540924 203.408489 
L 179.168376 203.408489 
L 182.795828 203.408489 
L 186.413273 203.408489 
L 190.030718 203.408489 
L 193.648163 203.408489 
L 197.265609 203.408489 
L 200.883054 203.408489 
L 204.500499 203.408489 
L 208.117944 203.408489 
L 211.735389 203.408489 
L 215.352835 203.408489 
L 218.97028 203.408489 
L 222.587725 203.408489 
L 226.20517 203.408489 
L 229.822615 203.408489 
L 233.440061 203.408489 
L 237.057506 203.408489 
L 240.674951 203.408489 
L 244.292396 203.408489 
L 247.909841 203.408489 
L 251.527286 203.408489 
L 255.144732 203.408489 
L 258.762177 203.408489 
L 262.379622 203.408489 
L 265.997067 203.408489 
L 269.614512 203.408489 
L 273.231958 203.408489 
L 276.849403 203.408489 
L 280.466848 203.408489 
L 284.084293 203.408489 
L 287.701738 203.408489 
L 291.319183 203.408489 
L 294.936629 203.408489 
L 298.554074 203.408489 
L 302.171519 203.408489 
L 305.688659 203.408489 
L 309.205799 203.408489 
L 312.722939 203.408489 
L 316.240079 203.408489 
L 319.757219 203.408489 
L 323.274359 203.408489 
L 326.791499 203.408489 
L 330.308639 203.408489 
L 333.825779 203.408489 
L 337.342919 203.408489 
L 340.860059 203.408489 
L 344.377199 203.408489 
L 347.894339 203.408489 
L 351.411479 203.408489 
L 354.928619 203.408489 
L 358.44576 203.408489 
L 361.9629 203.408489 
L 365.48004 203.408489 
L 368.99718 203.408489 
L 372.51432 203.408489 
L 376.03146 203.408489 
L 379.5486 203.408489 
L 383.06574 203.408489 
L 386.58288 203.408489 
L 390.10002 203.408489 
L 393.61716 203.408489 
L 397.1343 203.408489 
L 400.65144 203.408489 
L 404.16858 203.408489 
L 407.68572 203.408489 
L 411.20286 203.408489 
L 414.72 203.408489 
" clip-path="url(#pe0e779b8a4)" style="fill: none; stroke: #1f77b4; stroke-width: 1.5; stroke-linecap: square"/>
   </g>
   <g id="line2d_21">
    <path d="M 57.6 203.408489 
L 61.11714 203.408489 
L 64.63428 203.408489 
L 68.15142 203.408489 
L 71.66856 203.408489 
L 75.1857 203.408489 
L 78.70284 203.408489 
L 82.21998 203.408489 
L 85.73712 203.408489 
L 89.25426 203.408489 
L 92.7714 203.408489 
L 96.28854 203.408489 
L 99.80568 203.408489 
L 103.32282 203.408489 
L 106.83996 203.408489 
L 110.3571 203.408489 
L 113.87424 203.408489 
L 117.501692 203.408489 
L 121.129144 203.408489 
L 124.756596 203.408489 
L 128.384048 203.408489 
L 132.0115 203.408489 
L 135.638952 203.408489 
L 139.266404 203.408489 
L 142.893856 203.408489 
L 146.521308 203.408489 
L 150.14876 203.408489 
L 153.776212 203.408489 
L 157.403664 203.408489 
L 161.031116 203.408489 
L 164.658568 203.408489 
L 168.28602 203.408489 
L 171.913472 203.408489 
L 175.540924 203.408489 
L 179.168376 203.408489 
L 182.795828 203.408489 
L 186.413273 203.408489 
L 190.030718 203.408489 
L 193.648163 203.408489 
L 197.265609 203.408489 
L 200.883054 203.408489 
L 204.500499 203.408489 
L 208.117944 203.408489 
L 211.735389 203.408489 
L 215.352835 203.408489 
L 218.97028 203.408489 
L 222.587725 203.408489 
L 226.20517 203.408489 
L 229.822615 203.408489 
L 233.440061 203.408489 
L 237.057506 203.408489 
L 240.674951 203.408489 
L 244.292396 203.408489 
L 247.909841 203.408489 
L 251.527286 203.408489 
L 255.144732 203.408489 
L 258.762177 203.408489 
L 262.379622 203.408489 
L 265.997067 203.408489 
L 269.614512 203.408489 
L 273.231958 203.408489 
L 276.849403 203.408489 
L 280.466848 203.408489 
L 284.084293 203.408489 
L 287.701738 203.408489 
L 291.319183 203.408489 
L 294.936629 203.408489 
L 298.554074 203.408489 
L 302.171519 203.408489 
L 305.688659 203.408489 
L 309.205799 203.408489 
L 312.722939 203.408489 
L 316.240079 203.408489 
L 319.757219 203.408489 
L 323.274359 203.408489 
L 326.791499 203.408489 
L 330.308639 203.408489 
L 333.825779 203.408489 
L 337.342919 203.408489 
L 340.860059 203.408489 
L 344.377199 203.408489 
L 347.894339 203.408489 
L 351.411479 203.408489 
L 354.928619 203.408489 
L 358.44576 203.408489 
L 361.9629 203.408489 
L 365.48004 203.408489 
L 368.99718 203.408489 
L 372.51432 203.408489 
L 376.03146 203.408489 
L 379.5486 203.408489 
L 383.06574 203.408489 
L 386.58288 203.408489 
L 390.10002 203.408489 
L 393.61716 203.408489 
L 397.1343 203.408489 
L 400.65144 203.408489 
L 404.16858 203.408489 
L 407.68572 203.408489 
L 411.20286 203.408489 
L 414.72 203.408489 
" clip-path="url(#pe0e779b8a4)" style="fill: none; stroke: #ff7f0e; stroke-width: 1.5; stroke-linecap: square"/>
   </g>
   <g id="line2d_22">
    <path d="M 57.6 203.408489 
L 61.11714 203.408489 
L 64.63428 203.408489 
L 68.15142 203.408489 
L 71.66856 203.408489 
L 75.1857 203.408489 
L 78.70284 203.408489 
L 82.21998 203.408489 
L 85.73712 203.408489 
L 89.25426 203.408489 
L 92.7714 203.408489 
L 96.28854 203.408489 
L 99.80568 203.408489 
L 103.32282 203.408489 
L 106.83996 203.408489 
L 110.3571 203.408489 
L 113.87424 203.408489 
L 117.501692 203.408489 
L 121.129144 203.408489 
L 124.756596 203.408489 
L 128.384048 203.408489 
L 132.0115 203.408489 
L 135.638952 203.408489 
L 139.266404 203.408489 
L 142.893856 203.408489 
L 146.521308 203.408489 
L 150.14876 203.408489 
L 153.776212 203.408489 
L 157.403664 203.408489 
L 161.031116 203.408489 
L 164.658568 203.408489 
L 168.28602 203.408489 
L 171.913472 203.408489 
L 175.540924 203.408489 
L 179.168376 203.408489 
L 182.795828 203.408489 
L 186.413273 203.408489 
L 190.030718 203.408489 
L 193.648163 203.408489 
L 197.265609 203.408489 
L 200.883054 203.408489 
L 204.500499 203.408489 
L 208.117944 203.408489 
L 211.735389 203.408489 
L 215.352835 203.408489 
L 218.97028 203.408489 
L 222.587725 203.408489 
L 226.20517 203.408489 
L 229.822615 203.408489 
L 233.440061 203.408489 
L 237.057506 203.408489 
L 240.674951 203.408489 
L 244.292396 203.408489 
L 247.909841 203.408489 
L 251.527286 203.408489 
L 255.144732 203.408489 
L 258.762177 203.408489 
L 262.379622 203.408489 
L 265.997067 203.408489 
L 269.614512 203.408489 
L 273.231958 203.408489 
L 276.849403 203.408489 
L 280.466848 203.408489 
L 284.084293 203.408489 
L 287.701738 203.408489 
L 291.319183 203.408489 
L 294.936629 203.408489 
L 298.554074 203.408489 
L 302.171519 203.408489 
L 305.688659 203.408489 
L 309.205799 203.408489 
L 312.722939 203.408489 
L 316.240079 203.408489 
L 319.757219 203.408489 
L 323.274359 203.408489 
L 326.791499 203.408489 
L 330.308639 203.408489 
L 333.825779 203.408489 
L 337.342919 203.408489 
L 340.860059 203.408489 
L 344.377199 203.408489 
L 347.894339 203.408489 
L 351.411479 203.408489 
L 354.928619 203.408489 
L 358.44576 203.408489 
L 361.9629 203.408489 
L 365.48004 203.408489 
L 368.99718 203.408489 
L 372.51432 203.408489 
L 376.03146 203.408489 
L 379.5486 203.408489 
L 383.06574 203.408489 
L 386.58288 203.408489 
L 390.10002 203.408489 
L 393.61716 203.408489 
L 397.1343 203.408489 
L 400.65144 203.408489 
L 404.16858 203.408489 
L 407.68572 203.408489 
L 411.20286 203.408489 
L 414.72 203.408489 
" clip-path="url(#pe0e779b8a4)" style="fill: none; stroke: #2ca02c; stroke-width: 1.5; stroke-linecap: square"/>
   </g>
   <g id="line2d_23">
    <path d="M 57.6 203.408489 
L 61.11714 203.408489 
L 64.63428 203.408489 
L 68.15142 203.408489 
L 71.66856 203.408489 
L 75.1857 203.408489 
L 78.70284 203.408489 
L 82.21998 203.408489 
L 85.73712 203.408489 
L 89.25426 203.408489 
L 92.7714 203.408489 
L 96.28854 203.408489 
L 99.80568 203.408489 
L 103.32282 203.408489 
L 106.83996 203.408489 
L 110.3571 203.408489 
L 113.87424 203.408489 
L 117.501692 203.408489 
L 121.129144 203.408489 
L 124.756596 203.408489 
L 128.384048 203.408489 
L 132.0115 203.408489 
L 135.638952 203.408489 
L 139.266404 274.7628 
L 142.893856 191.538313 
L 146.521308 207.397749 
L 150.14876 191.582228 
L 153.776212 49.8108 
L 157.403664 200.656097 
L 161.031116 206.30225 
L 164.658568 198.719219 
L 168.28602 242.406287 
L 171.913472 204.956173 
L 175.540924 203.408489 
L 179.168376 203.67533 
L 182.795828 203.408489 
L 186.413273 203.408489 
L 190.030718 203.408489 
L 193.648163 203.408489 
L 197.265609 203.408489 
L 200.883054 203.408489 
L 204.500499 203.408489 
L 208.117944 203.408489 
L 211.735389 203.408489 
L 215.352835 203.408489 
L 218.97028 203.408489 
L 222.587725 203.408489 
L 226.20517 203.408489 
L 229.822615 203.408489 
L 233.440061 203.408489 
L 237.057506 203.408489 
L 240.674951 203.408489 
L 244.292396 203.408489 
L 247.909841 203.408489 
L 251.527286 203.408489 
L 255.144732 203.408489 
L 258.762177 203.408489 
L 262.379622 203.408489 
L 265.997067 203.408489 
L 269.614512 203.408489 
L 273.231958 203.408489 
L 276.849403 203.408489 
L 280.466848 203.408489 
L 284.084293 203.408489 
L 287.701738 203.408489 
L 291.319183 203.408489 
L 294.936629 203.408489 
L 298.554074 203.408489 
L 302.171519 203.408489 
L 305.688659 203.408489 
L 309.205799 203.408489 
L 312.722939 203.408489 
L 316.240079 203.408489 
L 319.757219 203.408489 
L 323.274359 203.408489 
L 326.791499 203.408489 
L 330.308639 203.408489 
L 333.825779 203.408489 
L 337.342919 203.408489 
L 340.860059 203.408489 
L 344.377199 203.408489 
L 347.894339 203.408489 
L 351.411479 203.408489 
L 354.928619 203.408489 
L 358.44576 203.408489 
L 361.9629 203.408489 
L 365.48004 203.408489 
L 368.99718 203.408489 
L 372.51432 203.408489 
L 376.03146 203.408489 
L 379.5486 203.408489 
L 383.06574 203.408489 
L 386.58288 203.408489 
L 390.10002 203.408489 
L 393.61716 203.408489 
L 397.1343 203.408489 
L 400.65144 203.408489 
L 404.16858 203.408489 
L 407.68572 203.408489 
L 411.20286 203.408489 
L 414.72 203.408489 
" clip-path="url(#pe0e779b8a4)" style="fill: none; stroke: #d62728; stroke-width: 1.5; stroke-linecap: square"/>
   </g>
   <g id="line2d_24">
    <path d="M 57.6 203.408489 
L 61.11714 203.408489 
L 64.63428 203.408489 
L 68.15142 203.408489 
L 71.66856 203.408489 
L 75.1857 203.408489 
L 78.70284 203.408489 
L 82.21998 203.408489 
L 85.73712 203.408489 
L 89.25426 203.408489 
L 92.7714 203.408489 
L 96.28854 203.408489 
L 99.80568 203.408489 
L 103.32282 203.408489 
L 106.83996 203.408489 
L 110.3571 203.408489 
L 113.87424 203.408489 
L 117.501692 203.408489 
L 121.129144 203.408489 
L 124.756596 203.408489 
L 128.384048 203.408489 
L 132.0115 203.408489 
L 135.638952 203.408489 
L 139.266404 203.408489 
L 142.893856 203.408489 
L 146.521308 203.408489 
L 150.14876 203.408489 
L 153.776212 203.408489 
L 157.403664 203.408489 
L 161.031116 203.408489 
L 164.658568 203.408489 
L 168.28602 203.408489 
L 171.913472 203.408489 
L 175.540924 203.408489 
L 179.168376 203.408489 
L 182.795828 203.408489 
L 186.413273 203.408489 
L 190.030718 203.408489 
L 193.648163 203.408489 
L 197.265609 203.408489 
L 200.883054 203.408489 
L 204.500499 203.408489 
L 208.117944 203.408489 
L 211.735389 203.408489 
L 215.352835 203.408489 
L 218.97028 203.408489 
L 222.587725 203.408489 
L 226.20517 203.408489 
L 229.822615 203.408489 
L 233.440061 203.408489 
L 237.057506 203.408489 
L 240.674951 203.408489 
L 244.292396 203.408489 
L 247.909841 203.408489 
L 251.527286 203.408489 
L 255.144732 203.408489 
L 258.762177 203.408489 
L 262.379622 203.408489 
L 265.997067 203.408489 
L 269.614512 203.408489 
L 273.231958 203.408489 
L 276.849403 203.408489 
L 280.466848 203.408489 
L 284.084293 203.408489 
L 287.701738 203.408489 
L 291.319183 203.408489 
L 294.936629 203.408489 
L 298.554074 203.408489 
L 302.171519 203.408489 
L 305.688659 203.408489 
L 309.205799 203.408489 
L 312.722939 203.408489 
L 316.240079 203.408489 
L 319.757219 203.408489 
L 323.274359 203.408489 
L 326.791499 203.408489 
L 330.308639 203.408489 
L 333.825779 203.408489 
L 337.342919 203.408489 
L 340.860059 203.408489 
L 344.377199 203.408489 
L 347.894339 203.408489 
L 351.411479 203.408489 
L 354.928619 203.408489 
L 358.44576 203.408489 
L 361.9629 203.408489 
L 365.48004 203.408489 
L 368.99718 203.408489 
L 372.51432 203.408489 
L 376.03146 203.408489 
L 379.5486 203.408489 
L 383.06574 203.408489 
L 386.58288 203.408489 
L 390.10002 203.408489 
L 393.61716 203.408489 
L 397.1343 203.408489 
L 400.65144 203.408489 
L 404.16858 203.408489 
L 407.68572 203.408489 
L 411.20286 203.408489 
L 414.72 203.408489 
" clip-path="url(#pe0e779b8a4)" style="fill: none; stroke: #9467bd; stroke-width: 1.5; stroke-linecap: square"/>
   </g>
   <g id="line2d_25">
    <path d="M 57.6 203.408489 
L 61.11714 203.408489 
L 64.63428 203.408489 
L 68.15142 203.408489 
L 71.66856 203.408489 
L 75.1857 203.408489 
L 78.70284 203.408489 
L 82.21998 203.408489 
L 85.73712 203.408489 
L 89.25426 203.408489 
L 92.7714 203.408489 
L 96.28854 203.408489 
L 99.80568 203.408489 
L 103.32282 203.408489 
L 106.83996 203.408489 
L 110.3571 203.408489 
L 113.87424 203.408489 
L 117.501692 203.408489 
L 121.129144 203.408489 
L 124.756596 203.408489 
L 128.384048 203.408489 
L 132.0115 203.408489 
L 135.638952 203.408489 
L 139.266404 203.408489 
L 142.893856 203.408489 
L 146.521308 203.408489 
L 150.14876 203.408489 
L 153.776212 203.408489 
L 157.403664 203.408489 
L 161.031116 203.408489 
L 164.658568 203.408489 
L 168.28602 203.408489 
L 171.913472 203.408489 
L 175.540924 203.408489 
L 179.168376 203.408489 
L 182.795828 203.408489 
L 186.413273 203.408489 
L 190.030718 203.408489 
L 193.648163 203.408489 
L 197.265609 203.408489 
L 200.883054 203.408489 
L 204.500499 203.408489 
L 208.117944 203.408489 
L 211.735389 203.408489 
L 215.352835 203.408489 
L 218.97028 203.408489 
L 222.587725 203.408489 
L 226.20517 203.408489 
L 229.822615 203.408489 
L 233.440061 203.408489 
L 237.057506 203.408489 
L 240.674951 203.408489 
L 244.292396 203.408489 
L 247.909841 203.408489 
L 251.527286 203.408489 
L 255.144732 203.408489 
L 258.762177 203.408489 
L 262.379622 203.408489 
L 265.997067 203.408489 
L 269.614512 203.408489 
L 273.231958 203.408489 
L 276.849403 203.408489 
L 280.466848 203.408489 
L 284.084293 203.408489 
L 287.701738 203.408489 
L 291.319183 203.408489 
L 294.936629 203.408489 
L 298.554074 203.408489 
L 302.171519 203.408489 
L 305.688659 203.408489 
L 309.205799 203.408489 
L 312.722939 203.408489 
L 316.240079 203.408489 
L 319.757219 203.408489 
L 323.274359 203.408489 
L 326.791499 203.408489 
L 330.308639 203.408489 
L 333.825779 203.408489 
L 337.342919 203.408489 
L 340.860059 203.408489 
L 344.377199 203.408489 
L 347.894339 203.408489 
L 351.411479 203.408489 
L 354.928619 203.408489 
L 358.44576 203.408489 
L 361.9629 203.408489 
L 365.48004 203.408489 
L 368.99718 203.408489 
L 372.51432 203.408489 
L 376.03146 203.408489 
L 379.5486 203.408489 
L 383.06574 203.408489 
L 386.58288 203.408489 
L 390.10002 203.408489 
L 393.61716 203.408489 
L 397.1343 203.408489 
L 400.65144 203.408489 
L 404.16858 203.408489 
L 407.68572 203.408489 
L 411.20286 203.408489 
L 414.72 203.408489 
" clip-path="url(#pe0e779b8a4)" style="fill: none; stroke: #8c564b; stroke-width: 1.5; stroke-linecap: square"/>
   </g>
   <g id="patch_3">
    <path d="M 57.6 286.0104 
L 57.6 38.5632 
" style="fill: none; stroke: #000000; stroke-width: 0.8; stroke-linejoin: miter; stroke-linecap: square"/>
   </g>
   <g id="patch_4">
    <path d="M 414.72 286.0104 
L 414.72 38.5632 
" style="fill: none; stroke: #000000; stroke-width: 0.8; stroke-linejoin: miter; stroke-linecap: square"/>
   </g>
   <g id="patch_5">
    <path d="M 57.6 286.0104 
L 414.72 286.0104 
" style="fill: none; stroke: #000000; stroke-width: 0.8; stroke-linejoin: miter; stroke-linecap: square"/>
   </g>
   <g id="patch_6">
    <path d="M 57.6 38.5632 
L 414.72 38.5632 
" style="fill: none; stroke: #000000; stroke-width: 0.8; stroke-linejoin: miter; stroke-linecap: square"/>
   </g>
   <g id="legend_1">
    <g id="patch_7">
     <path d="M 357.995 136.3007 
L 407.72 136.3007 
Q 409.72 136.3007 409.72 134.3007 
L 409.72 45.5632 
Q 409.72 43.5632 407.72 43.5632 
L 357.995 43.5632 
Q 355.995 43.5632 355.995 45.5632 
L 355.995 134.3007 
Q 355.995 136.3007 357.995 136.3007 
z
" style="fill: #ffffff; opacity: 0.8; stroke: #cccccc; stroke-linejoin: miter"/>
    </g>
    <g id="line2d_26">
     <path d="M 359.995 51.661637 
L 369.995 51.661637 
L 379.995 51.661637 
" style="fill: none; stroke: #1f77b4; stroke-width: 1.5; stroke-linecap: square"/>
    </g>
    <g id="text_15">
     <!-- 1_2 -->
     <g transform="translate(387.995 55.161637) scale(0.1 -0.1)">
      <defs>
       <path id="DejaVuSans-5f" d="M 3263 -1063 
L 3263 -1509 
L -63 -1509 
L -63 -1063 
L 3263 -1063 
z
" transform="scale(0.015625)"/>
      </defs>
      <use xlink:href="#DejaVuSans-31"/>
      <use xlink:href="#DejaVuSans-5f" x="63.623047"/>
      <use xlink:href="#DejaVuSans-32" x="113.623047"/>
     </g>
    </g>
    <g id="line2d_27">
     <path d="M 359.995 66.617887 
L 369.995 66.617887 
L 379.995 66.617887 
" style="fill: none; stroke: #ff7f0e; stroke-width: 1.5; stroke-linecap: square"/>
    </g>
    <g id="text_16">
     <!-- 1_3 -->
     <g transform="translate(387.995 70.117887) scale(0.1 -0.1)">
      <defs>
       <path id="DejaVuSans-33" d="M 2597 2516 
Q 3050 2419 3304 2112 
Q 3559 1806 3559 1356 
Q 3559 666 3084 287 
Q 2609 -91 1734 -91 
Q 1441 -91 1130 -33 
Q 819 25 488 141 
L 488 750 
Q 750 597 1062 519 
Q 1375 441 1716 441 
Q 2309 441 2620 675 
Q 2931 909 2931 1356 
Q 2931 1769 2642 2001 
Q 2353 2234 1838 2234 
L 1294 2234 
L 1294 2753 
L 1863 2753 
Q 2328 2753 2575 2939 
Q 2822 3125 2822 3475 
Q 2822 3834 2567 4026 
Q 2313 4219 1838 4219 
Q 1578 4219 1281 4162 
Q 984 4106 628 3988 
L 628 4550 
Q 988 4650 1302 4700 
Q 1616 4750 1894 4750 
Q 2613 4750 3031 4423 
Q 3450 4097 3450 3541 
Q 3450 3153 3228 2886 
Q 3006 2619 2597 2516 
z
" transform="scale(0.015625)"/>
      </defs>
      <use xlink:href="#DejaVuSans-31"/>
      <use xlink:href="#DejaVuSans-5f" x="63.623047"/>
      <use xlink:href="#DejaVuSans-33" x="113.623047"/>
     </g>
    </g>
    <g id="line2d_28">
     <path d="M 359.995 81.574137 
L 369.995 81.574137 
L 379.995 81.574137 
" style="fill: none; stroke: #2ca02c; stroke-width: 1.5; stroke-linecap: square"/>
    </g>
    <g id="text_17">
     <!-- 1_4 -->
     <g transform="translate(387.995 85.074137) scale(0.1 -0.1)">
      <use xlink:href="#DejaVuSans-31"/>
      <use xlink:href="#DejaVuSans-5f" x="63.623047"/>
      <use xlink:href="#DejaVuSans-34" x="113.623047"/>
     </g>
    </g>
    <g id="line2d_29">
     <path d="M 359.995 96.530387 
L 369.995 96.530387 
L 379.995 96.530387 
" style="fill: none; stroke: #d62728; stroke-width: 1.5; stroke-linecap: square"/>
    </g>
    <g id="text_18">
     <!-- 2_3 -->
     <g transform="translate(387.995 100.030387) scale(0.1 -0.1)">
      <use xlink:href="#DejaVuSans-32"/>
      <use xlink:href="#DejaVuSans-5f" x="63.623047"/>
      <use xlink:href="#DejaVuSans-33" x="113.623047"/>
     </g>
    </g>
    <g id="line2d_30">
     <path d="M 359.995 111.486637 
L 369.995 111.486637 
L 379.995 111.486637 
" style="fill: none; stroke: #9467bd; stroke-width: 1.5; stroke-linecap: square"/>
    </g>
    <g id="text_19">
     <!-- 2_4 -->
     <g transform="translate(387.995 114.986637) scale(0.1 -0.1)">
      <use xlink:href="#DejaVuSans-32"/>
      <use xlink:href="#DejaVuSans-5f" x="63.623047"/>
      <use xlink:href="#DejaVuSans-34" x="113.623047"/>
     </g>
    </g>
    <g id="line2d_31">
     <path d="M 359.995 126.442887 
L 369.995 126.442887 
L 379.995 126.442887 
" style="fill: none; stroke: #8c564b; stroke-width: 1.5; stroke-linecap: square"/>
    </g>
    <g id="text_20">
     <!-- 3_4 -->
     <g transform="translate(387.995 129.942887) scale(0.1 -0.1)">
      <use xlink:href="#DejaVuSans-33"/>
      <use xlink:href="#DejaVuSans-5f" x="63.623047"/>
      <use xlink:href="#DejaVuSans-34" x="113.623047"/>
     </g>
    </g>
   </g>
  </g>
 </g>
 <defs>
  <clipPath id="pe0e779b8a4">
   <rect x="57.6" y="38.5632" width="357.12" height="247.4472"/>
  </clipPath>
 </defs>
</svg>
