<?xml version="1.0" encoding="utf-8" standalone="no"?>
<!DOCTYPE svg PUBLIC "-//W3C//DTD SVG 1.1//EN"
  "http://www.w3.org/Graphics/SVG/1.1/DTD/svg11.dtd">
<svg xmlns:xlink="http://www.w3.org/1999/xlink" width="460.8pt" height="321.36pt" viewBox="0 0 460.8 321.36" xmlns="http://www.w3.org/2000/svg" version="1.1">
 <metadata>
  <rdf:RDF xmlns:dc="http://purl.org/dc/elements/1.1/" xmlns:cc="http://creativecommons.org/ns#" xmlns:rdf="http://www.w3.org/1999/02/22-rdf-syntax-ns#">
   <cc:Work>
    <dc:type rdf:resource="http://purl.org/dc/dcmitype/StillImage"/>
    <dc:date>2023-09-26T15:22:17.129436</dc:date>
    <dc:format>image/svg+xml</dc:format>
    <dc:creator>
     <cc:Agent>
      <dc:title>Matplotlib v3.7.1, https://matplotlib.org/</dc:title>
     </cc:Agent>
    </dc:creator>
   </cc:Work>
  </rdf:RDF>
 </metadata>
 <defs>
  <style type="text/css">*{stroke-linejoin: round; stroke-linecap: butt}</style>
 </defs>
 <g id="figure_1">
  <g id="patch_1">
   <path d="M 0 321.36 
L 460.8 321.36 
L 460.8 0 
L 0 0 
z
" style="fill: #ffffff"/>
  </g>
  <g id="axes_1">
   <g id="patch_2">
    <path d="M 57.6 286.0104 
L 414.72 286.0104 
L 414.72 38.5632 
L 57.6 38.5632 
z
" style="fill: #ffffff"/>
   </g>
   <g id="matplotlib.axis_1">
    <g id="xtick_1">
     <g id="line2d_1">
      <defs>
       <path id="ma474091301" d="M 0 0 
L 0 3.5 
" style="stroke: #000000; stroke-width: 0.8"/>
      </defs>
      <g>
       <use xlink:href="#ma474091301" x="57.6" y="286.0104" style="stroke: #000000; stroke-width: 0.8"/>
      </g>
     </g>
     <g id="text_1">
      <!-- W -->
      <g transform="translate(52.65625 300.608837) scale(0.1 -0.1)">
       <defs>
        <path id="DejaVuSans-57" d="M 213 4666 
L 850 4666 
L 1831 722 
L 2809 4666 
L 3519 4666 
L 4500 722 
L 5478 4666 
L 6119 4666 
L 4947 0 
L 4153 0 
L 3169 4050 
L 2175 0 
L 1381 0 
L 213 4666 
z
" transform="scale(0.015625)"/>
       </defs>
       <use xlink:href="#DejaVuSans-57"/>
      </g>
     </g>
    </g>
    <g id="xtick_2">
     <g id="line2d_2">
      <g>
       <use xlink:href="#ma474091301" x="113.87424" y="286.0104" style="stroke: #000000; stroke-width: 0.8"/>
      </g>
     </g>
     <g id="text_2">
      <!-- L -->
      <g transform="translate(111.088303 300.608837) scale(0.1 -0.1)">
       <defs>
        <path id="DejaVuSans-4c" d="M 628 4666 
L 1259 4666 
L 1259 531 
L 3531 531 
L 3531 0 
L 628 0 
L 628 4666 
z
" transform="scale(0.015625)"/>
       </defs>
       <use xlink:href="#DejaVuSans-4c"/>
      </g>
     </g>
    </g>
    <g id="xtick_3">
     <g id="line2d_3">
      <g>
       <use xlink:href="#ma474091301" x="182.795828" y="286.0104" style="stroke: #000000; stroke-width: 0.8"/>
      </g>
     </g>
     <g id="text_3">
      <!-- ${\Gamma}$ -->
      <g transform="translate(179.995828 300.608837) scale(0.1 -0.1)">
       <defs>
        <path id="DejaVuSans-393" d="M 628 0 
L 628 4666 
L 3531 4666 
L 3531 4134 
L 1259 4134 
L 1259 0 
L 628 0 
z
" transform="scale(0.015625)"/>
       </defs>
       <use xlink:href="#DejaVuSans-393" transform="translate(0 0.09375)"/>
      </g>
     </g>
    </g>
    <g id="xtick_4">
     <g id="line2d_4">
      <g>
       <use xlink:href="#ma474091301" x="262.379622" y="286.0104" style="stroke: #000000; stroke-width: 0.8"/>
      </g>
     </g>
     <g id="text_4">
      <!-- X -->
      <g transform="translate(258.954622 300.608837) scale(0.1 -0.1)">
       <defs>
        <path id="DejaVuSans-58" d="M 403 4666 
L 1081 4666 
L 2241 2931 
L 3406 4666 
L 4084 4666 
L 2584 2425 
L 4184 0 
L 3506 0 
L 2194 1984 
L 872 0 
L 191 0 
L 1856 2491 
L 403 4666 
z
" transform="scale(0.015625)"/>
       </defs>
       <use xlink:href="#DejaVuSans-58"/>
      </g>
     </g>
    </g>
    <g id="xtick_5">
     <g id="line2d_5">
      <g>
       <use xlink:href="#ma474091301" x="302.171519" y="286.0104" style="stroke: #000000; stroke-width: 0.8"/>
      </g>
     </g>
     <g id="text_5">
      <!-- W -->
      <g transform="translate(297.227769 300.608837) scale(0.1 -0.1)">
       <use xlink:href="#DejaVuSans-57"/>
      </g>
     </g>
    </g>
    <g id="xtick_6">
     <g id="line2d_6">
      <g>
       <use xlink:href="#ma474091301" x="330.308639" y="286.0104" style="stroke: #000000; stroke-width: 0.8"/>
      </g>
     </g>
     <g id="text_6">
      <!-- K -->
      <g transform="translate(327.029733 300.608837) scale(0.1 -0.1)">
       <defs>
        <path id="DejaVuSans-4b" d="M 628 4666 
L 1259 4666 
L 1259 2694 
L 3353 4666 
L 4166 4666 
L 1850 2491 
L 4331 0 
L 3500 0 
L 1259 2247 
L 1259 0 
L 628 0 
L 628 4666 
z
" transform="scale(0.015625)"/>
       </defs>
       <use xlink:href="#DejaVuSans-4b"/>
      </g>
     </g>
    </g>
    <g id="xtick_7">
     <g id="line2d_7">
      <g>
       <use xlink:href="#ma474091301" x="414.72" y="286.0104" style="stroke: #000000; stroke-width: 0.8"/>
      </g>
     </g>
     <g id="text_7">
      <!-- ${\Gamma}$ -->
      <g transform="translate(411.92 300.608837) scale(0.1 -0.1)">
       <use xlink:href="#DejaVuSans-393" transform="translate(0 0.09375)"/>
      </g>
     </g>
    </g>
   </g>
   <g id="matplotlib.axis_2">
    <g id="ytick_1">
     <g id="line2d_8">
      <defs>
       <path id="m79a661fba1" d="M 0 0 
L -3.5 0 
" style="stroke: #000000; stroke-width: 0.8"/>
      </defs>
      <g>
       <use xlink:href="#m79a661fba1" x="57.6" y="254.483921" style="stroke: #000000; stroke-width: 0.8"/>
      </g>
     </g>
     <g id="text_8">
      <!-- −0.5 -->
      <g transform="translate(26.317187 258.283139) scale(0.1 -0.1)">
       <defs>
        <path id="DejaVuSans-2212" d="M 678 2272 
L 4684 2272 
L 4684 1741 
L 678 1741 
L 678 2272 
z
" transform="scale(0.015625)"/>
        <path id="DejaVuSans-30" d="M 2034 4250 
Q 1547 4250 1301 3770 
Q 1056 3291 1056 2328 
Q 1056 1369 1301 889 
Q 1547 409 2034 409 
Q 2525 409 2770 889 
Q 3016 1369 3016 2328 
Q 3016 3291 2770 3770 
Q 2525 4250 2034 4250 
z
M 2034 4750 
Q 2819 4750 3233 4129 
Q 3647 3509 3647 2328 
Q 3647 1150 3233 529 
Q 2819 -91 2034 -91 
Q 1250 -91 836 529 
Q 422 1150 422 2328 
Q 422 3509 836 4129 
Q 1250 4750 2034 4750 
z
" transform="scale(0.015625)"/>
        <path id="DejaVuSans-2e" d="M 684 794 
L 1344 794 
L 1344 0 
L 684 0 
L 684 794 
z
" transform="scale(0.015625)"/>
        <path id="DejaVuSans-35" d="M 691 4666 
L 3169 4666 
L 3169 4134 
L 1269 4134 
L 1269 2991 
Q 1406 3038 1543 3061 
Q 1681 3084 1819 3084 
Q 2600 3084 3056 2656 
Q 3513 2228 3513 1497 
Q 3513 744 3044 326 
Q 2575 -91 1722 -91 
Q 1428 -91 1123 -41 
Q 819 9 494 109 
L 494 744 
Q 775 591 1075 516 
Q 1375 441 1709 441 
Q 2250 441 2565 725 
Q 2881 1009 2881 1497 
Q 2881 1984 2565 2268 
Q 2250 2553 1709 2553 
Q 1456 2553 1204 2497 
Q 953 2441 691 2322 
L 691 4666 
z
" transform="scale(0.015625)"/>
       </defs>
       <use xlink:href="#DejaVuSans-2212"/>
       <use xlink:href="#DejaVuSans-30" x="83.789062"/>
       <use xlink:href="#DejaVuSans-2e" x="147.412109"/>
       <use xlink:href="#DejaVuSans-35" x="179.199219"/>
      </g>
     </g>
    </g>
    <g id="ytick_2">
     <g id="line2d_9">
      <g>
       <use xlink:href="#m79a661fba1" x="57.6" y="206.464587" style="stroke: #000000; stroke-width: 0.8"/>
      </g>
     </g>
     <g id="text_9">
      <!-- 0.0 -->
      <g transform="translate(34.696875 210.263806) scale(0.1 -0.1)">
       <use xlink:href="#DejaVuSans-30"/>
       <use xlink:href="#DejaVuSans-2e" x="63.623047"/>
       <use xlink:href="#DejaVuSans-30" x="95.410156"/>
      </g>
     </g>
    </g>
    <g id="ytick_3">
     <g id="line2d_10">
      <g>
       <use xlink:href="#m79a661fba1" x="57.6" y="158.445253" style="stroke: #000000; stroke-width: 0.8"/>
      </g>
     </g>
     <g id="text_10">
      <!-- 0.5 -->
      <g transform="translate(34.696875 162.244472) scale(0.1 -0.1)">
       <use xlink:href="#DejaVuSans-30"/>
       <use xlink:href="#DejaVuSans-2e" x="63.623047"/>
       <use xlink:href="#DejaVuSans-35" x="95.410156"/>
      </g>
     </g>
    </g>
    <g id="ytick_4">
     <g id="line2d_11">
      <g>
       <use xlink:href="#m79a661fba1" x="57.6" y="110.42592" style="stroke: #000000; stroke-width: 0.8"/>
      </g>
     </g>
     <g id="text_11">
      <!-- 1.0 -->
      <g transform="translate(34.696875 114.225138) scale(0.1 -0.1)">
       <defs>
        <path id="DejaVuSans-31" d="M 794 531 
L 1825 531 
L 1825 4091 
L 703 3866 
L 703 4441 
L 1819 4666 
L 2450 4666 
L 2450 531 
L 3481 531 
L 3481 0 
L 794 0 
L 794 531 
z
" transform="scale(0.015625)"/>
       </defs>
       <use xlink:href="#DejaVuSans-31"/>
       <use xlink:href="#DejaVuSans-2e" x="63.623047"/>
       <use xlink:href="#DejaVuSans-30" x="95.410156"/>
      </g>
     </g>
    </g>
    <g id="ytick_5">
     <g id="line2d_12">
      <g>
       <use xlink:href="#m79a661fba1" x="57.6" y="62.406586" style="stroke: #000000; stroke-width: 0.8"/>
      </g>
     </g>
     <g id="text_12">
      <!-- 1.5 -->
      <g transform="translate(34.696875 66.205805) scale(0.1 -0.1)">
       <use xlink:href="#DejaVuSans-31"/>
       <use xlink:href="#DejaVuSans-2e" x="63.623047"/>
       <use xlink:href="#DejaVuSans-35" x="95.410156"/>
      </g>
     </g>
    </g>
    <g id="text_13">
     <!-- Energy -->
     <g transform="translate(20.2375 179.79305) rotate(-90) scale(0.1 -0.1)">
      <defs>
       <path id="DejaVuSans-45" d="M 628 4666 
L 3578 4666 
L 3578 4134 
L 1259 4134 
L 1259 2753 
L 3481 2753 
L 3481 2222 
L 1259 2222 
L 1259 531 
L 3634 531 
L 3634 0 
L 628 0 
L 628 4666 
z
" transform="scale(0.015625)"/>
       <path id="DejaVuSans-6e" d="M 3513 2113 
L 3513 0 
L 2938 0 
L 2938 2094 
Q 2938 2591 2744 2837 
Q 2550 3084 2163 3084 
Q 1697 3084 1428 2787 
Q 1159 2491 1159 1978 
L 1159 0 
L 581 0 
L 581 3500 
L 1159 3500 
L 1159 2956 
Q 1366 3272 1645 3428 
Q 1925 3584 2291 3584 
Q 2894 3584 3203 3211 
Q 3513 2838 3513 2113 
z
" transform="scale(0.015625)"/>
       <path id="DejaVuSans-65" d="M 3597 1894 
L 3597 1613 
L 953 1613 
Q 991 1019 1311 708 
Q 1631 397 2203 397 
Q 2534 397 2845 478 
Q 3156 559 3463 722 
L 3463 178 
Q 3153 47 2828 -22 
Q 2503 -91 2169 -91 
Q 1331 -91 842 396 
Q 353 884 353 1716 
Q 353 2575 817 3079 
Q 1281 3584 2069 3584 
Q 2775 3584 3186 3129 
Q 3597 2675 3597 1894 
z
M 3022 2063 
Q 3016 2534 2758 2815 
Q 2500 3097 2075 3097 
Q 1594 3097 1305 2825 
Q 1016 2553 972 2059 
L 3022 2063 
z
" transform="scale(0.015625)"/>
       <path id="DejaVuSans-72" d="M 2631 2963 
Q 2534 3019 2420 3045 
Q 2306 3072 2169 3072 
Q 1681 3072 1420 2755 
Q 1159 2438 1159 1844 
L 1159 0 
L 581 0 
L 581 3500 
L 1159 3500 
L 1159 2956 
Q 1341 3275 1631 3429 
Q 1922 3584 2338 3584 
Q 2397 3584 2469 3576 
Q 2541 3569 2628 3553 
L 2631 2963 
z
" transform="scale(0.015625)"/>
       <path id="DejaVuSans-67" d="M 2906 1791 
Q 2906 2416 2648 2759 
Q 2391 3103 1925 3103 
Q 1463 3103 1205 2759 
Q 947 2416 947 1791 
Q 947 1169 1205 825 
Q 1463 481 1925 481 
Q 2391 481 2648 825 
Q 2906 1169 2906 1791 
z
M 3481 434 
Q 3481 -459 3084 -895 
Q 2688 -1331 1869 -1331 
Q 1566 -1331 1297 -1286 
Q 1028 -1241 775 -1147 
L 775 -588 
Q 1028 -725 1275 -790 
Q 1522 -856 1778 -856 
Q 2344 -856 2625 -561 
Q 2906 -266 2906 331 
L 2906 616 
Q 2728 306 2450 153 
Q 2172 0 1784 0 
Q 1141 0 747 490 
Q 353 981 353 1791 
Q 353 2603 747 3093 
Q 1141 3584 1784 3584 
Q 2172 3584 2450 3431 
Q 2728 3278 2906 2969 
L 2906 3500 
L 3481 3500 
L 3481 434 
z
" transform="scale(0.015625)"/>
       <path id="DejaVuSans-79" d="M 2059 -325 
Q 1816 -950 1584 -1140 
Q 1353 -1331 966 -1331 
L 506 -1331 
L 506 -850 
L 844 -850 
Q 1081 -850 1212 -737 
Q 1344 -625 1503 -206 
L 1606 56 
L 191 3500 
L 800 3500 
L 1894 763 
L 2988 3500 
L 3597 3500 
L 2059 -325 
z
" transform="scale(0.015625)"/>
      </defs>
      <use xlink:href="#DejaVuSans-45"/>
      <use xlink:href="#DejaVuSans-6e" x="63.183594"/>
      <use xlink:href="#DejaVuSans-65" x="126.5625"/>
      <use xlink:href="#DejaVuSans-72" x="188.085938"/>
      <use xlink:href="#DejaVuSans-67" x="227.449219"/>
      <use xlink:href="#DejaVuSans-79" x="290.925781"/>
     </g>
    </g>
   </g>
   <g id="line2d_13">
    <path d="M 57.6 286.0104 
L 57.6 38.5632 
" clip-path="url(#pef32e15043)" style="fill: none; stroke-dasharray: 5.55,2.4; stroke-dashoffset: 0; stroke: #808080; stroke-width: 1.5"/>
   </g>
   <g id="line2d_14">
    <path d="M 113.87424 286.0104 
L 113.87424 38.5632 
" clip-path="url(#pef32e15043)" style="fill: none; stroke-dasharray: 5.55,2.4; stroke-dashoffset: 0; stroke: #808080; stroke-width: 1.5"/>
   </g>
   <g id="line2d_15">
    <path d="M 182.795828 286.0104 
L 182.795828 38.5632 
" clip-path="url(#pef32e15043)" style="fill: none; stroke-dasharray: 5.55,2.4; stroke-dashoffset: 0; stroke: #808080; stroke-width: 1.5"/>
   </g>
   <g id="line2d_16">
    <path d="M 262.379622 286.0104 
L 262.379622 38.5632 
" clip-path="url(#pef32e15043)" style="fill: none; stroke-dasharray: 5.55,2.4; stroke-dashoffset: 0; stroke: #808080; stroke-width: 1.5"/>
   </g>
   <g id="line2d_17">
    <path d="M 302.171519 286.0104 
L 302.171519 38.5632 
" clip-path="url(#pef32e15043)" style="fill: none; stroke-dasharray: 5.55,2.4; stroke-dashoffset: 0; stroke: #808080; stroke-width: 1.5"/>
   </g>
   <g id="line2d_18">
    <path d="M 330.308639 286.0104 
L 330.308639 38.5632 
" clip-path="url(#pef32e15043)" style="fill: none; stroke-dasharray: 5.55,2.4; stroke-dashoffset: 0; stroke: #808080; stroke-width: 1.5"/>
   </g>
   <g id="line2d_19">
    <path d="M 414.72 286.0104 
L 414.72 38.5632 
" clip-path="url(#pef32e15043)" style="fill: none; stroke-dasharray: 5.55,2.4; stroke-dashoffset: 0; stroke: #808080; stroke-width: 1.5"/>
   </g>
   <g id="line2d_20">
    <path d="M 57.6 237.295397 
L 61.11714 237.809627 
L 64.63428 239.290877 
L 68.15142 241.582744 
L 71.66856 244.488693 
L 75.1857 247.812389 
L 78.70284 251.374939 
L 82.21998 255.01906 
L 85.73712 258.6086 
L 89.25426 262.026937 
L 92.7714 265.175288 
L 96.28854 267.971146 
L 99.80568 270.346936 
L 103.32282 272.248871 
L 106.83996 273.636036 
L 110.3571 274.479696 
L 113.87424 274.7628 
L 117.501692 274.343523 
L 121.129144 273.091916 
L 124.756596 271.026611 
L 128.384048 268.178554 
L 132.0115 264.590879 
L 135.638952 260.318795 
L 139.266404 255.429562 
L 142.893856 250.002678 
L 146.521308 244.130414 
L 150.14876 237.918916 
L 153.776212 231.490161 
L 157.403664 224.985062 
L 161.031116 218.568014 
L 164.658568 212.432775 
L 168.28602 206.80845 
L 171.913472 201.961712 
L 175.540924 198.186955 
L 179.168376 195.772735 
L 182.795828 194.939947 
L 186.413273 195.713361 
L 190.030718 197.92118 
L 193.648163 201.26995 
L 197.265609 205.380072 
L 200.883054 209.869297 
L 204.500499 214.397858 
L 208.117944 218.682983 
L 211.735389 222.498486 
L 215.352835 225.669834 
L 218.97028 228.069253 
L 222.587725 229.612304 
L 226.20517 230.256089 
L 229.822615 229.998989 
L 233.440061 228.881831 
L 237.057506 226.990571 
L 240.674951 224.460571 
L 244.292396 221.482286 
L 247.909841 218.306931 
L 251.527286 215.247525 
L 255.144732 212.664928 
L 258.762177 210.923142 
L 262.379622 210.306134 
L 265.997067 211.001344 
L 269.614512 212.976147 
L 273.231958 215.941831 
L 276.849403 219.526595 
L 280.466848 223.358885 
L 284.084293 227.112308 
L 287.701738 230.519871 
L 291.319183 233.373252 
L 294.936629 235.517505 
L 298.554074 236.845765 
L 302.171519 237.295397 
L 305.688659 237.342755 
L 309.205799 237.4805 
L 312.722939 237.687562 
L 316.240079 237.929748 
L 319.757219 238.168362 
L 323.274359 238.367478 
L 326.791499 238.498846 
L 330.308639 238.544655 
L 333.825779 242.831128 
L 337.342919 246.678717 
L 340.860059 249.981231 
L 344.377199 252.652879 
L 347.894339 254.626406 
L 351.411479 255.851932 
L 354.928619 256.296281 
L 358.44576 255.942597 
L 361.9629 254.790131 
L 365.48004 252.854138 
L 368.99718 250.165837 
L 372.51432 246.772494 
L 376.03146 242.73766 
L 379.5486 238.141721 
L 383.06574 233.082922 
L 386.58288 227.67912 
L 390.10002 222.070538 
L 393.61716 216.423728 
L 397.1343 210.936523 
L 400.65144 205.842653 
L 404.16858 201.412149 
L 407.68572 197.93966 
L 411.20286 195.710303 
L 414.72 194.939947 
" clip-path="url(#pef32e15043)" style="fill: none; stroke: #000000; stroke-width: 1.5; stroke-linecap: square"/>
   </g>
   <g id="line2d_21">
    <path d="M 57.6 210.306134 
L 61.11714 210.232319 
L 64.63428 210.013713 
L 68.15142 209.658716 
L 71.66856 209.180971 
L 75.1857 208.598836 
L 78.70284 207.934683 
L 82.21998 207.214036 
L 85.73712 206.464587 
L 89.25426 205.715138 
L 92.7714 204.994491 
L 96.28854 204.330338 
L 99.80568 203.748203 
L 103.32282 203.270458 
L 106.83996 202.915461 
L 110.3571 202.696855 
L 113.87424 202.62304 
L 117.501692 202.570647 
L 121.129144 202.414895 
L 124.756596 202.160033 
L 128.384048 201.813014 
L 132.0115 201.383302 
L 135.638952 200.88262 
L 139.266404 200.324625 
L 142.893856 199.724538 
L 146.521308 199.098726 
L 150.14876 198.464261 
L 153.776212 197.83845 
L 157.403664 197.238362 
L 161.031116 196.680367 
L 164.658568 196.179685 
L 168.28602 195.749973 
L 171.913472 195.402954 
L 175.540924 195.148092 
L 179.168376 194.992341 
L 182.795828 194.939947 
L 186.413273 195.01815 
L 190.030718 195.251166 
L 193.648163 195.634253 
L 197.265609 196.159611 
L 200.883054 196.816546 
L 204.500499 197.591684 
L 208.117944 198.469246 
L 211.735389 199.431368 
L 215.352835 200.458463 
L 218.97028 201.529622 
L 222.587725 202.62304 
L 226.20517 203.716458 
L 229.822615 204.787618 
L 233.440061 205.814713 
L 237.057506 206.776834 
L 240.674951 207.654396 
L 244.292396 208.429535 
L 247.909841 209.08647 
L 251.527286 209.611828 
L 255.144732 209.994914 
L 258.762177 210.227931 
L 262.379622 210.306134 
L 265.997067 210.306134 
L 269.614512 210.306134 
L 273.231958 210.306134 
L 276.849403 210.306134 
L 280.466848 210.306134 
L 284.084293 210.306134 
L 287.701738 210.306134 
L 291.319183 210.306134 
L 294.936629 210.306134 
L 298.554074 210.306134 
L 302.171519 210.306134 
L 305.688659 210.289449 
L 309.205799 210.24672 
L 312.722939 210.188736 
L 316.240079 210.125618 
L 319.757219 210.066357 
L 323.274359 210.018402 
L 326.791499 209.987328 
L 330.308639 209.976581 
L 333.825779 209.792641 
L 337.342919 209.54736 
L 340.860059 209.232723 
L 344.377199 208.842198 
L 347.894339 208.371163 
L 351.411479 207.817274 
L 354.928619 207.180755 
L 358.44576 206.464587 
L 361.9629 205.674605 
L 365.48004 204.81948 
L 368.99718 203.910594 
L 372.51432 202.961813 
L 376.03146 201.989153 
L 379.5486 201.010364 
L 383.06574 200.044435 
L 386.58288 199.111046 
L 390.10002 198.229978 
L 393.61716 197.420507 
L 397.1343 196.700806 
L 400.65144 196.087369 
L 404.16858 195.594487 
L 407.68572 195.233786 
L 411.20286 195.01385 
L 414.72 194.939947 
" clip-path="url(#pef32e15043)" style="fill: none; stroke: #000000; stroke-width: 1.5; stroke-linecap: square"/>
   </g>
   <g id="line2d_22">
    <path d="M 57.6 210.306134 
L 61.11714 210.153059 
L 64.63428 209.728919 
L 68.15142 209.115664 
L 71.66856 208.399345 
L 75.1857 207.645135 
L 78.70284 206.894494 
L 82.21998 206.171966 
L 85.73712 205.492524 
L 89.25426 204.866599 
L 92.7714 204.302792 
L 96.28854 203.809017 
L 99.80568 203.392755 
L 103.32282 203.060862 
L 106.83996 202.819215 
L 110.3571 202.672327 
L 113.87424 202.62304 
L 117.501692 202.570647 
L 121.129144 202.414895 
L 124.756596 202.160033 
L 128.384048 201.813014 
L 132.0115 201.383302 
L 135.638952 200.88262 
L 139.266404 200.324625 
L 142.893856 199.724538 
L 146.521308 199.098726 
L 150.14876 198.464261 
L 153.776212 197.83845 
L 157.403664 197.238362 
L 161.031116 196.680367 
L 164.658568 196.179685 
L 168.28602 195.749973 
L 171.913472 195.402954 
L 175.540924 195.148092 
L 179.168376 194.992341 
L 182.795828 194.939947 
L 186.413273 195.01815 
L 190.030718 195.251166 
L 193.648163 195.634253 
L 197.265609 196.159611 
L 200.883054 196.816546 
L 204.500499 197.591684 
L 208.117944 198.469246 
L 211.735389 199.431368 
L 215.352835 200.458463 
L 218.97028 201.529622 
L 222.587725 202.62304 
L 226.20517 203.716458 
L 229.822615 204.787618 
L 233.440061 205.814713 
L 237.057506 206.776834 
L 240.674951 207.654396 
L 244.292396 208.429535 
L 247.909841 209.08647 
L 251.527286 209.611828 
L 255.144732 209.994914 
L 258.762177 210.227931 
L 262.379622 210.306134 
L 265.997067 210.306134 
L 269.614512 210.306134 
L 273.231958 210.306134 
L 276.849403 210.306134 
L 280.466848 210.306134 
L 284.084293 210.306134 
L 287.701738 210.306134 
L 291.319183 210.306134 
L 294.936629 210.306134 
L 298.554074 210.306134 
L 302.171519 210.306134 
L 305.688659 210.212457 
L 309.205799 209.952348 
L 312.722939 209.574007 
L 316.240079 209.140221 
L 319.757219 208.717587 
L 323.274359 208.366932 
L 326.791499 208.136192 
L 330.308639 208.055808 
L 333.825779 207.497143 
L 337.342919 206.891538 
L 340.860059 206.244825 
L 344.377199 205.563233 
L 347.894339 204.853325 
L 351.411479 204.121937 
L 354.928619 203.376115 
L 358.44576 202.62304 
L 361.9629 201.869965 
L 365.48004 201.124143 
L 368.99718 200.392756 
L 372.51432 199.682848 
L 376.03146 199.001255 
L 379.5486 198.354542 
L 383.06574 197.748937 
L 386.58288 197.190273 
L 390.10002 196.683929 
L 393.61716 196.234782 
L 397.1343 195.847157 
L 400.65144 195.524788 
L 404.16858 195.270778 
L 407.68572 195.087575 
L 411.20286 194.976943 
L 414.72 194.939947 
" clip-path="url(#pef32e15043)" style="fill: none; stroke: #000000; stroke-width: 1.5; stroke-linecap: square"/>
   </g>
   <g id="line2d_23">
    <path d="M 57.6 87.278203 
L 61.11714 86.843233 
L 64.63428 85.567517 
L 68.15142 83.533908 
L 71.66856 80.866532 
L 75.1857 77.714912 
L 78.70284 74.23885 
L 82.21998 70.59661 
L 85.73712 66.937064 
L 89.25426 63.395202 
L 92.7714 60.090011 
L 96.28854 57.123775 
L 99.80568 54.582113 
L 103.32282 52.534325 
L 106.83996 51.03381 
L 110.3571 50.118432 
L 113.87424 49.8108 
L 117.501692 50.020502 
L 121.129144 50.649101 
L 124.756596 51.694961 
L 128.384048 53.15494 
L 132.0115 55.023769 
L 135.638952 57.293126 
L 139.266404 59.950378 
L 142.893856 62.976911 
L 146.521308 66.345929 
L 150.14876 70.019567 
L 153.776212 73.945076 
L 157.403664 78.049824 
L 161.031116 82.234892 
L 164.658568 86.367403 
L 168.28602 90.272882 
L 171.913472 93.731543 
L 175.540924 96.486854 
L 179.168376 98.278067 
L 182.795828 98.90128 
L 186.413273 98.284272 
L 190.030718 96.542485 
L 193.648163 93.959888 
L 197.265609 90.900482 
L 200.883054 87.725127 
L 204.500499 84.746843 
L 208.117944 82.216842 
L 211.735389 80.325582 
L 215.352835 79.208424 
L 218.97028 78.951324 
L 222.587725 79.59511 
L 226.20517 81.13816 
L 229.822615 83.53758 
L 233.440061 86.708927 
L 237.057506 90.52443 
L 240.674951 94.809555 
L 244.292396 99.338116 
L 247.909841 103.827341 
L 251.527286 107.937463 
L 255.144732 111.286233 
L 258.762177 113.494053 
L 262.379622 114.267466 
L 265.997067 113.572256 
L 269.614512 111.597453 
L 273.231958 108.631769 
L 276.849403 105.047005 
L 280.466848 101.214715 
L 284.084293 97.461292 
L 287.701738 94.053729 
L 291.319183 91.200348 
L 294.936629 89.056095 
L 298.554074 87.727835 
L 302.171519 87.278203 
L 305.688659 87.274467 
L 309.205799 87.268644 
L 312.722939 87.26597 
L 316.240079 87.268218 
L 319.757219 87.274454 
L 323.274359 87.282129 
L 326.791499 87.288279 
L 330.308639 87.290614 
L 333.825779 83.010984 
L 337.342919 79.033156 
L 340.860059 75.433446 
L 344.377199 72.271815 
L 347.894339 69.59509 
L 351.411479 67.439285 
L 354.928619 65.831201 
L 358.44576 64.789457 
L 361.9629 64.325051 
L 365.48004 64.441491 
L 368.99718 65.134521 
L 372.51432 66.39143 
L 376.03146 68.189876 
L 379.5486 70.49616 
L 383.06574 73.262778 
L 386.58288 76.425079 
L 390.10002 79.896799 
L 393.61716 83.564343 
L 397.1343 87.28007 
L 400.65144 90.855999 
L 404.16858 94.061867 
L 407.68572 96.635453 
L 411.20286 98.315638 
L 414.72 98.90128 
" clip-path="url(#pef32e15043)" style="fill: none; stroke: #000000; stroke-width: 1.5; stroke-linecap: square"/>
   </g>
   <g id="patch_3">
    <path d="M 57.6 286.0104 
L 57.6 38.5632 
" style="fill: none; stroke: #000000; stroke-width: 0.8; stroke-linejoin: miter; stroke-linecap: square"/>
   </g>
   <g id="patch_4">
    <path d="M 414.72 286.0104 
L 414.72 38.5632 
" style="fill: none; stroke: #000000; stroke-width: 0.8; stroke-linejoin: miter; stroke-linecap: square"/>
   </g>
   <g id="patch_5">
    <path d="M 57.6 286.0104 
L 414.72 286.0104 
" style="fill: none; stroke: #000000; stroke-width: 0.8; stroke-linejoin: miter; stroke-linecap: square"/>
   </g>
   <g id="patch_6">
    <path d="M 57.6 38.5632 
L 414.72 38.5632 
" style="fill: none; stroke: #000000; stroke-width: 0.8; stroke-linejoin: miter; stroke-linecap: square"/>
   </g>
  </g>
 </g>
 <defs>
  <clipPath id="pef32e15043">
   <rect x="57.6" y="38.5632" width="357.12" height="247.4472"/>
  </clipPath>
 </defs>
</svg>
