<?xml version="1.0" encoding="utf-8" standalone="no"?>
<!DOCTYPE svg PUBLIC "-//W3C//DTD SVG 1.1//EN"
  "http://www.w3.org/Graphics/SVG/1.1/DTD/svg11.dtd">
<svg xmlns:xlink="http://www.w3.org/1999/xlink" width="460.8pt" height="345.6pt" viewBox="0 0 460.8 345.6" xmlns="http://www.w3.org/2000/svg" version="1.1">
 <metadata>
  <rdf:RDF xmlns:dc="http://purl.org/dc/elements/1.1/" xmlns:cc="http://creativecommons.org/ns#" xmlns:rdf="http://www.w3.org/1999/02/22-rdf-syntax-ns#">
   <cc:Work>
    <dc:type rdf:resource="http://purl.org/dc/dcmitype/StillImage"/>
    <dc:date>2023-09-25T23:02:16.315417</dc:date>
    <dc:format>image/svg+xml</dc:format>
    <dc:creator>
     <cc:Agent>
      <dc:title>Matplotlib v3.5.1, https://matplotlib.org/</dc:title>
     </cc:Agent>
    </dc:creator>
   </cc:Work>
  </rdf:RDF>
 </metadata>
 <defs>
  <style type="text/css">*{stroke-linejoin: round; stroke-linecap: butt}</style>
 </defs>
 <g id="figure_1">
  <g id="patch_1">
   <path d="M 0 345.6 
L 460.8 345.6 
L 460.8 0 
L 0 0 
z
" style="fill: #ffffff"/>
  </g>
  <g id="axes_1">
   <g id="patch_2">
    <path d="M 57.6 307.584 
L 414.72 307.584 
L 414.72 41.472 
L 57.6 41.472 
z
" style="fill: #ffffff"/>
   </g>
   <g id="matplotlib.axis_1">
    <g id="xtick_1">
     <g id="line2d_1">
      <defs>
       <path id="m0c22c63248" d="M 0 0 
L 0 3.5 
" style="stroke: #000000; stroke-width: 0.8"/>
      </defs>
      <g>
       <use xlink:href="#m0c22c63248" x="57.6" y="307.584" style="stroke: #000000; stroke-width: 0.8"/>
      </g>
     </g>
     <g id="text_1">
      <!-- W -->
      <g transform="translate(52.65625 322.182437)scale(0.1 -0.1)">
       <defs>
        <path id="DejaVuSans-57" d="M 213 4666 
L 850 4666 
L 1831 722 
L 2809 4666 
L 3519 4666 
L 4500 722 
L 5478 4666 
L 6119 4666 
L 4947 0 
L 4153 0 
L 3169 4050 
L 2175 0 
L 1381 0 
L 213 4666 
z
" transform="scale(0.015625)"/>
       </defs>
       <use xlink:href="#DejaVuSans-57"/>
      </g>
     </g>
    </g>
    <g id="xtick_2">
     <g id="line2d_2">
      <g>
       <use xlink:href="#m0c22c63248" x="113.87424" y="307.584" style="stroke: #000000; stroke-width: 0.8"/>
      </g>
     </g>
     <g id="text_2">
      <!-- L -->
      <g transform="translate(111.088303 322.182437)scale(0.1 -0.1)">
       <defs>
        <path id="DejaVuSans-4c" d="M 628 4666 
L 1259 4666 
L 1259 531 
L 3531 531 
L 3531 0 
L 628 0 
L 628 4666 
z
" transform="scale(0.015625)"/>
       </defs>
       <use xlink:href="#DejaVuSans-4c"/>
      </g>
     </g>
    </g>
    <g id="xtick_3">
     <g id="line2d_3">
      <g>
       <use xlink:href="#m0c22c63248" x="182.795828" y="307.584" style="stroke: #000000; stroke-width: 0.8"/>
      </g>
     </g>
     <g id="text_3">
      <!-- ${\Gamma}$ -->
      <g transform="translate(179.995828 322.182437)scale(0.1 -0.1)">
       <defs>
        <path id="DejaVuSans-393" d="M 628 0 
L 628 4666 
L 3531 4666 
L 3531 4134 
L 1259 4134 
L 1259 0 
L 628 0 
z
" transform="scale(0.015625)"/>
       </defs>
       <use xlink:href="#DejaVuSans-393" transform="translate(0 0.09375)"/>
      </g>
     </g>
    </g>
    <g id="xtick_4">
     <g id="line2d_4">
      <g>
       <use xlink:href="#m0c22c63248" x="262.379622" y="307.584" style="stroke: #000000; stroke-width: 0.8"/>
      </g>
     </g>
     <g id="text_4">
      <!-- X -->
      <g transform="translate(258.954622 322.182437)scale(0.1 -0.1)">
       <defs>
        <path id="DejaVuSans-58" d="M 403 4666 
L 1081 4666 
L 2241 2931 
L 3406 4666 
L 4084 4666 
L 2584 2425 
L 4184 0 
L 3506 0 
L 2194 1984 
L 872 0 
L 191 0 
L 1856 2491 
L 403 4666 
z
" transform="scale(0.015625)"/>
       </defs>
       <use xlink:href="#DejaVuSans-58"/>
      </g>
     </g>
    </g>
    <g id="xtick_5">
     <g id="line2d_5">
      <g>
       <use xlink:href="#m0c22c63248" x="302.171519" y="307.584" style="stroke: #000000; stroke-width: 0.8"/>
      </g>
     </g>
     <g id="text_5">
      <!-- W -->
      <g transform="translate(297.227769 322.182437)scale(0.1 -0.1)">
       <use xlink:href="#DejaVuSans-57"/>
      </g>
     </g>
    </g>
    <g id="xtick_6">
     <g id="line2d_6">
      <g>
       <use xlink:href="#m0c22c63248" x="330.308639" y="307.584" style="stroke: #000000; stroke-width: 0.8"/>
      </g>
     </g>
     <g id="text_6">
      <!-- K -->
      <g transform="translate(327.029733 322.182437)scale(0.1 -0.1)">
       <defs>
        <path id="DejaVuSans-4b" d="M 628 4666 
L 1259 4666 
L 1259 2694 
L 3353 4666 
L 4166 4666 
L 1850 2491 
L 4331 0 
L 3500 0 
L 1259 2247 
L 1259 0 
L 628 0 
L 628 4666 
z
" transform="scale(0.015625)"/>
       </defs>
       <use xlink:href="#DejaVuSans-4b"/>
      </g>
     </g>
    </g>
    <g id="xtick_7">
     <g id="line2d_7">
      <g>
       <use xlink:href="#m0c22c63248" x="414.72" y="307.584" style="stroke: #000000; stroke-width: 0.8"/>
      </g>
     </g>
     <g id="text_7">
      <!-- ${\Gamma}$ -->
      <g transform="translate(411.92 322.182437)scale(0.1 -0.1)">
       <use xlink:href="#DejaVuSans-393" transform="translate(0 0.09375)"/>
      </g>
     </g>
    </g>
   </g>
   <g id="matplotlib.axis_2">
    <g id="ytick_1">
     <g id="line2d_8">
      <defs>
       <path id="m921bb302ed" d="M 0 0 
L -3.5 0 
" style="stroke: #000000; stroke-width: 0.8"/>
      </defs>
      <g>
       <use xlink:href="#m921bb302ed" x="57.6" y="273.679496" style="stroke: #000000; stroke-width: 0.8"/>
      </g>
     </g>
     <g id="text_8">
      <!-- −0.5 -->
      <g transform="translate(26.317187 277.478715)scale(0.1 -0.1)">
       <defs>
        <path id="DejaVuSans-2212" d="M 678 2272 
L 4684 2272 
L 4684 1741 
L 678 1741 
L 678 2272 
z
" transform="scale(0.015625)"/>
        <path id="DejaVuSans-30" d="M 2034 4250 
Q 1547 4250 1301 3770 
Q 1056 3291 1056 2328 
Q 1056 1369 1301 889 
Q 1547 409 2034 409 
Q 2525 409 2770 889 
Q 3016 1369 3016 2328 
Q 3016 3291 2770 3770 
Q 2525 4250 2034 4250 
z
M 2034 4750 
Q 2819 4750 3233 4129 
Q 3647 3509 3647 2328 
Q 3647 1150 3233 529 
Q 2819 -91 2034 -91 
Q 1250 -91 836 529 
Q 422 1150 422 2328 
Q 422 3509 836 4129 
Q 1250 4750 2034 4750 
z
" transform="scale(0.015625)"/>
        <path id="DejaVuSans-2e" d="M 684 794 
L 1344 794 
L 1344 0 
L 684 0 
L 684 794 
z
" transform="scale(0.015625)"/>
        <path id="DejaVuSans-35" d="M 691 4666 
L 3169 4666 
L 3169 4134 
L 1269 4134 
L 1269 2991 
Q 1406 3038 1543 3061 
Q 1681 3084 1819 3084 
Q 2600 3084 3056 2656 
Q 3513 2228 3513 1497 
Q 3513 744 3044 326 
Q 2575 -91 1722 -91 
Q 1428 -91 1123 -41 
Q 819 9 494 109 
L 494 744 
Q 775 591 1075 516 
Q 1375 441 1709 441 
Q 2250 441 2565 725 
Q 2881 1009 2881 1497 
Q 2881 1984 2565 2268 
Q 2250 2553 1709 2553 
Q 1456 2553 1204 2497 
Q 953 2441 691 2322 
L 691 4666 
z
" transform="scale(0.015625)"/>
       </defs>
       <use xlink:href="#DejaVuSans-2212"/>
       <use xlink:href="#DejaVuSans-30" x="83.789062"/>
       <use xlink:href="#DejaVuSans-2e" x="147.412109"/>
       <use xlink:href="#DejaVuSans-35" x="179.199219"/>
      </g>
     </g>
    </g>
    <g id="ytick_2">
     <g id="line2d_9">
      <g>
       <use xlink:href="#m921bb302ed" x="57.6" y="222.038092" style="stroke: #000000; stroke-width: 0.8"/>
      </g>
     </g>
     <g id="text_9">
      <!-- 0.0 -->
      <g transform="translate(34.696875 225.837311)scale(0.1 -0.1)">
       <use xlink:href="#DejaVuSans-30"/>
       <use xlink:href="#DejaVuSans-2e" x="63.623047"/>
       <use xlink:href="#DejaVuSans-30" x="95.410156"/>
      </g>
     </g>
    </g>
    <g id="ytick_3">
     <g id="line2d_10">
      <g>
       <use xlink:href="#m921bb302ed" x="57.6" y="170.396688" style="stroke: #000000; stroke-width: 0.8"/>
      </g>
     </g>
     <g id="text_10">
      <!-- 0.5 -->
      <g transform="translate(34.696875 174.195906)scale(0.1 -0.1)">
       <use xlink:href="#DejaVuSans-30"/>
       <use xlink:href="#DejaVuSans-2e" x="63.623047"/>
       <use xlink:href="#DejaVuSans-35" x="95.410156"/>
      </g>
     </g>
    </g>
    <g id="ytick_4">
     <g id="line2d_11">
      <g>
       <use xlink:href="#m921bb302ed" x="57.6" y="118.755283" style="stroke: #000000; stroke-width: 0.8"/>
      </g>
     </g>
     <g id="text_11">
      <!-- 1.0 -->
      <g transform="translate(34.696875 122.554502)scale(0.1 -0.1)">
       <defs>
        <path id="DejaVuSans-31" d="M 794 531 
L 1825 531 
L 1825 4091 
L 703 3866 
L 703 4441 
L 1819 4666 
L 2450 4666 
L 2450 531 
L 3481 531 
L 3481 0 
L 794 0 
L 794 531 
z
" transform="scale(0.015625)"/>
       </defs>
       <use xlink:href="#DejaVuSans-31"/>
       <use xlink:href="#DejaVuSans-2e" x="63.623047"/>
       <use xlink:href="#DejaVuSans-30" x="95.410156"/>
      </g>
     </g>
    </g>
    <g id="ytick_5">
     <g id="line2d_12">
      <g>
       <use xlink:href="#m921bb302ed" x="57.6" y="67.113879" style="stroke: #000000; stroke-width: 0.8"/>
      </g>
     </g>
     <g id="text_12">
      <!-- 1.5 -->
      <g transform="translate(34.696875 70.913098)scale(0.1 -0.1)">
       <use xlink:href="#DejaVuSans-31"/>
       <use xlink:href="#DejaVuSans-2e" x="63.623047"/>
       <use xlink:href="#DejaVuSans-35" x="95.410156"/>
      </g>
     </g>
    </g>
    <g id="text_13">
     <!-- Energy -->
     <g transform="translate(20.2375 192.03425)rotate(-90)scale(0.1 -0.1)">
      <defs>
       <path id="DejaVuSans-45" d="M 628 4666 
L 3578 4666 
L 3578 4134 
L 1259 4134 
L 1259 2753 
L 3481 2753 
L 3481 2222 
L 1259 2222 
L 1259 531 
L 3634 531 
L 3634 0 
L 628 0 
L 628 4666 
z
" transform="scale(0.015625)"/>
       <path id="DejaVuSans-6e" d="M 3513 2113 
L 3513 0 
L 2938 0 
L 2938 2094 
Q 2938 2591 2744 2837 
Q 2550 3084 2163 3084 
Q 1697 3084 1428 2787 
Q 1159 2491 1159 1978 
L 1159 0 
L 581 0 
L 581 3500 
L 1159 3500 
L 1159 2956 
Q 1366 3272 1645 3428 
Q 1925 3584 2291 3584 
Q 2894 3584 3203 3211 
Q 3513 2838 3513 2113 
z
" transform="scale(0.015625)"/>
       <path id="DejaVuSans-65" d="M 3597 1894 
L 3597 1613 
L 953 1613 
Q 991 1019 1311 708 
Q 1631 397 2203 397 
Q 2534 397 2845 478 
Q 3156 559 3463 722 
L 3463 178 
Q 3153 47 2828 -22 
Q 2503 -91 2169 -91 
Q 1331 -91 842 396 
Q 353 884 353 1716 
Q 353 2575 817 3079 
Q 1281 3584 2069 3584 
Q 2775 3584 3186 3129 
Q 3597 2675 3597 1894 
z
M 3022 2063 
Q 3016 2534 2758 2815 
Q 2500 3097 2075 3097 
Q 1594 3097 1305 2825 
Q 1016 2553 972 2059 
L 3022 2063 
z
" transform="scale(0.015625)"/>
       <path id="DejaVuSans-72" d="M 2631 2963 
Q 2534 3019 2420 3045 
Q 2306 3072 2169 3072 
Q 1681 3072 1420 2755 
Q 1159 2438 1159 1844 
L 1159 0 
L 581 0 
L 581 3500 
L 1159 3500 
L 1159 2956 
Q 1341 3275 1631 3429 
Q 1922 3584 2338 3584 
Q 2397 3584 2469 3576 
Q 2541 3569 2628 3553 
L 2631 2963 
z
" transform="scale(0.015625)"/>
       <path id="DejaVuSans-67" d="M 2906 1791 
Q 2906 2416 2648 2759 
Q 2391 3103 1925 3103 
Q 1463 3103 1205 2759 
Q 947 2416 947 1791 
Q 947 1169 1205 825 
Q 1463 481 1925 481 
Q 2391 481 2648 825 
Q 2906 1169 2906 1791 
z
M 3481 434 
Q 3481 -459 3084 -895 
Q 2688 -1331 1869 -1331 
Q 1566 -1331 1297 -1286 
Q 1028 -1241 775 -1147 
L 775 -588 
Q 1028 -725 1275 -790 
Q 1522 -856 1778 -856 
Q 2344 -856 2625 -561 
Q 2906 -266 2906 331 
L 2906 616 
Q 2728 306 2450 153 
Q 2172 0 1784 0 
Q 1141 0 747 490 
Q 353 981 353 1791 
Q 353 2603 747 3093 
Q 1141 3584 1784 3584 
Q 2172 3584 2450 3431 
Q 2728 3278 2906 2969 
L 2906 3500 
L 3481 3500 
L 3481 434 
z
" transform="scale(0.015625)"/>
       <path id="DejaVuSans-79" d="M 2059 -325 
Q 1816 -950 1584 -1140 
Q 1353 -1331 966 -1331 
L 506 -1331 
L 506 -850 
L 844 -850 
Q 1081 -850 1212 -737 
Q 1344 -625 1503 -206 
L 1606 56 
L 191 3500 
L 800 3500 
L 1894 763 
L 2988 3500 
L 3597 3500 
L 2059 -325 
z
" transform="scale(0.015625)"/>
      </defs>
      <use xlink:href="#DejaVuSans-45"/>
      <use xlink:href="#DejaVuSans-6e" x="63.183594"/>
      <use xlink:href="#DejaVuSans-65" x="126.5625"/>
      <use xlink:href="#DejaVuSans-72" x="188.085938"/>
      <use xlink:href="#DejaVuSans-67" x="227.449219"/>
      <use xlink:href="#DejaVuSans-79" x="290.925781"/>
     </g>
    </g>
   </g>
   <g id="line2d_13">
    <path d="M 57.6 307.584 
L 57.6 41.472 
" clip-path="url(#p76bbd928a4)" style="fill: none; stroke-dasharray: 5.55,2.4; stroke-dashoffset: 0; stroke: #808080; stroke-width: 1.5"/>
   </g>
   <g id="line2d_14">
    <path d="M 113.87424 307.584 
L 113.87424 41.472 
" clip-path="url(#p76bbd928a4)" style="fill: none; stroke-dasharray: 5.55,2.4; stroke-dashoffset: 0; stroke: #808080; stroke-width: 1.5"/>
   </g>
   <g id="line2d_15">
    <path d="M 182.795828 307.584 
L 182.795828 41.472 
" clip-path="url(#p76bbd928a4)" style="fill: none; stroke-dasharray: 5.55,2.4; stroke-dashoffset: 0; stroke: #808080; stroke-width: 1.5"/>
   </g>
   <g id="line2d_16">
    <path d="M 262.379622 307.584 
L 262.379622 41.472 
" clip-path="url(#p76bbd928a4)" style="fill: none; stroke-dasharray: 5.55,2.4; stroke-dashoffset: 0; stroke: #808080; stroke-width: 1.5"/>
   </g>
   <g id="line2d_17">
    <path d="M 302.171519 307.584 
L 302.171519 41.472 
" clip-path="url(#p76bbd928a4)" style="fill: none; stroke-dasharray: 5.55,2.4; stroke-dashoffset: 0; stroke: #808080; stroke-width: 1.5"/>
   </g>
   <g id="line2d_18">
    <path d="M 330.308639 307.584 
L 330.308639 41.472 
" clip-path="url(#p76bbd928a4)" style="fill: none; stroke-dasharray: 5.55,2.4; stroke-dashoffset: 0; stroke: #808080; stroke-width: 1.5"/>
   </g>
   <g id="line2d_19">
    <path d="M 414.72 307.584 
L 414.72 41.472 
" clip-path="url(#p76bbd928a4)" style="fill: none; stroke-dasharray: 5.55,2.4; stroke-dashoffset: 0; stroke: #808080; stroke-width: 1.5"/>
   </g>
   <g id="line2d_20">
    <path d="M 57.6 255.194452 
L 61.11714 255.74747 
L 64.63428 257.34045 
L 68.15142 259.805192 
L 71.66856 262.930335 
L 75.1857 266.504735 
L 78.70284 270.336006 
L 82.21998 274.255001 
L 85.73712 278.115297 
L 89.25426 281.791479 
L 92.7714 285.177307 
L 96.28854 288.184056 
L 99.80568 290.73905 
L 103.32282 292.784446 
L 106.83996 294.276245 
L 110.3571 295.183542 
L 113.87424 295.488 
L 117.501692 295.037098 
L 121.129144 293.691082 
L 124.756596 291.469992 
L 128.384048 288.407108 
L 132.0115 284.548817 
L 135.638952 279.954492 
L 139.266404 274.696467 
L 142.893856 268.860237 
L 146.521308 262.54503 
L 150.14876 255.865003 
L 153.776212 248.951331 
L 157.403664 241.955556 
L 161.031116 235.054474 
L 164.658568 228.456457 
L 168.28602 222.407893 
L 171.913472 217.195568 
L 175.540924 213.136083 
L 179.168376 210.539759 
L 182.795828 209.644155 
L 186.413273 210.475907 
L 190.030718 212.850261 
L 193.648163 216.451627 
L 197.265609 220.871773 
L 200.883054 225.699617 
L 204.500499 230.569766 
L 208.117944 235.178115 
L 211.735389 239.281419 
L 215.352835 242.69198 
L 218.97028 245.272386 
L 222.587725 246.931828 
L 226.20517 247.624174 
L 229.822615 247.34768 
L 233.440061 246.146256 
L 237.057506 244.112339 
L 240.674951 241.391502 
L 244.292396 238.188568 
L 247.909841 234.773697 
L 251.527286 231.483522 
L 255.144732 228.706121 
L 258.762177 226.832953 
L 262.379622 226.169404 
L 265.997067 226.917055 
L 269.614512 229.040816 
L 273.231958 232.230199 
L 276.849403 236.08536 
L 280.466848 240.206717 
L 284.084293 244.243259 
L 287.701738 247.907852 
L 291.319183 250.976462 
L 294.936629 253.282455 
L 298.554074 254.710904 
L 302.171519 255.194452 
L 305.688659 255.245382 
L 309.205799 255.393518 
L 312.722939 255.616198 
L 316.240079 255.876652 
L 319.757219 256.133264 
L 323.274359 256.3474 
L 326.791499 256.488676 
L 330.308639 256.537941 
L 333.825779 261.14774 
L 337.342919 265.285551 
L 340.860059 268.837171 
L 344.377199 271.710341 
L 347.894339 273.832729 
L 351.411479 275.150696 
L 354.928619 275.628562 
L 358.44576 275.2482 
L 361.9629 274.008805 
L 365.48004 271.92678 
L 368.99718 269.035703 
L 372.51432 265.386401 
L 376.03146 261.047222 
L 379.5486 256.104614 
L 383.06574 250.664233 
L 386.58288 244.852825 
L 390.10002 238.821191 
L 393.61716 232.748446 
L 397.1343 226.847344 
L 400.65144 221.369246 
L 404.16858 216.604551 
L 407.68572 212.870135 
L 411.20286 210.472618 
L 414.72 209.644155 
" clip-path="url(#p76bbd928a4)" style="fill: none; stroke: #000000; stroke-width: 1.5; stroke-linecap: square"/>
   </g>
   <g id="line2d_21">
    <path d="M 57.6 226.169404 
L 61.11714 226.090022 
L 64.63428 225.854927 
L 68.15142 225.473153 
L 71.66856 224.959371 
L 75.1857 224.333326 
L 78.70284 223.619077 
L 82.21998 222.844071 
L 85.73712 222.038092 
L 89.25426 221.232113 
L 92.7714 220.457107 
L 96.28854 219.742858 
L 99.80568 219.116813 
L 103.32282 218.603031 
L 106.83996 218.221257 
L 110.3571 217.986162 
L 113.87424 217.90678 
L 117.501692 217.850434 
L 121.129144 217.682934 
L 124.756596 217.408848 
L 128.384048 217.035653 
L 132.0115 216.573529 
L 135.638952 216.035081 
L 139.266404 215.434997 
L 142.893856 214.789645 
L 146.521308 214.116628 
L 150.14876 213.434306 
L 153.776212 212.76129 
L 157.403664 212.115938 
L 161.031116 211.515854 
L 164.658568 210.977406 
L 168.28602 210.515281 
L 171.913472 210.142087 
L 175.540924 209.868001 
L 179.168376 209.700501 
L 182.795828 209.644155 
L 186.413273 209.728257 
L 190.030718 209.978849 
L 193.648163 210.390832 
L 197.265609 210.955817 
L 200.883054 211.662305 
L 204.500499 212.495911 
L 208.117944 213.439668 
L 211.735389 214.474361 
L 215.352835 215.578929 
L 218.97028 216.730886 
L 222.587725 217.90678 
L 226.20517 219.082674 
L 229.822615 220.23463 
L 233.440061 221.339198 
L 237.057506 222.373892 
L 240.674951 223.317648 
L 244.292396 224.151255 
L 247.909841 224.857742 
L 251.527286 225.422727 
L 255.144732 225.83471 
L 258.762177 226.085303 
L 262.379622 226.169404 
L 265.997067 226.169404 
L 269.614512 226.169404 
L 273.231958 226.169404 
L 276.849403 226.169404 
L 280.466848 226.169404 
L 284.084293 226.169404 
L 287.701738 226.169404 
L 291.319183 226.169404 
L 294.936629 226.169404 
L 298.554074 226.169404 
L 302.171519 226.169404 
L 305.688659 226.151461 
L 309.205799 226.105509 
L 312.722939 226.043151 
L 316.240079 225.975272 
L 319.757219 225.911541 
L 323.274359 225.859969 
L 326.791499 225.826551 
L 330.308639 225.814994 
L 333.825779 225.617179 
L 337.342919 225.353397 
L 340.860059 225.015027 
L 344.377199 224.595045 
L 347.894339 224.08848 
L 351.411479 223.492811 
L 354.928619 222.80828 
L 358.44576 222.038092 
L 361.9629 221.188522 
L 365.48004 220.268895 
L 368.99718 219.291453 
L 372.51432 218.271106 
L 376.03146 217.225079 
L 379.5486 216.17246 
L 383.06574 215.133672 
L 386.58288 214.129878 
L 390.10002 213.182351 
L 393.61716 212.311822 
L 397.1343 211.537834 
L 400.65144 210.878127 
L 404.16858 210.348067 
L 407.68572 209.960158 
L 411.20286 209.723633 
L 414.72 209.644155 
" clip-path="url(#p76bbd928a4)" style="fill: none; stroke: #000000; stroke-width: 1.5; stroke-linecap: square"/>
   </g>
   <g id="line2d_22">
    <path d="M 57.6 226.169404 
L 61.11714 226.004784 
L 64.63428 225.548651 
L 68.15142 224.889138 
L 71.66856 224.118788 
L 75.1857 223.307688 
L 78.70284 222.500427 
L 82.21998 221.723398 
L 85.73712 220.992706 
L 89.25426 220.319569 
L 92.7714 219.713235 
L 96.28854 219.182214 
L 99.80568 218.734553 
L 103.32282 218.377626 
L 106.83996 218.117751 
L 110.3571 217.959784 
L 113.87424 217.90678 
L 117.501692 217.850434 
L 121.129144 217.682934 
L 124.756596 217.408848 
L 128.384048 217.035653 
L 132.0115 216.573529 
L 135.638952 216.035081 
L 139.266404 215.434997 
L 142.893856 214.789645 
L 146.521308 214.116628 
L 150.14876 213.434306 
L 153.776212 212.76129 
L 157.403664 212.115938 
L 161.031116 211.515854 
L 164.658568 210.977406 
L 168.28602 210.515281 
L 171.913472 210.142087 
L 175.540924 209.868001 
L 179.168376 209.700501 
L 182.795828 209.644155 
L 186.413273 209.728257 
L 190.030718 209.978849 
L 193.648163 210.390832 
L 197.265609 210.955817 
L 200.883054 211.662305 
L 204.500499 212.495911 
L 208.117944 213.439668 
L 211.735389 214.474361 
L 215.352835 215.578929 
L 218.97028 216.730886 
L 222.587725 217.90678 
L 226.20517 219.082674 
L 229.822615 220.23463 
L 233.440061 221.339198 
L 237.057506 222.373892 
L 240.674951 223.317648 
L 244.292396 224.151255 
L 247.909841 224.857742 
L 251.527286 225.422727 
L 255.144732 225.83471 
L 258.762177 226.085303 
L 262.379622 226.169404 
L 265.997067 226.169404 
L 269.614512 226.169404 
L 273.231958 226.169404 
L 276.849403 226.169404 
L 280.466848 226.169404 
L 284.084293 226.169404 
L 287.701738 226.169404 
L 291.319183 226.169404 
L 294.936629 226.169404 
L 298.554074 226.169404 
L 302.171519 226.169404 
L 305.688659 226.068662 
L 309.205799 225.788933 
L 312.722939 225.382054 
L 316.240079 224.915547 
L 319.757219 224.461035 
L 323.274359 224.083929 
L 326.791499 223.835785 
L 330.308639 223.749338 
L 333.825779 223.148533 
L 337.342919 222.497248 
L 340.860059 221.801754 
L 344.377199 221.068749 
L 347.894339 220.305293 
L 351.411479 219.518738 
L 354.928619 218.716659 
L 358.44576 217.90678 
L 361.9629 217.096901 
L 365.48004 216.294822 
L 368.99718 215.508266 
L 372.51432 214.74481 
L 376.03146 214.011805 
L 379.5486 213.316311 
L 383.06574 212.665026 
L 386.58288 212.064222 
L 390.10002 211.519684 
L 393.61716 211.036658 
L 397.1343 210.619795 
L 400.65144 210.27311 
L 404.16858 209.999941 
L 407.68572 209.802919 
L 411.20286 209.683942 
L 414.72 209.644155 
" clip-path="url(#p76bbd928a4)" style="fill: none; stroke: #000000; stroke-width: 1.5; stroke-linecap: square"/>
   </g>
   <g id="line2d_23">
    <path d="M 57.6 93.861548 
L 61.11714 93.393768 
L 64.63428 92.021826 
L 68.15142 89.834823 
L 71.66856 86.966248 
L 75.1857 83.576903 
L 78.70284 79.838643 
L 82.21998 75.921672 
L 85.73712 71.986088 
L 89.25426 68.177065 
L 92.7714 64.622565 
L 96.28854 61.432588 
L 99.80568 58.69921 
L 103.32282 56.496959 
L 106.83996 54.883261 
L 110.3571 53.898836 
L 113.87424 53.568 
L 117.501692 53.793519 
L 121.129144 54.469534 
L 124.756596 55.594282 
L 128.384048 57.164386 
L 132.0115 59.17418 
L 135.638952 61.614713 
L 139.266404 64.472401 
L 142.893856 67.727223 
L 146.521308 71.350365 
L 150.14876 75.301103 
L 153.776212 79.522711 
L 157.403664 83.937078 
L 161.031116 88.437822 
L 164.658568 92.882046 
L 168.28602 97.082114 
L 171.913472 100.80166 
L 175.540924 103.764802 
L 179.168376 105.691125 
L 182.795828 106.361346 
L 186.413273 105.697798 
L 190.030718 103.824629 
L 193.648163 101.047228 
L 197.265609 97.757053 
L 200.883054 94.342183 
L 204.500499 91.139248 
L 208.117944 88.418411 
L 211.735389 86.384495 
L 215.352835 85.18307 
L 218.97028 84.906577 
L 222.587725 85.598923 
L 226.20517 87.258365 
L 229.822615 89.838771 
L 233.440061 93.249331 
L 237.057506 97.352636 
L 240.674951 101.960985 
L 244.292396 106.831133 
L 247.909841 111.658978 
L 251.527286 116.079124 
L 255.144732 119.68049 
L 258.762177 122.054844 
L 262.379622 122.886596 
L 265.997067 122.138945 
L 269.614512 120.015184 
L 273.231958 116.825801 
L 276.849403 112.97064 
L 280.466848 108.849283 
L 284.084293 104.812741 
L 287.701738 101.148148 
L 291.319183 98.079538 
L 294.936629 95.773545 
L 298.554074 94.345096 
L 302.171519 93.861548 
L 305.688659 93.85753 
L 309.205799 93.851267 
L 312.722939 93.848392 
L 316.240079 93.850809 
L 319.757219 93.857515 
L 323.274359 93.86577 
L 326.791499 93.872384 
L 330.308639 93.874894 
L 333.825779 89.272455 
L 337.342919 84.994582 
L 340.860059 81.123348 
L 344.377199 77.723236 
L 347.894339 74.844607 
L 351.411479 72.526192 
L 354.928619 70.79681 
L 358.44576 69.676488 
L 361.9629 69.177052 
L 365.48004 69.302275 
L 368.99718 70.047581 
L 372.51432 71.399297 
L 376.03146 73.333399 
L 379.5486 75.813645 
L 383.06574 78.788947 
L 386.58288 82.189778 
L 390.10002 85.923369 
L 393.61716 89.867553 
L 397.1343 93.863555 
L 400.65144 97.709215 
L 404.16858 101.156899 
L 407.68572 103.92461 
L 411.20286 105.73153 
L 414.72 106.361346 
" clip-path="url(#p76bbd928a4)" style="fill: none; stroke: #000000; stroke-width: 1.5; stroke-linecap: square"/>
   </g>
   <g id="patch_3">
    <path d="M 57.6 307.584 
L 57.6 41.472 
" style="fill: none; stroke: #000000; stroke-width: 0.8; stroke-linejoin: miter; stroke-linecap: square"/>
   </g>
   <g id="patch_4">
    <path d="M 414.72 307.584 
L 414.72 41.472 
" style="fill: none; stroke: #000000; stroke-width: 0.8; stroke-linejoin: miter; stroke-linecap: square"/>
   </g>
   <g id="patch_5">
    <path d="M 57.6 307.584 
L 414.72 307.584 
" style="fill: none; stroke: #000000; stroke-width: 0.8; stroke-linejoin: miter; stroke-linecap: square"/>
   </g>
   <g id="patch_6">
    <path d="M 57.6 41.472 
L 414.72 41.472 
" style="fill: none; stroke: #000000; stroke-width: 0.8; stroke-linejoin: miter; stroke-linecap: square"/>
   </g>
  </g>
 </g>
 <defs>
  <clipPath id="p76bbd928a4">
   <rect x="57.6" y="41.472" width="357.12" height="266.112"/>
  </clipPath>
 </defs>
</svg>
