<?xml version="1.0" encoding="utf-8" standalone="no"?>
<!DOCTYPE svg PUBLIC "-//W3C//DTD SVG 1.1//EN"
  "http://www.w3.org/Graphics/SVG/1.1/DTD/svg11.dtd">
<svg xmlns:xlink="http://www.w3.org/1999/xlink" width="460.8pt" height="321.36pt" viewBox="0 0 460.8 321.36" xmlns="http://www.w3.org/2000/svg" version="1.1">
 <metadata>
  <rdf:RDF xmlns:dc="http://purl.org/dc/elements/1.1/" xmlns:cc="http://creativecommons.org/ns#" xmlns:rdf="http://www.w3.org/1999/02/22-rdf-syntax-ns#">
   <cc:Work>
    <dc:type rdf:resource="http://purl.org/dc/dcmitype/StillImage"/>
    <dc:date>2023-10-13T12:23:51.006498</dc:date>
    <dc:format>image/svg+xml</dc:format>
    <dc:creator>
     <cc:Agent>
      <dc:title>Matplotlib v3.7.1, https://matplotlib.org/</dc:title>
     </cc:Agent>
    </dc:creator>
   </cc:Work>
  </rdf:RDF>
 </metadata>
 <defs>
  <style type="text/css">*{stroke-linejoin: round; stroke-linecap: butt}</style>
 </defs>
 <g id="figure_1">
  <g id="patch_1">
   <path d="M 0 321.36 
L 460.8 321.36 
L 460.8 0 
L 0 0 
z
" style="fill: #ffffff"/>
  </g>
  <g id="axes_1">
   <g id="patch_2">
    <path d="M 57.6 286.0104 
L 414.72 286.0104 
L 414.72 38.5632 
L 57.6 38.5632 
z
" style="fill: #ffffff"/>
   </g>
   <g id="matplotlib.axis_1">
    <g id="xtick_1">
     <g id="line2d_1">
      <defs>
       <path id="m9b311a1697" d="M 0 0 
L 0 3.5 
" style="stroke: #000000; stroke-width: 0.8"/>
      </defs>
      <g>
       <use xlink:href="#m9b311a1697" x="57.6" y="286.0104" style="stroke: #000000; stroke-width: 0.8"/>
      </g>
     </g>
     <g id="text_1">
      <!-- ${\Gamma}$ -->
      <g transform="translate(54.8 300.608837) scale(0.1 -0.1)">
       <defs>
        <path id="DejaVuSans-393" d="M 628 0 
L 628 4666 
L 3531 4666 
L 3531 4134 
L 1259 4134 
L 1259 0 
L 628 0 
z
" transform="scale(0.015625)"/>
       </defs>
       <use xlink:href="#DejaVuSans-393" transform="translate(0 0.09375)"/>
      </g>
     </g>
    </g>
    <g id="xtick_2">
     <g id="line2d_2">
      <g>
       <use xlink:href="#m9b311a1697" x="112.035058" y="286.0104" style="stroke: #000000; stroke-width: 0.8"/>
      </g>
     </g>
     <g id="text_2">
      <!-- X -->
      <g transform="translate(108.610058 300.608837) scale(0.1 -0.1)">
       <defs>
        <path id="DejaVuSans-58" d="M 403 4666 
L 1081 4666 
L 2241 2931 
L 3406 4666 
L 4084 4666 
L 2584 2425 
L 4184 0 
L 3506 0 
L 2194 1984 
L 872 0 
L 191 0 
L 1856 2491 
L 403 4666 
z
" transform="scale(0.015625)"/>
       </defs>
       <use xlink:href="#DejaVuSans-58"/>
      </g>
     </g>
    </g>
    <g id="xtick_3">
     <g id="line2d_3">
      <g>
       <use xlink:href="#m9b311a1697" x="166.470117" y="286.0104" style="stroke: #000000; stroke-width: 0.8"/>
      </g>
     </g>
     <g id="text_3">
      <!-- M -->
      <g transform="translate(162.156054 300.608837) scale(0.1 -0.1)">
       <defs>
        <path id="DejaVuSans-4d" d="M 628 4666 
L 1569 4666 
L 2759 1491 
L 3956 4666 
L 4897 4666 
L 4897 0 
L 4281 0 
L 4281 4097 
L 3078 897 
L 2444 897 
L 1241 4097 
L 1241 0 
L 628 0 
L 628 4666 
z
" transform="scale(0.015625)"/>
       </defs>
       <use xlink:href="#DejaVuSans-4d"/>
      </g>
     </g>
    </g>
    <g id="xtick_4">
     <g id="line2d_4">
      <g>
       <use xlink:href="#m9b311a1697" x="243.452915" y="286.0104" style="stroke: #000000; stroke-width: 0.8"/>
      </g>
     </g>
     <g id="text_4">
      <!-- ${\Gamma}$ -->
      <g transform="translate(240.652915 300.608837) scale(0.1 -0.1)">
       <use xlink:href="#DejaVuSans-393" transform="translate(0 0.09375)"/>
      </g>
     </g>
    </g>
    <g id="xtick_5">
     <g id="line2d_5">
      <g>
       <use xlink:href="#m9b311a1697" x="337.737202" y="286.0104" style="stroke: #000000; stroke-width: 0.8"/>
      </g>
     </g>
     <g id="text_5">
      <!-- R -->
      <g transform="translate(334.262983 300.608837) scale(0.1 -0.1)">
       <defs>
        <path id="DejaVuSans-52" d="M 2841 2188 
Q 3044 2119 3236 1894 
Q 3428 1669 3622 1275 
L 4263 0 
L 3584 0 
L 2988 1197 
Q 2756 1666 2539 1819 
Q 2322 1972 1947 1972 
L 1259 1972 
L 1259 0 
L 628 0 
L 628 4666 
L 2053 4666 
Q 2853 4666 3247 4331 
Q 3641 3997 3641 3322 
Q 3641 2881 3436 2590 
Q 3231 2300 2841 2188 
z
M 1259 4147 
L 1259 2491 
L 2053 2491 
Q 2509 2491 2742 2702 
Q 2975 2913 2975 3322 
Q 2975 3731 2742 3939 
Q 2509 4147 2053 4147 
L 1259 4147 
z
" transform="scale(0.015625)"/>
       </defs>
       <use xlink:href="#DejaVuSans-52"/>
      </g>
     </g>
    </g>
    <g id="xtick_6">
     <g id="line2d_6">
      <g>
       <use xlink:href="#m9b311a1697" x="414.72" y="286.0104" style="stroke: #000000; stroke-width: 0.8"/>
      </g>
     </g>
     <g id="text_6">
      <!-- X -->
      <g transform="translate(411.295 300.608837) scale(0.1 -0.1)">
       <use xlink:href="#DejaVuSans-58"/>
      </g>
     </g>
    </g>
   </g>
   <g id="matplotlib.axis_2">
    <g id="ytick_1">
     <g id="line2d_7">
      <defs>
       <path id="ma8613ebabe" d="M 0 0 
L -3.5 0 
" style="stroke: #000000; stroke-width: 0.8"/>
      </defs>
      <g>
       <use xlink:href="#ma8613ebabe" x="57.6" y="261.746502" style="stroke: #000000; stroke-width: 0.8"/>
      </g>
     </g>
     <g id="text_7">
      <!-- −5 -->
      <g transform="translate(35.857813 265.545721) scale(0.1 -0.1)">
       <defs>
        <path id="DejaVuSans-2212" d="M 678 2272 
L 4684 2272 
L 4684 1741 
L 678 1741 
L 678 2272 
z
" transform="scale(0.015625)"/>
        <path id="DejaVuSans-35" d="M 691 4666 
L 3169 4666 
L 3169 4134 
L 1269 4134 
L 1269 2991 
Q 1406 3038 1543 3061 
Q 1681 3084 1819 3084 
Q 2600 3084 3056 2656 
Q 3513 2228 3513 1497 
Q 3513 744 3044 326 
Q 2575 -91 1722 -91 
Q 1428 -91 1123 -41 
Q 819 9 494 109 
L 494 744 
Q 775 591 1075 516 
Q 1375 441 1709 441 
Q 2250 441 2565 725 
Q 2881 1009 2881 1497 
Q 2881 1984 2565 2268 
Q 2250 2553 1709 2553 
Q 1456 2553 1204 2497 
Q 953 2441 691 2322 
L 691 4666 
z
" transform="scale(0.015625)"/>
       </defs>
       <use xlink:href="#DejaVuSans-2212"/>
       <use xlink:href="#DejaVuSans-35" x="83.789062"/>
      </g>
     </g>
    </g>
    <g id="ytick_2">
     <g id="line2d_8">
      <g>
       <use xlink:href="#ma8613ebabe" x="57.6" y="223.050852" style="stroke: #000000; stroke-width: 0.8"/>
      </g>
     </g>
     <g id="text_8">
      <!-- −4 -->
      <g transform="translate(35.857813 226.850071) scale(0.1 -0.1)">
       <defs>
        <path id="DejaVuSans-34" d="M 2419 4116 
L 825 1625 
L 2419 1625 
L 2419 4116 
z
M 2253 4666 
L 3047 4666 
L 3047 1625 
L 3713 1625 
L 3713 1100 
L 3047 1100 
L 3047 0 
L 2419 0 
L 2419 1100 
L 313 1100 
L 313 1709 
L 2253 4666 
z
" transform="scale(0.015625)"/>
       </defs>
       <use xlink:href="#DejaVuSans-2212"/>
       <use xlink:href="#DejaVuSans-34" x="83.789062"/>
      </g>
     </g>
    </g>
    <g id="ytick_3">
     <g id="line2d_9">
      <g>
       <use xlink:href="#ma8613ebabe" x="57.6" y="184.355202" style="stroke: #000000; stroke-width: 0.8"/>
      </g>
     </g>
     <g id="text_9">
      <!-- −3 -->
      <g transform="translate(35.857813 188.154421) scale(0.1 -0.1)">
       <defs>
        <path id="DejaVuSans-33" d="M 2597 2516 
Q 3050 2419 3304 2112 
Q 3559 1806 3559 1356 
Q 3559 666 3084 287 
Q 2609 -91 1734 -91 
Q 1441 -91 1130 -33 
Q 819 25 488 141 
L 488 750 
Q 750 597 1062 519 
Q 1375 441 1716 441 
Q 2309 441 2620 675 
Q 2931 909 2931 1356 
Q 2931 1769 2642 2001 
Q 2353 2234 1838 2234 
L 1294 2234 
L 1294 2753 
L 1863 2753 
Q 2328 2753 2575 2939 
Q 2822 3125 2822 3475 
Q 2822 3834 2567 4026 
Q 2313 4219 1838 4219 
Q 1578 4219 1281 4162 
Q 984 4106 628 3988 
L 628 4550 
Q 988 4650 1302 4700 
Q 1616 4750 1894 4750 
Q 2613 4750 3031 4423 
Q 3450 4097 3450 3541 
Q 3450 3153 3228 2886 
Q 3006 2619 2597 2516 
z
" transform="scale(0.015625)"/>
       </defs>
       <use xlink:href="#DejaVuSans-2212"/>
       <use xlink:href="#DejaVuSans-33" x="83.789062"/>
      </g>
     </g>
    </g>
    <g id="ytick_4">
     <g id="line2d_10">
      <g>
       <use xlink:href="#ma8613ebabe" x="57.6" y="145.659553" style="stroke: #000000; stroke-width: 0.8"/>
      </g>
     </g>
     <g id="text_10">
      <!-- −2 -->
      <g transform="translate(35.857813 149.458771) scale(0.1 -0.1)">
       <defs>
        <path id="DejaVuSans-32" d="M 1228 531 
L 3431 531 
L 3431 0 
L 469 0 
L 469 531 
Q 828 903 1448 1529 
Q 2069 2156 2228 2338 
Q 2531 2678 2651 2914 
Q 2772 3150 2772 3378 
Q 2772 3750 2511 3984 
Q 2250 4219 1831 4219 
Q 1534 4219 1204 4116 
Q 875 4013 500 3803 
L 500 4441 
Q 881 4594 1212 4672 
Q 1544 4750 1819 4750 
Q 2544 4750 2975 4387 
Q 3406 4025 3406 3419 
Q 3406 3131 3298 2873 
Q 3191 2616 2906 2266 
Q 2828 2175 2409 1742 
Q 1991 1309 1228 531 
z
" transform="scale(0.015625)"/>
       </defs>
       <use xlink:href="#DejaVuSans-2212"/>
       <use xlink:href="#DejaVuSans-32" x="83.789062"/>
      </g>
     </g>
    </g>
    <g id="ytick_5">
     <g id="line2d_11">
      <g>
       <use xlink:href="#ma8613ebabe" x="57.6" y="106.963903" style="stroke: #000000; stroke-width: 0.8"/>
      </g>
     </g>
     <g id="text_11">
      <!-- −1 -->
      <g transform="translate(35.857813 110.763121) scale(0.1 -0.1)">
       <defs>
        <path id="DejaVuSans-31" d="M 794 531 
L 1825 531 
L 1825 4091 
L 703 3866 
L 703 4441 
L 1819 4666 
L 2450 4666 
L 2450 531 
L 3481 531 
L 3481 0 
L 794 0 
L 794 531 
z
" transform="scale(0.015625)"/>
       </defs>
       <use xlink:href="#DejaVuSans-2212"/>
       <use xlink:href="#DejaVuSans-31" x="83.789062"/>
      </g>
     </g>
    </g>
    <g id="ytick_6">
     <g id="line2d_12">
      <g>
       <use xlink:href="#ma8613ebabe" x="57.6" y="68.268253" style="stroke: #000000; stroke-width: 0.8"/>
      </g>
     </g>
     <g id="text_12">
      <!-- 0 -->
      <g transform="translate(44.2375 72.067472) scale(0.1 -0.1)">
       <defs>
        <path id="DejaVuSans-30" d="M 2034 4250 
Q 1547 4250 1301 3770 
Q 1056 3291 1056 2328 
Q 1056 1369 1301 889 
Q 1547 409 2034 409 
Q 2525 409 2770 889 
Q 3016 1369 3016 2328 
Q 3016 3291 2770 3770 
Q 2525 4250 2034 4250 
z
M 2034 4750 
Q 2819 4750 3233 4129 
Q 3647 3509 3647 2328 
Q 3647 1150 3233 529 
Q 2819 -91 2034 -91 
Q 1250 -91 836 529 
Q 422 1150 422 2328 
Q 422 3509 836 4129 
Q 1250 4750 2034 4750 
z
" transform="scale(0.015625)"/>
       </defs>
       <use xlink:href="#DejaVuSans-30"/>
      </g>
     </g>
    </g>
    <g id="text_13">
     <!-- Berry Curvature -->
     <g transform="translate(29.778125 202.253206) rotate(-90) scale(0.1 -0.1)">
      <defs>
       <path id="DejaVuSans-42" d="M 1259 2228 
L 1259 519 
L 2272 519 
Q 2781 519 3026 730 
Q 3272 941 3272 1375 
Q 3272 1813 3026 2020 
Q 2781 2228 2272 2228 
L 1259 2228 
z
M 1259 4147 
L 1259 2741 
L 2194 2741 
Q 2656 2741 2882 2914 
Q 3109 3088 3109 3444 
Q 3109 3797 2882 3972 
Q 2656 4147 2194 4147 
L 1259 4147 
z
M 628 4666 
L 2241 4666 
Q 2963 4666 3353 4366 
Q 3744 4066 3744 3513 
Q 3744 3084 3544 2831 
Q 3344 2578 2956 2516 
Q 3422 2416 3680 2098 
Q 3938 1781 3938 1306 
Q 3938 681 3513 340 
Q 3088 0 2303 0 
L 628 0 
L 628 4666 
z
" transform="scale(0.015625)"/>
       <path id="DejaVuSans-65" d="M 3597 1894 
L 3597 1613 
L 953 1613 
Q 991 1019 1311 708 
Q 1631 397 2203 397 
Q 2534 397 2845 478 
Q 3156 559 3463 722 
L 3463 178 
Q 3153 47 2828 -22 
Q 2503 -91 2169 -91 
Q 1331 -91 842 396 
Q 353 884 353 1716 
Q 353 2575 817 3079 
Q 1281 3584 2069 3584 
Q 2775 3584 3186 3129 
Q 3597 2675 3597 1894 
z
M 3022 2063 
Q 3016 2534 2758 2815 
Q 2500 3097 2075 3097 
Q 1594 3097 1305 2825 
Q 1016 2553 972 2059 
L 3022 2063 
z
" transform="scale(0.015625)"/>
       <path id="DejaVuSans-72" d="M 2631 2963 
Q 2534 3019 2420 3045 
Q 2306 3072 2169 3072 
Q 1681 3072 1420 2755 
Q 1159 2438 1159 1844 
L 1159 0 
L 581 0 
L 581 3500 
L 1159 3500 
L 1159 2956 
Q 1341 3275 1631 3429 
Q 1922 3584 2338 3584 
Q 2397 3584 2469 3576 
Q 2541 3569 2628 3553 
L 2631 2963 
z
" transform="scale(0.015625)"/>
       <path id="DejaVuSans-79" d="M 2059 -325 
Q 1816 -950 1584 -1140 
Q 1353 -1331 966 -1331 
L 506 -1331 
L 506 -850 
L 844 -850 
Q 1081 -850 1212 -737 
Q 1344 -625 1503 -206 
L 1606 56 
L 191 3500 
L 800 3500 
L 1894 763 
L 2988 3500 
L 3597 3500 
L 2059 -325 
z
" transform="scale(0.015625)"/>
       <path id="DejaVuSans-20" transform="scale(0.015625)"/>
       <path id="DejaVuSans-43" d="M 4122 4306 
L 4122 3641 
Q 3803 3938 3442 4084 
Q 3081 4231 2675 4231 
Q 1875 4231 1450 3742 
Q 1025 3253 1025 2328 
Q 1025 1406 1450 917 
Q 1875 428 2675 428 
Q 3081 428 3442 575 
Q 3803 722 4122 1019 
L 4122 359 
Q 3791 134 3420 21 
Q 3050 -91 2638 -91 
Q 1578 -91 968 557 
Q 359 1206 359 2328 
Q 359 3453 968 4101 
Q 1578 4750 2638 4750 
Q 3056 4750 3426 4639 
Q 3797 4528 4122 4306 
z
" transform="scale(0.015625)"/>
       <path id="DejaVuSans-75" d="M 544 1381 
L 544 3500 
L 1119 3500 
L 1119 1403 
Q 1119 906 1312 657 
Q 1506 409 1894 409 
Q 2359 409 2629 706 
Q 2900 1003 2900 1516 
L 2900 3500 
L 3475 3500 
L 3475 0 
L 2900 0 
L 2900 538 
Q 2691 219 2414 64 
Q 2138 -91 1772 -91 
Q 1169 -91 856 284 
Q 544 659 544 1381 
z
M 1991 3584 
L 1991 3584 
z
" transform="scale(0.015625)"/>
       <path id="DejaVuSans-76" d="M 191 3500 
L 800 3500 
L 1894 563 
L 2988 3500 
L 3597 3500 
L 2284 0 
L 1503 0 
L 191 3500 
z
" transform="scale(0.015625)"/>
       <path id="DejaVuSans-61" d="M 2194 1759 
Q 1497 1759 1228 1600 
Q 959 1441 959 1056 
Q 959 750 1161 570 
Q 1363 391 1709 391 
Q 2188 391 2477 730 
Q 2766 1069 2766 1631 
L 2766 1759 
L 2194 1759 
z
M 3341 1997 
L 3341 0 
L 2766 0 
L 2766 531 
Q 2569 213 2275 61 
Q 1981 -91 1556 -91 
Q 1019 -91 701 211 
Q 384 513 384 1019 
Q 384 1609 779 1909 
Q 1175 2209 1959 2209 
L 2766 2209 
L 2766 2266 
Q 2766 2663 2505 2880 
Q 2244 3097 1772 3097 
Q 1472 3097 1187 3025 
Q 903 2953 641 2809 
L 641 3341 
Q 956 3463 1253 3523 
Q 1550 3584 1831 3584 
Q 2591 3584 2966 3190 
Q 3341 2797 3341 1997 
z
" transform="scale(0.015625)"/>
       <path id="DejaVuSans-74" d="M 1172 4494 
L 1172 3500 
L 2356 3500 
L 2356 3053 
L 1172 3053 
L 1172 1153 
Q 1172 725 1289 603 
Q 1406 481 1766 481 
L 2356 481 
L 2356 0 
L 1766 0 
Q 1100 0 847 248 
Q 594 497 594 1153 
L 594 3053 
L 172 3053 
L 172 3500 
L 594 3500 
L 594 4494 
L 1172 4494 
z
" transform="scale(0.015625)"/>
      </defs>
      <use xlink:href="#DejaVuSans-42"/>
      <use xlink:href="#DejaVuSans-65" x="68.603516"/>
      <use xlink:href="#DejaVuSans-72" x="130.126953"/>
      <use xlink:href="#DejaVuSans-72" x="169.490234"/>
      <use xlink:href="#DejaVuSans-79" x="210.603516"/>
      <use xlink:href="#DejaVuSans-20" x="269.783203"/>
      <use xlink:href="#DejaVuSans-43" x="301.570312"/>
      <use xlink:href="#DejaVuSans-75" x="371.394531"/>
      <use xlink:href="#DejaVuSans-72" x="434.773438"/>
      <use xlink:href="#DejaVuSans-76" x="475.886719"/>
      <use xlink:href="#DejaVuSans-61" x="535.066406"/>
      <use xlink:href="#DejaVuSans-74" x="596.345703"/>
      <use xlink:href="#DejaVuSans-75" x="635.554688"/>
      <use xlink:href="#DejaVuSans-72" x="698.933594"/>
      <use xlink:href="#DejaVuSans-65" x="737.796875"/>
     </g>
    </g>
    <g id="text_14">
     <!-- 1e27 -->
     <g transform="translate(57.6 35.5632) scale(0.1 -0.1)">
      <defs>
       <path id="DejaVuSans-37" d="M 525 4666 
L 3525 4666 
L 3525 4397 
L 1831 0 
L 1172 0 
L 2766 4134 
L 525 4134 
L 525 4666 
z
" transform="scale(0.015625)"/>
      </defs>
      <use xlink:href="#DejaVuSans-31"/>
      <use xlink:href="#DejaVuSans-65" x="63.623047"/>
      <use xlink:href="#DejaVuSans-32" x="125.146484"/>
      <use xlink:href="#DejaVuSans-37" x="188.769531"/>
     </g>
    </g>
   </g>
   <g id="line2d_13">
    <path d="M 57.6 286.0104 
L 57.6 38.5632 
" clip-path="url(#p043005a0e6)" style="fill: none; stroke-dasharray: 5.55,2.4; stroke-dashoffset: 0; stroke: #808080; stroke-width: 1.5"/>
   </g>
   <g id="line2d_14">
    <path d="M 112.035058 286.0104 
L 112.035058 38.5632 
" clip-path="url(#p043005a0e6)" style="fill: none; stroke-dasharray: 5.55,2.4; stroke-dashoffset: 0; stroke: #808080; stroke-width: 1.5"/>
   </g>
   <g id="line2d_15">
    <path d="M 166.470117 286.0104 
L 166.470117 38.5632 
" clip-path="url(#p043005a0e6)" style="fill: none; stroke-dasharray: 5.55,2.4; stroke-dashoffset: 0; stroke: #808080; stroke-width: 1.5"/>
   </g>
   <g id="line2d_16">
    <path d="M 243.452915 286.0104 
L 243.452915 38.5632 
" clip-path="url(#p043005a0e6)" style="fill: none; stroke-dasharray: 5.55,2.4; stroke-dashoffset: 0; stroke: #808080; stroke-width: 1.5"/>
   </g>
   <g id="line2d_17">
    <path d="M 337.737202 286.0104 
L 337.737202 38.5632 
" clip-path="url(#p043005a0e6)" style="fill: none; stroke-dasharray: 5.55,2.4; stroke-dashoffset: 0; stroke: #808080; stroke-width: 1.5"/>
   </g>
   <g id="line2d_18">
    <path d="M 414.72 286.0104 
L 414.72 38.5632 
" clip-path="url(#p043005a0e6)" style="fill: none; stroke-dasharray: 5.55,2.4; stroke-dashoffset: 0; stroke: #808080; stroke-width: 1.5"/>
   </g>
   <g id="line2d_19">
    <path d="M 57.6 68.268253 
L 61.229004 68.268253 
L 64.858008 68.268253 
L 68.487012 68.268253 
L 72.116016 68.268253 
L 75.745019 68.268253 
L 79.374023 68.268253 
L 83.003027 68.268253 
L 86.632031 68.268253 
L 90.261035 68.268253 
L 93.890039 68.268253 
L 97.519043 68.268253 
L 101.148047 68.268253 
L 104.777051 68.268253 
L 108.406055 68.268253 
L 112.035058 68.268253 
L 115.664062 68.268253 
L 119.293066 68.268253 
L 122.92207 68.268253 
L 126.551074 68.268253 
L 130.180078 68.268253 
L 133.809082 68.268253 
L 137.438086 68.268253 
L 141.06709 68.268253 
L 144.696094 68.268253 
L 148.325097 68.268253 
L 151.954101 68.268253 
L 155.583105 68.268253 
L 159.212109 68.268253 
L 162.841113 68.268253 
L 166.470117 68.268253 
L 169.969335 68.268253 
L 173.468553 68.268253 
L 176.967771 68.268253 
L 180.466989 68.268253 
L 183.966207 68.268253 
L 187.465426 68.268253 
L 190.964644 68.268253 
L 194.463862 68.268253 
L 197.96308 68.268253 
L 201.462298 68.268253 
L 204.961516 68.268253 
L 208.460734 68.268253 
L 211.959952 68.268253 
L 215.45917 68.268253 
L 218.958388 68.268253 
L 222.457606 68.268253 
L 225.956825 68.268253 
L 229.456043 68.268253 
L 232.955261 68.268253 
L 236.454479 68.268253 
L 239.953697 68.268253 
L 243.452915 68.268253 
L 247.079234 68.268253 
L 250.705552 68.268253 
L 254.331871 68.268253 
L 257.95819 68.268253 
L 261.584509 68.268253 
L 265.210827 68.268253 
L 268.837146 68.268253 
L 272.463465 97.352829 
L 276.089784 67.900212 
L 279.716102 49.8108 
L 283.342421 274.7628 
L 286.96874 85.184797 
L 290.595058 80.461235 
L 294.221377 95.432995 
L 297.847696 68.268253 
L 301.474015 52.058501 
L 305.100333 68.268253 
L 308.726652 65.350945 
L 312.352971 96.449322 
L 315.97929 69.836302 
L 319.605608 70.87152 
L 323.231927 70.297131 
L 326.858246 72.506781 
L 330.484565 67.894136 
L 334.110883 67.527521 
L 337.737202 68.268253 
L 341.23642 68.268253 
L 344.735638 68.268253 
L 348.234856 68.268253 
L 351.734074 68.268253 
L 355.233292 68.268253 
L 358.732511 68.268253 
L 362.231729 68.268253 
L 365.730947 68.268253 
L 369.230165 68.268253 
L 372.729383 68.268253 
L 376.228601 68.268253 
L 379.727819 68.268253 
L 383.227037 68.268253 
L 386.726255 68.268253 
L 390.225473 68.268253 
L 393.724691 68.268253 
L 397.22391 68.268253 
L 400.723128 68.268253 
L 404.222346 68.268253 
L 407.721564 68.268253 
L 411.220782 68.268253 
L 414.72 68.268253 
" clip-path="url(#p043005a0e6)" style="fill: none; stroke: #1f77b4; stroke-width: 1.5; stroke-linecap: square"/>
   </g>
   <g id="line2d_20">
    <path d="M 57.6 68.268253 
L 61.229004 68.268253 
L 64.858008 68.268253 
L 68.487012 68.268253 
L 72.116016 68.268253 
L 75.745019 68.268253 
L 79.374023 68.268253 
L 83.003027 68.268253 
L 86.632031 68.268253 
L 90.261035 68.268253 
L 93.890039 68.268253 
L 97.519043 68.268253 
L 101.148047 68.268253 
L 104.777051 68.268253 
L 108.406055 68.268253 
L 112.035058 68.268253 
L 115.664062 68.268253 
L 119.293066 68.268253 
L 122.92207 68.268253 
L 126.551074 68.268253 
L 130.180078 68.268253 
L 133.809082 68.268253 
L 137.438086 68.268253 
L 141.06709 68.268253 
L 144.696094 68.268253 
L 148.325097 68.268253 
L 151.954101 68.268253 
L 155.583105 68.268253 
L 159.212109 68.268253 
L 162.841113 68.268253 
L 166.470117 68.268253 
L 169.969335 68.268253 
L 173.468553 68.268253 
L 176.967771 68.268253 
L 180.466989 68.268253 
L 183.966207 68.268253 
L 187.465426 68.268253 
L 190.964644 68.268253 
L 194.463862 68.268253 
L 197.96308 68.268253 
L 201.462298 68.268253 
L 204.961516 68.268253 
L 208.460734 68.268253 
L 211.959952 68.268253 
L 215.45917 68.268253 
L 218.958388 68.268253 
L 222.457606 68.268253 
L 225.956825 68.268253 
L 229.456043 68.268253 
L 232.955261 68.268253 
L 236.454479 68.268253 
L 239.953697 68.268253 
L 243.452915 68.268253 
L 247.079234 68.268253 
L 250.705552 68.268253 
L 254.331871 68.268253 
L 257.95819 68.268253 
L 261.584509 68.268253 
L 265.210827 68.268253 
L 268.837146 68.268253 
L 272.463465 68.268253 
L 276.089784 68.268253 
L 279.716102 68.268253 
L 283.342421 68.268253 
L 286.96874 68.268253 
L 290.595058 68.268253 
L 294.221377 68.268253 
L 297.847696 68.268253 
L 301.474015 68.268253 
L 305.100333 68.268253 
L 308.726652 68.268253 
L 312.352971 68.268253 
L 315.97929 68.268253 
L 319.605608 68.268253 
L 323.231927 68.268253 
L 326.858246 68.268253 
L 330.484565 68.268253 
L 334.110883 68.268253 
L 337.737202 68.268253 
L 341.23642 68.268253 
L 344.735638 68.268253 
L 348.234856 68.268253 
L 351.734074 68.268253 
L 355.233292 68.268253 
L 358.732511 68.268253 
L 362.231729 68.268253 
L 365.730947 68.268253 
L 369.230165 68.268253 
L 372.729383 68.268253 
L 376.228601 68.268253 
L 379.727819 68.268253 
L 383.227037 68.268253 
L 386.726255 68.268253 
L 390.225473 68.268253 
L 393.724691 68.268253 
L 397.22391 68.268253 
L 400.723128 68.268253 
L 404.222346 68.268253 
L 407.721564 68.268253 
L 411.220782 68.268253 
L 414.72 68.268253 
" clip-path="url(#p043005a0e6)" style="fill: none; stroke: #ff7f0e; stroke-width: 1.5; stroke-linecap: square"/>
   </g>
   <g id="line2d_21">
    <path d="M 57.6 68.268253 
L 61.229004 68.268253 
L 64.858008 68.268253 
L 68.487012 68.268253 
L 72.116016 68.268253 
L 75.745019 68.268253 
L 79.374023 68.268253 
L 83.003027 68.268253 
L 86.632031 68.268253 
L 90.261035 68.268253 
L 93.890039 68.268253 
L 97.519043 68.268253 
L 101.148047 68.268253 
L 104.777051 68.268253 
L 108.406055 68.268253 
L 112.035058 68.268253 
L 115.664062 68.268253 
L 119.293066 68.268253 
L 122.92207 68.268253 
L 126.551074 68.268253 
L 130.180078 68.268253 
L 133.809082 68.268253 
L 137.438086 68.268253 
L 141.06709 68.268253 
L 144.696094 68.268253 
L 148.325097 68.268253 
L 151.954101 68.268253 
L 155.583105 68.268253 
L 159.212109 68.268253 
L 162.841113 68.268253 
L 166.470117 68.268253 
L 169.969335 68.268253 
L 173.468553 68.268253 
L 176.967771 68.268253 
L 180.466989 68.268253 
L 183.966207 68.268253 
L 187.465426 68.268253 
L 190.964644 68.268253 
L 194.463862 68.268253 
L 197.96308 68.268253 
L 201.462298 68.268253 
L 204.961516 68.268253 
L 208.460734 68.268253 
L 211.959952 68.268253 
L 215.45917 68.268253 
L 218.958388 68.268253 
L 222.457606 68.268253 
L 225.956825 68.268253 
L 229.456043 68.268253 
L 232.955261 68.268253 
L 236.454479 68.268253 
L 239.953697 68.268253 
L 243.452915 68.268253 
L 247.079234 68.268253 
L 250.705552 68.268253 
L 254.331871 68.268253 
L 257.95819 68.268253 
L 261.584509 68.268253 
L 265.210827 68.268253 
L 268.837146 68.268253 
L 272.463465 68.268253 
L 276.089784 68.268253 
L 279.716102 68.268253 
L 283.342421 68.268253 
L 286.96874 68.268253 
L 290.595058 68.268253 
L 294.221377 68.268253 
L 297.847696 68.268253 
L 301.474015 68.268253 
L 305.100333 68.268253 
L 308.726652 68.268253 
L 312.352971 68.268253 
L 315.97929 68.268253 
L 319.605608 68.268253 
L 323.231927 68.268253 
L 326.858246 68.268253 
L 330.484565 68.268253 
L 334.110883 68.268253 
L 337.737202 68.268253 
L 341.23642 68.268253 
L 344.735638 68.268253 
L 348.234856 68.268253 
L 351.734074 68.268253 
L 355.233292 68.268253 
L 358.732511 68.268253 
L 362.231729 68.268253 
L 365.730947 68.268253 
L 369.230165 68.268253 
L 372.729383 68.268253 
L 376.228601 68.268253 
L 379.727819 68.268253 
L 383.227037 68.268253 
L 386.726255 68.268253 
L 390.225473 68.268253 
L 393.724691 68.268253 
L 397.22391 68.268253 
L 400.723128 68.268253 
L 404.222346 68.268253 
L 407.721564 68.268253 
L 411.220782 68.268253 
L 414.72 68.268253 
" clip-path="url(#p043005a0e6)" style="fill: none; stroke: #2ca02c; stroke-width: 1.5; stroke-linecap: square"/>
   </g>
   <g id="line2d_22">
    <path d="M 57.6 68.268253 
L 61.229004 68.268253 
L 64.858008 68.268253 
L 68.487012 68.268253 
L 72.116016 68.268253 
L 75.745019 68.268253 
L 79.374023 68.268253 
L 83.003027 68.268253 
L 86.632031 68.268253 
L 90.261035 68.268253 
L 93.890039 68.268253 
L 97.519043 68.268253 
L 101.148047 68.268253 
L 104.777051 68.268253 
L 108.406055 68.268253 
L 112.035058 68.268253 
L 115.664062 68.268253 
L 119.293066 68.268253 
L 122.92207 68.268253 
L 126.551074 68.268253 
L 130.180078 68.268253 
L 133.809082 68.268253 
L 137.438086 68.268253 
L 141.06709 68.268253 
L 144.696094 68.268253 
L 148.325097 68.268253 
L 151.954101 68.268253 
L 155.583105 68.268253 
L 159.212109 68.268253 
L 162.841113 68.268253 
L 166.470117 68.268253 
L 169.969335 68.268253 
L 173.468553 68.268253 
L 176.967771 68.268253 
L 180.466989 68.268253 
L 183.966207 68.268253 
L 187.465426 68.268253 
L 190.964644 68.268253 
L 194.463862 68.268253 
L 197.96308 68.268253 
L 201.462298 68.268253 
L 204.961516 68.268253 
L 208.460734 68.268253 
L 211.959952 68.268253 
L 215.45917 68.268253 
L 218.958388 68.268253 
L 222.457606 68.268253 
L 225.956825 68.268253 
L 229.456043 68.268253 
L 232.955261 68.268253 
L 236.454479 68.268253 
L 239.953697 68.268253 
L 243.452915 68.268253 
L 247.079234 68.268253 
L 250.705552 68.268253 
L 254.331871 68.268253 
L 257.95819 68.268253 
L 261.584509 68.268253 
L 265.210827 68.268253 
L 268.837146 68.268253 
L 272.463465 68.268253 
L 276.089784 68.268253 
L 279.716102 68.268253 
L 283.342421 68.268253 
L 286.96874 68.268253 
L 290.595058 68.268253 
L 294.221377 68.268253 
L 297.847696 68.268253 
L 301.474015 68.268253 
L 305.100333 68.268253 
L 308.726652 68.268253 
L 312.352971 68.268253 
L 315.97929 68.268253 
L 319.605608 68.268253 
L 323.231927 68.268253 
L 326.858246 68.268253 
L 330.484565 68.268253 
L 334.110883 68.268253 
L 337.737202 68.268253 
L 341.23642 68.268253 
L 344.735638 68.268253 
L 348.234856 68.268253 
L 351.734074 68.268253 
L 355.233292 68.268253 
L 358.732511 68.268253 
L 362.231729 68.268253 
L 365.730947 68.268253 
L 369.230165 68.268253 
L 372.729383 68.268253 
L 376.228601 68.268253 
L 379.727819 68.268253 
L 383.227037 68.268253 
L 386.726255 68.268253 
L 390.225473 68.268253 
L 393.724691 68.268253 
L 397.22391 68.268253 
L 400.723128 68.268253 
L 404.222346 68.268253 
L 407.721564 68.268253 
L 411.220782 68.268253 
L 414.72 68.268253 
" clip-path="url(#p043005a0e6)" style="fill: none; stroke: #d62728; stroke-width: 1.5; stroke-linecap: square"/>
   </g>
   <g id="line2d_23">
    <path d="M 57.6 68.268253 
L 61.229004 68.268253 
L 64.858008 68.268253 
L 68.487012 68.268253 
L 72.116016 68.268253 
L 75.745019 68.268253 
L 79.374023 68.268253 
L 83.003027 68.268253 
L 86.632031 68.268253 
L 90.261035 68.268253 
L 93.890039 68.268253 
L 97.519043 68.268253 
L 101.148047 68.268253 
L 104.777051 68.268253 
L 108.406055 68.268253 
L 112.035058 68.268253 
L 115.664062 68.268253 
L 119.293066 68.268253 
L 122.92207 68.268253 
L 126.551074 68.268253 
L 130.180078 68.268253 
L 133.809082 68.268253 
L 137.438086 68.268253 
L 141.06709 68.268253 
L 144.696094 68.268253 
L 148.325097 68.268253 
L 151.954101 68.268253 
L 155.583105 68.268253 
L 159.212109 68.268253 
L 162.841113 68.268253 
L 166.470117 68.268253 
L 169.969335 68.268253 
L 173.468553 68.268253 
L 176.967771 68.268253 
L 180.466989 68.268253 
L 183.966207 68.268253 
L 187.465426 68.268253 
L 190.964644 68.268253 
L 194.463862 68.268253 
L 197.96308 68.268253 
L 201.462298 68.268253 
L 204.961516 68.268253 
L 208.460734 68.268253 
L 211.959952 68.268253 
L 215.45917 68.268253 
L 218.958388 68.268253 
L 222.457606 68.268253 
L 225.956825 68.268253 
L 229.456043 68.268253 
L 232.955261 68.268253 
L 236.454479 68.268253 
L 239.953697 68.268253 
L 243.452915 68.268253 
L 247.079234 68.268253 
L 250.705552 68.268253 
L 254.331871 67.65625 
L 257.95819 67.57325 
L 261.584509 84.86634 
L 265.210827 68.268253 
L 268.837146 67.394178 
L 272.463465 68.268253 
L 276.089784 68.268253 
L 279.716102 68.268253 
L 283.342421 68.268253 
L 286.96874 68.268253 
L 290.595058 68.268253 
L 294.221377 68.268253 
L 297.847696 68.268253 
L 301.474015 68.268253 
L 305.100333 68.268253 
L 308.726652 68.268253 
L 312.352971 68.268253 
L 315.97929 68.268253 
L 319.605608 68.268253 
L 323.231927 68.268253 
L 326.858246 68.268253 
L 330.484565 68.268253 
L 334.110883 68.268253 
L 337.737202 68.268253 
L 341.23642 68.268253 
L 344.735638 68.268253 
L 348.234856 68.268253 
L 351.734074 68.268253 
L 355.233292 68.268253 
L 358.732511 68.268253 
L 362.231729 68.268253 
L 365.730947 68.268253 
L 369.230165 68.268253 
L 372.729383 68.268253 
L 376.228601 68.268253 
L 379.727819 68.268253 
L 383.227037 68.268253 
L 386.726255 68.268253 
L 390.225473 68.268253 
L 393.724691 68.268253 
L 397.22391 68.268253 
L 400.723128 68.268253 
L 404.222346 68.268253 
L 407.721564 68.268253 
L 411.220782 68.268253 
L 414.72 68.268253 
" clip-path="url(#p043005a0e6)" style="fill: none; stroke: #9467bd; stroke-width: 1.5; stroke-linecap: square"/>
   </g>
   <g id="line2d_24">
    <path d="M 57.6 68.268253 
L 61.229004 68.268253 
L 64.858008 68.268253 
L 68.487012 68.268253 
L 72.116016 68.268253 
L 75.745019 68.268253 
L 79.374023 68.268253 
L 83.003027 68.268253 
L 86.632031 68.268253 
L 90.261035 68.268253 
L 93.890039 68.268253 
L 97.519043 68.268253 
L 101.148047 68.268253 
L 104.777051 68.268253 
L 108.406055 68.268253 
L 112.035058 68.268253 
L 115.664062 68.268253 
L 119.293066 68.268253 
L 122.92207 68.268253 
L 126.551074 68.268253 
L 130.180078 68.268253 
L 133.809082 68.268253 
L 137.438086 68.268253 
L 141.06709 68.268253 
L 144.696094 68.268253 
L 148.325097 68.268253 
L 151.954101 68.268253 
L 155.583105 68.268253 
L 159.212109 68.268253 
L 162.841113 68.268253 
L 166.470117 68.268253 
L 169.969335 68.268253 
L 173.468553 68.268253 
L 176.967771 68.268253 
L 180.466989 68.268253 
L 183.966207 68.268253 
L 187.465426 68.268253 
L 190.964644 68.268253 
L 194.463862 68.268253 
L 197.96308 68.268253 
L 201.462298 68.268253 
L 204.961516 68.268253 
L 208.460734 68.268253 
L 211.959952 68.268253 
L 215.45917 68.268253 
L 218.958388 68.268253 
L 222.457606 68.268253 
L 225.956825 68.268253 
L 229.456043 68.268253 
L 232.955261 68.268253 
L 236.454479 68.268253 
L 239.953697 68.268253 
L 243.452915 68.268253 
L 247.079234 68.268253 
L 250.705552 68.268253 
L 254.331871 68.268253 
L 257.95819 68.268253 
L 261.584509 68.268253 
L 265.210827 68.268253 
L 268.837146 68.268253 
L 272.463465 68.268253 
L 276.089784 68.268253 
L 279.716102 68.268253 
L 283.342421 68.268253 
L 286.96874 68.268253 
L 290.595058 68.268253 
L 294.221377 68.268253 
L 297.847696 68.268253 
L 301.474015 68.268253 
L 305.100333 68.268253 
L 308.726652 68.268253 
L 312.352971 68.268253 
L 315.97929 68.268253 
L 319.605608 68.268253 
L 323.231927 68.268253 
L 326.858246 68.268253 
L 330.484565 68.268253 
L 334.110883 68.268253 
L 337.737202 68.268253 
L 341.23642 68.268253 
L 344.735638 68.268253 
L 348.234856 68.268253 
L 351.734074 68.268253 
L 355.233292 68.268253 
L 358.732511 68.268253 
L 362.231729 68.268253 
L 365.730947 68.268253 
L 369.230165 68.268253 
L 372.729383 68.268253 
L 376.228601 68.268253 
L 379.727819 68.268253 
L 383.227037 68.268253 
L 386.726255 68.268253 
L 390.225473 68.268253 
L 393.724691 68.268253 
L 397.22391 68.268253 
L 400.723128 68.268253 
L 404.222346 68.268253 
L 407.721564 68.268253 
L 411.220782 68.268253 
L 414.72 68.268253 
" clip-path="url(#p043005a0e6)" style="fill: none; stroke: #8c564b; stroke-width: 1.5; stroke-linecap: square"/>
   </g>
   <g id="line2d_25">
    <path d="M 57.6 68.268253 
L 61.229004 68.268253 
L 64.858008 68.268253 
L 68.487012 68.268253 
L 72.116016 68.268253 
L 75.745019 68.268253 
L 79.374023 68.268253 
L 83.003027 68.268253 
L 86.632031 68.268253 
L 90.261035 68.268253 
L 93.890039 68.268253 
L 97.519043 68.268253 
L 101.148047 68.268253 
L 104.777051 68.268253 
L 108.406055 68.268253 
L 112.035058 68.268253 
L 115.664062 68.268253 
L 119.293066 68.268253 
L 122.92207 68.268253 
L 126.551074 68.268253 
L 130.180078 68.268253 
L 133.809082 68.268253 
L 137.438086 68.268253 
L 141.06709 68.268253 
L 144.696094 68.268253 
L 148.325097 68.268253 
L 151.954101 68.268253 
L 155.583105 68.268253 
L 159.212109 68.268253 
L 162.841113 68.268253 
L 166.470117 68.268253 
L 169.969335 68.268253 
L 173.468553 68.268253 
L 176.967771 68.268253 
L 180.466989 68.268253 
L 183.966207 68.268253 
L 187.465426 68.268253 
L 190.964644 68.268253 
L 194.463862 68.268253 
L 197.96308 68.268253 
L 201.462298 68.268253 
L 204.961516 68.268253 
L 208.460734 68.268253 
L 211.959952 68.268253 
L 215.45917 68.268253 
L 218.958388 68.268253 
L 222.457606 68.268253 
L 225.956825 68.268253 
L 229.456043 68.268253 
L 232.955261 68.268253 
L 236.454479 68.268253 
L 239.953697 68.268253 
L 243.452915 68.268253 
L 247.079234 68.268253 
L 250.705552 68.268253 
L 254.331871 68.268253 
L 257.95819 68.268253 
L 261.584509 68.268253 
L 265.210827 68.268253 
L 268.837146 68.268253 
L 272.463465 68.268253 
L 276.089784 68.268253 
L 279.716102 68.268253 
L 283.342421 68.268253 
L 286.96874 68.268253 
L 290.595058 68.268253 
L 294.221377 68.268253 
L 297.847696 68.268253 
L 301.474015 68.268253 
L 305.100333 68.268253 
L 308.726652 68.268253 
L 312.352971 68.268253 
L 315.97929 68.268253 
L 319.605608 68.268253 
L 323.231927 68.268253 
L 326.858246 68.268253 
L 330.484565 68.268253 
L 334.110883 68.268253 
L 337.737202 68.268253 
L 341.23642 68.268253 
L 344.735638 68.268253 
L 348.234856 68.268253 
L 351.734074 68.268253 
L 355.233292 68.268253 
L 358.732511 68.268253 
L 362.231729 68.268253 
L 365.730947 68.268253 
L 369.230165 68.268253 
L 372.729383 68.268253 
L 376.228601 68.268253 
L 379.727819 68.268253 
L 383.227037 68.268253 
L 386.726255 68.268253 
L 390.225473 68.268253 
L 393.724691 68.268253 
L 397.22391 68.268253 
L 400.723128 68.268253 
L 404.222346 68.268253 
L 407.721564 68.268253 
L 411.220782 68.268253 
L 414.72 68.268253 
" clip-path="url(#p043005a0e6)" style="fill: none; stroke: #e377c2; stroke-width: 1.5; stroke-linecap: square"/>
   </g>
   <g id="line2d_26">
    <path d="M 57.6 68.268253 
L 61.229004 68.268253 
L 64.858008 68.268253 
L 68.487012 68.268253 
L 72.116016 68.268253 
L 75.745019 68.268253 
L 79.374023 68.268253 
L 83.003027 68.268253 
L 86.632031 68.268253 
L 90.261035 68.268253 
L 93.890039 68.268253 
L 97.519043 68.268253 
L 101.148047 68.268253 
L 104.777051 68.268253 
L 108.406055 68.268253 
L 112.035058 68.268253 
L 115.664062 68.268253 
L 119.293066 68.268253 
L 122.92207 68.268253 
L 126.551074 68.268253 
L 130.180078 68.268253 
L 133.809082 68.268253 
L 137.438086 68.268253 
L 141.06709 68.268253 
L 144.696094 68.268253 
L 148.325097 68.268253 
L 151.954101 68.268253 
L 155.583105 68.268253 
L 159.212109 68.268253 
L 162.841113 68.268253 
L 166.470117 68.268253 
L 169.969335 68.268253 
L 173.468553 68.268253 
L 176.967771 68.268253 
L 180.466989 68.268253 
L 183.966207 68.268253 
L 187.465426 68.268253 
L 190.964644 68.268253 
L 194.463862 68.268253 
L 197.96308 68.268253 
L 201.462298 68.268253 
L 204.961516 68.268253 
L 208.460734 68.268253 
L 211.959952 68.268253 
L 215.45917 68.268253 
L 218.958388 68.268253 
L 222.457606 68.268253 
L 225.956825 68.268253 
L 229.456043 68.268253 
L 232.955261 68.268253 
L 236.454479 68.268253 
L 239.953697 68.268253 
L 243.452915 68.268253 
L 247.079234 68.268253 
L 250.705552 68.268253 
L 254.331871 68.268253 
L 257.95819 68.268253 
L 261.584509 68.268253 
L 265.210827 68.268253 
L 268.837146 68.268253 
L 272.463465 68.268253 
L 276.089784 68.268253 
L 279.716102 68.268253 
L 283.342421 68.268253 
L 286.96874 68.268253 
L 290.595058 68.268253 
L 294.221377 68.268253 
L 297.847696 68.268253 
L 301.474015 68.268253 
L 305.100333 68.268253 
L 308.726652 68.268253 
L 312.352971 68.268253 
L 315.97929 68.268253 
L 319.605608 68.268253 
L 323.231927 68.268253 
L 326.858246 68.268253 
L 330.484565 68.268253 
L 334.110883 68.268253 
L 337.737202 68.268253 
L 341.23642 68.268253 
L 344.735638 68.268253 
L 348.234856 68.268253 
L 351.734074 68.268253 
L 355.233292 68.268253 
L 358.732511 68.268253 
L 362.231729 68.268253 
L 365.730947 68.268253 
L 369.230165 68.268253 
L 372.729383 68.268253 
L 376.228601 68.268253 
L 379.727819 68.268253 
L 383.227037 68.268253 
L 386.726255 68.268253 
L 390.225473 68.268253 
L 393.724691 68.268253 
L 397.22391 68.268253 
L 400.723128 68.268253 
L 404.222346 68.268253 
L 407.721564 68.268253 
L 411.220782 68.268253 
L 414.72 68.268253 
" clip-path="url(#p043005a0e6)" style="fill: none; stroke: #7f7f7f; stroke-width: 1.5; stroke-linecap: square"/>
   </g>
   <g id="line2d_27">
    <path d="M 57.6 68.268253 
L 61.229004 68.268253 
L 64.858008 68.268253 
L 68.487012 68.268253 
L 72.116016 68.268253 
L 75.745019 68.268253 
L 79.374023 68.268253 
L 83.003027 68.268253 
L 86.632031 68.268253 
L 90.261035 68.268253 
L 93.890039 68.268253 
L 97.519043 68.268253 
L 101.148047 68.268253 
L 104.777051 68.268253 
L 108.406055 68.268253 
L 112.035058 68.268253 
L 115.664062 68.268253 
L 119.293066 68.268253 
L 122.92207 68.268253 
L 126.551074 68.268253 
L 130.180078 68.268253 
L 133.809082 68.268253 
L 137.438086 68.268253 
L 141.06709 68.268253 
L 144.696094 68.268253 
L 148.325097 68.268253 
L 151.954101 68.268253 
L 155.583105 68.268253 
L 159.212109 68.268253 
L 162.841113 68.268253 
L 166.470117 68.268253 
L 169.969335 68.268253 
L 173.468553 68.268253 
L 176.967771 68.268253 
L 180.466989 68.268253 
L 183.966207 68.268253 
L 187.465426 68.268253 
L 190.964644 68.268253 
L 194.463862 68.268253 
L 197.96308 68.268253 
L 201.462298 68.268253 
L 204.961516 68.268253 
L 208.460734 68.268253 
L 211.959952 68.268253 
L 215.45917 68.268253 
L 218.958388 68.268253 
L 222.457606 68.268253 
L 225.956825 68.268253 
L 229.456043 68.268253 
L 232.955261 68.268253 
L 236.454479 68.268253 
L 239.953697 68.268253 
L 243.452915 68.268253 
L 247.079234 68.268253 
L 250.705552 68.268253 
L 254.331871 68.268253 
L 257.95819 68.268253 
L 261.584509 68.268253 
L 265.210827 68.268253 
L 268.837146 68.268253 
L 272.463465 68.268253 
L 276.089784 68.268253 
L 279.716102 68.268253 
L 283.342421 68.268253 
L 286.96874 68.268253 
L 290.595058 68.268253 
L 294.221377 68.268253 
L 297.847696 68.268253 
L 301.474015 68.268253 
L 305.100333 68.268253 
L 308.726652 68.268253 
L 312.352971 68.268253 
L 315.97929 68.268253 
L 319.605608 68.268253 
L 323.231927 68.268253 
L 326.858246 68.268253 
L 330.484565 68.268253 
L 334.110883 68.268253 
L 337.737202 68.268253 
L 341.23642 68.268253 
L 344.735638 68.268253 
L 348.234856 68.268253 
L 351.734074 68.268253 
L 355.233292 68.268253 
L 358.732511 68.268253 
L 362.231729 68.268253 
L 365.730947 68.268253 
L 369.230165 68.268253 
L 372.729383 68.268253 
L 376.228601 68.268253 
L 379.727819 68.268253 
L 383.227037 68.268253 
L 386.726255 68.268253 
L 390.225473 68.268253 
L 393.724691 68.268253 
L 397.22391 68.268253 
L 400.723128 68.268253 
L 404.222346 68.268253 
L 407.721564 68.268253 
L 411.220782 68.268253 
L 414.72 68.268253 
" clip-path="url(#p043005a0e6)" style="fill: none; stroke: #bcbd22; stroke-width: 1.5; stroke-linecap: square"/>
   </g>
   <g id="line2d_28">
    <path d="M 57.6 68.268253 
L 61.229004 68.268253 
L 64.858008 68.268253 
L 68.487012 68.268253 
L 72.116016 68.268253 
L 75.745019 68.268253 
L 79.374023 68.268253 
L 83.003027 68.268253 
L 86.632031 68.268253 
L 90.261035 68.268253 
L 93.890039 68.268253 
L 97.519043 68.268253 
L 101.148047 68.268253 
L 104.777051 68.268253 
L 108.406055 68.268253 
L 112.035058 68.268253 
L 115.664062 68.268253 
L 119.293066 68.268253 
L 122.92207 68.268253 
L 126.551074 68.268253 
L 130.180078 68.268253 
L 133.809082 68.268253 
L 137.438086 68.268253 
L 141.06709 68.268253 
L 144.696094 68.268253 
L 148.325097 68.268253 
L 151.954101 68.268253 
L 155.583105 68.268253 
L 159.212109 68.268253 
L 162.841113 68.268253 
L 166.470117 68.268253 
L 169.969335 68.268253 
L 173.468553 68.268253 
L 176.967771 68.268253 
L 180.466989 68.268253 
L 183.966207 68.268253 
L 187.465426 68.268253 
L 190.964644 68.268253 
L 194.463862 68.268253 
L 197.96308 68.268253 
L 201.462298 68.268253 
L 204.961516 68.268253 
L 208.460734 68.268253 
L 211.959952 68.268253 
L 215.45917 68.268253 
L 218.958388 68.268253 
L 222.457606 68.268253 
L 225.956825 68.268253 
L 229.456043 68.268253 
L 232.955261 68.268253 
L 236.454479 68.268253 
L 239.953697 68.268253 
L 243.452915 68.268253 
L 247.079234 68.268253 
L 250.705552 68.268253 
L 254.331871 68.268253 
L 257.95819 68.268253 
L 261.584509 68.268253 
L 265.210827 68.268253 
L 268.837146 68.268253 
L 272.463465 68.268253 
L 276.089784 68.268253 
L 279.716102 68.268253 
L 283.342421 68.268253 
L 286.96874 68.268253 
L 290.595058 68.268253 
L 294.221377 68.268253 
L 297.847696 68.268253 
L 301.474015 68.268253 
L 305.100333 68.268253 
L 308.726652 68.268253 
L 312.352971 68.268253 
L 315.97929 68.268253 
L 319.605608 68.268253 
L 323.231927 68.268253 
L 326.858246 68.268253 
L 330.484565 68.268253 
L 334.110883 68.268253 
L 337.737202 68.268253 
L 341.23642 68.268253 
L 344.735638 68.268253 
L 348.234856 68.268253 
L 351.734074 68.268253 
L 355.233292 68.268253 
L 358.732511 68.268253 
L 362.231729 68.268253 
L 365.730947 68.268253 
L 369.230165 68.268253 
L 372.729383 68.268253 
L 376.228601 68.268253 
L 379.727819 68.268253 
L 383.227037 68.268253 
L 386.726255 68.268253 
L 390.225473 68.268253 
L 393.724691 68.268253 
L 397.22391 68.268253 
L 400.723128 68.268253 
L 404.222346 68.268253 
L 407.721564 68.268253 
L 411.220782 68.268253 
L 414.72 68.268253 
" clip-path="url(#p043005a0e6)" style="fill: none; stroke: #17becf; stroke-width: 1.5; stroke-linecap: square"/>
   </g>
   <g id="patch_3">
    <path d="M 57.6 286.0104 
L 57.6 38.5632 
" style="fill: none; stroke: #000000; stroke-width: 0.8; stroke-linejoin: miter; stroke-linecap: square"/>
   </g>
   <g id="patch_4">
    <path d="M 414.72 286.0104 
L 414.72 38.5632 
" style="fill: none; stroke: #000000; stroke-width: 0.8; stroke-linejoin: miter; stroke-linecap: square"/>
   </g>
   <g id="patch_5">
    <path d="M 57.6 286.0104 
L 414.72 286.0104 
" style="fill: none; stroke: #000000; stroke-width: 0.8; stroke-linejoin: miter; stroke-linecap: square"/>
   </g>
   <g id="patch_6">
    <path d="M 57.6 38.5632 
L 414.72 38.5632 
" style="fill: none; stroke: #000000; stroke-width: 0.8; stroke-linejoin: miter; stroke-linecap: square"/>
   </g>
   <g id="legend_1">
    <g id="patch_7">
     <path d="M 357.995 281.0104 
L 407.72 281.0104 
Q 409.72 281.0104 409.72 279.0104 
L 409.72 130.4479 
Q 409.72 128.4479 407.72 128.4479 
L 357.995 128.4479 
Q 355.995 128.4479 355.995 130.4479 
L 355.995 279.0104 
Q 355.995 281.0104 357.995 281.0104 
z
" style="fill: #ffffff; opacity: 0.8; stroke: #cccccc; stroke-linejoin: miter"/>
    </g>
    <g id="line2d_29">
     <path d="M 359.995 136.546337 
L 369.995 136.546337 
L 379.995 136.546337 
" style="fill: none; stroke: #1f77b4; stroke-width: 1.5; stroke-linecap: square"/>
    </g>
    <g id="text_15">
     <!-- 1_2 -->
     <g transform="translate(387.995 140.046337) scale(0.1 -0.1)">
      <defs>
       <path id="DejaVuSans-5f" d="M 3263 -1063 
L 3263 -1509 
L -63 -1509 
L -63 -1063 
L 3263 -1063 
z
" transform="scale(0.015625)"/>
      </defs>
      <use xlink:href="#DejaVuSans-31"/>
      <use xlink:href="#DejaVuSans-5f" x="63.623047"/>
      <use xlink:href="#DejaVuSans-32" x="113.623047"/>
     </g>
    </g>
    <g id="line2d_30">
     <path d="M 359.995 151.502587 
L 369.995 151.502587 
L 379.995 151.502587 
" style="fill: none; stroke: #ff7f0e; stroke-width: 1.5; stroke-linecap: square"/>
    </g>
    <g id="text_16">
     <!-- 1_3 -->
     <g transform="translate(387.995 155.002587) scale(0.1 -0.1)">
      <use xlink:href="#DejaVuSans-31"/>
      <use xlink:href="#DejaVuSans-5f" x="63.623047"/>
      <use xlink:href="#DejaVuSans-33" x="113.623047"/>
     </g>
    </g>
    <g id="line2d_31">
     <path d="M 359.995 166.458837 
L 369.995 166.458837 
L 379.995 166.458837 
" style="fill: none; stroke: #2ca02c; stroke-width: 1.5; stroke-linecap: square"/>
    </g>
    <g id="text_17">
     <!-- 1_4 -->
     <g transform="translate(387.995 169.958837) scale(0.1 -0.1)">
      <use xlink:href="#DejaVuSans-31"/>
      <use xlink:href="#DejaVuSans-5f" x="63.623047"/>
      <use xlink:href="#DejaVuSans-34" x="113.623047"/>
     </g>
    </g>
    <g id="line2d_32">
     <path d="M 359.995 181.415087 
L 369.995 181.415087 
L 379.995 181.415087 
" style="fill: none; stroke: #d62728; stroke-width: 1.5; stroke-linecap: square"/>
    </g>
    <g id="text_18">
     <!-- 1_5 -->
     <g transform="translate(387.995 184.915087) scale(0.1 -0.1)">
      <use xlink:href="#DejaVuSans-31"/>
      <use xlink:href="#DejaVuSans-5f" x="63.623047"/>
      <use xlink:href="#DejaVuSans-35" x="113.623047"/>
     </g>
    </g>
    <g id="line2d_33">
     <path d="M 359.995 196.371337 
L 369.995 196.371337 
L 379.995 196.371337 
" style="fill: none; stroke: #9467bd; stroke-width: 1.5; stroke-linecap: square"/>
    </g>
    <g id="text_19">
     <!-- 2_3 -->
     <g transform="translate(387.995 199.871337) scale(0.1 -0.1)">
      <use xlink:href="#DejaVuSans-32"/>
      <use xlink:href="#DejaVuSans-5f" x="63.623047"/>
      <use xlink:href="#DejaVuSans-33" x="113.623047"/>
     </g>
    </g>
    <g id="line2d_34">
     <path d="M 359.995 211.327587 
L 369.995 211.327587 
L 379.995 211.327587 
" style="fill: none; stroke: #8c564b; stroke-width: 1.5; stroke-linecap: square"/>
    </g>
    <g id="text_20">
     <!-- 2_4 -->
     <g transform="translate(387.995 214.827587) scale(0.1 -0.1)">
      <use xlink:href="#DejaVuSans-32"/>
      <use xlink:href="#DejaVuSans-5f" x="63.623047"/>
      <use xlink:href="#DejaVuSans-34" x="113.623047"/>
     </g>
    </g>
    <g id="line2d_35">
     <path d="M 359.995 226.283837 
L 369.995 226.283837 
L 379.995 226.283837 
" style="fill: none; stroke: #e377c2; stroke-width: 1.5; stroke-linecap: square"/>
    </g>
    <g id="text_21">
     <!-- 2_5 -->
     <g transform="translate(387.995 229.783837) scale(0.1 -0.1)">
      <use xlink:href="#DejaVuSans-32"/>
      <use xlink:href="#DejaVuSans-5f" x="63.623047"/>
      <use xlink:href="#DejaVuSans-35" x="113.623047"/>
     </g>
    </g>
    <g id="line2d_36">
     <path d="M 359.995 241.240087 
L 369.995 241.240087 
L 379.995 241.240087 
" style="fill: none; stroke: #7f7f7f; stroke-width: 1.5; stroke-linecap: square"/>
    </g>
    <g id="text_22">
     <!-- 3_4 -->
     <g transform="translate(387.995 244.740087) scale(0.1 -0.1)">
      <use xlink:href="#DejaVuSans-33"/>
      <use xlink:href="#DejaVuSans-5f" x="63.623047"/>
      <use xlink:href="#DejaVuSans-34" x="113.623047"/>
     </g>
    </g>
    <g id="line2d_37">
     <path d="M 359.995 256.196337 
L 369.995 256.196337 
L 379.995 256.196337 
" style="fill: none; stroke: #bcbd22; stroke-width: 1.5; stroke-linecap: square"/>
    </g>
    <g id="text_23">
     <!-- 3_5 -->
     <g transform="translate(387.995 259.696337) scale(0.1 -0.1)">
      <use xlink:href="#DejaVuSans-33"/>
      <use xlink:href="#DejaVuSans-5f" x="63.623047"/>
      <use xlink:href="#DejaVuSans-35" x="113.623047"/>
     </g>
    </g>
    <g id="line2d_38">
     <path d="M 359.995 271.152587 
L 369.995 271.152587 
L 379.995 271.152587 
" style="fill: none; stroke: #17becf; stroke-width: 1.5; stroke-linecap: square"/>
    </g>
    <g id="text_24">
     <!-- 4_5 -->
     <g transform="translate(387.995 274.652587) scale(0.1 -0.1)">
      <use xlink:href="#DejaVuSans-34"/>
      <use xlink:href="#DejaVuSans-5f" x="63.623047"/>
      <use xlink:href="#DejaVuSans-35" x="113.623047"/>
     </g>
    </g>
   </g>
  </g>
 </g>
 <defs>
  <clipPath id="p043005a0e6">
   <rect x="57.6" y="38.5632" width="357.12" height="247.4472"/>
  </clipPath>
 </defs>
</svg>
