<?xml version="1.0" encoding="utf-8" standalone="no"?>
<!DOCTYPE svg PUBLIC "-//W3C//DTD SVG 1.1//EN"
  "http://www.w3.org/Graphics/SVG/1.1/DTD/svg11.dtd">
<svg xmlns:xlink="http://www.w3.org/1999/xlink" width="460.8pt" height="321.36pt" viewBox="0 0 460.8 321.36" xmlns="http://www.w3.org/2000/svg" version="1.1">
 <metadata>
  <rdf:RDF xmlns:dc="http://purl.org/dc/elements/1.1/" xmlns:cc="http://creativecommons.org/ns#" xmlns:rdf="http://www.w3.org/1999/02/22-rdf-syntax-ns#">
   <cc:Work>
    <dc:type rdf:resource="http://purl.org/dc/dcmitype/StillImage"/>
    <dc:date>2023-08-25T16:06:25.381653</dc:date>
    <dc:format>image/svg+xml</dc:format>
    <dc:creator>
     <cc:Agent>
      <dc:title>Matplotlib v3.7.1, https://matplotlib.org/</dc:title>
     </cc:Agent>
    </dc:creator>
   </cc:Work>
  </rdf:RDF>
 </metadata>
 <defs>
  <style type="text/css">*{stroke-linejoin: round; stroke-linecap: butt}</style>
 </defs>
 <g id="figure_1">
  <g id="patch_1">
   <path d="M 0 321.36 
L 460.8 321.36 
L 460.8 0 
L 0 0 
z
" style="fill: #ffffff"/>
  </g>
  <g id="axes_1">
   <g id="patch_2">
    <path d="M 57.6 286.0104 
L 414.72 286.0104 
L 414.72 38.5632 
L 57.6 38.5632 
z
" style="fill: #ffffff"/>
   </g>
   <g id="matplotlib.axis_1">
    <g id="xtick_1">
     <g id="line2d_1">
      <defs>
       <path id="m0c9f132e3a" d="M 0 0 
L 0 3.5 
" style="stroke: #000000; stroke-width: 0.8"/>
      </defs>
      <g>
       <use xlink:href="#m0c9f132e3a" x="57.6" y="286.0104" style="stroke: #000000; stroke-width: 0.8"/>
      </g>
     </g>
     <g id="text_1">
      <!-- ${\Gamma}$ -->
      <g transform="translate(54.8 300.608837) scale(0.1 -0.1)">
       <defs>
        <path id="DejaVuSans-393" d="M 628 0 
L 628 4666 
L 3531 4666 
L 3531 4134 
L 1259 4134 
L 1259 0 
L 628 0 
z
" transform="scale(0.015625)"/>
       </defs>
       <use xlink:href="#DejaVuSans-393" transform="translate(0 0.09375)"/>
      </g>
     </g>
    </g>
    <g id="xtick_2">
     <g id="line2d_2">
      <g>
       <use xlink:href="#m0c9f132e3a" x="112.035058" y="286.0104" style="stroke: #000000; stroke-width: 0.8"/>
      </g>
     </g>
     <g id="text_2">
      <!-- X -->
      <g transform="translate(108.610058 300.608837) scale(0.1 -0.1)">
       <defs>
        <path id="DejaVuSans-58" d="M 403 4666 
L 1081 4666 
L 2241 2931 
L 3406 4666 
L 4084 4666 
L 2584 2425 
L 4184 0 
L 3506 0 
L 2194 1984 
L 872 0 
L 191 0 
L 1856 2491 
L 403 4666 
z
" transform="scale(0.015625)"/>
       </defs>
       <use xlink:href="#DejaVuSans-58"/>
      </g>
     </g>
    </g>
    <g id="xtick_3">
     <g id="line2d_3">
      <g>
       <use xlink:href="#m0c9f132e3a" x="166.470117" y="286.0104" style="stroke: #000000; stroke-width: 0.8"/>
      </g>
     </g>
     <g id="text_3">
      <!-- M -->
      <g transform="translate(162.156054 300.608837) scale(0.1 -0.1)">
       <defs>
        <path id="DejaVuSans-4d" d="M 628 4666 
L 1569 4666 
L 2759 1491 
L 3956 4666 
L 4897 4666 
L 4897 0 
L 4281 0 
L 4281 4097 
L 3078 897 
L 2444 897 
L 1241 4097 
L 1241 0 
L 628 0 
L 628 4666 
z
" transform="scale(0.015625)"/>
       </defs>
       <use xlink:href="#DejaVuSans-4d"/>
      </g>
     </g>
    </g>
    <g id="xtick_4">
     <g id="line2d_4">
      <g>
       <use xlink:href="#m0c9f132e3a" x="243.452915" y="286.0104" style="stroke: #000000; stroke-width: 0.8"/>
      </g>
     </g>
     <g id="text_4">
      <!-- ${\Gamma}$ -->
      <g transform="translate(240.652915 300.608837) scale(0.1 -0.1)">
       <use xlink:href="#DejaVuSans-393" transform="translate(0 0.09375)"/>
      </g>
     </g>
    </g>
    <g id="xtick_5">
     <g id="line2d_5">
      <g>
       <use xlink:href="#m0c9f132e3a" x="337.737202" y="286.0104" style="stroke: #000000; stroke-width: 0.8"/>
      </g>
     </g>
     <g id="text_5">
      <!-- R -->
      <g transform="translate(334.262983 300.608837) scale(0.1 -0.1)">
       <defs>
        <path id="DejaVuSans-52" d="M 2841 2188 
Q 3044 2119 3236 1894 
Q 3428 1669 3622 1275 
L 4263 0 
L 3584 0 
L 2988 1197 
Q 2756 1666 2539 1819 
Q 2322 1972 1947 1972 
L 1259 1972 
L 1259 0 
L 628 0 
L 628 4666 
L 2053 4666 
Q 2853 4666 3247 4331 
Q 3641 3997 3641 3322 
Q 3641 2881 3436 2590 
Q 3231 2300 2841 2188 
z
M 1259 4147 
L 1259 2491 
L 2053 2491 
Q 2509 2491 2742 2702 
Q 2975 2913 2975 3322 
Q 2975 3731 2742 3939 
Q 2509 4147 2053 4147 
L 1259 4147 
z
" transform="scale(0.015625)"/>
       </defs>
       <use xlink:href="#DejaVuSans-52"/>
      </g>
     </g>
    </g>
    <g id="xtick_6">
     <g id="line2d_6">
      <g>
       <use xlink:href="#m0c9f132e3a" x="414.72" y="286.0104" style="stroke: #000000; stroke-width: 0.8"/>
      </g>
     </g>
     <g id="text_6">
      <!-- X -->
      <g transform="translate(411.295 300.608837) scale(0.1 -0.1)">
       <use xlink:href="#DejaVuSans-58"/>
      </g>
     </g>
    </g>
   </g>
   <g id="matplotlib.axis_2">
    <g id="ytick_1">
     <g id="line2d_7">
      <defs>
       <path id="mbb3a8adefb" d="M 0 0 
L -3.5 0 
" style="stroke: #000000; stroke-width: 0.8"/>
      </defs>
      <g>
       <use xlink:href="#mbb3a8adefb" x="57.6" y="258.583369" style="stroke: #000000; stroke-width: 0.8"/>
      </g>
     </g>
     <g id="text_7">
      <!-- 0.5 -->
      <g transform="translate(34.696875 262.382587) scale(0.1 -0.1)">
       <defs>
        <path id="DejaVuSans-30" d="M 2034 4250 
Q 1547 4250 1301 3770 
Q 1056 3291 1056 2328 
Q 1056 1369 1301 889 
Q 1547 409 2034 409 
Q 2525 409 2770 889 
Q 3016 1369 3016 2328 
Q 3016 3291 2770 3770 
Q 2525 4250 2034 4250 
z
M 2034 4750 
Q 2819 4750 3233 4129 
Q 3647 3509 3647 2328 
Q 3647 1150 3233 529 
Q 2819 -91 2034 -91 
Q 1250 -91 836 529 
Q 422 1150 422 2328 
Q 422 3509 836 4129 
Q 1250 4750 2034 4750 
z
" transform="scale(0.015625)"/>
        <path id="DejaVuSans-2e" d="M 684 794 
L 1344 794 
L 1344 0 
L 684 0 
L 684 794 
z
" transform="scale(0.015625)"/>
        <path id="DejaVuSans-35" d="M 691 4666 
L 3169 4666 
L 3169 4134 
L 1269 4134 
L 1269 2991 
Q 1406 3038 1543 3061 
Q 1681 3084 1819 3084 
Q 2600 3084 3056 2656 
Q 3513 2228 3513 1497 
Q 3513 744 3044 326 
Q 2575 -91 1722 -91 
Q 1428 -91 1123 -41 
Q 819 9 494 109 
L 494 744 
Q 775 591 1075 516 
Q 1375 441 1709 441 
Q 2250 441 2565 725 
Q 2881 1009 2881 1497 
Q 2881 1984 2565 2268 
Q 2250 2553 1709 2553 
Q 1456 2553 1204 2497 
Q 953 2441 691 2322 
L 691 4666 
z
" transform="scale(0.015625)"/>
       </defs>
       <use xlink:href="#DejaVuSans-30"/>
       <use xlink:href="#DejaVuSans-2e" x="63.623047"/>
       <use xlink:href="#DejaVuSans-35" x="95.410156"/>
      </g>
     </g>
    </g>
    <g id="ytick_2">
     <g id="line2d_8">
      <g>
       <use xlink:href="#mbb3a8adefb" x="57.6" y="229.9016" style="stroke: #000000; stroke-width: 0.8"/>
      </g>
     </g>
     <g id="text_8">
      <!-- 0.6 -->
      <g transform="translate(34.696875 233.700819) scale(0.1 -0.1)">
       <defs>
        <path id="DejaVuSans-36" d="M 2113 2584 
Q 1688 2584 1439 2293 
Q 1191 2003 1191 1497 
Q 1191 994 1439 701 
Q 1688 409 2113 409 
Q 2538 409 2786 701 
Q 3034 994 3034 1497 
Q 3034 2003 2786 2293 
Q 2538 2584 2113 2584 
z
M 3366 4563 
L 3366 3988 
Q 3128 4100 2886 4159 
Q 2644 4219 2406 4219 
Q 1781 4219 1451 3797 
Q 1122 3375 1075 2522 
Q 1259 2794 1537 2939 
Q 1816 3084 2150 3084 
Q 2853 3084 3261 2657 
Q 3669 2231 3669 1497 
Q 3669 778 3244 343 
Q 2819 -91 2113 -91 
Q 1303 -91 875 529 
Q 447 1150 447 2328 
Q 447 3434 972 4092 
Q 1497 4750 2381 4750 
Q 2619 4750 2861 4703 
Q 3103 4656 3366 4563 
z
" transform="scale(0.015625)"/>
       </defs>
       <use xlink:href="#DejaVuSans-30"/>
       <use xlink:href="#DejaVuSans-2e" x="63.623047"/>
       <use xlink:href="#DejaVuSans-36" x="95.410156"/>
      </g>
     </g>
    </g>
    <g id="ytick_3">
     <g id="line2d_9">
      <g>
       <use xlink:href="#mbb3a8adefb" x="57.6" y="201.219831" style="stroke: #000000; stroke-width: 0.8"/>
      </g>
     </g>
     <g id="text_9">
      <!-- 0.7 -->
      <g transform="translate(34.696875 205.01905) scale(0.1 -0.1)">
       <defs>
        <path id="DejaVuSans-37" d="M 525 4666 
L 3525 4666 
L 3525 4397 
L 1831 0 
L 1172 0 
L 2766 4134 
L 525 4134 
L 525 4666 
z
" transform="scale(0.015625)"/>
       </defs>
       <use xlink:href="#DejaVuSans-30"/>
       <use xlink:href="#DejaVuSans-2e" x="63.623047"/>
       <use xlink:href="#DejaVuSans-37" x="95.410156"/>
      </g>
     </g>
    </g>
    <g id="ytick_4">
     <g id="line2d_10">
      <g>
       <use xlink:href="#mbb3a8adefb" x="57.6" y="172.538063" style="stroke: #000000; stroke-width: 0.8"/>
      </g>
     </g>
     <g id="text_10">
      <!-- 0.8 -->
      <g transform="translate(34.696875 176.337282) scale(0.1 -0.1)">
       <defs>
        <path id="DejaVuSans-38" d="M 2034 2216 
Q 1584 2216 1326 1975 
Q 1069 1734 1069 1313 
Q 1069 891 1326 650 
Q 1584 409 2034 409 
Q 2484 409 2743 651 
Q 3003 894 3003 1313 
Q 3003 1734 2745 1975 
Q 2488 2216 2034 2216 
z
M 1403 2484 
Q 997 2584 770 2862 
Q 544 3141 544 3541 
Q 544 4100 942 4425 
Q 1341 4750 2034 4750 
Q 2731 4750 3128 4425 
Q 3525 4100 3525 3541 
Q 3525 3141 3298 2862 
Q 3072 2584 2669 2484 
Q 3125 2378 3379 2068 
Q 3634 1759 3634 1313 
Q 3634 634 3220 271 
Q 2806 -91 2034 -91 
Q 1263 -91 848 271 
Q 434 634 434 1313 
Q 434 1759 690 2068 
Q 947 2378 1403 2484 
z
M 1172 3481 
Q 1172 3119 1398 2916 
Q 1625 2713 2034 2713 
Q 2441 2713 2670 2916 
Q 2900 3119 2900 3481 
Q 2900 3844 2670 4047 
Q 2441 4250 2034 4250 
Q 1625 4250 1398 4047 
Q 1172 3844 1172 3481 
z
" transform="scale(0.015625)"/>
       </defs>
       <use xlink:href="#DejaVuSans-30"/>
       <use xlink:href="#DejaVuSans-2e" x="63.623047"/>
       <use xlink:href="#DejaVuSans-38" x="95.410156"/>
      </g>
     </g>
    </g>
    <g id="ytick_5">
     <g id="line2d_11">
      <g>
       <use xlink:href="#mbb3a8adefb" x="57.6" y="143.856294" style="stroke: #000000; stroke-width: 0.8"/>
      </g>
     </g>
     <g id="text_11">
      <!-- 0.9 -->
      <g transform="translate(34.696875 147.655513) scale(0.1 -0.1)">
       <defs>
        <path id="DejaVuSans-39" d="M 703 97 
L 703 672 
Q 941 559 1184 500 
Q 1428 441 1663 441 
Q 2288 441 2617 861 
Q 2947 1281 2994 2138 
Q 2813 1869 2534 1725 
Q 2256 1581 1919 1581 
Q 1219 1581 811 2004 
Q 403 2428 403 3163 
Q 403 3881 828 4315 
Q 1253 4750 1959 4750 
Q 2769 4750 3195 4129 
Q 3622 3509 3622 2328 
Q 3622 1225 3098 567 
Q 2575 -91 1691 -91 
Q 1453 -91 1209 -44 
Q 966 3 703 97 
z
M 1959 2075 
Q 2384 2075 2632 2365 
Q 2881 2656 2881 3163 
Q 2881 3666 2632 3958 
Q 2384 4250 1959 4250 
Q 1534 4250 1286 3958 
Q 1038 3666 1038 3163 
Q 1038 2656 1286 2365 
Q 1534 2075 1959 2075 
z
" transform="scale(0.015625)"/>
       </defs>
       <use xlink:href="#DejaVuSans-30"/>
       <use xlink:href="#DejaVuSans-2e" x="63.623047"/>
       <use xlink:href="#DejaVuSans-39" x="95.410156"/>
      </g>
     </g>
    </g>
    <g id="ytick_6">
     <g id="line2d_12">
      <g>
       <use xlink:href="#mbb3a8adefb" x="57.6" y="115.174526" style="stroke: #000000; stroke-width: 0.8"/>
      </g>
     </g>
     <g id="text_12">
      <!-- 1.0 -->
      <g transform="translate(34.696875 118.973744) scale(0.1 -0.1)">
       <defs>
        <path id="DejaVuSans-31" d="M 794 531 
L 1825 531 
L 1825 4091 
L 703 3866 
L 703 4441 
L 1819 4666 
L 2450 4666 
L 2450 531 
L 3481 531 
L 3481 0 
L 794 0 
L 794 531 
z
" transform="scale(0.015625)"/>
       </defs>
       <use xlink:href="#DejaVuSans-31"/>
       <use xlink:href="#DejaVuSans-2e" x="63.623047"/>
       <use xlink:href="#DejaVuSans-30" x="95.410156"/>
      </g>
     </g>
    </g>
    <g id="ytick_7">
     <g id="line2d_13">
      <g>
       <use xlink:href="#mbb3a8adefb" x="57.6" y="86.492757" style="stroke: #000000; stroke-width: 0.8"/>
      </g>
     </g>
     <g id="text_13">
      <!-- 1.1 -->
      <g transform="translate(34.696875 90.291976) scale(0.1 -0.1)">
       <use xlink:href="#DejaVuSans-31"/>
       <use xlink:href="#DejaVuSans-2e" x="63.623047"/>
       <use xlink:href="#DejaVuSans-31" x="95.410156"/>
      </g>
     </g>
    </g>
    <g id="ytick_8">
     <g id="line2d_14">
      <g>
       <use xlink:href="#mbb3a8adefb" x="57.6" y="57.810988" style="stroke: #000000; stroke-width: 0.8"/>
      </g>
     </g>
     <g id="text_14">
      <!-- 1.2 -->
      <g transform="translate(34.696875 61.610207) scale(0.1 -0.1)">
       <defs>
        <path id="DejaVuSans-32" d="M 1228 531 
L 3431 531 
L 3431 0 
L 469 0 
L 469 531 
Q 828 903 1448 1529 
Q 2069 2156 2228 2338 
Q 2531 2678 2651 2914 
Q 2772 3150 2772 3378 
Q 2772 3750 2511 3984 
Q 2250 4219 1831 4219 
Q 1534 4219 1204 4116 
Q 875 4013 500 3803 
L 500 4441 
Q 881 4594 1212 4672 
Q 1544 4750 1819 4750 
Q 2544 4750 2975 4387 
Q 3406 4025 3406 3419 
Q 3406 3131 3298 2873 
Q 3191 2616 2906 2266 
Q 2828 2175 2409 1742 
Q 1991 1309 1228 531 
z
" transform="scale(0.015625)"/>
       </defs>
       <use xlink:href="#DejaVuSans-31"/>
       <use xlink:href="#DejaVuSans-2e" x="63.623047"/>
       <use xlink:href="#DejaVuSans-32" x="95.410156"/>
      </g>
     </g>
    </g>
    <g id="text_15">
     <!-- Energy -->
     <g transform="translate(28.617187 179.79305) rotate(-90) scale(0.1 -0.1)">
      <defs>
       <path id="DejaVuSans-45" d="M 628 4666 
L 3578 4666 
L 3578 4134 
L 1259 4134 
L 1259 2753 
L 3481 2753 
L 3481 2222 
L 1259 2222 
L 1259 531 
L 3634 531 
L 3634 0 
L 628 0 
L 628 4666 
z
" transform="scale(0.015625)"/>
       <path id="DejaVuSans-6e" d="M 3513 2113 
L 3513 0 
L 2938 0 
L 2938 2094 
Q 2938 2591 2744 2837 
Q 2550 3084 2163 3084 
Q 1697 3084 1428 2787 
Q 1159 2491 1159 1978 
L 1159 0 
L 581 0 
L 581 3500 
L 1159 3500 
L 1159 2956 
Q 1366 3272 1645 3428 
Q 1925 3584 2291 3584 
Q 2894 3584 3203 3211 
Q 3513 2838 3513 2113 
z
" transform="scale(0.015625)"/>
       <path id="DejaVuSans-65" d="M 3597 1894 
L 3597 1613 
L 953 1613 
Q 991 1019 1311 708 
Q 1631 397 2203 397 
Q 2534 397 2845 478 
Q 3156 559 3463 722 
L 3463 178 
Q 3153 47 2828 -22 
Q 2503 -91 2169 -91 
Q 1331 -91 842 396 
Q 353 884 353 1716 
Q 353 2575 817 3079 
Q 1281 3584 2069 3584 
Q 2775 3584 3186 3129 
Q 3597 2675 3597 1894 
z
M 3022 2063 
Q 3016 2534 2758 2815 
Q 2500 3097 2075 3097 
Q 1594 3097 1305 2825 
Q 1016 2553 972 2059 
L 3022 2063 
z
" transform="scale(0.015625)"/>
       <path id="DejaVuSans-72" d="M 2631 2963 
Q 2534 3019 2420 3045 
Q 2306 3072 2169 3072 
Q 1681 3072 1420 2755 
Q 1159 2438 1159 1844 
L 1159 0 
L 581 0 
L 581 3500 
L 1159 3500 
L 1159 2956 
Q 1341 3275 1631 3429 
Q 1922 3584 2338 3584 
Q 2397 3584 2469 3576 
Q 2541 3569 2628 3553 
L 2631 2963 
z
" transform="scale(0.015625)"/>
       <path id="DejaVuSans-67" d="M 2906 1791 
Q 2906 2416 2648 2759 
Q 2391 3103 1925 3103 
Q 1463 3103 1205 2759 
Q 947 2416 947 1791 
Q 947 1169 1205 825 
Q 1463 481 1925 481 
Q 2391 481 2648 825 
Q 2906 1169 2906 1791 
z
M 3481 434 
Q 3481 -459 3084 -895 
Q 2688 -1331 1869 -1331 
Q 1566 -1331 1297 -1286 
Q 1028 -1241 775 -1147 
L 775 -588 
Q 1028 -725 1275 -790 
Q 1522 -856 1778 -856 
Q 2344 -856 2625 -561 
Q 2906 -266 2906 331 
L 2906 616 
Q 2728 306 2450 153 
Q 2172 0 1784 0 
Q 1141 0 747 490 
Q 353 981 353 1791 
Q 353 2603 747 3093 
Q 1141 3584 1784 3584 
Q 2172 3584 2450 3431 
Q 2728 3278 2906 2969 
L 2906 3500 
L 3481 3500 
L 3481 434 
z
" transform="scale(0.015625)"/>
       <path id="DejaVuSans-79" d="M 2059 -325 
Q 1816 -950 1584 -1140 
Q 1353 -1331 966 -1331 
L 506 -1331 
L 506 -850 
L 844 -850 
Q 1081 -850 1212 -737 
Q 1344 -625 1503 -206 
L 1606 56 
L 191 3500 
L 800 3500 
L 1894 763 
L 2988 3500 
L 3597 3500 
L 2059 -325 
z
" transform="scale(0.015625)"/>
      </defs>
      <use xlink:href="#DejaVuSans-45"/>
      <use xlink:href="#DejaVuSans-6e" x="63.183594"/>
      <use xlink:href="#DejaVuSans-65" x="126.5625"/>
      <use xlink:href="#DejaVuSans-72" x="188.085938"/>
      <use xlink:href="#DejaVuSans-67" x="227.449219"/>
      <use xlink:href="#DejaVuSans-79" x="290.925781"/>
     </g>
    </g>
   </g>
   <g id="line2d_15">
    <path d="M 57.6 286.0104 
L 57.6 38.5632 
" clip-path="url(#pc1d1ddbf76)" style="fill: none; stroke-dasharray: 5.55,2.4; stroke-dashoffset: 0; stroke: #808080; stroke-width: 1.5"/>
   </g>
   <g id="line2d_16">
    <path d="M 112.035058 286.0104 
L 112.035058 38.5632 
" clip-path="url(#pc1d1ddbf76)" style="fill: none; stroke-dasharray: 5.55,2.4; stroke-dashoffset: 0; stroke: #808080; stroke-width: 1.5"/>
   </g>
   <g id="line2d_17">
    <path d="M 166.470117 286.0104 
L 166.470117 38.5632 
" clip-path="url(#pc1d1ddbf76)" style="fill: none; stroke-dasharray: 5.55,2.4; stroke-dashoffset: 0; stroke: #808080; stroke-width: 1.5"/>
   </g>
   <g id="line2d_18">
    <path d="M 243.452915 286.0104 
L 243.452915 38.5632 
" clip-path="url(#pc1d1ddbf76)" style="fill: none; stroke-dasharray: 5.55,2.4; stroke-dashoffset: 0; stroke: #808080; stroke-width: 1.5"/>
   </g>
   <g id="line2d_19">
    <path d="M 337.737202 286.0104 
L 337.737202 38.5632 
" clip-path="url(#pc1d1ddbf76)" style="fill: none; stroke-dasharray: 5.55,2.4; stroke-dashoffset: 0; stroke: #808080; stroke-width: 1.5"/>
   </g>
   <g id="line2d_20">
    <path d="M 414.72 286.0104 
L 414.72 38.5632 
" clip-path="url(#pc1d1ddbf76)" style="fill: none; stroke-dasharray: 5.55,2.4; stroke-dashoffset: 0; stroke: #808080; stroke-width: 1.5"/>
   </g>
   <g id="line2d_21">
    <path d="M 57.6 274.7628 
L 61.229004 274.615135 
L 64.858008 274.199184 
L 68.487012 273.598167 
L 72.116016 272.941146 
L 75.745019 272.346941 
L 79.374023 271.860443 
L 83.003027 271.466579 
L 86.632031 271.138859 
L 90.261035 270.859958 
L 93.890039 270.622126 
L 97.519043 270.423549 
L 101.148047 270.265411 
L 104.777051 270.150028 
L 108.406055 270.079709 
L 112.035058 270.056076 
L 115.664062 269.993262 
L 119.293066 269.805919 
L 122.92207 269.497322 
L 126.551074 269.072852 
L 130.180078 268.53988 
L 133.809082 267.907616 
L 137.438086 267.186942 
L 141.06709 266.390238 
L 144.696094 265.531269 
L 148.325097 264.625251 
L 151.954101 263.689435 
L 155.583105 262.745293 
L 159.212109 261.826761 
L 162.841113 261.017802 
L 166.470117 260.619546 
L 169.969335 260.998887 
L 173.468553 261.800556 
L 176.967771 262.729978 
L 180.466989 263.686966 
L 183.966207 264.62581 
L 187.465426 265.519175 
L 190.964644 266.34942 
L 194.463862 267.105783 
L 197.96308 267.783099 
L 201.462298 268.381092 
L 204.961516 268.904084 
L 208.460734 269.361346 
L 211.959952 269.768915 
L 215.45917 270.154979 
L 218.958388 270.573316 
L 222.457606 271.120241 
L 225.956825 271.876206 
L 229.456043 272.75278 
L 232.955261 273.572975 
L 236.454479 274.21753 
L 239.953697 274.624196 
L 243.452915 274.7628 
L 247.079234 274.613549 
L 250.705552 274.170531 
L 254.331871 273.447862 
L 257.95819 272.468756 
L 261.584509 271.265034 
L 265.210827 269.876398 
L 268.837146 268.349415 
L 272.463465 267.578343 
L 276.089784 266.985539 
L 279.716102 266.353862 
L 283.342421 265.692522 
L 286.96874 265.011163 
L 290.595058 264.319722 
L 294.221377 263.628281 
L 297.847696 262.946923 
L 301.474015 262.285583 
L 305.100333 261.653906 
L 308.726652 261.061102 
L 312.352971 260.515816 
L 315.97929 260.026 
L 319.605608 259.598796 
L 323.231927 259.240433 
L 326.858246 258.956139 
L 330.484565 258.750057 
L 334.110883 258.625193 
L 337.737202 258.583369 
L 341.23642 258.641757 
L 344.735638 258.815731 
L 348.234856 259.101752 
L 351.734074 259.493995 
L 355.233292 259.984476 
L 358.732511 260.56321 
L 362.231729 261.218415 
L 365.730947 261.936755 
L 369.230165 262.703605 
L 372.729383 263.503354 
L 376.228601 264.319722 
L 379.727819 265.136091 
L 383.227037 265.93584 
L 386.726255 266.70269 
L 390.225473 267.421029 
L 393.724691 268.076235 
L 397.22391 268.654969 
L 400.723128 269.14545 
L 404.222346 269.537693 
L 407.721564 269.823714 
L 411.220782 269.997688 
L 414.72 270.056076 
" clip-path="url(#pc1d1ddbf76)" style="fill: none; stroke: #000000; stroke-width: 1.5; stroke-linecap: square"/>
   </g>
   <g id="line2d_22">
    <path d="M 57.6 270.056076 
L 61.229004 270.056076 
L 64.858008 270.056076 
L 68.487012 270.056076 
L 72.116016 270.056076 
L 75.745019 270.056076 
L 79.374023 270.056076 
L 83.003027 270.056076 
L 86.632031 270.056076 
L 90.261035 270.056076 
L 93.890039 270.056076 
L 97.519043 270.056076 
L 101.148047 270.056076 
L 104.777051 270.056076 
L 108.406055 270.056076 
L 112.035058 270.056076 
L 115.664062 269.938025 
L 119.293066 269.588192 
L 122.92207 269.019464 
L 126.551074 268.253071 
L 130.180078 267.318181 
L 133.809082 266.251289 
L 137.438086 265.095319 
L 141.06709 263.898404 
L 144.696094 262.712276 
L 148.325097 261.59022 
L 151.954101 260.584612 
L 155.583105 259.744122 
L 159.212109 259.110749 
L 162.841113 258.716975 
L 166.470117 258.583369 
L 169.969335 258.641757 
L 173.468553 258.815731 
L 176.967771 259.101752 
L 180.466989 259.493995 
L 183.966207 259.984476 
L 187.465426 260.56321 
L 190.964644 261.218415 
L 194.463862 261.936755 
L 197.96308 262.703605 
L 201.462298 263.503354 
L 204.961516 264.319722 
L 208.460734 265.136091 
L 211.959952 265.93584 
L 215.45917 266.70269 
L 218.958388 267.421029 
L 222.457606 268.439389 
L 225.956825 269.195354 
L 229.456043 269.617069 
L 232.955261 269.845784 
L 236.454479 269.971837 
L 239.953697 270.03621 
L 243.452915 270.056076 
L 247.079234 270.014252 
L 250.705552 269.889388 
L 254.331871 269.683306 
L 257.95819 269.399011 
L 261.584509 269.040649 
L 265.210827 268.613445 
L 268.837146 268.123629 
L 272.463465 267.578343 
L 276.089784 266.985539 
L 279.716102 266.353862 
L 283.342421 265.692522 
L 286.96874 265.011163 
L 290.595058 264.319722 
L 294.221377 263.628281 
L 297.847696 262.946923 
L 301.474015 262.285583 
L 305.100333 261.653906 
L 308.726652 261.061102 
L 312.352971 260.515816 
L 315.97929 260.026 
L 319.605608 259.598796 
L 323.231927 259.240433 
L 326.858246 258.956139 
L 330.484565 258.750057 
L 334.110883 258.625193 
L 337.737202 258.583369 
L 341.23642 258.583686 
L 344.735638 258.588388 
L 348.234856 258.608349 
L 351.734074 258.660432 
L 355.233292 258.765693 
L 358.732511 258.947038 
L 362.231729 259.226529 
L 365.730947 259.622607 
L 369.230165 260.147515 
L 372.729383 260.805241 
L 376.228601 261.59022 
L 379.727819 262.486967 
L 383.227037 263.470653 
L 386.726255 264.50854 
L 390.225473 265.562052 
L 393.724691 266.589256 
L 397.22391 267.547478 
L 400.723128 268.395852 
L 404.222346 269.097632 
L 407.721564 269.622152 
L 411.220782 269.946388 
L 414.72 270.056076 
" clip-path="url(#pc1d1ddbf76)" style="fill: none; stroke: #000000; stroke-width: 1.5; stroke-linecap: square"/>
   </g>
   <g id="line2d_23">
    <path d="M 57.6 270.056076 
L 61.229004 269.970653 
L 64.858008 269.695205 
L 68.487012 269.170038 
L 72.116016 268.305093 
L 75.745019 267.035658 
L 79.374023 265.385414 
L 83.003027 263.451448 
L 86.632031 261.354085 
L 90.261035 259.213885 
L 93.890039 257.14774 
L 97.519043 255.267748 
L 101.148047 253.678068 
L 104.777051 252.469669 
L 108.406055 251.713979 
L 112.035058 251.456814 
L 115.664062 251.494678 
L 119.293066 251.608225 
L 122.92207 251.797302 
L 126.551074 252.061597 
L 130.180078 252.400564 
L 133.809082 252.813297 
L 137.438086 253.298375 
L 141.06709 253.853636 
L 144.696094 254.475865 
L 148.325097 255.160262 
L 151.954101 255.899395 
L 155.583105 256.680564 
L 159.212109 257.477138 
L 162.841113 258.210648 
L 166.470117 258.583369 
L 169.969335 258.294273 
L 173.468553 257.76483 
L 176.967771 257.29362 
L 180.466989 256.986065 
L 183.966207 256.892427 
L 187.465426 257.041697 
L 190.964644 257.448129 
L 194.463862 258.112322 
L 197.96308 259.021405 
L 201.462298 260.14945 
L 204.961516 261.45824 
L 208.460734 262.898058 
L 211.959952 264.407488 
L 215.45917 265.909931 
L 218.958388 267.302173 
L 222.457606 268.076235 
L 225.956825 268.654969 
L 229.456043 269.14545 
L 232.955261 269.537693 
L 236.454479 269.823714 
L 239.953697 269.997688 
L 243.452915 270.056076 
L 247.079234 270.014252 
L 250.705552 269.889388 
L 254.331871 269.683306 
L 257.95819 269.399011 
L 261.584509 269.040649 
L 265.210827 268.613445 
L 268.837146 268.123629 
L 272.463465 266.736168 
L 276.089784 265.092524 
L 279.716102 263.47596 
L 283.342421 261.942974 
L 286.96874 260.546099 
L 290.595058 259.330713 
L 294.221377 258.331877 
L 297.847696 257.571591 
L 301.474015 257.056885 
L 305.100333 256.779114 
L 308.726652 256.714693 
L 312.352971 256.827267 
L 315.97929 257.071066 
L 319.605608 257.395022 
L 323.231927 257.747144 
L 326.858246 258.078708 
L 330.484565 258.347913 
L 334.110883 258.522803 
L 337.737202 258.583369 
L 341.23642 258.546006 
L 344.735638 258.434743 
L 348.234856 258.252036 
L 351.734074 258.001903 
L 355.233292 257.689823 
L 358.732511 257.322592 
L 362.231729 256.908151 
L 365.730947 256.455385 
L 369.230165 255.973908 
L 372.729383 255.473834 
L 376.228601 254.965547 
L 379.727819 254.45947 
L 383.227037 253.965848 
L 386.726255 253.494539 
L 390.225473 253.054836 
L 393.724691 252.655291 
L 397.22391 252.303586 
L 400.723128 252.0064 
L 404.222346 251.769326 
L 407.721564 251.596782 
L 411.220782 251.491967 
L 414.72 251.456814 
" clip-path="url(#pc1d1ddbf76)" style="fill: none; stroke: #000000; stroke-width: 1.5; stroke-linecap: square"/>
   </g>
   <g id="line2d_24">
    <path d="M 57.6 112.731636 
L 61.229004 112.729358 
L 64.858008 112.721372 
L 68.487012 112.704306 
L 72.116016 112.67281 
L 75.745019 112.620007 
L 79.374023 112.538217 
L 83.003027 112.420037 
L 86.632031 112.259895 
L 90.261035 112.056144 
L 93.890039 111.813639 
L 97.519043 111.546379 
L 101.148047 111.279147 
L 104.777051 111.046317 
L 108.406055 110.885836 
L 112.035058 110.828373 
L 115.664062 110.853323 
L 119.293066 110.927119 
L 122.92207 111.046639 
L 126.551074 111.206813 
L 130.180078 111.400819 
L 133.809082 111.620349 
L 137.438086 111.855946 
L 141.06709 112.097388 
L 144.696094 112.334129 
L 148.325097 112.555751 
L 151.954101 112.752433 
L 155.583105 112.915406 
L 159.212109 113.037364 
L 162.841113 113.112814 
L 166.470117 113.138349 
L 169.969335 113.114832 
L 173.468553 113.047956 
L 176.967771 112.94802 
L 180.466989 112.829888 
L 183.966207 112.710009 
L 187.465426 112.60323 
L 190.964644 112.520248 
L 194.463862 112.466374 
L 197.96308 112.441726 
L 201.462298 112.442493 
L 204.961516 112.462615 
L 208.460734 112.495367 
L 211.959952 112.534517 
L 215.45917 112.574995 
L 218.958388 112.613148 
L 222.457606 112.646695 
L 225.956825 112.674512 
L 229.456043 112.696329 
L 232.955261 112.712422 
L 236.454479 112.723325 
L 239.953697 112.729595 
L 243.452915 112.731636 
L 247.079234 112.729471 
L 250.705552 112.723127 
L 254.331871 112.713083 
L 257.95819 112.70018 
L 261.584509 112.685695 
L 265.210827 112.671439 
L 268.837146 112.659876 
L 272.463465 112.654242 
L 276.089784 112.658651 
L 279.716102 112.678112 
L 283.342421 112.718395 
L 286.96874 112.785625 
L 290.595058 112.88552 
L 294.221377 113.022248 
L 297.847696 113.197061 
L 301.474015 113.407117 
L 305.100333 113.645014 
L 308.726652 113.899427 
L 312.352971 114.156782 
L 315.97929 114.403383 
L 319.605608 114.627247 
L 323.231927 114.819148 
L 326.858246 114.972794 
L 330.484565 115.084391 
L 334.110883 115.151931 
L 337.737202 115.174526 
L 341.23642 115.153501 
L 344.735638 115.090788 
L 348.234856 114.987476 
L 351.734074 114.845366 
L 355.233292 114.666965 
L 358.732511 114.455461 
L 362.231729 114.214697 
L 365.730947 113.949123 
L 369.230165 113.663751 
L 372.729383 113.364075 
L 376.228601 113.055993 
L 379.727819 112.745702 
L 383.227037 112.439575 
L 386.726255 112.144034 
L 390.225473 111.865398 
L 393.724691 111.609736 
L 397.22391 111.382708 
L 400.723128 111.189412 
L 404.222346 111.034244 
L 407.721564 110.920767 
L 411.220782 110.851607 
L 414.72 110.828373 
" clip-path="url(#pc1d1ddbf76)" style="fill: none; stroke: #000000; stroke-width: 1.5; stroke-linecap: square"/>
   </g>
   <g id="line2d_25">
    <path d="M 57.6 49.8108 
L 61.229004 50.046166 
L 64.858008 50.745552 
L 68.487012 51.888802 
L 72.116016 53.442264 
L 75.745019 55.358707 
L 79.374023 57.577238 
L 83.003027 60.023248 
L 86.632031 62.608474 
L 90.261035 65.231325 
L 93.890039 67.777807 
L 97.519043 70.123637 
L 101.148047 72.138687 
L 104.777051 73.695299 
L 108.406055 74.681789 
L 112.035058 75.02005 
L 115.664062 75.1381 
L 119.293066 75.487933 
L 122.92207 76.056661 
L 126.551074 76.823055 
L 130.180078 77.757944 
L 133.809082 78.824837 
L 137.438086 79.980807 
L 141.06709 81.177721 
L 144.696094 82.363849 
L 148.325097 83.485906 
L 151.954101 84.491513 
L 155.583105 85.332004 
L 159.212109 85.965377 
L 162.841113 86.359151 
L 166.470117 86.492757 
L 169.969335 86.36764 
L 173.468553 85.988315 
L 176.967771 85.344019 
L 180.466989 84.420475 
L 183.966207 83.204667 
L 187.465426 81.690078 
L 190.964644 79.881175 
L 194.463862 77.796155 
L 197.96308 75.467554 
L 201.462298 72.941 
L 204.961516 70.272727 
L 208.460734 67.526527 
L 211.959952 64.770629 
L 215.45917 62.074794 
L 218.958388 59.507723 
L 222.457606 57.134828 
L 225.956825 55.016347 
L 229.456043 53.205761 
L 232.955261 51.748514 
L 236.454479 50.680983 
L 239.953697 50.029699 
L 243.452915 49.8108 
L 247.079234 50.045866 
L 250.705552 50.744954 
L 254.331871 51.889831 
L 257.95819 53.450431 
L 261.584509 55.385362 
L 265.210827 57.642662 
L 268.837146 60.160841 
L 272.463465 62.870293 
L 276.089784 65.695136 
L 279.716102 68.555593 
L 283.342421 71.370977 
L 286.96874 74.063338 
L 290.595058 76.56171 
L 294.221377 78.806701 
L 297.847696 80.754891 
L 301.474015 82.38222 
L 305.100333 83.685449 
L 308.726652 84.681064 
L 312.352971 85.401707 
L 315.97929 85.89094 
L 319.605608 86.197529 
L 323.231927 86.37023 
L 326.858246 86.453609 
L 330.484565 86.484972 
L 334.110883 86.492269 
L 337.737202 86.492757 
L 341.23642 86.49244 
L 344.735638 86.487737 
L 348.234856 86.467777 
L 351.734074 86.415694 
L 355.233292 86.310432 
L 358.732511 86.129088 
L 362.231729 85.849596 
L 365.730947 85.453519 
L 369.230165 84.92861 
L 372.729383 84.270885 
L 376.228601 83.485906 
L 379.727819 82.589159 
L 383.227037 81.605472 
L 386.726255 80.567586 
L 390.225473 79.514073 
L 393.724691 78.48687 
L 397.22391 77.528648 
L 400.723128 76.680274 
L 404.222346 75.978494 
L 407.721564 75.453974 
L 411.220782 75.129738 
L 414.72 75.02005 
" clip-path="url(#pc1d1ddbf76)" style="fill: none; stroke: #000000; stroke-width: 1.5; stroke-linecap: square"/>
   </g>
   <g id="patch_3">
    <path d="M 57.6 286.0104 
L 57.6 38.5632 
" style="fill: none; stroke: #000000; stroke-width: 0.8; stroke-linejoin: miter; stroke-linecap: square"/>
   </g>
   <g id="patch_4">
    <path d="M 414.72 286.0104 
L 414.72 38.5632 
" style="fill: none; stroke: #000000; stroke-width: 0.8; stroke-linejoin: miter; stroke-linecap: square"/>
   </g>
   <g id="patch_5">
    <path d="M 57.6 286.0104 
L 414.72 286.0104 
" style="fill: none; stroke: #000000; stroke-width: 0.8; stroke-linejoin: miter; stroke-linecap: square"/>
   </g>
   <g id="patch_6">
    <path d="M 57.6 38.5632 
L 414.72 38.5632 
" style="fill: none; stroke: #000000; stroke-width: 0.8; stroke-linejoin: miter; stroke-linecap: square"/>
   </g>
  </g>
 </g>
 <defs>
  <clipPath id="pc1d1ddbf76">
   <rect x="57.6" y="38.5632" width="357.12" height="247.4472"/>
  </clipPath>
 </defs>
</svg>
