<?xml version="1.0" encoding="utf-8" standalone="no"?>
<!DOCTYPE svg PUBLIC "-//W3C//DTD SVG 1.1//EN"
  "http://www.w3.org/Graphics/SVG/1.1/DTD/svg11.dtd">
<svg xmlns:xlink="http://www.w3.org/1999/xlink" width="460.8pt" height="345.6pt" viewBox="0 0 460.8 345.6" xmlns="http://www.w3.org/2000/svg" version="1.1">
 <metadata>
  <rdf:RDF xmlns:dc="http://purl.org/dc/elements/1.1/" xmlns:cc="http://creativecommons.org/ns#" xmlns:rdf="http://www.w3.org/1999/02/22-rdf-syntax-ns#">
   <cc:Work>
    <dc:type rdf:resource="http://purl.org/dc/dcmitype/StillImage"/>
    <dc:date>2023-09-25T22:57:14.321536</dc:date>
    <dc:format>image/svg+xml</dc:format>
    <dc:creator>
     <cc:Agent>
      <dc:title>Matplotlib v3.5.1, https://matplotlib.org/</dc:title>
     </cc:Agent>
    </dc:creator>
   </cc:Work>
  </rdf:RDF>
 </metadata>
 <defs>
  <style type="text/css">*{stroke-linejoin: round; stroke-linecap: butt}</style>
 </defs>
 <g id="figure_1">
  <g id="patch_1">
   <path d="M 0 345.6 
L 460.8 345.6 
L 460.8 0 
L 0 0 
z
" style="fill: #ffffff"/>
  </g>
  <g id="axes_1">
   <g id="patch_2">
    <path d="M 57.6 307.584 
L 414.72 307.584 
L 414.72 41.472 
L 57.6 41.472 
z
" style="fill: #ffffff"/>
   </g>
   <g id="matplotlib.axis_1">
    <g id="xtick_1">
     <g id="line2d_1">
      <defs>
       <path id="m4b35c0bfc9" d="M 0 0 
L 0 3.5 
" style="stroke: #000000; stroke-width: 0.8"/>
      </defs>
      <g>
       <use xlink:href="#m4b35c0bfc9" x="57.6" y="307.584" style="stroke: #000000; stroke-width: 0.8"/>
      </g>
     </g>
     <g id="text_1">
      <!-- ${\Gamma}$ -->
      <g transform="translate(54.8 322.182437)scale(0.1 -0.1)">
       <defs>
        <path id="DejaVuSans-393" d="M 628 0 
L 628 4666 
L 3531 4666 
L 3531 4134 
L 1259 4134 
L 1259 0 
L 628 0 
z
" transform="scale(0.015625)"/>
       </defs>
       <use xlink:href="#DejaVuSans-393" transform="translate(0 0.09375)"/>
      </g>
     </g>
    </g>
    <g id="xtick_2">
     <g id="line2d_2">
      <g>
       <use xlink:href="#m4b35c0bfc9" x="112.035058" y="307.584" style="stroke: #000000; stroke-width: 0.8"/>
      </g>
     </g>
     <g id="text_2">
      <!-- X -->
      <g transform="translate(108.610058 322.182437)scale(0.1 -0.1)">
       <defs>
        <path id="DejaVuSans-58" d="M 403 4666 
L 1081 4666 
L 2241 2931 
L 3406 4666 
L 4084 4666 
L 2584 2425 
L 4184 0 
L 3506 0 
L 2194 1984 
L 872 0 
L 191 0 
L 1856 2491 
L 403 4666 
z
" transform="scale(0.015625)"/>
       </defs>
       <use xlink:href="#DejaVuSans-58"/>
      </g>
     </g>
    </g>
    <g id="xtick_3">
     <g id="line2d_3">
      <g>
       <use xlink:href="#m4b35c0bfc9" x="166.470117" y="307.584" style="stroke: #000000; stroke-width: 0.8"/>
      </g>
     </g>
     <g id="text_3">
      <!-- M -->
      <g transform="translate(162.156054 322.182437)scale(0.1 -0.1)">
       <defs>
        <path id="DejaVuSans-4d" d="M 628 4666 
L 1569 4666 
L 2759 1491 
L 3956 4666 
L 4897 4666 
L 4897 0 
L 4281 0 
L 4281 4097 
L 3078 897 
L 2444 897 
L 1241 4097 
L 1241 0 
L 628 0 
L 628 4666 
z
" transform="scale(0.015625)"/>
       </defs>
       <use xlink:href="#DejaVuSans-4d"/>
      </g>
     </g>
    </g>
    <g id="xtick_4">
     <g id="line2d_4">
      <g>
       <use xlink:href="#m4b35c0bfc9" x="243.452915" y="307.584" style="stroke: #000000; stroke-width: 0.8"/>
      </g>
     </g>
     <g id="text_4">
      <!-- ${\Gamma}$ -->
      <g transform="translate(240.652915 322.182437)scale(0.1 -0.1)">
       <use xlink:href="#DejaVuSans-393" transform="translate(0 0.09375)"/>
      </g>
     </g>
    </g>
    <g id="xtick_5">
     <g id="line2d_5">
      <g>
       <use xlink:href="#m4b35c0bfc9" x="337.737202" y="307.584" style="stroke: #000000; stroke-width: 0.8"/>
      </g>
     </g>
     <g id="text_5">
      <!-- R -->
      <g transform="translate(334.262983 322.182437)scale(0.1 -0.1)">
       <defs>
        <path id="DejaVuSans-52" d="M 2841 2188 
Q 3044 2119 3236 1894 
Q 3428 1669 3622 1275 
L 4263 0 
L 3584 0 
L 2988 1197 
Q 2756 1666 2539 1819 
Q 2322 1972 1947 1972 
L 1259 1972 
L 1259 0 
L 628 0 
L 628 4666 
L 2053 4666 
Q 2853 4666 3247 4331 
Q 3641 3997 3641 3322 
Q 3641 2881 3436 2590 
Q 3231 2300 2841 2188 
z
M 1259 4147 
L 1259 2491 
L 2053 2491 
Q 2509 2491 2742 2702 
Q 2975 2913 2975 3322 
Q 2975 3731 2742 3939 
Q 2509 4147 2053 4147 
L 1259 4147 
z
" transform="scale(0.015625)"/>
       </defs>
       <use xlink:href="#DejaVuSans-52"/>
      </g>
     </g>
    </g>
    <g id="xtick_6">
     <g id="line2d_6">
      <g>
       <use xlink:href="#m4b35c0bfc9" x="414.72" y="307.584" style="stroke: #000000; stroke-width: 0.8"/>
      </g>
     </g>
     <g id="text_6">
      <!-- X -->
      <g transform="translate(411.295 322.182437)scale(0.1 -0.1)">
       <use xlink:href="#DejaVuSans-58"/>
      </g>
     </g>
    </g>
   </g>
   <g id="matplotlib.axis_2">
    <g id="ytick_1">
     <g id="line2d_7">
      <defs>
       <path id="m7b5bbed529" d="M 0 0 
L -3.5 0 
" style="stroke: #000000; stroke-width: 0.8"/>
      </defs>
      <g>
       <use xlink:href="#m7b5bbed529" x="57.6" y="278.088164" style="stroke: #000000; stroke-width: 0.8"/>
      </g>
     </g>
     <g id="text_7">
      <!-- 0.5 -->
      <g transform="translate(34.696875 281.887382)scale(0.1 -0.1)">
       <defs>
        <path id="DejaVuSans-30" d="M 2034 4250 
Q 1547 4250 1301 3770 
Q 1056 3291 1056 2328 
Q 1056 1369 1301 889 
Q 1547 409 2034 409 
Q 2525 409 2770 889 
Q 3016 1369 3016 2328 
Q 3016 3291 2770 3770 
Q 2525 4250 2034 4250 
z
M 2034 4750 
Q 2819 4750 3233 4129 
Q 3647 3509 3647 2328 
Q 3647 1150 3233 529 
Q 2819 -91 2034 -91 
Q 1250 -91 836 529 
Q 422 1150 422 2328 
Q 422 3509 836 4129 
Q 1250 4750 2034 4750 
z
" transform="scale(0.015625)"/>
        <path id="DejaVuSans-2e" d="M 684 794 
L 1344 794 
L 1344 0 
L 684 0 
L 684 794 
z
" transform="scale(0.015625)"/>
        <path id="DejaVuSans-35" d="M 691 4666 
L 3169 4666 
L 3169 4134 
L 1269 4134 
L 1269 2991 
Q 1406 3038 1543 3061 
Q 1681 3084 1819 3084 
Q 2600 3084 3056 2656 
Q 3513 2228 3513 1497 
Q 3513 744 3044 326 
Q 2575 -91 1722 -91 
Q 1428 -91 1123 -41 
Q 819 9 494 109 
L 494 744 
Q 775 591 1075 516 
Q 1375 441 1709 441 
Q 2250 441 2565 725 
Q 2881 1009 2881 1497 
Q 2881 1984 2565 2268 
Q 2250 2553 1709 2553 
Q 1456 2553 1204 2497 
Q 953 2441 691 2322 
L 691 4666 
z
" transform="scale(0.015625)"/>
       </defs>
       <use xlink:href="#DejaVuSans-30"/>
       <use xlink:href="#DejaVuSans-2e" x="63.623047"/>
       <use xlink:href="#DejaVuSans-35" x="95.410156"/>
      </g>
     </g>
    </g>
    <g id="ytick_2">
     <g id="line2d_8">
      <g>
       <use xlink:href="#m7b5bbed529" x="57.6" y="247.242946" style="stroke: #000000; stroke-width: 0.8"/>
      </g>
     </g>
     <g id="text_8">
      <!-- 0.6 -->
      <g transform="translate(34.696875 251.042164)scale(0.1 -0.1)">
       <defs>
        <path id="DejaVuSans-36" d="M 2113 2584 
Q 1688 2584 1439 2293 
Q 1191 2003 1191 1497 
Q 1191 994 1439 701 
Q 1688 409 2113 409 
Q 2538 409 2786 701 
Q 3034 994 3034 1497 
Q 3034 2003 2786 2293 
Q 2538 2584 2113 2584 
z
M 3366 4563 
L 3366 3988 
Q 3128 4100 2886 4159 
Q 2644 4219 2406 4219 
Q 1781 4219 1451 3797 
Q 1122 3375 1075 2522 
Q 1259 2794 1537 2939 
Q 1816 3084 2150 3084 
Q 2853 3084 3261 2657 
Q 3669 2231 3669 1497 
Q 3669 778 3244 343 
Q 2819 -91 2113 -91 
Q 1303 -91 875 529 
Q 447 1150 447 2328 
Q 447 3434 972 4092 
Q 1497 4750 2381 4750 
Q 2619 4750 2861 4703 
Q 3103 4656 3366 4563 
z
" transform="scale(0.015625)"/>
       </defs>
       <use xlink:href="#DejaVuSans-30"/>
       <use xlink:href="#DejaVuSans-2e" x="63.623047"/>
       <use xlink:href="#DejaVuSans-36" x="95.410156"/>
      </g>
     </g>
    </g>
    <g id="ytick_3">
     <g id="line2d_9">
      <g>
       <use xlink:href="#m7b5bbed529" x="57.6" y="216.397728" style="stroke: #000000; stroke-width: 0.8"/>
      </g>
     </g>
     <g id="text_9">
      <!-- 0.7 -->
      <g transform="translate(34.696875 220.196946)scale(0.1 -0.1)">
       <defs>
        <path id="DejaVuSans-37" d="M 525 4666 
L 3525 4666 
L 3525 4397 
L 1831 0 
L 1172 0 
L 2766 4134 
L 525 4134 
L 525 4666 
z
" transform="scale(0.015625)"/>
       </defs>
       <use xlink:href="#DejaVuSans-30"/>
       <use xlink:href="#DejaVuSans-2e" x="63.623047"/>
       <use xlink:href="#DejaVuSans-37" x="95.410156"/>
      </g>
     </g>
    </g>
    <g id="ytick_4">
     <g id="line2d_10">
      <g>
       <use xlink:href="#m7b5bbed529" x="57.6" y="185.55251" style="stroke: #000000; stroke-width: 0.8"/>
      </g>
     </g>
     <g id="text_10">
      <!-- 0.8 -->
      <g transform="translate(34.696875 189.351728)scale(0.1 -0.1)">
       <defs>
        <path id="DejaVuSans-38" d="M 2034 2216 
Q 1584 2216 1326 1975 
Q 1069 1734 1069 1313 
Q 1069 891 1326 650 
Q 1584 409 2034 409 
Q 2484 409 2743 651 
Q 3003 894 3003 1313 
Q 3003 1734 2745 1975 
Q 2488 2216 2034 2216 
z
M 1403 2484 
Q 997 2584 770 2862 
Q 544 3141 544 3541 
Q 544 4100 942 4425 
Q 1341 4750 2034 4750 
Q 2731 4750 3128 4425 
Q 3525 4100 3525 3541 
Q 3525 3141 3298 2862 
Q 3072 2584 2669 2484 
Q 3125 2378 3379 2068 
Q 3634 1759 3634 1313 
Q 3634 634 3220 271 
Q 2806 -91 2034 -91 
Q 1263 -91 848 271 
Q 434 634 434 1313 
Q 434 1759 690 2068 
Q 947 2378 1403 2484 
z
M 1172 3481 
Q 1172 3119 1398 2916 
Q 1625 2713 2034 2713 
Q 2441 2713 2670 2916 
Q 2900 3119 2900 3481 
Q 2900 3844 2670 4047 
Q 2441 4250 2034 4250 
Q 1625 4250 1398 4047 
Q 1172 3844 1172 3481 
z
" transform="scale(0.015625)"/>
       </defs>
       <use xlink:href="#DejaVuSans-30"/>
       <use xlink:href="#DejaVuSans-2e" x="63.623047"/>
       <use xlink:href="#DejaVuSans-38" x="95.410156"/>
      </g>
     </g>
    </g>
    <g id="ytick_5">
     <g id="line2d_11">
      <g>
       <use xlink:href="#m7b5bbed529" x="57.6" y="154.707292" style="stroke: #000000; stroke-width: 0.8"/>
      </g>
     </g>
     <g id="text_11">
      <!-- 0.9 -->
      <g transform="translate(34.696875 158.506511)scale(0.1 -0.1)">
       <defs>
        <path id="DejaVuSans-39" d="M 703 97 
L 703 672 
Q 941 559 1184 500 
Q 1428 441 1663 441 
Q 2288 441 2617 861 
Q 2947 1281 2994 2138 
Q 2813 1869 2534 1725 
Q 2256 1581 1919 1581 
Q 1219 1581 811 2004 
Q 403 2428 403 3163 
Q 403 3881 828 4315 
Q 1253 4750 1959 4750 
Q 2769 4750 3195 4129 
Q 3622 3509 3622 2328 
Q 3622 1225 3098 567 
Q 2575 -91 1691 -91 
Q 1453 -91 1209 -44 
Q 966 3 703 97 
z
M 1959 2075 
Q 2384 2075 2632 2365 
Q 2881 2656 2881 3163 
Q 2881 3666 2632 3958 
Q 2384 4250 1959 4250 
Q 1534 4250 1286 3958 
Q 1038 3666 1038 3163 
Q 1038 2656 1286 2365 
Q 1534 2075 1959 2075 
z
" transform="scale(0.015625)"/>
       </defs>
       <use xlink:href="#DejaVuSans-30"/>
       <use xlink:href="#DejaVuSans-2e" x="63.623047"/>
       <use xlink:href="#DejaVuSans-39" x="95.410156"/>
      </g>
     </g>
    </g>
    <g id="ytick_6">
     <g id="line2d_12">
      <g>
       <use xlink:href="#m7b5bbed529" x="57.6" y="123.862074" style="stroke: #000000; stroke-width: 0.8"/>
      </g>
     </g>
     <g id="text_12">
      <!-- 1.0 -->
      <g transform="translate(34.696875 127.661293)scale(0.1 -0.1)">
       <defs>
        <path id="DejaVuSans-31" d="M 794 531 
L 1825 531 
L 1825 4091 
L 703 3866 
L 703 4441 
L 1819 4666 
L 2450 4666 
L 2450 531 
L 3481 531 
L 3481 0 
L 794 0 
L 794 531 
z
" transform="scale(0.015625)"/>
       </defs>
       <use xlink:href="#DejaVuSans-31"/>
       <use xlink:href="#DejaVuSans-2e" x="63.623047"/>
       <use xlink:href="#DejaVuSans-30" x="95.410156"/>
      </g>
     </g>
    </g>
    <g id="ytick_7">
     <g id="line2d_13">
      <g>
       <use xlink:href="#m7b5bbed529" x="57.6" y="93.016856" style="stroke: #000000; stroke-width: 0.8"/>
      </g>
     </g>
     <g id="text_13">
      <!-- 1.1 -->
      <g transform="translate(34.696875 96.816075)scale(0.1 -0.1)">
       <use xlink:href="#DejaVuSans-31"/>
       <use xlink:href="#DejaVuSans-2e" x="63.623047"/>
       <use xlink:href="#DejaVuSans-31" x="95.410156"/>
      </g>
     </g>
    </g>
    <g id="ytick_8">
     <g id="line2d_14">
      <g>
       <use xlink:href="#m7b5bbed529" x="57.6" y="62.171638" style="stroke: #000000; stroke-width: 0.8"/>
      </g>
     </g>
     <g id="text_14">
      <!-- 1.2 -->
      <g transform="translate(34.696875 65.970857)scale(0.1 -0.1)">
       <defs>
        <path id="DejaVuSans-32" d="M 1228 531 
L 3431 531 
L 3431 0 
L 469 0 
L 469 531 
Q 828 903 1448 1529 
Q 2069 2156 2228 2338 
Q 2531 2678 2651 2914 
Q 2772 3150 2772 3378 
Q 2772 3750 2511 3984 
Q 2250 4219 1831 4219 
Q 1534 4219 1204 4116 
Q 875 4013 500 3803 
L 500 4441 
Q 881 4594 1212 4672 
Q 1544 4750 1819 4750 
Q 2544 4750 2975 4387 
Q 3406 4025 3406 3419 
Q 3406 3131 3298 2873 
Q 3191 2616 2906 2266 
Q 2828 2175 2409 1742 
Q 1991 1309 1228 531 
z
" transform="scale(0.015625)"/>
       </defs>
       <use xlink:href="#DejaVuSans-31"/>
       <use xlink:href="#DejaVuSans-2e" x="63.623047"/>
       <use xlink:href="#DejaVuSans-32" x="95.410156"/>
      </g>
     </g>
    </g>
    <g id="text_15">
     <!-- Energy -->
     <g transform="translate(28.617187 192.03425)rotate(-90)scale(0.1 -0.1)">
      <defs>
       <path id="DejaVuSans-45" d="M 628 4666 
L 3578 4666 
L 3578 4134 
L 1259 4134 
L 1259 2753 
L 3481 2753 
L 3481 2222 
L 1259 2222 
L 1259 531 
L 3634 531 
L 3634 0 
L 628 0 
L 628 4666 
z
" transform="scale(0.015625)"/>
       <path id="DejaVuSans-6e" d="M 3513 2113 
L 3513 0 
L 2938 0 
L 2938 2094 
Q 2938 2591 2744 2837 
Q 2550 3084 2163 3084 
Q 1697 3084 1428 2787 
Q 1159 2491 1159 1978 
L 1159 0 
L 581 0 
L 581 3500 
L 1159 3500 
L 1159 2956 
Q 1366 3272 1645 3428 
Q 1925 3584 2291 3584 
Q 2894 3584 3203 3211 
Q 3513 2838 3513 2113 
z
" transform="scale(0.015625)"/>
       <path id="DejaVuSans-65" d="M 3597 1894 
L 3597 1613 
L 953 1613 
Q 991 1019 1311 708 
Q 1631 397 2203 397 
Q 2534 397 2845 478 
Q 3156 559 3463 722 
L 3463 178 
Q 3153 47 2828 -22 
Q 2503 -91 2169 -91 
Q 1331 -91 842 396 
Q 353 884 353 1716 
Q 353 2575 817 3079 
Q 1281 3584 2069 3584 
Q 2775 3584 3186 3129 
Q 3597 2675 3597 1894 
z
M 3022 2063 
Q 3016 2534 2758 2815 
Q 2500 3097 2075 3097 
Q 1594 3097 1305 2825 
Q 1016 2553 972 2059 
L 3022 2063 
z
" transform="scale(0.015625)"/>
       <path id="DejaVuSans-72" d="M 2631 2963 
Q 2534 3019 2420 3045 
Q 2306 3072 2169 3072 
Q 1681 3072 1420 2755 
Q 1159 2438 1159 1844 
L 1159 0 
L 581 0 
L 581 3500 
L 1159 3500 
L 1159 2956 
Q 1341 3275 1631 3429 
Q 1922 3584 2338 3584 
Q 2397 3584 2469 3576 
Q 2541 3569 2628 3553 
L 2631 2963 
z
" transform="scale(0.015625)"/>
       <path id="DejaVuSans-67" d="M 2906 1791 
Q 2906 2416 2648 2759 
Q 2391 3103 1925 3103 
Q 1463 3103 1205 2759 
Q 947 2416 947 1791 
Q 947 1169 1205 825 
Q 1463 481 1925 481 
Q 2391 481 2648 825 
Q 2906 1169 2906 1791 
z
M 3481 434 
Q 3481 -459 3084 -895 
Q 2688 -1331 1869 -1331 
Q 1566 -1331 1297 -1286 
Q 1028 -1241 775 -1147 
L 775 -588 
Q 1028 -725 1275 -790 
Q 1522 -856 1778 -856 
Q 2344 -856 2625 -561 
Q 2906 -266 2906 331 
L 2906 616 
Q 2728 306 2450 153 
Q 2172 0 1784 0 
Q 1141 0 747 490 
Q 353 981 353 1791 
Q 353 2603 747 3093 
Q 1141 3584 1784 3584 
Q 2172 3584 2450 3431 
Q 2728 3278 2906 2969 
L 2906 3500 
L 3481 3500 
L 3481 434 
z
" transform="scale(0.015625)"/>
       <path id="DejaVuSans-79" d="M 2059 -325 
Q 1816 -950 1584 -1140 
Q 1353 -1331 966 -1331 
L 506 -1331 
L 506 -850 
L 844 -850 
Q 1081 -850 1212 -737 
Q 1344 -625 1503 -206 
L 1606 56 
L 191 3500 
L 800 3500 
L 1894 763 
L 2988 3500 
L 3597 3500 
L 2059 -325 
z
" transform="scale(0.015625)"/>
      </defs>
      <use xlink:href="#DejaVuSans-45"/>
      <use xlink:href="#DejaVuSans-6e" x="63.183594"/>
      <use xlink:href="#DejaVuSans-65" x="126.5625"/>
      <use xlink:href="#DejaVuSans-72" x="188.085938"/>
      <use xlink:href="#DejaVuSans-67" x="227.449219"/>
      <use xlink:href="#DejaVuSans-79" x="290.925781"/>
     </g>
    </g>
   </g>
   <g id="line2d_15">
    <path d="M 57.6 307.584 
L 57.6 41.472 
" clip-path="url(#p9737d5b2e2)" style="fill: none; stroke-dasharray: 5.55,2.4; stroke-dashoffset: 0; stroke: #808080; stroke-width: 1.5"/>
   </g>
   <g id="line2d_16">
    <path d="M 112.035058 307.584 
L 112.035058 41.472 
" clip-path="url(#p9737d5b2e2)" style="fill: none; stroke-dasharray: 5.55,2.4; stroke-dashoffset: 0; stroke: #808080; stroke-width: 1.5"/>
   </g>
   <g id="line2d_17">
    <path d="M 166.470117 307.584 
L 166.470117 41.472 
" clip-path="url(#p9737d5b2e2)" style="fill: none; stroke-dasharray: 5.55,2.4; stroke-dashoffset: 0; stroke: #808080; stroke-width: 1.5"/>
   </g>
   <g id="line2d_18">
    <path d="M 243.452915 307.584 
L 243.452915 41.472 
" clip-path="url(#p9737d5b2e2)" style="fill: none; stroke-dasharray: 5.55,2.4; stroke-dashoffset: 0; stroke: #808080; stroke-width: 1.5"/>
   </g>
   <g id="line2d_19">
    <path d="M 337.737202 307.584 
L 337.737202 41.472 
" clip-path="url(#p9737d5b2e2)" style="fill: none; stroke-dasharray: 5.55,2.4; stroke-dashoffset: 0; stroke: #808080; stroke-width: 1.5"/>
   </g>
   <g id="line2d_20">
    <path d="M 414.72 307.584 
L 414.72 41.472 
" clip-path="url(#p9737d5b2e2)" style="fill: none; stroke-dasharray: 5.55,2.4; stroke-dashoffset: 0; stroke: #808080; stroke-width: 1.5"/>
   </g>
   <g id="line2d_21">
    <path d="M 57.6 295.488 
L 61.229004 295.329197 
L 64.858008 294.881871 
L 68.487012 294.235519 
L 72.116016 293.52894 
L 75.745019 292.889914 
L 79.374023 292.36672 
L 83.003027 291.943147 
L 86.632031 291.590707 
L 90.261035 291.290769 
L 93.890039 291.034998 
L 97.519043 290.821442 
L 101.148047 290.651375 
L 104.777051 290.52729 
L 108.406055 290.451666 
L 112.035058 290.426251 
L 115.664062 290.358698 
L 119.293066 290.157224 
L 122.92207 289.82535 
L 126.551074 289.368863 
L 130.180078 288.795688 
L 133.809082 288.115734 
L 137.438086 287.3407 
L 141.06709 286.483901 
L 144.696094 285.56014 
L 148.325097 284.585781 
L 151.954101 283.579377 
L 155.583105 282.564019 
L 159.212109 281.576203 
L 162.841113 280.706224 
L 166.470117 280.277928 
L 169.969335 280.685883 
L 173.468553 281.548021 
L 176.967771 282.547549 
L 180.466989 283.576722 
L 183.966207 284.586383 
L 187.465426 285.547133 
L 190.964644 286.440004 
L 194.463862 287.253419 
L 197.96308 287.981824 
L 201.462298 288.624924 
L 204.961516 289.187364 
L 208.460734 289.679118 
L 211.959952 290.117429 
L 215.45917 290.532614 
L 218.958388 290.982505 
L 222.457606 291.570684 
L 225.956825 292.383672 
L 229.456043 293.326365 
L 232.955261 294.208427 
L 236.454479 294.901601 
L 239.953697 295.338941 
L 243.452915 295.488 
L 247.079234 295.327491 
L 250.705552 294.851057 
L 254.331871 294.073877 
L 257.95819 293.020917 
L 261.584509 291.726399 
L 265.210827 290.23302 
L 268.837146 288.590857 
L 272.463465 287.761623 
L 276.089784 287.124105 
L 279.716102 286.44478 
L 283.342421 285.733556 
L 286.96874 285.000803 
L 290.595058 284.257207 
L 294.221377 283.513611 
L 297.847696 282.780858 
L 301.474015 282.069634 
L 305.100333 281.39031 
L 308.726652 280.752791 
L 312.352971 280.166375 
L 315.97929 279.639612 
L 319.605608 279.180184 
L 323.231927 278.79479 
L 326.858246 278.489051 
L 330.484565 278.267425 
L 334.110883 278.133143 
L 337.737202 278.088164 
L 341.23642 278.150955 
L 344.735638 278.338053 
L 348.234856 278.645648 
L 351.734074 279.067477 
L 355.233292 279.594955 
L 358.732511 280.217343 
L 362.231729 280.92197 
L 365.730947 281.694494 
L 369.230165 282.519187 
L 372.729383 283.379261 
L 376.228601 284.257207 
L 379.727819 285.135154 
L 383.227037 285.995228 
L 386.726255 286.81992 
L 390.225473 287.592444 
L 393.724691 288.297072 
L 397.22391 288.919459 
L 400.723128 289.446937 
L 404.222346 289.868767 
L 407.721564 290.176361 
L 411.220782 290.363459 
L 414.72 290.426251 
" clip-path="url(#p9737d5b2e2)" style="fill: none; stroke: #000000; stroke-width: 1.5; stroke-linecap: square"/>
   </g>
   <g id="line2d_22">
    <path d="M 57.6 290.426251 
L 61.229004 290.426251 
L 64.858008 290.426251 
L 68.487012 290.426251 
L 72.116016 290.426251 
L 75.745019 290.426251 
L 79.374023 290.426251 
L 83.003027 290.426251 
L 86.632031 290.426251 
L 90.261035 290.426251 
L 93.890039 290.426251 
L 97.519043 290.426251 
L 101.148047 290.426251 
L 104.777051 290.426251 
L 108.406055 290.426251 
L 112.035058 290.426251 
L 115.664062 290.299295 
L 119.293066 289.923075 
L 122.92207 289.311448 
L 126.551074 288.487245 
L 130.180078 287.481838 
L 133.809082 286.334471 
L 137.438086 285.091306 
L 141.06709 283.804109 
L 144.696094 282.528512 
L 148.325097 281.32182 
L 151.954101 280.24036 
L 155.583105 279.336472 
L 159.212109 278.655323 
L 162.841113 278.231848 
L 166.470117 278.088164 
L 169.969335 278.150955 
L 173.468553 278.338053 
L 176.967771 278.645648 
L 180.466989 279.067477 
L 183.966207 279.594955 
L 187.465426 280.217343 
L 190.964644 280.92197 
L 194.463862 281.694494 
L 197.96308 282.519187 
L 201.462298 283.379261 
L 204.961516 284.257207 
L 208.460734 285.135154 
L 211.959952 285.995228 
L 215.45917 286.81992 
L 218.958388 287.592444 
L 222.457606 288.687618 
L 225.956825 289.500605 
L 229.456043 289.954129 
L 232.955261 290.200097 
L 236.454479 290.335658 
L 239.953697 290.404886 
L 243.452915 290.426251 
L 247.079234 290.381271 
L 250.705552 290.246989 
L 254.331871 290.025363 
L 257.95819 289.719624 
L 261.584509 289.33423 
L 265.210827 288.874803 
L 268.837146 288.34804 
L 272.463465 287.761623 
L 276.089784 287.124105 
L 279.716102 286.44478 
L 283.342421 285.733556 
L 286.96874 285.000803 
L 290.595058 284.257207 
L 294.221377 283.513611 
L 297.847696 282.780858 
L 301.474015 282.069634 
L 305.100333 281.39031 
L 308.726652 280.752791 
L 312.352971 280.166375 
L 315.97929 279.639612 
L 319.605608 279.180184 
L 323.231927 278.79479 
L 326.858246 278.489051 
L 330.484565 278.267425 
L 334.110883 278.133143 
L 337.737202 278.088164 
L 341.23642 278.088504 
L 344.735638 278.093562 
L 348.234856 278.115028 
L 351.734074 278.17104 
L 355.233292 278.284241 
L 358.732511 278.479264 
L 362.231729 278.779837 
L 365.730947 279.205791 
L 369.230165 279.770293 
L 372.729383 280.477631 
L 376.228601 281.32182 
L 379.727819 282.286208 
L 383.227037 283.344093 
L 386.726255 284.460267 
L 390.225473 285.593245 
L 393.724691 286.69793 
L 397.22391 287.72843 
L 400.723128 288.640797 
L 404.222346 289.395511 
L 407.721564 289.959595 
L 411.220782 290.308288 
L 414.72 290.426251 
" clip-path="url(#p9737d5b2e2)" style="fill: none; stroke: #000000; stroke-width: 1.5; stroke-linecap: square"/>
   </g>
   <g id="line2d_23">
    <path d="M 57.6 290.426251 
L 61.229004 290.334384 
L 64.858008 290.038159 
L 68.487012 289.473379 
L 72.116016 288.543192 
L 75.745019 287.178004 
L 79.374023 285.403283 
L 83.003027 283.32344 
L 86.632031 281.067873 
L 90.261035 278.766239 
L 93.890039 276.544247 
L 97.519043 274.522448 
L 101.148047 272.812859 
L 104.777051 271.513311 
L 108.406055 270.70062 
L 112.035058 270.424056 
L 115.664062 270.464777 
L 119.293066 270.586889 
L 122.92207 270.790227 
L 126.551074 271.074459 
L 130.180078 271.438994 
L 133.809082 271.882859 
L 137.438086 272.404526 
L 141.06709 273.00167 
L 144.696094 273.670833 
L 148.325097 274.406853 
L 151.954101 275.201739 
L 155.583105 276.041831 
L 159.212109 276.89849 
L 162.841113 277.687328 
L 166.470117 278.088164 
L 169.969335 277.777261 
L 173.468553 277.207883 
L 176.967771 276.70113 
L 180.466989 276.370376 
L 183.966207 276.269675 
L 187.465426 276.430204 
L 190.964644 276.867293 
L 194.463862 277.581586 
L 197.96308 278.559241 
L 201.462298 279.772373 
L 204.961516 281.179885 
L 208.460734 282.728308 
L 211.959952 284.351593 
L 215.45917 285.967364 
L 218.958388 287.464622 
L 222.457606 288.297072 
L 225.956825 288.919459 
L 229.456043 289.446937 
L 232.955261 289.868767 
L 236.454479 290.176361 
L 239.953697 290.363459 
L 243.452915 290.426251 
L 247.079234 290.381271 
L 250.705552 290.246989 
L 254.331871 290.025363 
L 257.95819 289.719624 
L 261.584509 289.33423 
L 265.210827 288.874803 
L 268.837146 288.34804 
L 272.463465 286.855924 
L 276.089784 285.0883 
L 279.716102 283.3498 
L 283.342421 281.701182 
L 286.96874 280.198942 
L 290.595058 278.89188 
L 294.221377 277.817701 
L 297.847696 277.000068 
L 301.474015 276.446538 
L 305.100333 276.147815 
L 308.726652 276.078535 
L 312.352971 276.1996 
L 315.97929 276.461789 
L 319.605608 276.81018 
L 323.231927 277.188863 
L 326.858246 277.545437 
L 330.484565 277.834947 
L 334.110883 278.023029 
L 337.737202 278.088164 
L 341.23642 278.047983 
L 344.735638 277.928327 
L 348.234856 277.731838 
L 351.734074 277.462838 
L 355.233292 277.127218 
L 358.732511 276.732287 
L 362.231729 276.286585 
L 365.730947 275.799667 
L 369.230165 275.281872 
L 372.729383 274.744078 
L 376.228601 274.197452 
L 379.727819 273.653202 
L 383.227037 273.122346 
L 386.726255 272.615487 
L 390.225473 272.142616 
L 393.724691 271.712935 
L 397.22391 271.3347 
L 400.723128 271.015098 
L 404.222346 270.760141 
L 407.721564 270.574583 
L 411.220782 270.461862 
L 414.72 270.424056 
" clip-path="url(#p9737d5b2e2)" style="fill: none; stroke: #000000; stroke-width: 1.5; stroke-linecap: square"/>
   </g>
   <g id="line2d_24">
    <path d="M 57.6 121.234919 
L 61.229004 121.232469 
L 64.858008 121.223881 
L 68.487012 121.205527 
L 72.116016 121.171655 
L 75.745019 121.11487 
L 79.374023 121.02691 
L 83.003027 120.899816 
L 86.632031 120.727594 
L 90.261035 120.508474 
L 93.890039 120.247678 
L 97.519043 119.960258 
L 101.148047 119.672869 
L 104.777051 119.422476 
L 108.406055 119.249891 
L 112.035058 119.188094 
L 115.664062 119.214926 
L 119.293066 119.294288 
L 122.92207 119.422823 
L 126.551074 119.595079 
L 130.180078 119.803719 
L 133.809082 120.039808 
L 137.438086 120.293175 
L 141.06709 120.55283 
L 144.696094 120.807428 
L 148.325097 121.045766 
L 151.954101 121.257284 
L 155.583105 121.43255 
L 159.212109 121.563707 
L 162.841113 121.644848 
L 166.470117 121.672309 
L 169.969335 121.647019 
L 173.468553 121.575099 
L 176.967771 121.467624 
L 180.466989 121.340581 
L 183.966207 121.211661 
L 187.465426 121.096827 
L 190.964644 121.007586 
L 194.463862 120.949648 
L 197.96308 120.923141 
L 201.462298 120.923965 
L 204.961516 120.945605 
L 208.460734 120.980828 
L 211.959952 121.022931 
L 215.45917 121.066462 
L 218.958388 121.107493 
L 222.457606 121.143571 
L 225.956825 121.173486 
L 229.456043 121.196948 
L 232.955261 121.214255 
L 236.454479 121.225981 
L 239.953697 121.232724 
L 243.452915 121.234919 
L 247.079234 121.23259 
L 250.705552 121.225768 
L 254.331871 121.214966 
L 257.95819 121.201089 
L 261.584509 121.185512 
L 265.210827 121.170181 
L 268.837146 121.157745 
L 272.463465 121.151687 
L 276.089784 121.156428 
L 279.716102 121.177357 
L 283.342421 121.220679 
L 286.96874 121.29298 
L 290.595058 121.40041 
L 294.221377 121.547451 
L 297.847696 121.73545 
L 301.474015 121.961351 
L 305.100333 122.217192 
L 308.726652 122.490795 
L 312.352971 122.767562 
L 315.97929 123.032764 
L 319.605608 123.273514 
L 323.231927 123.47989 
L 326.858246 123.645126 
L 330.484565 123.76514 
L 334.110883 123.837775 
L 337.737202 123.862074 
L 341.23642 123.839463 
L 344.735638 123.77202 
L 348.234856 123.660915 
L 351.734074 123.508086 
L 355.233292 123.316228 
L 358.732511 123.088771 
L 362.231729 122.829846 
L 365.730947 122.54424 
L 369.230165 122.237342 
L 372.729383 121.915062 
L 376.228601 121.583742 
L 379.727819 121.250045 
L 383.227037 120.920828 
L 386.726255 120.602994 
L 390.225473 120.303341 
L 393.724691 120.028395 
L 397.22391 119.784242 
L 400.723128 119.576366 
L 404.222346 119.409493 
L 407.721564 119.287457 
L 411.220782 119.21308 
L 414.72 119.188094 
" clip-path="url(#p9737d5b2e2)" style="fill: none; stroke: #000000; stroke-width: 1.5; stroke-linecap: square"/>
   </g>
   <g id="line2d_25">
    <path d="M 57.6 53.568 
L 61.229004 53.821119 
L 64.858008 54.57326 
L 68.487012 55.802744 
L 72.116016 57.473383 
L 75.745019 59.534382 
L 79.374023 61.920256 
L 83.003027 64.550768 
L 86.632031 67.330995 
L 90.261035 70.151687 
L 93.890039 72.890247 
L 97.519043 75.413023 
L 101.148047 77.580066 
L 104.777051 79.254093 
L 108.406055 80.314993 
L 112.035058 80.678769 
L 115.664062 80.805724 
L 119.293066 81.181945 
L 122.92207 81.793572 
L 126.551074 82.617774 
L 130.180078 83.623181 
L 133.809082 84.770549 
L 137.438086 86.013713 
L 141.06709 87.30091 
L 144.696094 88.576507 
L 148.325097 89.783199 
L 151.954101 90.86466 
L 155.583105 91.768548 
L 159.212109 92.449696 
L 162.841113 92.873172 
L 166.470117 93.016856 
L 169.969335 92.882302 
L 173.468553 92.474364 
L 176.967771 91.781469 
L 180.466989 90.788263 
L 183.966207 89.480747 
L 187.465426 87.851913 
L 190.964644 85.906567 
L 194.463862 83.664274 
L 197.96308 81.160028 
L 201.462298 78.442898 
L 204.961516 75.573359 
L 208.460734 72.620014 
L 211.959952 69.656241 
L 215.45917 66.75706 
L 218.958388 63.996356 
L 222.457606 61.444476 
L 225.956825 59.166198 
L 229.456043 57.219041 
L 232.955261 55.651874 
L 236.454479 54.50382 
L 239.953697 53.803411 
L 243.452915 53.568 
L 247.079234 53.820797 
L 250.705552 54.572617 
L 254.331871 55.803851 
L 257.95819 57.482166 
L 261.584509 59.563048 
L 265.210827 61.990615 
L 268.837146 64.698739 
L 272.463465 67.612563 
L 276.089784 70.650483 
L 279.716102 73.726702 
L 283.342421 76.754449 
L 286.96874 79.649893 
L 290.595058 82.336716 
L 294.221377 84.751046 
L 297.847696 86.846186 
L 301.474015 88.596263 
L 305.100333 89.997794 
L 308.726652 91.068508 
L 312.352971 91.843509 
L 315.97929 92.369644 
L 319.605608 92.699359 
L 323.231927 92.885087 
L 326.858246 92.974755 
L 330.484565 93.008484 
L 334.110883 93.016331 
L 337.737202 93.016856 
L 341.23642 93.016515 
L 344.735638 93.011458 
L 348.234856 92.989991 
L 351.734074 92.93398 
L 355.233292 92.820779 
L 358.732511 92.625755 
L 362.231729 92.325182 
L 365.730947 91.899228 
L 369.230165 91.334726 
L 372.729383 90.627389 
L 376.228601 89.783199 
L 379.727819 88.818812 
L 383.227037 87.760926 
L 386.726255 86.644752 
L 390.225473 85.511774 
L 393.724691 84.407089 
L 397.22391 83.37659 
L 400.723128 82.464223 
L 404.222346 81.709508 
L 407.721564 81.145424 
L 411.220782 80.796731 
L 414.72 80.678769 
" clip-path="url(#p9737d5b2e2)" style="fill: none; stroke: #000000; stroke-width: 1.5; stroke-linecap: square"/>
   </g>
   <g id="patch_3">
    <path d="M 57.6 307.584 
L 57.6 41.472 
" style="fill: none; stroke: #000000; stroke-width: 0.8; stroke-linejoin: miter; stroke-linecap: square"/>
   </g>
   <g id="patch_4">
    <path d="M 414.72 307.584 
L 414.72 41.472 
" style="fill: none; stroke: #000000; stroke-width: 0.8; stroke-linejoin: miter; stroke-linecap: square"/>
   </g>
   <g id="patch_5">
    <path d="M 57.6 307.584 
L 414.72 307.584 
" style="fill: none; stroke: #000000; stroke-width: 0.8; stroke-linejoin: miter; stroke-linecap: square"/>
   </g>
   <g id="patch_6">
    <path d="M 57.6 41.472 
L 414.72 41.472 
" style="fill: none; stroke: #000000; stroke-width: 0.8; stroke-linejoin: miter; stroke-linecap: square"/>
   </g>
  </g>
 </g>
 <defs>
  <clipPath id="p9737d5b2e2">
   <rect x="57.6" y="41.472" width="357.12" height="266.112"/>
  </clipPath>
 </defs>
</svg>
