<?xml version="1.0" encoding="utf-8" standalone="no"?>
<!DOCTYPE svg PUBLIC "-//W3C//DTD SVG 1.1//EN"
  "http://www.w3.org/Graphics/SVG/1.1/DTD/svg11.dtd">
<svg xmlns:xlink="http://www.w3.org/1999/xlink" width="460.8pt" height="321.36pt" viewBox="0 0 460.8 321.36" xmlns="http://www.w3.org/2000/svg" version="1.1">
 <metadata>
  <rdf:RDF xmlns:dc="http://purl.org/dc/elements/1.1/" xmlns:cc="http://creativecommons.org/ns#" xmlns:rdf="http://www.w3.org/1999/02/22-rdf-syntax-ns#">
   <cc:Work>
    <dc:type rdf:resource="http://purl.org/dc/dcmitype/StillImage"/>
    <dc:date>2023-10-13T12:24:33.169481</dc:date>
    <dc:format>image/svg+xml</dc:format>
    <dc:creator>
     <cc:Agent>
      <dc:title>Matplotlib v3.7.1, https://matplotlib.org/</dc:title>
     </cc:Agent>
    </dc:creator>
   </cc:Work>
  </rdf:RDF>
 </metadata>
 <defs>
  <style type="text/css">*{stroke-linejoin: round; stroke-linecap: butt}</style>
 </defs>
 <g id="figure_1">
  <g id="patch_1">
   <path d="M 0 321.36 
L 460.8 321.36 
L 460.8 0 
L 0 0 
z
" style="fill: #ffffff"/>
  </g>
  <g id="axes_1">
   <g id="patch_2">
    <path d="M 57.6 286.0104 
L 414.72 286.0104 
L 414.72 38.5632 
L 57.6 38.5632 
z
" style="fill: #ffffff"/>
   </g>
   <g id="matplotlib.axis_1">
    <g id="xtick_1">
     <g id="line2d_1">
      <defs>
       <path id="mbafb146c7d" d="M 0 0 
L 0 3.5 
" style="stroke: #000000; stroke-width: 0.8"/>
      </defs>
      <g>
       <use xlink:href="#mbafb146c7d" x="57.6" y="286.0104" style="stroke: #000000; stroke-width: 0.8"/>
      </g>
     </g>
     <g id="text_1">
      <!-- ${\Gamma}$ -->
      <g transform="translate(54.8 300.608837) scale(0.1 -0.1)">
       <defs>
        <path id="DejaVuSans-393" d="M 628 0 
L 628 4666 
L 3531 4666 
L 3531 4134 
L 1259 4134 
L 1259 0 
L 628 0 
z
" transform="scale(0.015625)"/>
       </defs>
       <use xlink:href="#DejaVuSans-393" transform="translate(0 0.09375)"/>
      </g>
     </g>
    </g>
    <g id="xtick_2">
     <g id="line2d_2">
      <g>
       <use xlink:href="#mbafb146c7d" x="188.314991" y="286.0104" style="stroke: #000000; stroke-width: 0.8"/>
      </g>
     </g>
     <g id="text_2">
      <!-- M -->
      <g transform="translate(184.000929 300.608837) scale(0.1 -0.1)">
       <defs>
        <path id="DejaVuSans-4d" d="M 628 4666 
L 1569 4666 
L 2759 1491 
L 3956 4666 
L 4897 4666 
L 4897 0 
L 4281 0 
L 4281 4097 
L 3078 897 
L 2444 897 
L 1241 4097 
L 1241 0 
L 628 0 
L 628 4666 
z
" transform="scale(0.015625)"/>
       </defs>
       <use xlink:href="#DejaVuSans-4d"/>
      </g>
     </g>
    </g>
    <g id="xtick_3">
     <g id="line2d_3">
      <g>
       <use xlink:href="#mbafb146c7d" x="263.775781" y="286.0104" style="stroke: #000000; stroke-width: 0.8"/>
      </g>
     </g>
     <g id="text_3">
      <!-- K -->
      <g transform="translate(260.496875 300.608837) scale(0.1 -0.1)">
       <defs>
        <path id="DejaVuSans-4b" d="M 628 4666 
L 1259 4666 
L 1259 2694 
L 3353 4666 
L 4166 4666 
L 1850 2491 
L 4331 0 
L 3500 0 
L 1259 2247 
L 1259 0 
L 628 0 
L 628 4666 
z
" transform="scale(0.015625)"/>
       </defs>
       <use xlink:href="#DejaVuSans-4b"/>
      </g>
     </g>
    </g>
    <g id="xtick_4">
     <g id="line2d_4">
      <g>
       <use xlink:href="#mbafb146c7d" x="414.72" y="286.0104" style="stroke: #000000; stroke-width: 0.8"/>
      </g>
     </g>
     <g id="text_4">
      <!-- ${\Gamma}$ -->
      <g transform="translate(411.92 300.608837) scale(0.1 -0.1)">
       <use xlink:href="#DejaVuSans-393" transform="translate(0 0.09375)"/>
      </g>
     </g>
    </g>
   </g>
   <g id="matplotlib.axis_2">
    <g id="ytick_1">
     <g id="line2d_5">
      <defs>
       <path id="m709354f5c6" d="M 0 0 
L -3.5 0 
" style="stroke: #000000; stroke-width: 0.8"/>
      </defs>
      <g>
       <use xlink:href="#m709354f5c6" x="57.6" y="256.708727" style="stroke: #000000; stroke-width: 0.8"/>
      </g>
     </g>
     <g id="text_5">
      <!-- −8 -->
      <g transform="translate(35.857813 260.507946) scale(0.1 -0.1)">
       <defs>
        <path id="DejaVuSans-2212" d="M 678 2272 
L 4684 2272 
L 4684 1741 
L 678 1741 
L 678 2272 
z
" transform="scale(0.015625)"/>
        <path id="DejaVuSans-38" d="M 2034 2216 
Q 1584 2216 1326 1975 
Q 1069 1734 1069 1313 
Q 1069 891 1326 650 
Q 1584 409 2034 409 
Q 2484 409 2743 651 
Q 3003 894 3003 1313 
Q 3003 1734 2745 1975 
Q 2488 2216 2034 2216 
z
M 1403 2484 
Q 997 2584 770 2862 
Q 544 3141 544 3541 
Q 544 4100 942 4425 
Q 1341 4750 2034 4750 
Q 2731 4750 3128 4425 
Q 3525 4100 3525 3541 
Q 3525 3141 3298 2862 
Q 3072 2584 2669 2484 
Q 3125 2378 3379 2068 
Q 3634 1759 3634 1313 
Q 3634 634 3220 271 
Q 2806 -91 2034 -91 
Q 1263 -91 848 271 
Q 434 634 434 1313 
Q 434 1759 690 2068 
Q 947 2378 1403 2484 
z
M 1172 3481 
Q 1172 3119 1398 2916 
Q 1625 2713 2034 2713 
Q 2441 2713 2670 2916 
Q 2900 3119 2900 3481 
Q 2900 3844 2670 4047 
Q 2441 4250 2034 4250 
Q 1625 4250 1398 4047 
Q 1172 3844 1172 3481 
z
" transform="scale(0.015625)"/>
       </defs>
       <use xlink:href="#DejaVuSans-2212"/>
       <use xlink:href="#DejaVuSans-38" x="83.789062"/>
      </g>
     </g>
    </g>
    <g id="ytick_2">
     <g id="line2d_6">
      <g>
       <use xlink:href="#m709354f5c6" x="57.6" y="205.039561" style="stroke: #000000; stroke-width: 0.8"/>
      </g>
     </g>
     <g id="text_6">
      <!-- −6 -->
      <g transform="translate(35.857813 208.83878) scale(0.1 -0.1)">
       <defs>
        <path id="DejaVuSans-36" d="M 2113 2584 
Q 1688 2584 1439 2293 
Q 1191 2003 1191 1497 
Q 1191 994 1439 701 
Q 1688 409 2113 409 
Q 2538 409 2786 701 
Q 3034 994 3034 1497 
Q 3034 2003 2786 2293 
Q 2538 2584 2113 2584 
z
M 3366 4563 
L 3366 3988 
Q 3128 4100 2886 4159 
Q 2644 4219 2406 4219 
Q 1781 4219 1451 3797 
Q 1122 3375 1075 2522 
Q 1259 2794 1537 2939 
Q 1816 3084 2150 3084 
Q 2853 3084 3261 2657 
Q 3669 2231 3669 1497 
Q 3669 778 3244 343 
Q 2819 -91 2113 -91 
Q 1303 -91 875 529 
Q 447 1150 447 2328 
Q 447 3434 972 4092 
Q 1497 4750 2381 4750 
Q 2619 4750 2861 4703 
Q 3103 4656 3366 4563 
z
" transform="scale(0.015625)"/>
       </defs>
       <use xlink:href="#DejaVuSans-2212"/>
       <use xlink:href="#DejaVuSans-36" x="83.789062"/>
      </g>
     </g>
    </g>
    <g id="ytick_3">
     <g id="line2d_7">
      <g>
       <use xlink:href="#m709354f5c6" x="57.6" y="153.370395" style="stroke: #000000; stroke-width: 0.8"/>
      </g>
     </g>
     <g id="text_7">
      <!-- −4 -->
      <g transform="translate(35.857813 157.169614) scale(0.1 -0.1)">
       <defs>
        <path id="DejaVuSans-34" d="M 2419 4116 
L 825 1625 
L 2419 1625 
L 2419 4116 
z
M 2253 4666 
L 3047 4666 
L 3047 1625 
L 3713 1625 
L 3713 1100 
L 3047 1100 
L 3047 0 
L 2419 0 
L 2419 1100 
L 313 1100 
L 313 1709 
L 2253 4666 
z
" transform="scale(0.015625)"/>
       </defs>
       <use xlink:href="#DejaVuSans-2212"/>
       <use xlink:href="#DejaVuSans-34" x="83.789062"/>
      </g>
     </g>
    </g>
    <g id="ytick_4">
     <g id="line2d_8">
      <g>
       <use xlink:href="#m709354f5c6" x="57.6" y="101.70123" style="stroke: #000000; stroke-width: 0.8"/>
      </g>
     </g>
     <g id="text_8">
      <!-- −2 -->
      <g transform="translate(35.857813 105.500448) scale(0.1 -0.1)">
       <defs>
        <path id="DejaVuSans-32" d="M 1228 531 
L 3431 531 
L 3431 0 
L 469 0 
L 469 531 
Q 828 903 1448 1529 
Q 2069 2156 2228 2338 
Q 2531 2678 2651 2914 
Q 2772 3150 2772 3378 
Q 2772 3750 2511 3984 
Q 2250 4219 1831 4219 
Q 1534 4219 1204 4116 
Q 875 4013 500 3803 
L 500 4441 
Q 881 4594 1212 4672 
Q 1544 4750 1819 4750 
Q 2544 4750 2975 4387 
Q 3406 4025 3406 3419 
Q 3406 3131 3298 2873 
Q 3191 2616 2906 2266 
Q 2828 2175 2409 1742 
Q 1991 1309 1228 531 
z
" transform="scale(0.015625)"/>
       </defs>
       <use xlink:href="#DejaVuSans-2212"/>
       <use xlink:href="#DejaVuSans-32" x="83.789062"/>
      </g>
     </g>
    </g>
    <g id="ytick_5">
     <g id="line2d_9">
      <g>
       <use xlink:href="#m709354f5c6" x="57.6" y="50.032064" style="stroke: #000000; stroke-width: 0.8"/>
      </g>
     </g>
     <g id="text_9">
      <!-- 0 -->
      <g transform="translate(44.2375 53.831282) scale(0.1 -0.1)">
       <defs>
        <path id="DejaVuSans-30" d="M 2034 4250 
Q 1547 4250 1301 3770 
Q 1056 3291 1056 2328 
Q 1056 1369 1301 889 
Q 1547 409 2034 409 
Q 2525 409 2770 889 
Q 3016 1369 3016 2328 
Q 3016 3291 2770 3770 
Q 2525 4250 2034 4250 
z
M 2034 4750 
Q 2819 4750 3233 4129 
Q 3647 3509 3647 2328 
Q 3647 1150 3233 529 
Q 2819 -91 2034 -91 
Q 1250 -91 836 529 
Q 422 1150 422 2328 
Q 422 3509 836 4129 
Q 1250 4750 2034 4750 
z
" transform="scale(0.015625)"/>
       </defs>
       <use xlink:href="#DejaVuSans-30"/>
      </g>
     </g>
    </g>
    <g id="text_10">
     <!-- Berry Curvature -->
     <g transform="translate(29.778125 202.253206) rotate(-90) scale(0.1 -0.1)">
      <defs>
       <path id="DejaVuSans-42" d="M 1259 2228 
L 1259 519 
L 2272 519 
Q 2781 519 3026 730 
Q 3272 941 3272 1375 
Q 3272 1813 3026 2020 
Q 2781 2228 2272 2228 
L 1259 2228 
z
M 1259 4147 
L 1259 2741 
L 2194 2741 
Q 2656 2741 2882 2914 
Q 3109 3088 3109 3444 
Q 3109 3797 2882 3972 
Q 2656 4147 2194 4147 
L 1259 4147 
z
M 628 4666 
L 2241 4666 
Q 2963 4666 3353 4366 
Q 3744 4066 3744 3513 
Q 3744 3084 3544 2831 
Q 3344 2578 2956 2516 
Q 3422 2416 3680 2098 
Q 3938 1781 3938 1306 
Q 3938 681 3513 340 
Q 3088 0 2303 0 
L 628 0 
L 628 4666 
z
" transform="scale(0.015625)"/>
       <path id="DejaVuSans-65" d="M 3597 1894 
L 3597 1613 
L 953 1613 
Q 991 1019 1311 708 
Q 1631 397 2203 397 
Q 2534 397 2845 478 
Q 3156 559 3463 722 
L 3463 178 
Q 3153 47 2828 -22 
Q 2503 -91 2169 -91 
Q 1331 -91 842 396 
Q 353 884 353 1716 
Q 353 2575 817 3079 
Q 1281 3584 2069 3584 
Q 2775 3584 3186 3129 
Q 3597 2675 3597 1894 
z
M 3022 2063 
Q 3016 2534 2758 2815 
Q 2500 3097 2075 3097 
Q 1594 3097 1305 2825 
Q 1016 2553 972 2059 
L 3022 2063 
z
" transform="scale(0.015625)"/>
       <path id="DejaVuSans-72" d="M 2631 2963 
Q 2534 3019 2420 3045 
Q 2306 3072 2169 3072 
Q 1681 3072 1420 2755 
Q 1159 2438 1159 1844 
L 1159 0 
L 581 0 
L 581 3500 
L 1159 3500 
L 1159 2956 
Q 1341 3275 1631 3429 
Q 1922 3584 2338 3584 
Q 2397 3584 2469 3576 
Q 2541 3569 2628 3553 
L 2631 2963 
z
" transform="scale(0.015625)"/>
       <path id="DejaVuSans-79" d="M 2059 -325 
Q 1816 -950 1584 -1140 
Q 1353 -1331 966 -1331 
L 506 -1331 
L 506 -850 
L 844 -850 
Q 1081 -850 1212 -737 
Q 1344 -625 1503 -206 
L 1606 56 
L 191 3500 
L 800 3500 
L 1894 763 
L 2988 3500 
L 3597 3500 
L 2059 -325 
z
" transform="scale(0.015625)"/>
       <path id="DejaVuSans-20" transform="scale(0.015625)"/>
       <path id="DejaVuSans-43" d="M 4122 4306 
L 4122 3641 
Q 3803 3938 3442 4084 
Q 3081 4231 2675 4231 
Q 1875 4231 1450 3742 
Q 1025 3253 1025 2328 
Q 1025 1406 1450 917 
Q 1875 428 2675 428 
Q 3081 428 3442 575 
Q 3803 722 4122 1019 
L 4122 359 
Q 3791 134 3420 21 
Q 3050 -91 2638 -91 
Q 1578 -91 968 557 
Q 359 1206 359 2328 
Q 359 3453 968 4101 
Q 1578 4750 2638 4750 
Q 3056 4750 3426 4639 
Q 3797 4528 4122 4306 
z
" transform="scale(0.015625)"/>
       <path id="DejaVuSans-75" d="M 544 1381 
L 544 3500 
L 1119 3500 
L 1119 1403 
Q 1119 906 1312 657 
Q 1506 409 1894 409 
Q 2359 409 2629 706 
Q 2900 1003 2900 1516 
L 2900 3500 
L 3475 3500 
L 3475 0 
L 2900 0 
L 2900 538 
Q 2691 219 2414 64 
Q 2138 -91 1772 -91 
Q 1169 -91 856 284 
Q 544 659 544 1381 
z
M 1991 3584 
L 1991 3584 
z
" transform="scale(0.015625)"/>
       <path id="DejaVuSans-76" d="M 191 3500 
L 800 3500 
L 1894 563 
L 2988 3500 
L 3597 3500 
L 2284 0 
L 1503 0 
L 191 3500 
z
" transform="scale(0.015625)"/>
       <path id="DejaVuSans-61" d="M 2194 1759 
Q 1497 1759 1228 1600 
Q 959 1441 959 1056 
Q 959 750 1161 570 
Q 1363 391 1709 391 
Q 2188 391 2477 730 
Q 2766 1069 2766 1631 
L 2766 1759 
L 2194 1759 
z
M 3341 1997 
L 3341 0 
L 2766 0 
L 2766 531 
Q 2569 213 2275 61 
Q 1981 -91 1556 -91 
Q 1019 -91 701 211 
Q 384 513 384 1019 
Q 384 1609 779 1909 
Q 1175 2209 1959 2209 
L 2766 2209 
L 2766 2266 
Q 2766 2663 2505 2880 
Q 2244 3097 1772 3097 
Q 1472 3097 1187 3025 
Q 903 2953 641 2809 
L 641 3341 
Q 956 3463 1253 3523 
Q 1550 3584 1831 3584 
Q 2591 3584 2966 3190 
Q 3341 2797 3341 1997 
z
" transform="scale(0.015625)"/>
       <path id="DejaVuSans-74" d="M 1172 4494 
L 1172 3500 
L 2356 3500 
L 2356 3053 
L 1172 3053 
L 1172 1153 
Q 1172 725 1289 603 
Q 1406 481 1766 481 
L 2356 481 
L 2356 0 
L 1766 0 
Q 1100 0 847 248 
Q 594 497 594 1153 
L 594 3053 
L 172 3053 
L 172 3500 
L 594 3500 
L 594 4494 
L 1172 4494 
z
" transform="scale(0.015625)"/>
      </defs>
      <use xlink:href="#DejaVuSans-42"/>
      <use xlink:href="#DejaVuSans-65" x="68.603516"/>
      <use xlink:href="#DejaVuSans-72" x="130.126953"/>
      <use xlink:href="#DejaVuSans-72" x="169.490234"/>
      <use xlink:href="#DejaVuSans-79" x="210.603516"/>
      <use xlink:href="#DejaVuSans-20" x="269.783203"/>
      <use xlink:href="#DejaVuSans-43" x="301.570312"/>
      <use xlink:href="#DejaVuSans-75" x="371.394531"/>
      <use xlink:href="#DejaVuSans-72" x="434.773438"/>
      <use xlink:href="#DejaVuSans-76" x="475.886719"/>
      <use xlink:href="#DejaVuSans-61" x="535.066406"/>
      <use xlink:href="#DejaVuSans-74" x="596.345703"/>
      <use xlink:href="#DejaVuSans-75" x="635.554688"/>
      <use xlink:href="#DejaVuSans-72" x="698.933594"/>
      <use xlink:href="#DejaVuSans-65" x="737.796875"/>
     </g>
    </g>
    <g id="text_11">
     <!-- 1e−11 -->
     <g transform="translate(57.6 35.5632) scale(0.1 -0.1)">
      <defs>
       <path id="DejaVuSans-31" d="M 794 531 
L 1825 531 
L 1825 4091 
L 703 3866 
L 703 4441 
L 1819 4666 
L 2450 4666 
L 2450 531 
L 3481 531 
L 3481 0 
L 794 0 
L 794 531 
z
" transform="scale(0.015625)"/>
      </defs>
      <use xlink:href="#DejaVuSans-31"/>
      <use xlink:href="#DejaVuSans-65" x="63.623047"/>
      <use xlink:href="#DejaVuSans-2212" x="125.146484"/>
      <use xlink:href="#DejaVuSans-31" x="208.935547"/>
      <use xlink:href="#DejaVuSans-31" x="272.558594"/>
     </g>
    </g>
   </g>
   <g id="line2d_10">
    <path d="M 57.6 286.0104 
L 57.6 38.5632 
" clip-path="url(#p11bbf1eed0)" style="fill: none; stroke-dasharray: 5.55,2.4; stroke-dashoffset: 0; stroke: #808080; stroke-width: 1.5"/>
   </g>
   <g id="line2d_11">
    <path d="M 188.314991 286.0104 
L 188.314991 38.5632 
" clip-path="url(#p11bbf1eed0)" style="fill: none; stroke-dasharray: 5.55,2.4; stroke-dashoffset: 0; stroke: #808080; stroke-width: 1.5"/>
   </g>
   <g id="line2d_12">
    <path d="M 263.775781 286.0104 
L 263.775781 38.5632 
" clip-path="url(#p11bbf1eed0)" style="fill: none; stroke-dasharray: 5.55,2.4; stroke-dashoffset: 0; stroke: #808080; stroke-width: 1.5"/>
   </g>
   <g id="line2d_13">
    <path d="M 414.72 286.0104 
L 414.72 38.5632 
" clip-path="url(#p11bbf1eed0)" style="fill: none; stroke-dasharray: 5.55,2.4; stroke-dashoffset: 0; stroke: #808080; stroke-width: 1.5"/>
   </g>
   <g id="line2d_14">
    <path d="M 57.6 50.032064 
L 61.132838 50.032064 
L 64.665675 50.032064 
L 68.198513 50.032064 
L 71.73135 50.032064 
L 75.264188 50.032064 
L 78.797026 50.032064 
L 82.329863 50.032064 
L 85.862701 50.032064 
L 89.395538 50.032064 
L 92.928376 50.032064 
L 96.461214 50.032064 
L 99.994051 50.032064 
L 103.526889 50.032064 
L 107.059726 50.032064 
L 110.592564 50.032064 
L 114.125402 50.032064 
L 117.658239 50.032064 
L 121.191077 50.032064 
L 124.723915 50.032064 
L 128.256752 50.032064 
L 131.78959 50.032064 
L 135.322427 50.032064 
L 138.855265 50.032064 
L 142.388103 50.032064 
L 145.92094 50.032064 
L 149.453778 50.032064 
L 152.986615 50.032064 
L 156.519453 50.032064 
L 160.052291 50.032064 
L 163.585128 50.032064 
L 167.117966 50.032064 
L 170.650803 50.032064 
L 174.183641 50.032064 
L 177.716479 50.032064 
L 181.249316 50.032064 
L 184.782154 50.032064 
L 188.314991 50.032064 
L 191.908362 50.032064 
L 195.501733 50.032064 
L 199.095104 50.032064 
L 202.688475 50.032064 
L 206.281846 50.032064 
L 209.875217 50.032064 
L 213.468588 50.032064 
L 217.061959 50.032064 
L 220.65533 50.032064 
L 224.248701 50.032064 
L 227.842072 50.032064 
L 231.435443 50.032064 
L 235.028814 50.032064 
L 238.622185 50.032064 
L 242.215556 50.032064 
L 245.808927 50.032064 
L 249.402298 50.032064 
L 252.995668 50.032064 
L 256.589039 50.032064 
L 260.18241 50.032064 
L 263.775781 50.032064 
L 267.369691 50.032064 
L 270.963601 50.032064 
L 274.557511 50.032064 
L 278.151421 50.032064 
L 281.745331 50.032064 
L 285.339241 50.032064 
L 288.933151 50.032064 
L 292.527061 50.032064 
L 296.120971 50.032064 
L 299.714881 50.032064 
L 303.308791 50.032064 
L 306.902701 50.032064 
L 310.496611 50.032064 
L 314.090521 50.032064 
L 317.684431 50.032064 
L 321.278341 50.032064 
L 324.872251 50.032064 
L 328.466161 50.032064 
L 332.060071 50.032064 
L 335.653981 50.032064 
L 339.247891 50.032064 
L 342.841801 50.032064 
L 346.435711 50.032064 
L 350.029621 50.032064 
L 353.623531 50.032064 
L 357.217441 50.032064 
L 360.81135 50.032064 
L 364.40526 50.032064 
L 367.99917 50.032064 
L 371.59308 50.032064 
L 375.18699 50.032064 
L 378.7809 50.032064 
L 382.37481 50.032064 
L 385.96872 50.032064 
L 389.56263 50.032064 
L 393.15654 50.032064 
L 396.75045 50.032064 
L 400.34436 50.032064 
L 403.93827 50.032064 
L 407.53218 50.032064 
L 411.12609 50.032064 
L 414.72 50.032064 
" clip-path="url(#p11bbf1eed0)" style="fill: none; stroke: #1f77b4; stroke-width: 1.5; stroke-linecap: square"/>
   </g>
   <g id="line2d_15">
    <path d="M 57.6 50.032064 
L 61.132838 50.032064 
L 64.665675 50.032064 
L 68.198513 50.032064 
L 71.73135 50.032064 
L 75.264188 50.032064 
L 78.797026 50.032064 
L 82.329863 50.032064 
L 85.862701 50.032064 
L 89.395538 50.032064 
L 92.928376 50.032064 
L 96.461214 50.032064 
L 99.994051 50.032064 
L 103.526889 50.032064 
L 107.059726 50.032064 
L 110.592564 50.032064 
L 114.125402 50.032064 
L 117.658239 50.032064 
L 121.191077 50.032064 
L 124.723915 50.032064 
L 128.256752 50.032064 
L 131.78959 50.032064 
L 135.322427 50.032064 
L 138.855265 50.032064 
L 142.388103 50.032064 
L 145.92094 50.032064 
L 149.453778 50.032064 
L 152.986615 50.032064 
L 156.519453 50.032064 
L 160.052291 50.032064 
L 163.585128 50.032064 
L 167.117966 50.032064 
L 170.650803 50.032064 
L 174.183641 50.032064 
L 177.716479 50.032064 
L 181.249316 50.032064 
L 184.782154 50.032064 
L 188.314991 50.032064 
L 191.908362 50.032064 
L 195.501733 50.032064 
L 199.095104 50.032064 
L 202.688475 50.032064 
L 206.281846 50.032064 
L 209.875217 50.032064 
L 213.468588 50.032064 
L 217.061959 50.032064 
L 220.65533 50.032064 
L 224.248701 50.032064 
L 227.842072 50.032064 
L 231.435443 50.032064 
L 235.028814 50.032064 
L 238.622185 50.032064 
L 242.215556 50.032064 
L 245.808927 50.032064 
L 249.402298 50.032064 
L 252.995668 50.032064 
L 256.589039 50.032064 
L 260.18241 50.032064 
L 263.775781 50.032064 
L 267.369691 50.032064 
L 270.963601 50.032064 
L 274.557511 50.032064 
L 278.151421 50.032064 
L 281.745331 50.032064 
L 285.339241 50.032064 
L 288.933151 50.032064 
L 292.527061 50.032064 
L 296.120971 50.032064 
L 299.714881 50.032064 
L 303.308791 50.032064 
L 306.902701 50.032064 
L 310.496611 50.032064 
L 314.090521 50.032064 
L 317.684431 50.032064 
L 321.278341 50.032064 
L 324.872251 50.032064 
L 328.466161 50.032064 
L 332.060071 50.032064 
L 335.653981 50.032064 
L 339.247891 50.032064 
L 342.841801 50.032064 
L 346.435711 50.032064 
L 350.029621 50.032064 
L 353.623531 50.032064 
L 357.217441 50.032064 
L 360.81135 50.032064 
L 364.40526 50.032064 
L 367.99917 50.032064 
L 371.59308 50.032064 
L 375.18699 50.032064 
L 378.7809 50.032064 
L 382.37481 50.032064 
L 385.96872 50.032064 
L 389.56263 50.032064 
L 393.15654 50.032064 
L 396.75045 50.032064 
L 400.34436 50.032064 
L 403.93827 50.032064 
L 407.53218 50.032064 
L 411.12609 50.032064 
L 414.72 50.032064 
" clip-path="url(#p11bbf1eed0)" style="fill: none; stroke: #ff7f0e; stroke-width: 1.5; stroke-linecap: square"/>
   </g>
   <g id="line2d_16">
    <path d="M 57.6 50.032064 
L 61.132838 50.032064 
L 64.665675 50.032064 
L 68.198513 50.032064 
L 71.73135 50.032064 
L 75.264188 50.032064 
L 78.797026 50.032064 
L 82.329863 50.032064 
L 85.862701 50.032064 
L 89.395538 50.032064 
L 92.928376 50.032064 
L 96.461214 50.032064 
L 99.994051 50.032064 
L 103.526889 50.032064 
L 107.059726 50.032064 
L 110.592564 50.032064 
L 114.125402 50.032064 
L 117.658239 50.032064 
L 121.191077 50.032064 
L 124.723915 50.032064 
L 128.256752 50.032064 
L 131.78959 50.032064 
L 135.322427 50.032064 
L 138.855265 50.032064 
L 142.388103 50.032064 
L 145.92094 50.032064 
L 149.453778 50.032064 
L 152.986615 50.032064 
L 156.519453 50.032064 
L 160.052291 50.032064 
L 163.585128 50.032064 
L 167.117966 50.032064 
L 170.650803 50.032064 
L 174.183641 50.032064 
L 177.716479 50.032064 
L 181.249316 50.032064 
L 184.782154 50.032064 
L 188.314991 50.032064 
L 191.908362 50.032064 
L 195.501733 50.032064 
L 199.095104 50.032064 
L 202.688475 50.032064 
L 206.281846 50.032064 
L 209.875217 50.032064 
L 213.468588 50.032064 
L 217.061959 50.032064 
L 220.65533 50.032064 
L 224.248701 50.032064 
L 227.842072 50.032064 
L 231.435443 50.032064 
L 235.028814 50.032064 
L 238.622185 50.032064 
L 242.215556 50.032064 
L 245.808927 50.032064 
L 249.402298 50.032064 
L 252.995668 50.032064 
L 256.589039 50.032064 
L 260.18241 50.032064 
L 263.775781 50.032064 
L 267.369691 50.032064 
L 270.963601 50.032064 
L 274.557511 50.032064 
L 278.151421 50.032064 
L 281.745331 50.032064 
L 285.339241 50.032064 
L 288.933151 50.032064 
L 292.527061 50.032064 
L 296.120971 50.032064 
L 299.714881 50.032064 
L 303.308791 50.032064 
L 306.902701 50.032064 
L 310.496611 50.032064 
L 314.090521 50.032064 
L 317.684431 50.032064 
L 321.278341 50.032064 
L 324.872251 50.032064 
L 328.466161 50.032064 
L 332.060071 50.032064 
L 335.653981 50.032064 
L 339.247891 50.032064 
L 342.841801 50.032064 
L 346.435711 50.032064 
L 350.029621 50.032064 
L 353.623531 50.032064 
L 357.217441 50.032064 
L 360.81135 50.032064 
L 364.40526 50.032064 
L 367.99917 50.032064 
L 371.59308 50.032064 
L 375.18699 50.032064 
L 378.7809 50.032064 
L 382.37481 50.032064 
L 385.96872 50.032064 
L 389.56263 50.032064 
L 393.15654 50.032064 
L 396.75045 50.032064 
L 400.34436 50.032064 
L 403.93827 50.032064 
L 407.53218 50.032064 
L 411.12609 50.032064 
L 414.72 50.032064 
" clip-path="url(#p11bbf1eed0)" style="fill: none; stroke: #2ca02c; stroke-width: 1.5; stroke-linecap: square"/>
   </g>
   <g id="line2d_17">
    <path d="M 57.6 50.032064 
L 61.132838 50.032064 
L 64.665675 50.032064 
L 68.198513 50.032064 
L 71.73135 50.032064 
L 75.264188 50.032064 
L 78.797026 50.032064 
L 82.329863 50.032064 
L 85.862701 50.032064 
L 89.395538 50.032064 
L 92.928376 50.032064 
L 96.461214 50.032064 
L 99.994051 50.032064 
L 103.526889 50.032064 
L 107.059726 50.032064 
L 110.592564 50.032064 
L 114.125402 50.032064 
L 117.658239 50.032064 
L 121.191077 50.032064 
L 124.723915 50.032064 
L 128.256752 50.032064 
L 131.78959 50.032064 
L 135.322427 50.032064 
L 138.855265 50.032064 
L 142.388103 50.032064 
L 145.92094 50.032064 
L 149.453778 50.032064 
L 152.986615 50.032064 
L 156.519453 50.032064 
L 160.052291 50.032064 
L 163.585128 50.032064 
L 167.117966 50.032064 
L 170.650803 50.032064 
L 174.183641 50.032064 
L 177.716479 50.032064 
L 181.249316 50.032064 
L 184.782154 50.032064 
L 188.314991 50.032064 
L 191.908362 50.032064 
L 195.501733 50.032064 
L 199.095104 50.032064 
L 202.688475 50.032064 
L 206.281846 50.032064 
L 209.875217 50.032064 
L 213.468588 50.032064 
L 217.061959 50.032064 
L 220.65533 50.032064 
L 224.248701 50.032064 
L 227.842072 50.032064 
L 231.435443 50.032064 
L 235.028814 50.032064 
L 238.622185 50.032064 
L 242.215556 50.032064 
L 245.808927 50.032064 
L 249.402298 50.032064 
L 252.995668 50.032064 
L 256.589039 50.032064 
L 260.18241 50.032064 
L 263.775781 50.032064 
L 267.369691 50.032064 
L 270.963601 50.032064 
L 274.557511 50.032064 
L 278.151421 50.032064 
L 281.745331 50.032064 
L 285.339241 50.032064 
L 288.933151 50.032064 
L 292.527061 50.032064 
L 296.120971 50.032064 
L 299.714881 50.032064 
L 303.308791 50.032064 
L 306.902701 50.032064 
L 310.496611 50.032064 
L 314.090521 50.032064 
L 317.684431 50.032064 
L 321.278341 50.032064 
L 324.872251 50.032064 
L 328.466161 50.032064 
L 332.060071 50.032064 
L 335.653981 50.032064 
L 339.247891 50.032064 
L 342.841801 50.032064 
L 346.435711 50.032064 
L 350.029621 50.032064 
L 353.623531 50.032064 
L 357.217441 50.032064 
L 360.81135 50.032064 
L 364.40526 50.032064 
L 367.99917 50.032064 
L 371.59308 50.032064 
L 375.18699 50.032064 
L 378.7809 50.032064 
L 382.37481 50.032064 
L 385.96872 50.032064 
L 389.56263 50.032064 
L 393.15654 50.032064 
L 396.75045 50.032064 
L 400.34436 50.032064 
L 403.93827 50.032064 
L 407.53218 50.032064 
L 411.12609 50.032064 
L 414.72 50.032064 
" clip-path="url(#p11bbf1eed0)" style="fill: none; stroke: #d62728; stroke-width: 1.5; stroke-linecap: square"/>
   </g>
   <g id="line2d_18">
    <path d="M 57.6 50.032064 
L 61.132838 50.032063 
L 64.665675 50.032066 
L 68.198513 50.032067 
L 71.73135 50.032063 
L 75.264188 50.032064 
L 78.797026 50.032065 
L 82.329863 50.032069 
L 85.862701 50.032082 
L 89.395538 50.032066 
L 92.928376 50.032049 
L 96.461214 50.032059 
L 99.994051 50.032056 
L 103.526889 50.032046 
L 107.059726 50.032071 
L 110.592564 50.032065 
L 114.125402 50.03208 
L 117.658239 50.032072 
L 121.191077 50.032009 
L 124.723915 50.032095 
L 128.256752 50.032061 
L 131.78959 50.032074 
L 135.322427 50.032041 
L 138.855265 50.032038 
L 142.388103 50.032057 
L 145.92094 50.032058 
L 149.453778 50.032075 
L 152.986615 50.032035 
L 156.519453 50.03218 
L 160.052291 50.032058 
L 163.585128 50.03206 
L 167.117966 50.032137 
L 170.650803 50.03205 
L 174.183641 50.032068 
L 177.716479 50.032052 
L 181.249316 50.032063 
L 184.782154 50.032064 
L 188.314991 50.032064 
L 191.908362 50.032064 
L 195.501733 50.032064 
L 199.095104 50.032064 
L 202.688475 50.032064 
L 206.281846 50.032064 
L 209.875217 50.032064 
L 213.468588 50.032064 
L 217.061959 50.032064 
L 220.65533 50.032064 
L 224.248701 50.032064 
L 227.842072 50.032064 
L 231.435443 50.032064 
L 235.028814 50.032064 
L 238.622185 50.032064 
L 242.215556 50.032064 
L 245.808927 50.032064 
L 249.402298 50.032064 
L 252.995668 50.032064 
L 256.589039 50.032064 
L 260.18241 50.032064 
L 263.775781 50.032064 
L 267.369691 50.032064 
L 270.963601 50.032064 
L 274.557511 50.032064 
L 278.151421 50.032064 
L 281.745331 50.032064 
L 285.339241 50.032064 
L 288.933151 50.032064 
L 292.527061 50.032064 
L 296.120971 50.032064 
L 299.714881 50.032064 
L 303.308791 50.031882 
L 306.902701 50.03199 
L 310.496611 50.032028 
L 314.090521 50.032057 
L 317.684431 50.032238 
L 321.278341 50.032031 
L 324.872251 50.03212 
L 328.466161 50.032147 
L 332.060071 50.032065 
L 335.653981 50.032031 
L 339.247891 50.032051 
L 342.841801 50.032065 
L 346.435711 50.032061 
L 350.029621 50.032076 
L 353.623531 50.032021 
L 357.217441 50.032104 
L 360.81135 50.032081 
L 364.40526 50.032102 
L 367.99917 50.032037 
L 371.59308 50.03205 
L 375.18699 50.032066 
L 378.7809 50.032063 
L 382.37481 50.03206 
L 385.96872 50.032057 
L 389.56263 50.032062 
L 393.15654 50.032072 
L 396.75045 50.032063 
L 400.34436 50.032057 
L 403.93827 50.032065 
L 407.53218 50.032062 
L 411.12609 50.032064 
L 414.72 50.032064 
" clip-path="url(#p11bbf1eed0)" style="fill: none; stroke: #9467bd; stroke-width: 1.5; stroke-linecap: square"/>
   </g>
   <g id="line2d_19">
    <path d="M 57.6 50.032064 
L 61.132838 50.032064 
L 64.665675 50.032064 
L 68.198513 50.032064 
L 71.73135 50.032064 
L 75.264188 50.032064 
L 78.797026 50.032064 
L 82.329863 50.032064 
L 85.862701 50.032064 
L 89.395538 50.032064 
L 92.928376 50.032064 
L 96.461214 50.032064 
L 99.994051 50.032064 
L 103.526889 50.032064 
L 107.059726 50.032064 
L 110.592564 50.032064 
L 114.125402 50.032064 
L 117.658239 50.032064 
L 121.191077 50.032064 
L 124.723915 50.032064 
L 128.256752 50.032064 
L 131.78959 50.032064 
L 135.322427 50.032064 
L 138.855265 50.032064 
L 142.388103 50.032064 
L 145.92094 50.032064 
L 149.453778 50.032064 
L 152.986615 50.032064 
L 156.519453 50.032064 
L 160.052291 50.032064 
L 163.585128 50.032064 
L 167.117966 50.032064 
L 170.650803 50.032064 
L 174.183641 50.032064 
L 177.716479 50.032064 
L 181.249316 50.032064 
L 184.782154 50.032064 
L 188.314991 50.032064 
L 191.908362 50.032064 
L 195.501733 50.032064 
L 199.095104 50.032064 
L 202.688475 50.032064 
L 206.281846 50.032064 
L 209.875217 50.032064 
L 213.468588 50.032064 
L 217.061959 50.032064 
L 220.65533 50.032064 
L 224.248701 50.032064 
L 227.842072 50.032064 
L 231.435443 50.032064 
L 235.028814 50.032064 
L 238.622185 50.032064 
L 242.215556 50.032064 
L 245.808927 50.032064 
L 249.402298 50.032064 
L 252.995668 50.032064 
L 256.589039 50.032064 
L 260.18241 50.032064 
L 263.775781 50.032064 
L 267.369691 50.032064 
L 270.963601 50.032064 
L 274.557511 50.032064 
L 278.151421 50.032064 
L 281.745331 50.032064 
L 285.339241 50.032064 
L 288.933151 50.032064 
L 292.527061 50.032064 
L 296.120971 50.032064 
L 299.714881 50.032064 
L 303.308791 50.032064 
L 306.902701 50.032064 
L 310.496611 50.032064 
L 314.090521 50.032064 
L 317.684431 50.032064 
L 321.278341 50.032064 
L 324.872251 50.032064 
L 328.466161 50.032064 
L 332.060071 50.032064 
L 335.653981 50.032064 
L 339.247891 50.032064 
L 342.841801 50.032064 
L 346.435711 50.032064 
L 350.029621 50.032064 
L 353.623531 50.032064 
L 357.217441 50.032064 
L 360.81135 50.032064 
L 364.40526 50.032064 
L 367.99917 50.032064 
L 371.59308 50.032064 
L 375.18699 50.032064 
L 378.7809 50.032064 
L 382.37481 50.032064 
L 385.96872 50.032064 
L 389.56263 50.032064 
L 393.15654 50.032064 
L 396.75045 50.032064 
L 400.34436 50.032064 
L 403.93827 50.032064 
L 407.53218 50.032064 
L 411.12609 50.032064 
L 414.72 50.032064 
" clip-path="url(#p11bbf1eed0)" style="fill: none; stroke: #8c564b; stroke-width: 1.5; stroke-linecap: square"/>
   </g>
   <g id="line2d_20">
    <path d="M 57.6 50.032064 
L 61.132838 50.032064 
L 64.665675 50.032064 
L 68.198513 50.032064 
L 71.73135 50.032064 
L 75.264188 50.032064 
L 78.797026 50.032064 
L 82.329863 50.032064 
L 85.862701 50.032064 
L 89.395538 50.032064 
L 92.928376 50.032064 
L 96.461214 50.032064 
L 99.994051 50.032064 
L 103.526889 50.032064 
L 107.059726 50.032064 
L 110.592564 50.032064 
L 114.125402 50.032064 
L 117.658239 50.032064 
L 121.191077 50.032064 
L 124.723915 50.032064 
L 128.256752 50.032064 
L 131.78959 50.032064 
L 135.322427 50.032064 
L 138.855265 50.032064 
L 142.388103 50.032064 
L 145.92094 50.032064 
L 149.453778 50.032064 
L 152.986615 50.032064 
L 156.519453 50.032064 
L 160.052291 50.032064 
L 163.585128 50.032064 
L 167.117966 50.032064 
L 170.650803 50.032064 
L 174.183641 50.032064 
L 177.716479 50.032064 
L 181.249316 50.032064 
L 184.782154 50.032064 
L 188.314991 50.032064 
L 191.908362 50.032064 
L 195.501733 50.032064 
L 199.095104 50.032064 
L 202.688475 50.032064 
L 206.281846 50.032064 
L 209.875217 50.032064 
L 213.468588 50.032064 
L 217.061959 50.032064 
L 220.65533 50.032064 
L 224.248701 50.032064 
L 227.842072 50.032064 
L 231.435443 50.032064 
L 235.028814 50.032064 
L 238.622185 50.032064 
L 242.215556 50.032064 
L 245.808927 50.032064 
L 249.402298 50.032064 
L 252.995668 50.032064 
L 256.589039 50.032064 
L 260.18241 50.032064 
L 263.775781 50.032064 
L 267.369691 50.032064 
L 270.963601 50.032064 
L 274.557511 50.032064 
L 278.151421 50.032064 
L 281.745331 50.032064 
L 285.339241 50.032064 
L 288.933151 50.032064 
L 292.527061 50.032064 
L 296.120971 50.032064 
L 299.714881 50.032064 
L 303.308791 50.032064 
L 306.902701 50.032064 
L 310.496611 50.032064 
L 314.090521 50.032064 
L 317.684431 50.032064 
L 321.278341 50.032064 
L 324.872251 50.032064 
L 328.466161 50.032064 
L 332.060071 50.032064 
L 335.653981 50.032064 
L 339.247891 50.032064 
L 342.841801 50.032064 
L 346.435711 50.032064 
L 350.029621 50.032064 
L 353.623531 50.032064 
L 357.217441 50.032064 
L 360.81135 50.032064 
L 364.40526 50.032064 
L 367.99917 50.032064 
L 371.59308 50.032064 
L 375.18699 50.032064 
L 378.7809 50.032064 
L 382.37481 50.032064 
L 385.96872 50.032064 
L 389.56263 50.032064 
L 393.15654 50.032064 
L 396.75045 50.032064 
L 400.34436 50.032064 
L 403.93827 50.032064 
L 407.53218 50.032064 
L 411.12609 50.032064 
L 414.72 50.032064 
" clip-path="url(#p11bbf1eed0)" style="fill: none; stroke: #e377c2; stroke-width: 1.5; stroke-linecap: square"/>
   </g>
   <g id="line2d_21">
    <path d="M 57.6 50.032064 
L 61.132838 50.032064 
L 64.665675 50.032064 
L 68.198513 50.032064 
L 71.73135 50.032064 
L 75.264188 50.032064 
L 78.797026 50.032064 
L 82.329863 50.032064 
L 85.862701 50.032064 
L 89.395538 50.032064 
L 92.928376 50.032064 
L 96.461214 50.032064 
L 99.994051 50.032064 
L 103.526889 50.032064 
L 107.059726 50.032064 
L 110.592564 50.032064 
L 114.125402 50.032064 
L 117.658239 50.032064 
L 121.191077 50.032064 
L 124.723915 50.032064 
L 128.256752 50.032064 
L 131.78959 50.032064 
L 135.322427 50.032064 
L 138.855265 50.032064 
L 142.388103 50.032064 
L 145.92094 50.032064 
L 149.453778 50.032064 
L 152.986615 50.032064 
L 156.519453 50.032064 
L 160.052291 50.032064 
L 163.585128 50.032064 
L 167.117966 50.032064 
L 170.650803 50.032064 
L 174.183641 50.032064 
L 177.716479 50.032064 
L 181.249316 50.032064 
L 184.782154 50.032064 
L 188.314991 50.032064 
L 191.908362 50.032064 
L 195.501733 50.032064 
L 199.095104 50.032064 
L 202.688475 50.032064 
L 206.281846 50.032064 
L 209.875217 50.032064 
L 213.468588 50.032064 
L 217.061959 50.032064 
L 220.65533 50.032064 
L 224.248701 50.032064 
L 227.842072 50.032064 
L 231.435443 50.032064 
L 235.028814 50.032064 
L 238.622185 50.032064 
L 242.215556 50.032064 
L 245.808927 50.032064 
L 249.402298 50.032064 
L 252.995668 50.032064 
L 256.589039 50.032064 
L 260.18241 50.032064 
L 263.775781 50.032064 
L 267.369691 50.032064 
L 270.963601 50.032064 
L 274.557511 50.032064 
L 278.151421 50.032064 
L 281.745331 50.032064 
L 285.339241 50.032064 
L 288.933151 50.032064 
L 292.527061 50.032064 
L 296.120971 50.032064 
L 299.714881 50.032064 
L 303.308791 50.032064 
L 306.902701 50.032064 
L 310.496611 50.032064 
L 314.090521 50.032064 
L 317.684431 50.032064 
L 321.278341 50.032064 
L 324.872251 50.032064 
L 328.466161 50.032064 
L 332.060071 50.032064 
L 335.653981 50.032064 
L 339.247891 50.032064 
L 342.841801 50.032064 
L 346.435711 50.032064 
L 350.029621 50.032064 
L 353.623531 50.032064 
L 357.217441 50.032064 
L 360.81135 50.032064 
L 364.40526 50.032064 
L 367.99917 50.032064 
L 371.59308 50.032064 
L 375.18699 50.032064 
L 378.7809 50.032064 
L 382.37481 50.032064 
L 385.96872 50.032064 
L 389.56263 50.032064 
L 393.15654 50.032064 
L 396.75045 50.032064 
L 400.34436 50.032064 
L 403.93827 50.032064 
L 407.53218 50.032064 
L 411.12609 50.032064 
L 414.72 50.032064 
" clip-path="url(#p11bbf1eed0)" style="fill: none; stroke: #7f7f7f; stroke-width: 1.5; stroke-linecap: square"/>
   </g>
   <g id="line2d_22">
    <path d="M 57.6 50.032064 
L 61.132838 50.032064 
L 64.665675 50.032064 
L 68.198513 50.032064 
L 71.73135 50.032064 
L 75.264188 50.032064 
L 78.797026 50.032064 
L 82.329863 50.032064 
L 85.862701 50.032064 
L 89.395538 50.032064 
L 92.928376 50.032064 
L 96.461214 50.032064 
L 99.994051 50.032064 
L 103.526889 50.032064 
L 107.059726 50.032064 
L 110.592564 50.032064 
L 114.125402 50.032064 
L 117.658239 50.032064 
L 121.191077 50.032064 
L 124.723915 50.032064 
L 128.256752 50.032064 
L 131.78959 50.032064 
L 135.322427 50.032064 
L 138.855265 50.032064 
L 142.388103 50.032064 
L 145.92094 50.032064 
L 149.453778 50.032064 
L 152.986615 50.032064 
L 156.519453 50.032064 
L 160.052291 50.032064 
L 163.585128 50.032064 
L 167.117966 50.032064 
L 170.650803 50.032064 
L 174.183641 50.032064 
L 177.716479 50.032064 
L 181.249316 50.032064 
L 184.782154 50.032064 
L 188.314991 50.032064 
L 191.908362 50.032064 
L 195.501733 50.032064 
L 199.095104 50.032064 
L 202.688475 50.032064 
L 206.281846 50.032064 
L 209.875217 50.032064 
L 213.468588 50.032064 
L 217.061959 50.032064 
L 220.65533 50.032064 
L 224.248701 50.032064 
L 227.842072 50.032064 
L 231.435443 50.032064 
L 235.028814 50.032064 
L 238.622185 50.032064 
L 242.215556 50.032064 
L 245.808927 50.032064 
L 249.402298 50.032064 
L 252.995668 50.032064 
L 256.589039 50.032064 
L 260.18241 50.032064 
L 263.775781 50.032064 
L 267.369691 50.032064 
L 270.963601 50.032064 
L 274.557511 50.032064 
L 278.151421 50.032064 
L 281.745331 50.032064 
L 285.339241 50.032064 
L 288.933151 50.032064 
L 292.527061 50.032064 
L 296.120971 50.032064 
L 299.714881 50.032064 
L 303.308791 50.032064 
L 306.902701 50.032064 
L 310.496611 50.032064 
L 314.090521 50.032064 
L 317.684431 50.032064 
L 321.278341 50.032064 
L 324.872251 50.032064 
L 328.466161 50.032064 
L 332.060071 50.032064 
L 335.653981 50.032064 
L 339.247891 50.032064 
L 342.841801 50.032064 
L 346.435711 50.032064 
L 350.029621 50.032064 
L 353.623531 50.032064 
L 357.217441 50.032064 
L 360.81135 50.032064 
L 364.40526 50.032064 
L 367.99917 50.032064 
L 371.59308 50.032064 
L 375.18699 50.032064 
L 378.7809 50.032064 
L 382.37481 50.032064 
L 385.96872 50.032064 
L 389.56263 50.032064 
L 393.15654 50.032064 
L 396.75045 50.032064 
L 400.34436 50.032064 
L 403.93827 50.032064 
L 407.53218 50.032064 
L 411.12609 50.032064 
L 414.72 50.032064 
" clip-path="url(#p11bbf1eed0)" style="fill: none; stroke: #bcbd22; stroke-width: 1.5; stroke-linecap: square"/>
   </g>
   <g id="line2d_23">
    <path d="M 57.6 50.032064 
L 61.132838 50.032064 
L 64.665675 50.032064 
L 68.198513 50.032064 
L 71.73135 50.032064 
L 75.264188 50.032064 
L 78.797026 50.032064 
L 82.329863 50.032064 
L 85.862701 50.032064 
L 89.395538 50.032064 
L 92.928376 50.032064 
L 96.461214 50.032064 
L 99.994051 50.032064 
L 103.526889 50.032064 
L 107.059726 50.032064 
L 110.592564 50.032064 
L 114.125402 50.032064 
L 117.658239 50.032064 
L 121.191077 50.032064 
L 124.723915 50.032064 
L 128.256752 50.032064 
L 131.78959 50.032064 
L 135.322427 50.032064 
L 138.855265 50.032064 
L 142.388103 50.032064 
L 145.92094 50.032064 
L 149.453778 50.032064 
L 152.986615 50.032064 
L 156.519453 50.032064 
L 160.052291 50.032064 
L 163.585128 50.032064 
L 167.117966 50.032064 
L 170.650803 50.032064 
L 174.183641 50.032064 
L 177.716479 50.032064 
L 181.249316 50.032064 
L 184.782154 50.032064 
L 188.314991 50.032064 
L 191.908362 50.032064 
L 195.501733 50.032064 
L 199.095104 50.032064 
L 202.688475 50.032064 
L 206.281846 50.032064 
L 209.875217 50.032064 
L 213.468588 50.032064 
L 217.061959 50.032064 
L 220.65533 50.032064 
L 224.248701 50.032064 
L 227.842072 50.032064 
L 231.435443 50.032064 
L 235.028814 50.032064 
L 238.622185 50.032064 
L 242.215556 50.032064 
L 245.808927 50.032064 
L 249.402298 50.032064 
L 252.995668 50.032064 
L 256.589039 50.032064 
L 260.18241 50.032064 
L 263.775781 50.032064 
L 267.369691 50.032064 
L 270.963601 50.032064 
L 274.557511 50.032064 
L 278.151421 50.032064 
L 281.745331 50.032064 
L 285.339241 50.032064 
L 288.933151 50.032064 
L 292.527061 50.032064 
L 296.120971 50.032064 
L 299.714881 50.032064 
L 303.308791 50.032064 
L 306.902701 50.032064 
L 310.496611 50.032064 
L 314.090521 50.032064 
L 317.684431 50.032064 
L 321.278341 50.032064 
L 324.872251 50.032064 
L 328.466161 50.032064 
L 332.060071 50.032064 
L 335.653981 50.032064 
L 339.247891 50.032064 
L 342.841801 50.032064 
L 346.435711 50.032064 
L 350.029621 50.032064 
L 353.623531 50.032064 
L 357.217441 50.032064 
L 360.81135 50.032064 
L 364.40526 50.032064 
L 367.99917 50.032064 
L 371.59308 50.032064 
L 375.18699 50.032064 
L 378.7809 50.032064 
L 382.37481 50.032064 
L 385.96872 50.032064 
L 389.56263 50.032064 
L 393.15654 50.032064 
L 396.75045 50.032064 
L 400.34436 50.032064 
L 403.93827 50.032064 
L 407.53218 50.032064 
L 411.12609 50.032064 
L 414.72 50.032064 
" clip-path="url(#p11bbf1eed0)" style="fill: none; stroke: #17becf; stroke-width: 1.5; stroke-linecap: square"/>
   </g>
   <g id="line2d_24">
    <path d="M 57.6 50.032064 
L 61.132838 50.032064 
L 64.665675 50.032064 
L 68.198513 50.032064 
L 71.73135 50.032064 
L 75.264188 50.032064 
L 78.797026 50.032064 
L 82.329863 50.032064 
L 85.862701 50.032064 
L 89.395538 50.032064 
L 92.928376 50.032064 
L 96.461214 50.032064 
L 99.994051 50.032064 
L 103.526889 50.032064 
L 107.059726 50.032064 
L 110.592564 50.032064 
L 114.125402 50.032064 
L 117.658239 50.032064 
L 121.191077 50.032064 
L 124.723915 50.032064 
L 128.256752 50.032064 
L 131.78959 50.032064 
L 135.322427 50.032064 
L 138.855265 50.032064 
L 142.388103 50.032064 
L 145.92094 50.032064 
L 149.453778 50.032064 
L 152.986615 50.032064 
L 156.519453 50.032064 
L 160.052291 50.032064 
L 163.585128 50.032064 
L 167.117966 50.032064 
L 170.650803 50.032064 
L 174.183641 50.032064 
L 177.716479 50.032064 
L 181.249316 50.032064 
L 184.782154 50.032064 
L 188.314991 50.032064 
L 191.908362 50.032064 
L 195.501733 50.032064 
L 199.095104 50.032064 
L 202.688475 50.032064 
L 206.281846 50.032064 
L 209.875217 50.032064 
L 213.468588 50.032064 
L 217.061959 50.032064 
L 220.65533 50.032064 
L 224.248701 50.032064 
L 227.842072 50.032064 
L 231.435443 50.032064 
L 235.028814 50.032064 
L 238.622185 50.032064 
L 242.215556 50.032064 
L 245.808927 50.032064 
L 249.402298 50.032064 
L 252.995668 50.032064 
L 256.589039 50.032064 
L 260.18241 50.032064 
L 263.775781 50.032064 
L 267.369691 50.032064 
L 270.963601 50.032064 
L 274.557511 50.032064 
L 278.151421 50.032064 
L 281.745331 50.032064 
L 285.339241 50.032064 
L 288.933151 50.032064 
L 292.527061 50.032064 
L 296.120971 50.032064 
L 299.714881 50.032064 
L 303.308791 50.032064 
L 306.902701 50.032064 
L 310.496611 50.032064 
L 314.090521 50.032064 
L 317.684431 50.032064 
L 321.278341 50.032064 
L 324.872251 50.032064 
L 328.466161 50.032064 
L 332.060071 50.032064 
L 335.653981 50.032064 
L 339.247891 50.032064 
L 342.841801 50.032064 
L 346.435711 50.032064 
L 350.029621 50.032064 
L 353.623531 50.032064 
L 357.217441 50.032064 
L 360.81135 50.032064 
L 364.40526 50.032064 
L 367.99917 50.032064 
L 371.59308 50.032064 
L 375.18699 50.032064 
L 378.7809 50.032064 
L 382.37481 50.032064 
L 385.96872 50.032064 
L 389.56263 50.032064 
L 393.15654 50.032064 
L 396.75045 50.032064 
L 400.34436 50.032064 
L 403.93827 50.032064 
L 407.53218 50.032064 
L 411.12609 50.032064 
L 414.72 50.032064 
" clip-path="url(#p11bbf1eed0)" style="fill: none; stroke: #1f77b4; stroke-width: 1.5; stroke-linecap: square"/>
   </g>
   <g id="line2d_25">
    <path d="M 57.6 50.032064 
L 61.132838 50.032064 
L 64.665675 50.032064 
L 68.198513 50.032064 
L 71.73135 50.032064 
L 75.264188 50.032064 
L 78.797026 50.032064 
L 82.329863 50.032064 
L 85.862701 50.032064 
L 89.395538 50.032064 
L 92.928376 50.032064 
L 96.461214 50.032064 
L 99.994051 50.032064 
L 103.526889 50.032064 
L 107.059726 50.032064 
L 110.592564 50.032064 
L 114.125402 50.032064 
L 117.658239 50.032064 
L 121.191077 50.032064 
L 124.723915 50.032064 
L 128.256752 50.032064 
L 131.78959 50.032064 
L 135.322427 50.032064 
L 138.855265 50.032064 
L 142.388103 50.032064 
L 145.92094 50.032064 
L 149.453778 50.032064 
L 152.986615 50.032064 
L 156.519453 50.032064 
L 160.052291 50.032064 
L 163.585128 50.032064 
L 167.117966 50.032064 
L 170.650803 50.032064 
L 174.183641 50.032064 
L 177.716479 50.032064 
L 181.249316 50.032064 
L 184.782154 50.032064 
L 188.314991 50.032064 
L 191.908362 50.032064 
L 195.501733 50.032064 
L 199.095104 50.032064 
L 202.688475 50.032064 
L 206.281846 50.032064 
L 209.875217 50.032064 
L 213.468588 50.032064 
L 217.061959 50.032064 
L 220.65533 50.032064 
L 224.248701 50.032064 
L 227.842072 50.032064 
L 231.435443 50.032064 
L 235.028814 50.032064 
L 238.622185 50.032064 
L 242.215556 50.032064 
L 245.808927 50.032064 
L 249.402298 50.032064 
L 252.995668 50.032064 
L 256.589039 50.032064 
L 260.18241 50.032064 
L 263.775781 50.032064 
L 267.369691 50.032064 
L 270.963601 50.032064 
L 274.557511 50.032064 
L 278.151421 50.032064 
L 281.745331 50.032064 
L 285.339241 50.032064 
L 288.933151 50.032064 
L 292.527061 50.032064 
L 296.120971 50.032064 
L 299.714881 50.032064 
L 303.308791 50.032064 
L 306.902701 50.032064 
L 310.496611 50.032064 
L 314.090521 50.032064 
L 317.684431 50.032064 
L 321.278341 50.032064 
L 324.872251 50.032064 
L 328.466161 50.032064 
L 332.060071 50.032064 
L 335.653981 50.032064 
L 339.247891 50.032064 
L 342.841801 50.032064 
L 346.435711 50.032064 
L 350.029621 50.032064 
L 353.623531 50.032064 
L 357.217441 50.032064 
L 360.81135 50.032064 
L 364.40526 50.032064 
L 367.99917 50.032064 
L 371.59308 50.032064 
L 375.18699 50.032064 
L 378.7809 50.032064 
L 382.37481 50.032064 
L 385.96872 50.032064 
L 389.56263 50.032064 
L 393.15654 50.032064 
L 396.75045 50.032064 
L 400.34436 50.032064 
L 403.93827 50.032064 
L 407.53218 50.032064 
L 411.12609 50.032064 
L 414.72 50.032064 
" clip-path="url(#p11bbf1eed0)" style="fill: none; stroke: #ff7f0e; stroke-width: 1.5; stroke-linecap: square"/>
   </g>
   <g id="line2d_26">
    <path d="M 57.6 50.032064 
L 61.132838 50.032064 
L 64.665675 50.032064 
L 68.198513 50.032064 
L 71.73135 50.032064 
L 75.264188 50.032064 
L 78.797026 50.032064 
L 82.329863 50.032064 
L 85.862701 50.032064 
L 89.395538 50.032064 
L 92.928376 50.032064 
L 96.461214 50.032064 
L 99.994051 50.032064 
L 103.526889 50.032064 
L 107.059726 50.032064 
L 110.592564 50.032064 
L 114.125402 50.032064 
L 117.658239 50.032064 
L 121.191077 50.032064 
L 124.723915 50.032064 
L 128.256752 50.032064 
L 131.78959 50.032064 
L 135.322427 50.032064 
L 138.855265 50.032064 
L 142.388103 50.032064 
L 145.92094 50.032064 
L 149.453778 50.032064 
L 152.986615 50.032064 
L 156.519453 50.032064 
L 160.052291 50.032064 
L 163.585128 50.032064 
L 167.117966 50.032064 
L 170.650803 50.032064 
L 174.183641 50.032064 
L 177.716479 50.032064 
L 181.249316 50.032064 
L 184.782154 50.032064 
L 188.314991 50.032064 
L 191.908362 50.032064 
L 195.501733 50.032064 
L 199.095104 50.032064 
L 202.688475 50.032064 
L 206.281846 50.032064 
L 209.875217 50.032064 
L 213.468588 50.032064 
L 217.061959 50.032064 
L 220.65533 50.032064 
L 224.248701 50.032064 
L 227.842072 50.032064 
L 231.435443 50.032064 
L 235.028814 50.032064 
L 238.622185 50.032064 
L 242.215556 50.032064 
L 245.808927 50.032064 
L 249.402298 50.032064 
L 252.995668 50.032064 
L 256.589039 50.032064 
L 260.18241 50.032064 
L 263.775781 50.032064 
L 267.369691 50.032064 
L 270.963601 50.032064 
L 274.557511 50.032064 
L 278.151421 50.032064 
L 281.745331 50.032064 
L 285.339241 50.032064 
L 288.933151 50.032064 
L 292.527061 50.032064 
L 296.120971 50.032064 
L 299.714881 50.032064 
L 303.308791 50.032064 
L 306.902701 50.032064 
L 310.496611 50.032064 
L 314.090521 50.032064 
L 317.684431 50.032064 
L 321.278341 50.032064 
L 324.872251 50.032064 
L 328.466161 50.032064 
L 332.060071 50.032064 
L 335.653981 50.032064 
L 339.247891 50.032064 
L 342.841801 50.032064 
L 346.435711 50.032064 
L 350.029621 50.032064 
L 353.623531 50.032064 
L 357.217441 50.032064 
L 360.81135 50.032064 
L 364.40526 50.032064 
L 367.99917 50.032064 
L 371.59308 50.032064 
L 375.18699 50.032064 
L 378.7809 50.032064 
L 382.37481 50.032064 
L 385.96872 50.032064 
L 389.56263 50.032064 
L 393.15654 50.032064 
L 396.75045 50.032064 
L 400.34436 50.032064 
L 403.93827 50.032064 
L 407.53218 50.032064 
L 411.12609 50.032064 
L 414.72 50.032064 
" clip-path="url(#p11bbf1eed0)" style="fill: none; stroke: #2ca02c; stroke-width: 1.5; stroke-linecap: square"/>
   </g>
   <g id="line2d_27">
    <path d="M 57.6 50.032064 
L 61.132838 50.032064 
L 64.665675 50.032064 
L 68.198513 50.032064 
L 71.73135 50.032064 
L 75.264188 50.032064 
L 78.797026 50.032064 
L 82.329863 50.032064 
L 85.862701 50.032064 
L 89.395538 50.032064 
L 92.928376 50.032064 
L 96.461214 50.032064 
L 99.994051 50.032064 
L 103.526889 50.032064 
L 107.059726 50.032064 
L 110.592564 50.032064 
L 114.125402 50.032064 
L 117.658239 50.032064 
L 121.191077 50.032064 
L 124.723915 50.032064 
L 128.256752 50.032064 
L 131.78959 50.032064 
L 135.322427 50.032064 
L 138.855265 50.032064 
L 142.388103 50.032064 
L 145.92094 50.032064 
L 149.453778 50.032064 
L 152.986615 50.032064 
L 156.519453 50.032064 
L 160.052291 50.032064 
L 163.585128 50.032064 
L 167.117966 50.032064 
L 170.650803 50.032064 
L 174.183641 50.032064 
L 177.716479 50.032064 
L 181.249316 50.032064 
L 184.782154 50.032064 
L 188.314991 50.032064 
L 191.908362 50.032064 
L 195.501733 50.032064 
L 199.095104 50.032064 
L 202.688475 50.032064 
L 206.281846 50.032064 
L 209.875217 50.032064 
L 213.468588 50.032064 
L 217.061959 50.032064 
L 220.65533 50.032064 
L 224.248701 50.032064 
L 227.842072 50.032064 
L 231.435443 50.032064 
L 235.028814 50.032064 
L 238.622185 50.032064 
L 242.215556 50.032064 
L 245.808927 50.032064 
L 249.402298 50.032064 
L 252.995668 50.032064 
L 256.589039 50.032064 
L 260.18241 50.032064 
L 263.775781 50.032064 
L 267.369691 50.032064 
L 270.963601 50.032064 
L 274.557511 50.032064 
L 278.151421 50.032064 
L 281.745331 50.032064 
L 285.339241 50.032064 
L 288.933151 50.032064 
L 292.527061 50.032064 
L 296.120971 50.032064 
L 299.714881 50.032064 
L 303.308791 50.032064 
L 306.902701 50.032064 
L 310.496611 50.032064 
L 314.090521 50.032064 
L 317.684431 50.032064 
L 321.278341 50.032064 
L 324.872251 50.032064 
L 328.466161 50.032064 
L 332.060071 50.032064 
L 335.653981 50.032064 
L 339.247891 50.032064 
L 342.841801 50.032064 
L 346.435711 50.032064 
L 350.029621 50.032064 
L 353.623531 50.032064 
L 357.217441 50.032064 
L 360.81135 50.032064 
L 364.40526 50.032064 
L 367.99917 50.032064 
L 371.59308 50.032064 
L 375.18699 50.032064 
L 378.7809 50.032064 
L 382.37481 50.032064 
L 385.96872 50.032064 
L 389.56263 50.032064 
L 393.15654 50.032064 
L 396.75045 50.032064 
L 400.34436 50.032064 
L 403.93827 50.032064 
L 407.53218 50.032064 
L 411.12609 50.032064 
L 414.72 50.032064 
" clip-path="url(#p11bbf1eed0)" style="fill: none; stroke: #d62728; stroke-width: 1.5; stroke-linecap: square"/>
   </g>
   <g id="line2d_28">
    <path d="M 57.6 50.032064 
L 61.132838 50.032064 
L 64.665675 50.032064 
L 68.198513 50.032064 
L 71.73135 50.032064 
L 75.264188 50.032064 
L 78.797026 50.032064 
L 82.329863 50.032064 
L 85.862701 50.032064 
L 89.395538 50.032064 
L 92.928376 50.032064 
L 96.461214 50.032064 
L 99.994051 50.032064 
L 103.526889 50.032064 
L 107.059726 50.032064 
L 110.592564 50.032064 
L 114.125402 50.032064 
L 117.658239 50.032064 
L 121.191077 50.032064 
L 124.723915 50.032064 
L 128.256752 50.032064 
L 131.78959 50.032064 
L 135.322427 50.032064 
L 138.855265 50.032064 
L 142.388103 50.032064 
L 145.92094 50.032064 
L 149.453778 50.032064 
L 152.986615 50.032064 
L 156.519453 50.032064 
L 160.052291 50.032064 
L 163.585128 50.032064 
L 167.117966 50.032064 
L 170.650803 50.032064 
L 174.183641 50.032064 
L 177.716479 50.032064 
L 181.249316 50.032064 
L 184.782154 50.032064 
L 188.314991 50.032064 
L 191.908362 50.032063 
L 195.501733 50.03207 
L 199.095104 50.032109 
L 202.688475 50.032065 
L 206.281846 50.032151 
L 209.875217 50.03196 
L 213.468588 50.03212 
L 217.061959 50.032027 
L 220.65533 50.032037 
L 224.248701 50.03242 
L 227.842072 50.032121 
L 231.435443 50.032038 
L 235.028814 50.032974 
L 238.622185 50.031789 
L 242.215556 50.030911 
L 245.808927 50.03187 
L 249.402298 50.037773 
L 252.995668 50.033304 
L 256.589039 50.062171 
L 260.18241 50.024716 
L 263.775781 274.7628 
L 267.369691 49.8108 
L 270.963601 50.031628 
L 274.557511 50.038835 
L 278.151421 50.031903 
L 281.745331 50.032173 
L 285.339241 50.031985 
L 288.933151 50.032124 
L 292.527061 50.032064 
L 296.120971 50.032024 
L 299.714881 50.032064 
L 303.308791 50.032064 
L 306.902701 50.032064 
L 310.496611 50.032064 
L 314.090521 50.032064 
L 317.684431 50.032064 
L 321.278341 50.032064 
L 324.872251 50.032064 
L 328.466161 50.032064 
L 332.060071 50.032064 
L 335.653981 50.032064 
L 339.247891 50.032064 
L 342.841801 50.032064 
L 346.435711 50.032064 
L 350.029621 50.032064 
L 353.623531 50.032064 
L 357.217441 50.032064 
L 360.81135 50.032064 
L 364.40526 50.032064 
L 367.99917 50.032064 
L 371.59308 50.032064 
L 375.18699 50.032064 
L 378.7809 50.032064 
L 382.37481 50.032064 
L 385.96872 50.032064 
L 389.56263 50.032064 
L 393.15654 50.032064 
L 396.75045 50.032064 
L 400.34436 50.032064 
L 403.93827 50.032064 
L 407.53218 50.032064 
L 411.12609 50.032064 
L 414.72 50.032064 
" clip-path="url(#p11bbf1eed0)" style="fill: none; stroke: #9467bd; stroke-width: 1.5; stroke-linecap: square"/>
   </g>
   <g id="patch_3">
    <path d="M 57.6 286.0104 
L 57.6 38.5632 
" style="fill: none; stroke: #000000; stroke-width: 0.8; stroke-linejoin: miter; stroke-linecap: square"/>
   </g>
   <g id="patch_4">
    <path d="M 414.72 286.0104 
L 414.72 38.5632 
" style="fill: none; stroke: #000000; stroke-width: 0.8; stroke-linejoin: miter; stroke-linecap: square"/>
   </g>
   <g id="patch_5">
    <path d="M 57.6 286.0104 
L 414.72 286.0104 
" style="fill: none; stroke: #000000; stroke-width: 0.8; stroke-linejoin: miter; stroke-linecap: square"/>
   </g>
   <g id="patch_6">
    <path d="M 57.6 38.5632 
L 414.72 38.5632 
" style="fill: none; stroke: #000000; stroke-width: 0.8; stroke-linejoin: miter; stroke-linecap: square"/>
   </g>
   <g id="legend_1">
    <g id="patch_7">
     <path d="M 64.6 281.0104 
L 114.325 281.0104 
Q 116.325 281.0104 116.325 279.0104 
L 116.325 55.66665 
Q 116.325 53.66665 114.325 53.66665 
L 64.6 53.66665 
Q 62.6 53.66665 62.6 55.66665 
L 62.6 279.0104 
Q 62.6 281.0104 64.6 281.0104 
z
" style="fill: #ffffff; opacity: 0.8; stroke: #cccccc; stroke-linejoin: miter"/>
    </g>
    <g id="line2d_29">
     <path d="M 66.6 61.765087 
L 76.6 61.765087 
L 86.6 61.765087 
" style="fill: none; stroke: #1f77b4; stroke-width: 1.5; stroke-linecap: square"/>
    </g>
    <g id="text_12">
     <!-- 1_2 -->
     <g transform="translate(94.6 65.265087) scale(0.1 -0.1)">
      <defs>
       <path id="DejaVuSans-5f" d="M 3263 -1063 
L 3263 -1509 
L -63 -1509 
L -63 -1063 
L 3263 -1063 
z
" transform="scale(0.015625)"/>
      </defs>
      <use xlink:href="#DejaVuSans-31"/>
      <use xlink:href="#DejaVuSans-5f" x="63.623047"/>
      <use xlink:href="#DejaVuSans-32" x="113.623047"/>
     </g>
    </g>
    <g id="line2d_30">
     <path d="M 66.6 76.721337 
L 76.6 76.721337 
L 86.6 76.721337 
" style="fill: none; stroke: #ff7f0e; stroke-width: 1.5; stroke-linecap: square"/>
    </g>
    <g id="text_13">
     <!-- 1_3 -->
     <g transform="translate(94.6 80.221337) scale(0.1 -0.1)">
      <defs>
       <path id="DejaVuSans-33" d="M 2597 2516 
Q 3050 2419 3304 2112 
Q 3559 1806 3559 1356 
Q 3559 666 3084 287 
Q 2609 -91 1734 -91 
Q 1441 -91 1130 -33 
Q 819 25 488 141 
L 488 750 
Q 750 597 1062 519 
Q 1375 441 1716 441 
Q 2309 441 2620 675 
Q 2931 909 2931 1356 
Q 2931 1769 2642 2001 
Q 2353 2234 1838 2234 
L 1294 2234 
L 1294 2753 
L 1863 2753 
Q 2328 2753 2575 2939 
Q 2822 3125 2822 3475 
Q 2822 3834 2567 4026 
Q 2313 4219 1838 4219 
Q 1578 4219 1281 4162 
Q 984 4106 628 3988 
L 628 4550 
Q 988 4650 1302 4700 
Q 1616 4750 1894 4750 
Q 2613 4750 3031 4423 
Q 3450 4097 3450 3541 
Q 3450 3153 3228 2886 
Q 3006 2619 2597 2516 
z
" transform="scale(0.015625)"/>
      </defs>
      <use xlink:href="#DejaVuSans-31"/>
      <use xlink:href="#DejaVuSans-5f" x="63.623047"/>
      <use xlink:href="#DejaVuSans-33" x="113.623047"/>
     </g>
    </g>
    <g id="line2d_31">
     <path d="M 66.6 91.677587 
L 76.6 91.677587 
L 86.6 91.677587 
" style="fill: none; stroke: #2ca02c; stroke-width: 1.5; stroke-linecap: square"/>
    </g>
    <g id="text_14">
     <!-- 1_4 -->
     <g transform="translate(94.6 95.177587) scale(0.1 -0.1)">
      <use xlink:href="#DejaVuSans-31"/>
      <use xlink:href="#DejaVuSans-5f" x="63.623047"/>
      <use xlink:href="#DejaVuSans-34" x="113.623047"/>
     </g>
    </g>
    <g id="line2d_32">
     <path d="M 66.6 106.633837 
L 76.6 106.633837 
L 86.6 106.633837 
" style="fill: none; stroke: #d62728; stroke-width: 1.5; stroke-linecap: square"/>
    </g>
    <g id="text_15">
     <!-- 1_5 -->
     <g transform="translate(94.6 110.133837) scale(0.1 -0.1)">
      <defs>
       <path id="DejaVuSans-35" d="M 691 4666 
L 3169 4666 
L 3169 4134 
L 1269 4134 
L 1269 2991 
Q 1406 3038 1543 3061 
Q 1681 3084 1819 3084 
Q 2600 3084 3056 2656 
Q 3513 2228 3513 1497 
Q 3513 744 3044 326 
Q 2575 -91 1722 -91 
Q 1428 -91 1123 -41 
Q 819 9 494 109 
L 494 744 
Q 775 591 1075 516 
Q 1375 441 1709 441 
Q 2250 441 2565 725 
Q 2881 1009 2881 1497 
Q 2881 1984 2565 2268 
Q 2250 2553 1709 2553 
Q 1456 2553 1204 2497 
Q 953 2441 691 2322 
L 691 4666 
z
" transform="scale(0.015625)"/>
      </defs>
      <use xlink:href="#DejaVuSans-31"/>
      <use xlink:href="#DejaVuSans-5f" x="63.623047"/>
      <use xlink:href="#DejaVuSans-35" x="113.623047"/>
     </g>
    </g>
    <g id="line2d_33">
     <path d="M 66.6 121.590087 
L 76.6 121.590087 
L 86.6 121.590087 
" style="fill: none; stroke: #9467bd; stroke-width: 1.5; stroke-linecap: square"/>
    </g>
    <g id="text_16">
     <!-- 1_6 -->
     <g transform="translate(94.6 125.090087) scale(0.1 -0.1)">
      <use xlink:href="#DejaVuSans-31"/>
      <use xlink:href="#DejaVuSans-5f" x="63.623047"/>
      <use xlink:href="#DejaVuSans-36" x="113.623047"/>
     </g>
    </g>
    <g id="line2d_34">
     <path d="M 66.6 136.546337 
L 76.6 136.546337 
L 86.6 136.546337 
" style="fill: none; stroke: #8c564b; stroke-width: 1.5; stroke-linecap: square"/>
    </g>
    <g id="text_17">
     <!-- 2_3 -->
     <g transform="translate(94.6 140.046337) scale(0.1 -0.1)">
      <use xlink:href="#DejaVuSans-32"/>
      <use xlink:href="#DejaVuSans-5f" x="63.623047"/>
      <use xlink:href="#DejaVuSans-33" x="113.623047"/>
     </g>
    </g>
    <g id="line2d_35">
     <path d="M 66.6 151.502587 
L 76.6 151.502587 
L 86.6 151.502587 
" style="fill: none; stroke: #e377c2; stroke-width: 1.5; stroke-linecap: square"/>
    </g>
    <g id="text_18">
     <!-- 2_4 -->
     <g transform="translate(94.6 155.002587) scale(0.1 -0.1)">
      <use xlink:href="#DejaVuSans-32"/>
      <use xlink:href="#DejaVuSans-5f" x="63.623047"/>
      <use xlink:href="#DejaVuSans-34" x="113.623047"/>
     </g>
    </g>
    <g id="line2d_36">
     <path d="M 66.6 166.458837 
L 76.6 166.458837 
L 86.6 166.458837 
" style="fill: none; stroke: #7f7f7f; stroke-width: 1.5; stroke-linecap: square"/>
    </g>
    <g id="text_19">
     <!-- 2_5 -->
     <g transform="translate(94.6 169.958837) scale(0.1 -0.1)">
      <use xlink:href="#DejaVuSans-32"/>
      <use xlink:href="#DejaVuSans-5f" x="63.623047"/>
      <use xlink:href="#DejaVuSans-35" x="113.623047"/>
     </g>
    </g>
    <g id="line2d_37">
     <path d="M 66.6 181.415087 
L 76.6 181.415087 
L 86.6 181.415087 
" style="fill: none; stroke: #bcbd22; stroke-width: 1.5; stroke-linecap: square"/>
    </g>
    <g id="text_20">
     <!-- 2_6 -->
     <g transform="translate(94.6 184.915087) scale(0.1 -0.1)">
      <use xlink:href="#DejaVuSans-32"/>
      <use xlink:href="#DejaVuSans-5f" x="63.623047"/>
      <use xlink:href="#DejaVuSans-36" x="113.623047"/>
     </g>
    </g>
    <g id="line2d_38">
     <path d="M 66.6 196.371337 
L 76.6 196.371337 
L 86.6 196.371337 
" style="fill: none; stroke: #17becf; stroke-width: 1.5; stroke-linecap: square"/>
    </g>
    <g id="text_21">
     <!-- 3_4 -->
     <g transform="translate(94.6 199.871337) scale(0.1 -0.1)">
      <use xlink:href="#DejaVuSans-33"/>
      <use xlink:href="#DejaVuSans-5f" x="63.623047"/>
      <use xlink:href="#DejaVuSans-34" x="113.623047"/>
     </g>
    </g>
    <g id="line2d_39">
     <path d="M 66.6 211.327587 
L 76.6 211.327587 
L 86.6 211.327587 
" style="fill: none; stroke: #1f77b4; stroke-width: 1.5; stroke-linecap: square"/>
    </g>
    <g id="text_22">
     <!-- 3_5 -->
     <g transform="translate(94.6 214.827587) scale(0.1 -0.1)">
      <use xlink:href="#DejaVuSans-33"/>
      <use xlink:href="#DejaVuSans-5f" x="63.623047"/>
      <use xlink:href="#DejaVuSans-35" x="113.623047"/>
     </g>
    </g>
    <g id="line2d_40">
     <path d="M 66.6 226.283837 
L 76.6 226.283837 
L 86.6 226.283837 
" style="fill: none; stroke: #ff7f0e; stroke-width: 1.5; stroke-linecap: square"/>
    </g>
    <g id="text_23">
     <!-- 3_6 -->
     <g transform="translate(94.6 229.783837) scale(0.1 -0.1)">
      <use xlink:href="#DejaVuSans-33"/>
      <use xlink:href="#DejaVuSans-5f" x="63.623047"/>
      <use xlink:href="#DejaVuSans-36" x="113.623047"/>
     </g>
    </g>
    <g id="line2d_41">
     <path d="M 66.6 241.240087 
L 76.6 241.240087 
L 86.6 241.240087 
" style="fill: none; stroke: #2ca02c; stroke-width: 1.5; stroke-linecap: square"/>
    </g>
    <g id="text_24">
     <!-- 4_5 -->
     <g transform="translate(94.6 244.740087) scale(0.1 -0.1)">
      <use xlink:href="#DejaVuSans-34"/>
      <use xlink:href="#DejaVuSans-5f" x="63.623047"/>
      <use xlink:href="#DejaVuSans-35" x="113.623047"/>
     </g>
    </g>
    <g id="line2d_42">
     <path d="M 66.6 256.196337 
L 76.6 256.196337 
L 86.6 256.196337 
" style="fill: none; stroke: #d62728; stroke-width: 1.5; stroke-linecap: square"/>
    </g>
    <g id="text_25">
     <!-- 4_6 -->
     <g transform="translate(94.6 259.696337) scale(0.1 -0.1)">
      <use xlink:href="#DejaVuSans-34"/>
      <use xlink:href="#DejaVuSans-5f" x="63.623047"/>
      <use xlink:href="#DejaVuSans-36" x="113.623047"/>
     </g>
    </g>
    <g id="line2d_43">
     <path d="M 66.6 271.152587 
L 76.6 271.152587 
L 86.6 271.152587 
" style="fill: none; stroke: #9467bd; stroke-width: 1.5; stroke-linecap: square"/>
    </g>
    <g id="text_26">
     <!-- 5_6 -->
     <g transform="translate(94.6 274.652587) scale(0.1 -0.1)">
      <use xlink:href="#DejaVuSans-35"/>
      <use xlink:href="#DejaVuSans-5f" x="63.623047"/>
      <use xlink:href="#DejaVuSans-36" x="113.623047"/>
     </g>
    </g>
   </g>
  </g>
 </g>
 <defs>
  <clipPath id="p11bbf1eed0">
   <rect x="57.6" y="38.5632" width="357.12" height="247.4472"/>
  </clipPath>
 </defs>
</svg>
