<?xml version="1.0" encoding="utf-8" standalone="no"?>
<!DOCTYPE svg PUBLIC "-//W3C//DTD SVG 1.1//EN"
  "http://www.w3.org/Graphics/SVG/1.1/DTD/svg11.dtd">
<svg xmlns:xlink="http://www.w3.org/1999/xlink" width="460.8pt" height="321.36pt" viewBox="0 0 460.8 321.36" xmlns="http://www.w3.org/2000/svg" version="1.1">
 <metadata>
  <rdf:RDF xmlns:dc="http://purl.org/dc/elements/1.1/" xmlns:cc="http://creativecommons.org/ns#" xmlns:rdf="http://www.w3.org/1999/02/22-rdf-syntax-ns#">
   <cc:Work>
    <dc:type rdf:resource="http://purl.org/dc/dcmitype/StillImage"/>
    <dc:date>2023-10-30T15:59:01.053932</dc:date>
    <dc:format>image/svg+xml</dc:format>
    <dc:creator>
     <cc:Agent>
      <dc:title>Matplotlib v3.7.1, https://matplotlib.org/</dc:title>
     </cc:Agent>
    </dc:creator>
   </cc:Work>
  </rdf:RDF>
 </metadata>
 <defs>
  <style type="text/css">*{stroke-linejoin: round; stroke-linecap: butt}</style>
 </defs>
 <g id="figure_1">
  <g id="patch_1">
   <path d="M 0 321.36 
L 460.8 321.36 
L 460.8 0 
L 0 0 
z
" style="fill: #ffffff"/>
  </g>
  <g id="axes_1">
   <g id="patch_2">
    <path d="M 57.6 286.0104 
L 414.72 286.0104 
L 414.72 38.5632 
L 57.6 38.5632 
z
" style="fill: #ffffff"/>
   </g>
   <g id="matplotlib.axis_1">
    <g id="xtick_1">
     <g id="line2d_1">
      <defs>
       <path id="mc2c4250cdf" d="M 0 0 
L 0 3.5 
" style="stroke: #000000; stroke-width: 0.8"/>
      </defs>
      <g>
       <use xlink:href="#mc2c4250cdf" x="106.298182" y="286.0104" style="stroke: #000000; stroke-width: 0.8"/>
      </g>
     </g>
     <g id="text_1">
      <!-- −4 -->
      <g transform="translate(98.927088 300.608837) scale(0.1 -0.1)">
       <defs>
        <path id="DejaVuSans-2212" d="M 678 2272 
L 4684 2272 
L 4684 1741 
L 678 1741 
L 678 2272 
z
" transform="scale(0.015625)"/>
        <path id="DejaVuSans-34" d="M 2419 4116 
L 825 1625 
L 2419 1625 
L 2419 4116 
z
M 2253 4666 
L 3047 4666 
L 3047 1625 
L 3713 1625 
L 3713 1100 
L 3047 1100 
L 3047 0 
L 2419 0 
L 2419 1100 
L 313 1100 
L 313 1709 
L 2253 4666 
z
" transform="scale(0.015625)"/>
       </defs>
       <use xlink:href="#DejaVuSans-2212"/>
       <use xlink:href="#DejaVuSans-34" x="83.789062"/>
      </g>
     </g>
    </g>
    <g id="xtick_2">
     <g id="line2d_2">
      <g>
       <use xlink:href="#mc2c4250cdf" x="171.229091" y="286.0104" style="stroke: #000000; stroke-width: 0.8"/>
      </g>
     </g>
     <g id="text_2">
      <!-- −2 -->
      <g transform="translate(163.857997 300.608837) scale(0.1 -0.1)">
       <defs>
        <path id="DejaVuSans-32" d="M 1228 531 
L 3431 531 
L 3431 0 
L 469 0 
L 469 531 
Q 828 903 1448 1529 
Q 2069 2156 2228 2338 
Q 2531 2678 2651 2914 
Q 2772 3150 2772 3378 
Q 2772 3750 2511 3984 
Q 2250 4219 1831 4219 
Q 1534 4219 1204 4116 
Q 875 4013 500 3803 
L 500 4441 
Q 881 4594 1212 4672 
Q 1544 4750 1819 4750 
Q 2544 4750 2975 4387 
Q 3406 4025 3406 3419 
Q 3406 3131 3298 2873 
Q 3191 2616 2906 2266 
Q 2828 2175 2409 1742 
Q 1991 1309 1228 531 
z
" transform="scale(0.015625)"/>
       </defs>
       <use xlink:href="#DejaVuSans-2212"/>
       <use xlink:href="#DejaVuSans-32" x="83.789062"/>
      </g>
     </g>
    </g>
    <g id="xtick_3">
     <g id="line2d_3">
      <g>
       <use xlink:href="#mc2c4250cdf" x="236.16" y="286.0104" style="stroke: #000000; stroke-width: 0.8"/>
      </g>
     </g>
     <g id="text_3">
      <!-- 0 -->
      <g transform="translate(232.97875 300.608837) scale(0.1 -0.1)">
       <defs>
        <path id="DejaVuSans-30" d="M 2034 4250 
Q 1547 4250 1301 3770 
Q 1056 3291 1056 2328 
Q 1056 1369 1301 889 
Q 1547 409 2034 409 
Q 2525 409 2770 889 
Q 3016 1369 3016 2328 
Q 3016 3291 2770 3770 
Q 2525 4250 2034 4250 
z
M 2034 4750 
Q 2819 4750 3233 4129 
Q 3647 3509 3647 2328 
Q 3647 1150 3233 529 
Q 2819 -91 2034 -91 
Q 1250 -91 836 529 
Q 422 1150 422 2328 
Q 422 3509 836 4129 
Q 1250 4750 2034 4750 
z
" transform="scale(0.015625)"/>
       </defs>
       <use xlink:href="#DejaVuSans-30"/>
      </g>
     </g>
    </g>
    <g id="xtick_4">
     <g id="line2d_4">
      <g>
       <use xlink:href="#mc2c4250cdf" x="301.090909" y="286.0104" style="stroke: #000000; stroke-width: 0.8"/>
      </g>
     </g>
     <g id="text_4">
      <!-- 2 -->
      <g transform="translate(297.909659 300.608837) scale(0.1 -0.1)">
       <use xlink:href="#DejaVuSans-32"/>
      </g>
     </g>
    </g>
    <g id="xtick_5">
     <g id="line2d_5">
      <g>
       <use xlink:href="#mc2c4250cdf" x="366.021818" y="286.0104" style="stroke: #000000; stroke-width: 0.8"/>
      </g>
     </g>
     <g id="text_5">
      <!-- 4 -->
      <g transform="translate(362.840568 300.608837) scale(0.1 -0.1)">
       <use xlink:href="#DejaVuSans-34"/>
      </g>
     </g>
    </g>
    <g id="text_6">
     <!-- E -->
     <g transform="translate(233.000625 314.286962) scale(0.1 -0.1)">
      <defs>
       <path id="DejaVuSans-45" d="M 628 4666 
L 3578 4666 
L 3578 4134 
L 1259 4134 
L 1259 2753 
L 3481 2753 
L 3481 2222 
L 1259 2222 
L 1259 531 
L 3634 531 
L 3634 0 
L 628 0 
L 628 4666 
z
" transform="scale(0.015625)"/>
      </defs>
      <use xlink:href="#DejaVuSans-45"/>
     </g>
    </g>
   </g>
   <g id="matplotlib.axis_2">
    <g id="ytick_1">
     <g id="line2d_6">
      <defs>
       <path id="mc0249b123a" d="M 0 0 
L -3.5 0 
" style="stroke: #000000; stroke-width: 0.8"/>
      </defs>
      <g>
       <use xlink:href="#mc0249b123a" x="57.6" y="274.861735" style="stroke: #000000; stroke-width: 0.8"/>
      </g>
     </g>
     <g id="text_7">
      <!-- 0.0 -->
      <g transform="translate(34.696875 278.660953) scale(0.1 -0.1)">
       <defs>
        <path id="DejaVuSans-2e" d="M 684 794 
L 1344 794 
L 1344 0 
L 684 0 
L 684 794 
z
" transform="scale(0.015625)"/>
       </defs>
       <use xlink:href="#DejaVuSans-30"/>
       <use xlink:href="#DejaVuSans-2e" x="63.623047"/>
       <use xlink:href="#DejaVuSans-30" x="95.410156"/>
      </g>
     </g>
    </g>
    <g id="ytick_2">
     <g id="line2d_7">
      <g>
       <use xlink:href="#mc0249b123a" x="57.6" y="231.293263" style="stroke: #000000; stroke-width: 0.8"/>
      </g>
     </g>
     <g id="text_8">
      <!-- 0.2 -->
      <g transform="translate(34.696875 235.092482) scale(0.1 -0.1)">
       <use xlink:href="#DejaVuSans-30"/>
       <use xlink:href="#DejaVuSans-2e" x="63.623047"/>
       <use xlink:href="#DejaVuSans-32" x="95.410156"/>
      </g>
     </g>
    </g>
    <g id="ytick_3">
     <g id="line2d_8">
      <g>
       <use xlink:href="#mc0249b123a" x="57.6" y="187.724791" style="stroke: #000000; stroke-width: 0.8"/>
      </g>
     </g>
     <g id="text_9">
      <!-- 0.4 -->
      <g transform="translate(34.696875 191.52401) scale(0.1 -0.1)">
       <use xlink:href="#DejaVuSans-30"/>
       <use xlink:href="#DejaVuSans-2e" x="63.623047"/>
       <use xlink:href="#DejaVuSans-34" x="95.410156"/>
      </g>
     </g>
    </g>
    <g id="ytick_4">
     <g id="line2d_9">
      <g>
       <use xlink:href="#mc0249b123a" x="57.6" y="144.15632" style="stroke: #000000; stroke-width: 0.8"/>
      </g>
     </g>
     <g id="text_10">
      <!-- 0.6 -->
      <g transform="translate(34.696875 147.955539) scale(0.1 -0.1)">
       <defs>
        <path id="DejaVuSans-36" d="M 2113 2584 
Q 1688 2584 1439 2293 
Q 1191 2003 1191 1497 
Q 1191 994 1439 701 
Q 1688 409 2113 409 
Q 2538 409 2786 701 
Q 3034 994 3034 1497 
Q 3034 2003 2786 2293 
Q 2538 2584 2113 2584 
z
M 3366 4563 
L 3366 3988 
Q 3128 4100 2886 4159 
Q 2644 4219 2406 4219 
Q 1781 4219 1451 3797 
Q 1122 3375 1075 2522 
Q 1259 2794 1537 2939 
Q 1816 3084 2150 3084 
Q 2853 3084 3261 2657 
Q 3669 2231 3669 1497 
Q 3669 778 3244 343 
Q 2819 -91 2113 -91 
Q 1303 -91 875 529 
Q 447 1150 447 2328 
Q 447 3434 972 4092 
Q 1497 4750 2381 4750 
Q 2619 4750 2861 4703 
Q 3103 4656 3366 4563 
z
" transform="scale(0.015625)"/>
       </defs>
       <use xlink:href="#DejaVuSans-30"/>
       <use xlink:href="#DejaVuSans-2e" x="63.623047"/>
       <use xlink:href="#DejaVuSans-36" x="95.410156"/>
      </g>
     </g>
    </g>
    <g id="ytick_5">
     <g id="line2d_10">
      <g>
       <use xlink:href="#mc0249b123a" x="57.6" y="100.587848" style="stroke: #000000; stroke-width: 0.8"/>
      </g>
     </g>
     <g id="text_11">
      <!-- 0.8 -->
      <g transform="translate(34.696875 104.387067) scale(0.1 -0.1)">
       <defs>
        <path id="DejaVuSans-38" d="M 2034 2216 
Q 1584 2216 1326 1975 
Q 1069 1734 1069 1313 
Q 1069 891 1326 650 
Q 1584 409 2034 409 
Q 2484 409 2743 651 
Q 3003 894 3003 1313 
Q 3003 1734 2745 1975 
Q 2488 2216 2034 2216 
z
M 1403 2484 
Q 997 2584 770 2862 
Q 544 3141 544 3541 
Q 544 4100 942 4425 
Q 1341 4750 2034 4750 
Q 2731 4750 3128 4425 
Q 3525 4100 3525 3541 
Q 3525 3141 3298 2862 
Q 3072 2584 2669 2484 
Q 3125 2378 3379 2068 
Q 3634 1759 3634 1313 
Q 3634 634 3220 271 
Q 2806 -91 2034 -91 
Q 1263 -91 848 271 
Q 434 634 434 1313 
Q 434 1759 690 2068 
Q 947 2378 1403 2484 
z
M 1172 3481 
Q 1172 3119 1398 2916 
Q 1625 2713 2034 2713 
Q 2441 2713 2670 2916 
Q 2900 3119 2900 3481 
Q 2900 3844 2670 4047 
Q 2441 4250 2034 4250 
Q 1625 4250 1398 4047 
Q 1172 3844 1172 3481 
z
" transform="scale(0.015625)"/>
       </defs>
       <use xlink:href="#DejaVuSans-30"/>
       <use xlink:href="#DejaVuSans-2e" x="63.623047"/>
       <use xlink:href="#DejaVuSans-38" x="95.410156"/>
      </g>
     </g>
    </g>
    <g id="ytick_6">
     <g id="line2d_11">
      <g>
       <use xlink:href="#mc0249b123a" x="57.6" y="57.019377" style="stroke: #000000; stroke-width: 0.8"/>
      </g>
     </g>
     <g id="text_12">
      <!-- 1.0 -->
      <g transform="translate(34.696875 60.818596) scale(0.1 -0.1)">
       <defs>
        <path id="DejaVuSans-31" d="M 794 531 
L 1825 531 
L 1825 4091 
L 703 3866 
L 703 4441 
L 1819 4666 
L 2450 4666 
L 2450 531 
L 3481 531 
L 3481 0 
L 794 0 
L 794 531 
z
" transform="scale(0.015625)"/>
       </defs>
       <use xlink:href="#DejaVuSans-31"/>
       <use xlink:href="#DejaVuSans-2e" x="63.623047"/>
       <use xlink:href="#DejaVuSans-30" x="95.410156"/>
      </g>
     </g>
    </g>
    <g id="text_13">
     <!-- DOS -->
     <g transform="translate(28.617188 173.246956) rotate(-90) scale(0.1 -0.1)">
      <defs>
       <path id="DejaVuSans-44" d="M 1259 4147 
L 1259 519 
L 2022 519 
Q 2988 519 3436 956 
Q 3884 1394 3884 2338 
Q 3884 3275 3436 3711 
Q 2988 4147 2022 4147 
L 1259 4147 
z
M 628 4666 
L 1925 4666 
Q 3281 4666 3915 4102 
Q 4550 3538 4550 2338 
Q 4550 1131 3912 565 
Q 3275 0 1925 0 
L 628 0 
L 628 4666 
z
" transform="scale(0.015625)"/>
       <path id="DejaVuSans-4f" d="M 2522 4238 
Q 1834 4238 1429 3725 
Q 1025 3213 1025 2328 
Q 1025 1447 1429 934 
Q 1834 422 2522 422 
Q 3209 422 3611 934 
Q 4013 1447 4013 2328 
Q 4013 3213 3611 3725 
Q 3209 4238 2522 4238 
z
M 2522 4750 
Q 3503 4750 4090 4092 
Q 4678 3434 4678 2328 
Q 4678 1225 4090 567 
Q 3503 -91 2522 -91 
Q 1538 -91 948 565 
Q 359 1222 359 2328 
Q 359 3434 948 4092 
Q 1538 4750 2522 4750 
z
" transform="scale(0.015625)"/>
       <path id="DejaVuSans-53" d="M 3425 4513 
L 3425 3897 
Q 3066 4069 2747 4153 
Q 2428 4238 2131 4238 
Q 1616 4238 1336 4038 
Q 1056 3838 1056 3469 
Q 1056 3159 1242 3001 
Q 1428 2844 1947 2747 
L 2328 2669 
Q 3034 2534 3370 2195 
Q 3706 1856 3706 1288 
Q 3706 609 3251 259 
Q 2797 -91 1919 -91 
Q 1588 -91 1214 -16 
Q 841 59 441 206 
L 441 856 
Q 825 641 1194 531 
Q 1563 422 1919 422 
Q 2459 422 2753 634 
Q 3047 847 3047 1241 
Q 3047 1584 2836 1778 
Q 2625 1972 2144 2069 
L 1759 2144 
Q 1053 2284 737 2584 
Q 422 2884 422 3419 
Q 422 4038 858 4394 
Q 1294 4750 2059 4750 
Q 2388 4750 2728 4690 
Q 3069 4631 3425 4513 
z
" transform="scale(0.015625)"/>
      </defs>
      <use xlink:href="#DejaVuSans-44"/>
      <use xlink:href="#DejaVuSans-4f" x="77.001953"/>
      <use xlink:href="#DejaVuSans-53" x="155.712891"/>
     </g>
    </g>
   </g>
   <g id="line2d_12">
    <path d="M 73.832727 274.7628 
L 112.791273 274.579408 
L 124.478836 274.335277 
L 129.673309 274.032792 
L 132.270545 273.705451 
L 133.893818 273.327839 
L 135.192436 272.784133 
L 135.841745 272.335011 
L 136.491055 271.635818 
L 137.140364 270.39801 
L 137.465018 269.339332 
L 137.789673 267.634125 
L 138.114327 264.487562 
L 138.438982 257.363245 
L 139.088291 222.573923 
L 139.412945 215.358064 
L 139.7376 212.083419 
L 140.062255 210.313864 
L 141.036218 207.53007 
L 141.360873 207.548737 
L 141.685527 206.250646 
L 142.010182 206.94698 
L 142.334836 205.430675 
L 142.659491 206.528716 
L 142.984145 204.830473 
L 143.3088 205.755285 
L 143.633455 204.878446 
L 143.958109 204.844813 
L 144.282764 205.669209 
L 144.607418 203.102242 
L 144.932073 205.079348 
L 145.256727 204.494438 
L 145.581382 202.900801 
L 145.906036 204.908434 
L 146.230691 203.115473 
L 146.555345 202.817474 
L 146.88 204.268611 
L 147.204655 202.761173 
L 147.529309 202.198525 
L 147.853964 203.527366 
L 148.178618 203.511814 
L 148.503273 200.279672 
L 148.827927 203.218731 
L 149.152582 203.403696 
L 149.477236 200.210194 
L 150.126545 203.235473 
L 150.4512 201.216085 
L 150.775855 199.957686 
L 151.425164 203.125582 
L 151.749818 198.935481 
L 152.723782 202.447618 
L 153.048436 198.038467 
L 153.373091 199.121999 
L 153.697745 201.387007 
L 154.0224 201.422374 
L 154.347055 197.128642 
L 155.321018 201.505683 
L 155.645673 196.597498 
L 156.294982 198.815683 
L 156.619636 201.024401 
L 157.268945 194.985893 
L 157.5936 199.232234 
L 157.918255 198.231208 
L 158.242909 200.195241 
L 158.567564 194.08973 
L 159.216873 198.328699 
L 159.541527 198.878008 
L 159.866182 196.834159 
L 160.190836 193.596446 
L 160.515491 196.659818 
L 160.840145 197.098849 
L 161.1648 199.460583 
L 161.489455 192.85911 
L 161.814109 193.955584 
L 162.138764 196.396226 
L 162.463418 196.094642 
L 162.788073 198.727868 
L 163.112727 190.37509 
L 163.762036 195.948316 
L 164.086691 195.45062 
L 164.411345 196.727009 
L 164.736 190.996528 
L 165.060655 191.093396 
L 165.385309 195.364304 
L 165.709964 195.113326 
L 166.034618 195.203513 
L 166.359273 190.136637 
L 166.683927 190.724585 
L 167.008582 193.126426 
L 167.333236 193.758277 
L 167.657891 195.740596 
L 167.982545 188.685586 
L 168.3072 189.091231 
L 168.631855 192.377357 
L 168.956509 191.640272 
L 169.281164 194.234163 
L 169.605818 191.710738 
L 169.930473 184.524928 
L 170.255127 191.193196 
L 170.579782 190.907413 
L 171.229091 192.518759 
L 171.553745 185.65639 
L 171.8784 185.65564 
L 172.203055 191.068993 
L 172.527709 189.619749 
L 172.852364 191.420017 
L 173.501673 183.899144 
L 174.150982 189.018896 
L 174.475636 189.865094 
L 174.800291 189.272493 
L 175.124945 182.67582 
L 175.774255 186.116165 
L 176.098909 186.746252 
L 176.423564 189.882329 
L 176.748218 185.812806 
L 177.072873 179.609716 
L 177.397527 184.006032 
L 177.722182 185.24104 
L 178.046836 184.740637 
L 178.371491 188.822924 
L 179.0208 177.716753 
L 179.345455 182.689378 
L 179.670109 184.15751 
L 179.994764 182.603301 
L 180.319418 186.797635 
L 180.644073 179.313988 
L 180.968727 175.507329 
L 181.293382 180.956237 
L 181.618036 182.63744 
L 181.942691 180.546139 
L 182.267345 184.370848 
L 182.592 177.119434 
L 182.916655 172.843645 
L 183.241309 179.401279 
L 183.565964 180.364674 
L 183.890618 178.74921 
L 184.215273 181.742199 
L 184.864582 170.002789 
L 185.189236 177.46808 
L 185.513891 177.383559 
L 185.838545 176.784482 
L 186.1632 178.88918 
L 186.812509 166.841615 
L 187.137164 174.497025 
L 187.461818 174.206265 
L 187.786473 174.20971 
L 188.111127 175.912787 
L 188.760436 163.045932 
L 189.085091 170.691747 
L 189.409745 171.166298 
L 189.7344 170.635731 
L 190.059055 172.716751 
L 190.383709 167.993642 
L 190.708364 158.344134 
L 191.033018 166.257413 
L 191.357673 167.90883 
L 191.682327 165.906 
L 192.006982 169.078677 
L 192.331636 165.783496 
L 192.656291 153.012258 
L 192.980945 160.704921 
L 193.3056 163.681167 
L 193.630255 160.399746 
L 193.954909 164.675134 
L 194.279564 161.804966 
L 194.604218 148.565741 
L 195.253527 157.461113 
L 195.578182 154.679742 
L 195.902836 158.131726 
L 196.227491 156.665715 
L 196.552145 144.041983 
L 196.8768 141.925318 
L 197.201455 149.639444 
L 197.526109 148.252419 
L 197.850764 147.498785 
L 198.175418 150.381772 
L 198.500073 137.000097 
L 198.824727 128.947917 
L 199.149382 137.040473 
L 199.474036 138.237923 
L 199.798691 133.885249 
L 200.123345 138.116316 
L 200.448 127.169309 
L 200.772655 108.327782 
L 201.097309 116.471721 
L 201.421964 119.858635 
L 201.746618 111.293074 
L 202.071273 114.185151 
L 202.395927 103.258852 
L 202.720582 62.964082 
L 203.045236 65.900237 
L 203.369891 71.704988 
L 203.694545 49.8108 
L 204.0192 73.701572 
L 204.343855 70.191958 
L 204.668509 69.219345 
L 204.993164 110.058752 
L 205.317818 122.497343 
L 205.642473 121.506716 
L 205.967127 131.055492 
L 206.291782 129.995656 
L 206.616436 123.494506 
L 206.941091 142.550003 
L 207.265745 153.726824 
L 207.5904 152.148519 
L 207.915055 155.866998 
L 208.239709 157.938779 
L 208.564364 150.991195 
L 209.213673 172.073918 
L 209.538327 171.373458 
L 209.862982 173.628196 
L 210.187636 174.543824 
L 210.512291 171.869029 
L 210.836945 173.131104 
L 211.1616 184.485535 
L 211.486255 186.950843 
L 211.810909 186.460038 
L 212.135564 187.45708 
L 212.460218 187.37164 
L 212.784873 184.23973 
L 213.109527 195.049809 
L 213.434182 198.165828 
L 213.758836 197.568265 
L 214.083491 199.603267 
L 214.7328 196.388763 
L 215.057455 203.374951 
L 215.382109 207.48727 
L 215.706764 206.733503 
L 216.031418 209.761947 
L 216.356073 208.977777 
L 216.680727 203.496826 
L 217.005382 213.049817 
L 217.330036 216.096314 
L 217.654691 215.647212 
L 217.979345 216.10437 
L 218.304 218.03059 
L 218.628655 215.107375 
L 218.953309 217.87134 
L 219.277964 222.731157 
L 219.602618 225.075633 
L 219.927273 223.792776 
L 220.251927 225.533735 
L 220.576582 221.561583 
L 220.901236 225.71004 
L 221.225891 231.556107 
L 221.550545 230.978846 
L 221.8752 228.662811 
L 222.199855 233.84031 
L 222.524509 230.222039 
L 222.849164 232.619669 
L 223.173818 236.453759 
L 223.498473 236.198045 
L 223.823127 238.533889 
L 224.147782 239.505982 
L 224.472436 236.299455 
L 224.797091 237.742579 
L 225.121745 243.887198 
L 225.4464 243.551434 
L 226.095709 244.833583 
L 226.420364 241.16585 
L 226.745018 246.845595 
L 227.069673 249.636633 
L 227.394327 249.174695 
L 227.718982 249.176831 
L 228.043636 249.913016 
L 228.368291 249.510484 
L 229.0176 255.236495 
L 229.342255 253.450245 
L 229.666909 254.587514 
L 229.991564 256.955179 
L 230.316218 255.118216 
L 230.640873 258.427199 
L 230.965527 259.661408 
L 231.290182 258.739312 
L 231.614836 261.321347 
L 231.939491 261.528901 
L 232.264145 261.589667 
L 232.5888 263.246739 
L 232.913455 264.099151 
L 233.238109 265.72875 
L 233.562764 265.915268 
L 233.887418 266.390674 
L 234.212073 267.587223 
L 234.536727 267.847096 
L 235.186036 270.703702 
L 235.510691 270.345674 
L 236.16 271.522356 
L 236.484655 271.063534 
L 236.809309 270.345674 
L 237.133964 270.703702 
L 237.458618 269.545232 
L 237.783273 267.847096 
L 238.107927 267.587223 
L 238.432582 266.390674 
L 238.757236 265.915268 
L 239.081891 265.72875 
L 239.406545 264.099151 
L 239.7312 263.246739 
L 240.055855 261.589667 
L 240.380509 261.528901 
L 240.705164 261.321347 
L 241.029818 258.739312 
L 241.354473 259.661408 
L 241.679127 258.427199 
L 242.003782 255.118216 
L 242.328436 256.955179 
L 242.653091 254.587514 
L 242.977745 253.450245 
L 243.3024 255.236495 
L 243.951709 249.510484 
L 244.276364 249.913016 
L 244.601018 249.176831 
L 244.925673 249.174695 
L 245.250327 249.636633 
L 245.574982 246.845595 
L 245.899636 241.16585 
L 246.224291 244.833583 
L 246.548945 244.328533 
L 246.8736 243.551434 
L 247.198255 243.887198 
L 247.522909 237.742579 
L 247.847564 236.299455 
L 248.172218 239.505982 
L 248.496873 238.533889 
L 248.821527 236.198045 
L 249.146182 236.453759 
L 249.470836 232.619669 
L 249.795491 230.222039 
L 250.120145 233.84031 
L 250.4448 228.662811 
L 250.769455 230.978846 
L 251.094109 231.556107 
L 251.743418 221.561583 
L 252.068073 225.533735 
L 252.392727 223.792776 
L 252.717382 225.075633 
L 253.042036 222.731157 
L 253.366691 217.87134 
L 253.691345 215.107375 
L 254.016 218.03059 
L 254.340655 216.10437 
L 254.665309 215.647212 
L 254.989964 216.096314 
L 255.314618 213.049817 
L 255.639273 203.496826 
L 255.963927 208.977777 
L 256.288582 209.761947 
L 256.613236 206.733503 
L 256.937891 207.48727 
L 257.262545 203.374951 
L 257.5872 196.388763 
L 258.236509 199.603267 
L 258.561164 197.568265 
L 258.885818 198.165828 
L 259.210473 195.049809 
L 259.535127 184.23973 
L 259.859782 187.37164 
L 260.184436 187.45708 
L 260.509091 186.460038 
L 260.833745 186.950843 
L 261.1584 184.485535 
L 261.483055 173.131104 
L 261.807709 171.869029 
L 262.132364 174.543824 
L 262.457018 173.628196 
L 262.781673 171.373458 
L 263.106327 172.073918 
L 263.755636 150.991195 
L 264.080291 157.938779 
L 264.404945 155.866998 
L 264.7296 152.148519 
L 265.054255 153.726824 
L 265.378909 142.550003 
L 265.703564 123.494506 
L 266.028218 129.995656 
L 266.352873 131.055492 
L 266.677527 121.506716 
L 267.002182 122.497343 
L 267.326836 110.058752 
L 267.651491 69.219345 
L 267.976145 70.191958 
L 268.3008 73.701572 
L 268.625455 49.8108 
L 268.950109 71.704988 
L 269.274764 65.900237 
L 269.599418 62.964082 
L 269.924073 103.258852 
L 270.248727 114.185151 
L 270.573382 111.293074 
L 270.898036 119.858635 
L 271.222691 116.471721 
L 271.547345 108.327782 
L 271.872 127.169309 
L 272.196655 138.116316 
L 272.521309 133.885249 
L 272.845964 138.237923 
L 273.170618 137.040473 
L 273.495273 128.947917 
L 273.819927 137.000097 
L 274.144582 150.381772 
L 274.469236 147.498785 
L 274.793891 148.252419 
L 275.118545 149.639444 
L 275.4432 141.925318 
L 275.767855 144.041983 
L 276.092509 156.665715 
L 276.417164 158.131726 
L 276.741818 154.679742 
L 277.066473 157.461113 
L 277.715782 148.565741 
L 278.040436 161.804966 
L 278.365091 164.675134 
L 278.689745 160.399746 
L 279.0144 163.681167 
L 279.339055 160.704921 
L 279.663709 153.012258 
L 279.988364 165.783496 
L 280.313018 169.078677 
L 280.637673 165.906 
L 280.962327 167.90883 
L 281.286982 166.257413 
L 281.611636 158.344134 
L 281.936291 167.993642 
L 282.260945 172.716751 
L 282.5856 170.635731 
L 282.910255 171.166298 
L 283.234909 170.691747 
L 283.559564 163.045932 
L 284.208873 175.912787 
L 284.533527 174.20971 
L 284.858182 174.206265 
L 285.182836 174.497025 
L 285.507491 166.841615 
L 286.1568 178.88918 
L 286.481455 176.784482 
L 286.806109 177.383559 
L 287.130764 177.46808 
L 287.455418 170.002789 
L 287.780073 174.976685 
L 288.104727 181.742199 
L 288.429382 178.74921 
L 288.754036 180.364674 
L 289.078691 179.401279 
L 289.403345 172.843645 
L 289.728 177.119434 
L 290.052655 184.370848 
L 290.377309 180.546139 
L 290.701964 182.63744 
L 291.026618 180.956237 
L 291.351273 175.507329 
L 291.675927 179.313988 
L 292.000582 186.797635 
L 292.325236 182.603301 
L 292.649891 184.15751 
L 292.974545 182.689378 
L 293.2992 177.716753 
L 293.623855 182.201054 
L 293.948509 188.822924 
L 294.273164 184.740637 
L 294.597818 185.24104 
L 294.922473 184.006032 
L 295.247127 179.609716 
L 295.571782 185.812806 
L 295.896436 189.882329 
L 296.221091 186.746252 
L 296.545745 186.116165 
L 297.195055 182.67582 
L 297.519709 189.272493 
L 297.844364 189.865094 
L 298.169018 189.018896 
L 298.818327 183.899144 
L 299.467636 191.420017 
L 299.792291 189.619749 
L 300.116945 191.068993 
L 300.4416 185.65564 
L 300.766255 185.65639 
L 301.090909 192.518759 
L 301.740218 190.907413 
L 302.064873 191.193196 
L 302.389527 184.524928 
L 302.714182 191.710738 
L 303.038836 194.234163 
L 303.363491 191.640272 
L 303.688145 192.377357 
L 304.0128 189.091231 
L 304.337455 188.685586 
L 304.662109 195.740596 
L 304.986764 193.758277 
L 305.311418 193.126426 
L 305.636073 190.724585 
L 305.960727 190.136637 
L 306.285382 195.203513 
L 306.610036 195.113326 
L 306.934691 195.364304 
L 307.259345 191.093396 
L 307.584 190.996528 
L 307.908655 196.727009 
L 308.233309 195.45062 
L 308.557964 195.948316 
L 309.207273 190.37509 
L 309.531927 198.727868 
L 309.856582 196.094642 
L 310.181236 196.396226 
L 310.505891 193.955584 
L 310.830545 192.85911 
L 311.1552 199.460583 
L 311.479855 197.098849 
L 311.804509 196.659818 
L 312.129164 193.596446 
L 312.453818 196.834159 
L 312.778473 198.878008 
L 313.103127 198.328699 
L 313.752436 194.08973 
L 314.077091 200.195241 
L 314.401745 198.231208 
L 314.7264 199.232234 
L 315.051055 194.985893 
L 315.700364 201.024401 
L 316.025018 198.815683 
L 316.674327 196.597498 
L 316.998982 201.505683 
L 317.648291 198.739192 
L 317.972945 197.128642 
L 318.2976 201.422374 
L 318.622255 201.387007 
L 318.946909 199.121999 
L 319.271564 198.038467 
L 319.596218 202.447618 
L 320.570182 198.935481 
L 320.894836 203.125582 
L 321.544145 199.957686 
L 321.8688 201.216085 
L 322.193455 203.235473 
L 322.842764 200.210194 
L 323.167418 203.403696 
L 323.492073 203.218731 
L 323.816727 200.279672 
L 324.141382 203.511814 
L 324.466036 203.527366 
L 324.790691 202.198525 
L 325.115345 202.761173 
L 325.44 204.268611 
L 325.764655 202.817474 
L 326.089309 203.115473 
L 326.413964 204.908434 
L 326.738618 202.900801 
L 327.063273 204.494438 
L 327.387927 205.079348 
L 327.712582 203.102242 
L 328.037236 205.669209 
L 328.361891 204.844813 
L 328.686545 204.878446 
L 329.0112 205.755285 
L 329.335855 204.830473 
L 329.660509 206.528716 
L 329.985164 205.430675 
L 330.309818 206.94698 
L 330.634473 206.250646 
L 330.959127 207.548737 
L 331.283782 207.53007 
L 331.608436 208.291673 
L 332.257745 210.313864 
L 332.5824 212.083419 
L 332.907055 215.358064 
L 333.231709 222.573923 
L 333.881018 257.363245 
L 334.205673 264.487562 
L 334.530327 267.634125 
L 334.854982 269.339332 
L 335.504291 271.116705 
L 336.1536 272.028137 
L 336.802909 272.581614 
L 337.776873 273.097113 
L 339.075491 273.505075 
L 341.023418 273.854367 
L 344.269964 274.15809 
L 349.789091 274.399721 
L 360.178036 274.586802 
L 382.5792 274.723097 
L 398.487273 274.7628 
L 398.487273 274.7628 
" clip-path="url(#p4f38e7bcdf)" style="fill: none; stroke: #1f77b4; stroke-width: 1.5; stroke-linecap: square"/>
   </g>
   <g id="patch_3">
    <path d="M 57.6 286.0104 
L 57.6 38.5632 
" style="fill: none; stroke: #000000; stroke-width: 0.8; stroke-linejoin: miter; stroke-linecap: square"/>
   </g>
   <g id="patch_4">
    <path d="M 414.72 286.0104 
L 414.72 38.5632 
" style="fill: none; stroke: #000000; stroke-width: 0.8; stroke-linejoin: miter; stroke-linecap: square"/>
   </g>
   <g id="patch_5">
    <path d="M 57.6 286.0104 
L 414.72 286.0104 
" style="fill: none; stroke: #000000; stroke-width: 0.8; stroke-linejoin: miter; stroke-linecap: square"/>
   </g>
   <g id="patch_6">
    <path d="M 57.6 38.5632 
L 414.72 38.5632 
" style="fill: none; stroke: #000000; stroke-width: 0.8; stroke-linejoin: miter; stroke-linecap: square"/>
   </g>
  </g>
 </g>
 <defs>
  <clipPath id="p4f38e7bcdf">
   <rect x="57.6" y="38.5632" width="357.12" height="247.4472"/>
  </clipPath>
 </defs>
</svg>
